<?xml version="1.0" encoding="UTF-8" standalone="no"?>
<!-- Created with Inkscape (http://www.inkscape.org/) -->

<svg
   xmlns:dc="http://purl.org/dc/elements/1.1/"
   xmlns:cc="http://creativecommons.org/ns#"
   xmlns:rdf="http://www.w3.org/1999/02/22-rdf-syntax-ns#"
   xmlns:svg="http://www.w3.org/2000/svg"
   xmlns="http://www.w3.org/2000/svg"
   xmlns:sodipodi="http://sodipodi.sourceforge.net/DTD/sodipodi-0.dtd"
   xmlns:inkscape="http://www.inkscape.org/namespaces/inkscape"
   width="40mm"
   height="40mm"
   viewBox="0 0 40 40"
   version="1.1"
   id="svg8"
   sodipodi:docname="deadHead.svg"
   inkscape:version="0.92.4 (5da689c313, 2019-01-14)">
  <defs
     id="defs2" />
  <sodipodi:namedview
     id="base"
     pagecolor="#ffffff"
     bordercolor="#666666"
     borderopacity="1.0"
     inkscape:pageopacity="0.0"
     inkscape:pageshadow="2"
     inkscape:zoom="2"
     inkscape:cx="72.670963"
     inkscape:cy="116.60818"
     inkscape:document-units="mm"
     inkscape:current-layer="layer1"
     showgrid="false"
     inkscape:window-width="1920"
     inkscape:window-height="1001"
     inkscape:window-x="-9"
     inkscape:window-y="-9"
     inkscape:window-maximized="1" />
  <metadata
     id="metadata5">
    <rdf:RDF>
      <cc:Work
         rdf:about="">
        <dc:format>image/svg+xml</dc:format>
        <dc:type
           rdf:resource="http://purl.org/dc/dcmitype/StillImage" />
        <dc:title></dc:title>
      </cc:Work>
    </rdf:RDF>
  </metadata>
  <g
     inkscape:label="Camada 1"
     inkscape:groupmode="layer"
     id="layer1"
     transform="matrix(2,0,0,2.7,-40,-419)">
    <ellipse
       id="path21"
       cx="37.356892"
       cy="166.47501"
       rx="0.70109659"
       ry="1.1786439"
       style="fill:#c8beb7;stroke-width:0.03450951" />
    <ellipse
       id="path23"
       cx="31.327456"
       cy="166.50969"
       rx="1.6826319"
       ry="1.4906378"
       style="fill:#c8c4b7;stroke-width:0.03450951" />
    <path
       style="fill:none;stroke:#000000;stroke-width:0.03450951px;stroke-linecap:butt;stroke-linejoin:miter;stroke-opacity:1"
       d="m 27.261102,169.73363 c -8.833818,0 -3.926141,-6.86387 -3.084828,-7.14119"
       id="path27"
       inkscape:connector-curvature="0" />
    <path
       style="fill:none;stroke:#000000;stroke-width:0.03450951px;stroke-linecap:butt;stroke-linejoin:miter;stroke-opacity:1"
       d="m 27.261102,169.73363 c 7.712058,0.13866 5.889209,0.55465 8.833816,-0.0694 4.627239,-3.6746 0.280438,-7.41853 0.140218,-7.07186"
       id="path29"
       inkscape:connector-curvature="0" />
    <path
       style="fill:none;stroke:#000000;stroke-width:0.03450951px;stroke-linecap:butt;stroke-linejoin:miter;stroke-opacity:1"
       d="m 36.235135,162.59244 c 1.121758,-2.28796 -0.981533,-5.4079 -2.804382,-5.6159 -1.822855,-0.208 1.542407,1.66396 -0.560882,1.38664 -2.103291,-0.27733 -1.121757,0.41599 -0.140219,1.10931 0.981533,0.69333 0.701101,2.42662 -0.841314,2.35729 -1.542415,-0.0694 -4.346798,-0.0694 -4.346798,-0.0694 0,0 -4.487019,-2.84262 -1.121757,-3.88259 3.365262,-1.03999 -3.785918,0.76264 -0.841313,-0.62399 2.944607,-1.38665 3.92614,-2.98128 -0.701101,-0.83199 -4.627236,2.14929 -0.701095,6.17056 -0.701095,6.17056"
       id="path33"
       inkscape:connector-curvature="0" />
    <g
       id="g3840"
       transform="matrix(0.13828263,0,0,0.12571838,-18.380952,135.93361)" />
    <path
       style="fill:#e6e6e6;fill-opacity:1;stroke-width:0.05120357"
       d="m 32.601312,169.89773 c -0.875991,-0.0604 -1.977987,-0.10547 -5.457979,-0.22315 -1.86466,-0.0631 -2.592353,-0.19301 -3.504879,-0.62589 -0.451761,-0.2143 -1.024952,-0.71594 -1.219265,-1.06706 -0.623182,-1.12608 -0.27942,-2.80656 0.911303,-4.45492 0.175199,-0.24253 0.445229,-0.556 0.600066,-0.6966 l 0.281522,-0.25562 -0.157694,-0.18535 c -0.305714,-0.35932 -0.602983,-0.79337 -0.84072,-1.22753 -0.690014,-1.26015 -0.720011,-2.43629 -0.08505,-3.33459 0.44521,-0.62986 1.010334,-1.02062 2.309276,-1.59679 1.091797,-0.48429 1.883679,-0.76215 2.278313,-0.79945 0.269682,-0.0255 0.283279,-0.0213 0.283279,0.0879 0,0.26411 -0.979588,0.95701 -2.285857,1.61687 -0.759214,0.38351 -0.986112,0.54838 -0.883735,0.64212 0.08994,0.0824 0.659555,0.0594 1.451742,-0.0584 0.364829,-0.0543 0.671515,-0.0912 0.681525,-0.082 0.01001,0.009 -0.144012,0.0682 -0.342269,0.13115 -0.419045,0.13308 -0.825186,0.31189 -1.04533,0.4602 -0.180623,0.12169 -0.38624,0.42892 -0.43731,0.65341 -0.05116,0.22491 0.09949,0.71095 0.329449,1.06288 0.214803,0.32874 1.261347,1.31734 1.729141,1.63341 l 0.294303,0.19885 2.326546,0.0484 c 2.5303,0.0526 2.666543,0.0435 3.017306,-0.20144 0.102354,-0.0715 0.254167,-0.25692 0.337391,-0.41211 0.127805,-0.23832 0.150441,-0.33921 0.145748,-0.64961 -0.0087,-0.576 -0.180394,-0.84584 -0.850598,-1.33694 -0.235442,-0.17252 -0.519881,-0.40689 -0.632086,-0.52084 -0.1737,-0.17638 -0.193653,-0.21859 -0.134299,-0.28407 0.06007,-0.0663 0.165981,-0.0719 0.76586,-0.0403 0.836489,0.044 0.988583,0.0397 1.080538,-0.0302 0.136828,-0.10398 0.06665,-0.28232 -0.277369,-0.70484 -0.191297,-0.23495 -0.347813,-0.4667 -0.347813,-0.515 0,-0.20144 0.628262,-0.154 1.146362,0.0866 0.77863,0.36153 1.594313,1.24632 2.021358,2.19261 0.304542,0.67483 0.388544,1.06565 0.384732,1.78995 -0.0034,0.63928 -0.04895,0.87404 -0.258117,1.32912 -0.02691,0.0585 1.07e-4,0.0881 0.101695,0.11149 0.197644,0.0454 0.713409,0.53613 1.03508,0.98479 0.635351,0.88618 0.90969,1.88491 0.782144,2.84738 l -0.04471,0.33736 -0.03318,-0.44449 c -0.05324,-0.71317 -0.36322,-1.14577 -0.770822,-1.07573 -0.736232,0.12651 -0.890748,1.78604 -0.211826,2.27504 0.191551,0.13797 0.40617,0.12939 0.605532,-0.0242 0.20546,-0.1583 0.207623,-0.0948 0.009,0.26299 -0.349047,0.62853 -1.320894,1.69728 -1.651756,1.81644 -0.31197,0.11236 -1.508586,0.3074 -1.991747,0.32465 -0.279588,0.01 -0.929729,-0.0109 -1.444759,-0.0464 z m -0.5264,-2.03029 c 1.024119,-0.4485 1.266515,-1.65928 0.480173,-2.39851 -0.321306,-0.30205 -0.721828,-0.44781 -1.230478,-0.44781 -0.491503,0 -0.810346,0.10957 -1.152829,0.39619 -0.72752,0.60883 -0.725902,1.60948 0.0036,2.19742 0.366323,0.29526 0.702654,0.39956 1.222014,0.37895 0.302702,-0.012 0.501148,-0.049 0.677567,-0.12624 z"
       id="path867"
       inkscape:connector-curvature="0" />
  </g>
</svg>
