<?xml version="1.0" encoding="UTF-8" standalone="no"?>
<!-- Created with Inkscape (http://www.inkscape.org/) -->

<svg
   xmlns:dc="http://purl.org/dc/elements/1.1/"
   xmlns:cc="http://creativecommons.org/ns#"
   xmlns:rdf="http://www.w3.org/1999/02/22-rdf-syntax-ns#"
   xmlns:svg="http://www.w3.org/2000/svg"
   xmlns="http://www.w3.org/2000/svg"
   xmlns:sodipodi="http://sodipodi.sourceforge.net/DTD/sodipodi-0.dtd"
   xmlns:inkscape="http://www.inkscape.org/namespaces/inkscape"
   width="40mm"
   height="80mm"
   viewBox="0 0 40 80"
   version="1.1"
   id="svg8"
   sodipodi:docname="knightFalling.svg"
   inkscape:version="0.92.4 (5da689c313, 2019-01-14)">
  <defs
     id="defs2" />
  <sodipodi:namedview
     id="base"
     pagecolor="#ffffff"
     bordercolor="#666666"
     borderopacity="1.0"
     inkscape:pageopacity="0.0"
     inkscape:pageshadow="2"
     inkscape:zoom="0.5"
     inkscape:cx="-825.76571"
     inkscape:cy="-201.4403"
     inkscape:document-units="mm"
     inkscape:current-layer="layer1"
     showgrid="false"
     inkscape:window-width="1920"
     inkscape:window-height="1001"
     inkscape:window-x="-9"
     inkscape:window-y="-9"
     inkscape:window-maximized="1" />
  <metadata
     id="metadata5">
    <rdf:RDF>
      <cc:Work
         rdf:about="">
        <dc:format>image/svg+xml</dc:format>
        <dc:type
           rdf:resource="http://purl.org/dc/dcmitype/StillImage" />
        <dc:title></dc:title>
      </cc:Work>
    </rdf:RDF>
  </metadata>
  <g
     inkscape:label="Camada 1"
     inkscape:groupmode="layer"
     id="layer1"
     transform="matrix(2,0,0,2.7,-40,-379)">
    <ellipse
       id="path21"
       cx="37.845001"
       cy="155.76137"
       rx="0.75689918"
       ry="1.6156309"
       style="stroke-width:0.0419806" />
    <ellipse
       id="path23"
       cx="31.335665"
       cy="155.8089"
       rx="1.816558"
       ry="2.0432978"
       style="stroke-width:0.0419806" />
    <path
       style="fill:none;stroke:#000000;stroke-width:0.0419806px;stroke-linecap:butt;stroke-linejoin:miter;stroke-opacity:1"
       d="m 26.945653,160.22813 c -9.53693,0 -4.238635,-9.40868 -3.330358,-9.78882"
       id="path27"
       inkscape:connector-curvature="0" />
    <path
       style="fill:none;stroke:#000000;stroke-width:0.0419806px;stroke-linecap:butt;stroke-linejoin:miter;stroke-opacity:1"
       d="m 26.945653,160.22813 c 8.325887,0.19007 6.357952,0.76029 9.53693,-0.0951 4.995536,-5.03697 0.302758,-10.16898 0.151378,-9.69378"
       id="path29"
       inkscape:connector-curvature="0" />
    <path
       style="fill:none;stroke:#000000;stroke-width:0.0419806px;stroke-linecap:butt;stroke-linejoin:miter;stroke-opacity:1"
       d="m 36.63396,150.43931 c 1.211043,-3.13623 -1.059657,-7.4129 -3.027592,-7.69801 -1.967942,-0.28512 1.665172,2.28088 -0.605524,1.90074 -2.2707,-0.38015 -1.211041,0.57022 -0.151381,1.52059 1.059657,0.95038 0.756905,3.3263 -0.908276,3.23126 -1.665182,-0.0951 -4.692773,-0.0951 -4.692773,-0.0951 0,0 -4.844156,-3.89653 -1.211042,-5.32208 3.633114,-1.42556 -4.087252,1.0454 -0.908276,-0.85533 3.178977,-1.90075 4.238634,-4.0866 -0.756905,-1.14045 -4.995532,2.94615 -0.756896,8.45831 -0.756896,8.45831"
       id="path33"
       inkscape:connector-curvature="0" />
    <path
       sodipodi:nodetypes="cccccsccc"
       style="fill:none;stroke:#000000;stroke-width:0.02835156px;stroke-linecap:butt;stroke-linejoin:miter;stroke-opacity:1"
       d="m 34.72287,160.05942 c 0.230633,6.5721 -0.451122,5.01461 -1.312952,6.67885 -0.586644,1.1664 0.04244,2.76925 -0.649461,2.93995 -0.691904,0.17071 -0.84427,-1.11708 -0.947542,-1.59402 -0.06882,-1.19398 -1.851296,-1.00778 -2.081932,0.10175 0.147739,1.29627 -0.87628,2.63222 -1.376326,0.017 -0.191686,-1.00251 -0.144992,-0.89776 -0.827905,-1.72954 -0.46795,-0.55004 -0.423822,-1.09292 -0.423822,-1.09292 0,0 0.622275,-4.92108 0.23406,-5.21663"
       id="path35"
       inkscape:connector-curvature="0" />
    <path
       style="fill:#333333;stroke:#000000;stroke-width:0.0419806px;stroke-linecap:butt;stroke-linejoin:miter;stroke-opacity:1"
       d="m 28.372023,162.25563 c -1.819706,0.80642 -1.873229,0.80642 -1.980269,1.44482 l -3.05069,-1.34402 0.802811,-0.67202 -2.461957,-1.54563 0.749291,-0.67201 2.46196,1.71363 0.909854,-0.47041 c 0,0 3.05069,0.84002 2.515482,1.44483"
       id="path51"
       inkscape:connector-curvature="0" />
    <path
       style="fill:none;stroke:#000000;stroke-width:0.03700684px;stroke-linecap:butt;stroke-linejoin:miter;stroke-opacity:1"
       d="m 23.330612,165.91925 c 3.415416,-2.7024 4.198293,-4.65557 4.006378,-5.75539 1.284501,-0.15667 7.38588,-0.10444 7.38588,-0.10444 0,0 1.400083,3.15088 3.642884,5.64742"
       id="path53"
       inkscape:connector-curvature="0"
       sodipodi:nodetypes="cccc" />
    <path
       style="fill:none;stroke:#000000;stroke-width:0.03700684px;stroke-linecap:butt;stroke-linejoin:miter;stroke-opacity:1"
       d="m 23.330612,165.91925 c 0,0 11.40388,-1.31459 11.082755,-2.67233"
       id="path55"
       inkscape:connector-curvature="0"
       sodipodi:nodetypes="cc" />
    <path
       style="fill:none;stroke:#000000;stroke-width:0.03700684px;stroke-linecap:butt;stroke-linejoin:miter;stroke-opacity:1"
       d="m 38.365754,165.70684 c 0,0 -7.924553,-4.55078 -6.533013,-5.59521"
       id="path57"
       inkscape:connector-curvature="0"
       sodipodi:nodetypes="cc" />
    <path
       style="fill:none;stroke:#000000;stroke-width:0.03700684px;stroke-linecap:butt;stroke-linejoin:miter;stroke-opacity:1"
       d="m 24.398919,165.03171 c 5.860536,-1.40997 8.249195,-1.83651 8.623844,-2.9201"
       id="path63"
       inkscape:connector-curvature="0"
       sodipodi:nodetypes="cc" />
    <path
       style="fill:none;stroke:#000000;stroke-width:0.03700684px;stroke-linecap:butt;stroke-linejoin:miter;stroke-opacity:1"
       d="m 25.896467,163.47607 c 2.622524,-0.30028 5.694259,-1.34842 6.350477,-2.00669"
       id="path65"
       inkscape:connector-curvature="0"
       sodipodi:nodetypes="cc" />
    <path
       style="fill:none;stroke:#000000;stroke-width:0.03700684px;stroke-linecap:butt;stroke-linejoin:miter;stroke-opacity:1"
       d="m 26.646979,162.50389 c 2.233676,-0.37058 3.056856,-1.97675 5.010366,-1.92454"
       id="path67"
       inkscape:connector-curvature="0"
       sodipodi:nodetypes="cc" />
    <path
       style="fill:#e6e6e6;stroke-width:0.08481362"
       d="m 34.939767,160.22207 -0.134147,-0.20332 -2.582774,-0.001 c -1.420526,-5.2e-4 -3.355128,0.0352 -4.299119,0.0794 -2.018499,0.0945 -2.588854,0.0468 -3.762552,-0.31484 -1.301332,-0.40097 -2.183462,-1.20945 -2.543525,-2.33117 -0.216261,-0.67372 -0.215527,-2.08882 0.0016,-2.96847 0.326595,-1.32352 1.148696,-3.04251 1.812132,-3.78914 l 0.254695,-0.28663 -0.262767,-0.37302 c -0.370733,-0.52629 -0.947807,-1.76167 -1.17462,-2.51457 -0.250877,-0.83281 -0.256696,-2.32416 -0.01173,-3.00692 0.217854,-0.60721 0.623461,-1.21936 1.118345,-1.68782 0.4784,-0.45286 1.754369,-1.23705 2.854191,-1.75411 1.348173,-0.63383 1.778789,-0.62057 1.297136,0.0399 -0.369205,0.50629 -0.954361,0.99124 -2.097657,1.73842 -0.958873,0.62666 -1.230351,0.86328 -1.119566,0.97581 0.105492,0.10716 0.840655,0.0754 1.567961,-0.0677 0.92773,-0.18257 0.973721,-0.17076 0.354481,0.091 -0.747087,0.31586 -1.30139,0.7228 -1.448652,1.06351 -0.1762,0.40765 -0.06583,1.40719 0.209067,1.89356 0.308834,0.54639 1.0782,1.48837 1.663097,2.03621 l 0.48996,0.45893 2.48838,0.0705 c 1.368611,0.0387 2.605606,0.0523 2.74888,0.03 0.726597,-0.113 1.256828,-0.9977 1.147661,-1.91487 -0.08834,-0.74208 -0.191571,-0.92689 -0.911729,-1.63201 -0.727581,-0.71237 -0.921782,-0.97695 -0.828771,-1.12913 0.05772,-0.0944 0.194571,-0.10275 1.01853,-0.0618 0.8943,0.0445 0.955985,0.0391 1.020247,-0.088 0.08727,-0.17263 -0.0054,-0.40287 -0.391966,-0.9755 -0.170548,-0.25254 -0.295229,-0.53982 -0.277069,-0.63841 0.02808,-0.1525 0.07966,-0.17714 0.345392,-0.16506 1.223278,0.0556 2.72418,2.00927 3.217366,4.18791 0.196458,0.86784 0.202388,2.28194 0.01238,2.95484 -0.124035,0.4393 -0.121864,0.51149 0.0169,0.5622 0.242482,0.0886 1.047474,1.21079 1.356276,1.89065 0.358605,0.78953 0.599166,1.81438 0.583638,2.48645 l -0.01241,0.53762 -0.09056,-0.38852 c -0.10349,-0.44398 -0.377569,-0.84906 -0.612838,-0.90573 -0.257661,-0.062 -0.633296,0.27878 -0.773087,0.70154 -0.197819,0.59822 -0.09021,1.85955 0.192487,2.25594 0.232743,0.32635 0.485951,0.40653 0.753483,0.23857 0.09991,-0.0627 0.128802,-0.059 0.130033,0.0169 0.0038,0.23374 -0.716139,1.44748 -1.219054,2.05522 -0.495537,0.59882 -0.595402,0.67693 -1.030403,0.80601 -0.84962,0.25208 -0.91949,0.25383 -1.069287,0.0268 z m -2.882904,-2.50656 c 0.467962,-0.19798 0.908308,-0.75525 1.072381,-1.35711 0.243218,-0.89219 -0.212815,-2.00913 -0.987377,-2.41829 -0.244176,-0.129 -0.444883,-0.1711 -0.81569,-0.1711 -0.440029,0 -0.537801,0.0304 -0.928403,0.2881 -0.541476,0.35732 -0.810773,0.80267 -0.887791,1.4682 -0.183757,1.58788 1.186118,2.76591 2.54688,2.1902 z"
       id="path58"
       inkscape:connector-curvature="0" />
    <path
       style="fill:none;stroke:#000000;stroke-width:0.11385854px;stroke-linecap:butt;stroke-linejoin:miter;stroke-opacity:1"
       d="m 25.936589,165.56578 c -0.810287,1.11468 -0.198438,1.16368 0.04961,1.16368 0.248047,0 1.107943,-1.31067 1.107943,-1.31067"
       id="path872"
       inkscape:connector-curvature="0" />
    <path
       style="fill:none;stroke:#000000;stroke-width:0.11385854px;stroke-linecap:butt;stroke-linejoin:miter;stroke-opacity:1"
       d="m 33.741797,164.72058 c 0.644922,1.16368 1.620573,1.13918 1.86862,1.00444 0.248047,-0.13474 -1.207161,-2.02112 -1.207161,-2.02112"
       id="path874"
       inkscape:connector-curvature="0" />
    <path
       style="fill:#000000;fill-opacity:1;stroke-width:0.125"
       d="m 44.11969,268.23852 c -0.268861,-0.0631 -0.662611,-0.22228 -0.875,-0.35381 -1.54235,-0.95516 -1.163551,-3.85797 1.11819,-8.56891 0.432887,-0.89375 0.835424,-1.69225 0.894526,-1.77444 0.09137,-0.12707 7.531204,-1.71215 7.619903,-1.62345 0.04584,0.0458 -2.580912,5.02078 -3.609055,6.83539 -1.230183,2.17118 -2.643573,4.29423 -3.339515,5.01625 -0.628722,0.65229 -0.818156,0.7014 -1.809049,0.46897 z"
       id="path876"
       inkscape:connector-curvature="0"
       transform="matrix(0.13229167,0,0,0.09799383,20,140.37037)" />
    <path
       style="fill:#000000;fill-opacity:1;stroke-width:0.125"
       d="m 68.267708,298.87129 c -1.467999,-0.77512 -2.941243,-4.27277 -4.024869,-9.55549 -0.428133,-2.08717 -0.617167,-3.23298 -1.196094,-7.25 -1.070567,-7.42838 -1.281128,-8.03131 -4.862455,-13.92329 -1.974705,-3.24877 -2.279865,-3.81851 -2.927305,-5.46528 -0.796979,-2.02714 -1.435641,-5.07799 -1.305228,-6.23501 0.03388,-0.30062 0.01508,-0.59311 -0.04179,-0.64998 -0.05687,-0.0569 1.427045,-0.43081 3.297581,-0.83098 20.140405,-4.30872 35.05302,-8.72881 43.525982,-12.9011 5.53498,-2.72555 8.21752,-5.21007 8.43052,-7.8082 l 0.0695,-0.84742 1.04123,0.98931 1.04124,0.98931 -0.0893,2.15382 c -0.0491,1.1846 -0.12447,2.40615 -0.16752,2.71456 l -0.0783,0.56075 -0.79107,-1.43575 c -0.43508,-0.78966 -0.84157,-1.48844 -0.9033,-1.55284 -0.14207,-0.14822 -0.74054,0.39612 -0.74054,0.67357 0,0.11022 0.0769,0.31135 0.17089,0.44696 0.094,0.13561 0.6312,1.08747 1.1938,2.11523 l 1.02291,1.86867 -0.20046,2.06883 c -0.36822,3.80003 -0.95018,7.09036 -1.64269,9.28759 -0.16793,0.53281 -0.35899,0.96875 -0.42458,0.96875 -0.20848,0 -1.67469,-1.95532 -2.48023,-3.30762 -0.42744,-0.71756 -1.02,-1.8438 -1.31681,-2.50276 -0.2968,-0.65895 -0.56469,-1.22315 -0.59531,-1.25377 -0.0306,-0.0306 -0.23191,0.0978 -0.44731,0.28549 l -0.39164,0.34116 0.53728,1.1875 c 0.97894,2.16365 2.51719,4.60607 3.78414,6.00844 l 0.45308,0.5015 -0.30028,0.64988 c -0.16516,0.35743 -1.21378,2.01817 -2.33027,3.69054 -5.31162,7.95616 -6.521708,12.82361 -6.532063,26.27464 -0.0063,8.23109 -0.535515,10.75721 -2.437963,11.63801 -1.893677,0.87675 -3.562902,-0.53776 -4.809407,-4.07551 -0.890557,-2.52752 -1.650545,-6.58814 -2.503279,-13.375 -0.765934,-6.09603 -5.838198,-8.81102 -10.82522,-5.79433 -2.20558,1.33417 -3.977356,3.85827 -4.725371,6.73183 -0.285129,1.09534 -0.308128,1.39606 -0.296363,3.875 0.01454,3.06396 -0.183291,4.9142 -0.785441,7.3459 -0.732298,2.95727 -1.778351,4.91176 -2.918321,5.45272 -0.549185,0.2606 -0.903794,0.24725 -1.477418,-0.0556 z"
       id="path878"
       inkscape:connector-curvature="0"
       transform="matrix(0.13229167,0,0,0.09799383,20,140.37037)" />
    <path
       style="fill:#000000;fill-opacity:1;stroke-width:0.125"
       d="m 113.92103,258.56688 c -1.40822,-0.31625 -3.78588,-1.67468 -4.67487,-2.67091 -0.2338,-0.26201 -0.23245,-0.28149 0.0902,-1.29809 0.73082,-2.3029 1.29589,-5.33718 1.64711,-8.84458 0.10671,-1.06563 0.20673,-2.01842 0.22228,-2.11731 0.0316,-0.20117 2.53516,4.54675 3.71993,7.05481 1.66311,3.52064 2.74538,6.35913 2.74538,7.20033 0,0.31499 -0.0749,0.40632 -0.46875,0.57134 -0.65365,0.2739 -2.29407,0.3261 -3.28125,0.10441 z"
       id="path880"
       inkscape:connector-curvature="0"
       transform="matrix(0.13229167,0,0,0.09799383,20,140.37037)" />
    <path
       style="fill:#6f917c;fill-opacity:1;stroke-width:0.125"
       d="m 133.78692,254.21964 c -7.49797,-6.0961 -14.00389,-11.69662 -20.53586,-17.67795 l -1.48247,-1.3575 -0.0342,-13.4342 c -0.0188,-7.3888 -0.0763,-13.9152 -0.12781,-14.5031 l -0.0936,-1.06891 0.61028,-0.14101 c 0.33565,-0.0776 0.64489,-0.1028 0.68719,-0.0561 0.0423,0.0467 0.45657,1.09742 0.92061,2.33492 6.31781,16.84837 14.56441,33.94037 22.44379,46.51727 0.75415,1.20376 1.37119,2.21264 1.37119,2.24195 0,0.17278 -0.52619,-0.2269 -3.75911,-2.85538 z"
       id="path882"
       inkscape:connector-curvature="0"
       transform="matrix(0.13229167,0,0,0.09799383,20,140.37037)" />
    <path
       style="fill:#6f917c;fill-opacity:1;stroke-width:0.125"
       d="m 108.23353,231.79294 c -7.40875,-7.11628 -13.808432,-14.44331 -16.769166,-19.19911 -1.595301,-2.56252 -2.770754,-5.29291 -2.98993,-6.94514 l -0.08561,-0.64539 h 0.432324 c 0.409768,0 5.215288,0.48318 11.974882,1.20405 3.56276,0.37994 7.77755,0.46495 9.41691,0.18992 0.53868,-0.0904 1.01139,-0.13233 1.05048,-0.0932 0.11424,0.11424 0.18217,26.28693 0.0711,27.37863 l -0.10095,0.99186 z"
       id="path884"
       inkscape:connector-curvature="0"
       transform="matrix(0.13229167,0,0,0.09799383,20,140.37037)" />
    <path
       style="fill:#6f917c;fill-opacity:1;stroke-width:0.125"
       d="m 104.85853,205.98674 c -0.9625,-0.0495 -4.47813,-0.37286 -7.812502,-0.71848 -3.334375,-0.34562 -6.613009,-0.67995 -7.285852,-0.74295 -0.672844,-0.063 -1.258435,-0.14963 -1.301314,-0.19251 -0.16621,-0.16621 0.251735,-1.48818 0.664332,-2.1013 0.49062,-0.72905 0.492735,-1.20488 0.0033,-0.74509 -0.407773,0.38308 -0.816196,1.25483 -0.985341,2.10315 -0.07964,0.39943 -0.149222,0.73714 -0.15462,0.75047 -0.0054,0.0133 -0.570785,-0.0274 -1.256417,-0.0904 -6.278466,-0.57757 -17.170313,-1.23356 -27.121601,-1.63347 -2.325388,-0.0934 -3.656174,-0.19451 -3.711953,-0.28188 -0.04782,-0.0749 -0.07482,-0.14833 -0.06,-0.16315 0.07025,-0.0702 4.423613,-0.42063 6.709455,-0.54002 6.270705,-0.3275 10.994635,-0.4026 29.213193,-0.4644 l 19.40069,-0.0658 0.0368,2.26251 c 0.0252,1.55098 -0.006,2.27892 -0.0996,2.31469 -0.23136,0.0885 -2.43413,0.31433 -3.48858,0.35767 -0.55,0.0226 -1.7875,5.6e-4 -2.75,-0.049 z"
       id="path886"
       inkscape:connector-curvature="0"
       transform="matrix(0.13229167,0,0,0.09799383,20,140.37037)" />
    <path
       style="fill:#6f917c;fill-opacity:1;stroke-width:0.125"
       d="m 56.214098,222.79829 c 0.368183,-4.04343 0.40351,-16.63149 0.05266,-18.7627 l -0.169599,-1.0302 1.193187,0.0625 c 0.656253,0.0344 2.683812,0.12131 4.505687,0.19324 7.346254,0.29004 16.69568,0.84783 23,1.3722 1.615625,0.13438 3.002149,0.24448 3.081164,0.24466 0.07949,1.9e-4 0.163245,0.24389 0.1875,0.54556 l 0.04384,0.54523 -1.6875,0.0751 c -2.806892,0.12491 -4.9336,0.70172 -7.75,2.10197 -2.823134,1.4036 -4.537426,2.61124 -10,7.04459 -5.281273,4.2862 -7.837162,6.07028 -11.023793,7.69493 l -1.511219,0.77046 z"
       id="path888"
       inkscape:connector-curvature="0"
       transform="matrix(0.13229167,0,0,0.09799383,20,140.37037)" />
    <path
       style="fill:#6f917c;fill-opacity:1;stroke-width:0.125"
       d="m 55.714261,231.78455 c 0.04445,-0.73907 0.165115,-2.74502 0.268143,-4.45769 0.103029,-1.71266 0.201679,-3.12648 0.219224,-3.14181 0.01754,-0.0153 0.547069,-0.28549 1.176721,-0.60033 3.468295,-1.73427 5.954912,-3.46146 11.792679,-8.19113 5.1214,-4.14929 7.079726,-5.52963 9.66228,-6.81051 2.665284,-1.32192 4.956979,-1.93109 7.68147,-2.04184 1.626061,-0.0661 1.78125,-0.0538 1.78125,0.14153 0,0.43911 0.665975,2.17962 1.367485,3.5739 0.73684,1.4645 1.180654,2.2126 2.28302,3.84831 l 0.616101,0.91418 -0.690685,0.7867 c -4.179915,4.76099 -17.065747,11.37892 -30.462422,15.64495 -2.10273,0.6696 -5.518508,1.67749 -5.685057,1.67749 -0.05006,0 -0.05466,-0.60469 -0.01021,-1.34375 z"
       id="path890"
       inkscape:connector-curvature="0"
       transform="matrix(0.13229167,0,0,0.09799383,20,140.37037)" />
    <path
       style="fill:#6f917c;fill-opacity:1;stroke-width:0.125"
       d="m 54.797503,244.2711 c 8.1e-4,-0.11292 0.137761,-1.94905 0.304334,-4.0803 0.166573,-2.13125 0.341501,-4.46722 0.388727,-5.19103 l 0.08587,-1.31603 1.516049,-0.42056 c 12.530089,-3.47591 26.296487,-9.74342 32.680848,-14.87882 1.2581,-1.01197 2.726641,-2.48602 2.875911,-2.88668 0.0669,-0.17956 0.290172,0.0492 1.082008,1.10843 0.548746,0.73408 1.701871,2.17197 2.5625,3.19531 0.86063,1.02334 1.63544,1.95572 1.7218,2.07195 0.12858,0.17304 0.111382,0.34396 -0.09495,0.94367 -1.667265,4.84599 -7.207028,8.79966 -18.562073,13.24755 -4.543592,1.77977 -13.576775,4.89667 -22.03125,7.60188 -2.09982,0.67189 -2.530998,0.77495 -2.529774,0.60463 z"
       id="path892"
       inkscape:connector-curvature="0"
       transform="matrix(0.13229167,0,0,0.09799383,20,140.37037)" />
    <path
       style="fill:#6f917c;fill-opacity:1;stroke-width:0.125"
       d="m 53.915471,255.03455 c -0.0031,-0.0516 0.178883,-2.32955 0.40431,-5.06219 l 0.409869,-4.96844 0.564439,-0.17777 c 2.530793,-0.79705 13.174745,-4.31031 15.626939,-5.158 12.055011,-4.16726 18.622136,-7.21473 22.83247,-10.59542 1.955695,-1.57032 3.650638,-3.75469 4.364758,-5.6251 0.198593,-0.52015 0.398253,-0.93135 0.443688,-0.91378 0.04543,0.0176 0.77409,0.79132 1.619236,1.71945 0.84514,0.92812 3.20676,3.36093 5.24805,5.40625 2.04129,2.04531 3.64159,3.71875 3.55623,3.71875 -0.10069,0 -0.17767,0.27992 -0.21917,0.79689 -0.48882,6.08963 -18.206194,13.08051 -51.220262,20.21036 -3.722858,0.80401 -3.622432,0.78606 -3.630557,0.649 z"
       id="path894"
       inkscape:connector-curvature="0"
       transform="matrix(0.13229167,0,0,0.09799383,20,140.37037)" />
    <path
       style="fill:#6f917c;fill-opacity:1;stroke-width:0.125"
       d="m 25.921028,260.3103 c 0,-0.04 0.640841,-0.76823 1.424091,-1.61825 0.783249,-0.85002 2.287937,-2.54522 3.34375,-3.76711 1.055812,-1.22189 2.088409,-2.40784 2.294659,-2.63545 0.405334,-0.4473 0.03099,-0.32012 15.75,-5.35091 2.95625,-0.94613 5.445048,-1.74642 5.530661,-1.77841 0.114902,-0.0429 0.139242,0.0844 0.09295,0.48623 -0.03449,0.29942 -0.235207,2.56882 -0.446042,5.04311 -0.210835,2.47429 -0.399828,4.51521 -0.419983,4.53536 -0.02015,0.0202 -1.968981,0.42522 -4.330725,0.90014 -3.170588,0.63757 -4.337001,0.82787 -4.458129,0.72734 -0.121564,-0.10089 -0.203505,-0.085 -0.316394,0.0615 -0.107426,0.13936 -1.257985,0.40168 -3.902343,0.88968 -4.726119,0.87218 -8.721576,1.57969 -11.6875,2.0696 -1.271875,0.21009 -2.439062,0.41077 -2.59375,0.44596 -0.154687,0.0352 -0.28125,0.0312 -0.28125,-0.009 z"
       id="path896"
       inkscape:connector-curvature="0"
       transform="matrix(0.13229167,0,0,0.09799383,20,140.37037)" />
    <path
       style="fill:#6f917c;fill-opacity:1;stroke-width:0.125"
       d="m 34.947785,249.84705 c 2.785151,-3.40933 5.526449,-7.13369 8.189576,-11.12647 1.237666,-1.85561 1.898866,-2.73806 2.080258,-2.77634 0.14625,-0.0309 0.912784,-0.17282 1.703409,-0.31545 2.326513,-0.41972 7.55614,-1.58737 8.172453,-1.82471 0.09613,-0.037 0.127498,0.17199 0.100035,0.6664 -0.08895,1.60123 -0.76116,10.06316 -0.802719,10.10471 -0.05828,0.0583 -20.272542,6.55311 -20.395663,6.55311 -0.05172,0 0.376977,-0.57657 0.952651,-1.28125 z"
       id="path898"
       inkscape:connector-curvature="0"
       transform="matrix(0.13229167,0,0,0.09799383,20,140.37037)" />
    <path
       style="fill:#6f917c;fill-opacity:1;stroke-width:0.125"
       d="m 45.959438,234.29303 c 0.988318,-1.62989 2.573457,-4.51766 3.566682,-6.4977 l 0.867564,-1.72953 0.982422,-0.23316 c 0.540332,-0.12824 1.73841,-0.50663 2.662396,-0.84086 0.923985,-0.33424 1.703167,-0.58451 1.731515,-0.55616 0.04853,0.0485 -0.26547,5.74075 -0.432967,7.84895 l -0.07697,0.96877 -0.450777,0.12111 c -2.27693,0.61175 -7.282146,1.70268 -8.926061,1.94552 l -0.600286,0.0887 z"
       id="path900"
       inkscape:connector-curvature="0"
       transform="matrix(0.13229167,0,0,0.09799383,20,140.37037)" />
    <path
       style="fill:#6f917c;fill-opacity:1;stroke-width:0.125"
       d="m 50.671028,225.4564 c 0,-0.0258 0.203188,-0.48985 0.451528,-1.03125 1.303624,-2.84197 2.623787,-6.59446 3.431211,-9.75302 0.868743,-3.39844 1.241605,-6.09802 1.265509,-9.16249 0.02012,-2.57988 0.164726,-1.7298 0.359565,2.1138 0.113784,2.24462 0.114897,4.01883 0.0047,7.5625 -0.240891,7.74954 -0.27554,8.33034 -0.511011,8.56581 -0.236521,0.23652 -2.155603,0.96077 -3.796779,1.43289 -1.175372,0.33811 -1.204767,0.34475 -1.204767,0.27176 z"
       id="path902"
       inkscape:connector-curvature="0"
       transform="matrix(0.13229167,0,0,0.09799383,20,140.37037)" />
    <path
       style="fill:#6f917c;fill-opacity:1;stroke-width:0.125"
       d="m 111.5559,204.02138 c 0.005,-0.86932 0.0428,-1.49621 0.0831,-1.39308 0.44944,1.15133 0.98605,2.75063 0.9237,2.75298 -0.0435,0.002 -0.29007,0.052 -0.54788,0.11184 l -0.46875,0.10885 z"
       id="path904"
       inkscape:connector-curvature="0"
       transform="matrix(0.13229167,0,0,0.09799383,20,140.37037)" />
  </g>
</svg>
