<?xml version="1.0" encoding="UTF-8" standalone="no"?>
<!-- Created with Inkscape (http://www.inkscape.org/) -->

<svg
   xmlns:dc="http://purl.org/dc/elements/1.1/"
   xmlns:cc="http://creativecommons.org/ns#"
   xmlns:rdf="http://www.w3.org/1999/02/22-rdf-syntax-ns#"
   xmlns:svg="http://www.w3.org/2000/svg"
   xmlns="http://www.w3.org/2000/svg"
   xmlns:sodipodi="http://sodipodi.sourceforge.net/DTD/sodipodi-0.dtd"
   xmlns:inkscape="http://www.inkscape.org/namespaces/inkscape"
   width="40mm"
   height="80mm"
   viewBox="0 0 40 80"
   version="1.1"
   id="svg8"
   sodipodi:docname="knightJumping.svg"
   inkscape:version="0.92.4 (5da689c313, 2019-01-14)">
  <defs
     id="defs2" />
  <sodipodi:namedview
     id="base"
     pagecolor="#ffffff"
     bordercolor="#666666"
     borderopacity="1.0"
     inkscape:pageopacity="0.0"
     inkscape:pageshadow="2"
     inkscape:zoom="5.6568542"
     inkscape:cx="22.665904"
     inkscape:cy="32.390275"
     inkscape:document-units="mm"
     inkscape:current-layer="layer1"
     showgrid="false"
     inkscape:window-width="1920"
     inkscape:window-height="1001"
     inkscape:window-x="-9"
     inkscape:window-y="-9"
     inkscape:window-maximized="1" />
  <metadata
     id="metadata5">
    <rdf:RDF>
      <cc:Work
         rdf:about="">
        <dc:format>image/svg+xml</dc:format>
        <dc:type
           rdf:resource="http://purl.org/dc/dcmitype/StillImage" />
        <dc:title></dc:title>
      </cc:Work>
    </rdf:RDF>
  </metadata>
  <g
     inkscape:label="Camada 1"
     inkscape:groupmode="layer"
     id="layer1"
     transform="matrix(2,0,0,2.7,-40,-379)">
    <ellipse
       id="path21"
       cx="37.845001"
       cy="155.76137"
       rx="0.75689918"
       ry="1.6156309"
       style="stroke-width:0.0419806" />
    <ellipse
       id="path23"
       cx="31.335665"
       cy="155.8089"
       rx="1.816558"
       ry="2.0432978"
       style="stroke-width:0.0419806" />
    <path
       style="fill:none;stroke:#000000;stroke-width:0.0419806px;stroke-linecap:butt;stroke-linejoin:miter;stroke-opacity:1"
       d="m 26.945653,160.22813 c -9.53693,0 -4.238635,-9.40868 -3.330358,-9.78882"
       id="path27"
       inkscape:connector-curvature="0" />
    <path
       style="fill:none;stroke:#000000;stroke-width:0.0419806px;stroke-linecap:butt;stroke-linejoin:miter;stroke-opacity:1"
       d="m 26.945653,160.22813 c 8.325887,0.19007 6.357952,0.76029 9.53693,-0.0951 4.995536,-5.03697 0.302758,-10.16898 0.151378,-9.69378"
       id="path29"
       inkscape:connector-curvature="0" />
    <path
       style="fill:none;stroke:#000000;stroke-width:0.0419806px;stroke-linecap:butt;stroke-linejoin:miter;stroke-opacity:1"
       d="m 36.63396,150.43931 c 1.211043,-3.13623 -1.059657,-7.4129 -3.027592,-7.69801 -1.967942,-0.28512 1.665172,2.28088 -0.605524,1.90074 -2.2707,-0.38015 -1.211041,0.57022 -0.151381,1.52059 1.059657,0.95038 0.756905,3.3263 -0.908276,3.23126 -1.665182,-0.0951 -4.692773,-0.0951 -4.692773,-0.0951 0,0 -4.844156,-3.89653 -1.211042,-5.32208 3.633114,-1.42556 -4.087252,1.0454 -0.908276,-0.85533 3.178977,-1.90075 4.238634,-4.0866 -0.756905,-1.14045 -4.995532,2.94615 -0.756896,8.45831 -0.756896,8.45831"
       id="path33"
       inkscape:connector-curvature="0" />
    <g
       id="g3840"
       transform="matrix(0.13828263,0,0,0.12571838,-18.380952,135.93361)">
      <path
         inkscape:connector-curvature="0"
         id="path35"
         d="m 384.84571,191.36794 c 1.9006,52.99986 -3.7176,40.43971 -10.81975,53.86074 -4.83441,9.40624 -0.4211,25.12619 -6.12295,26.50281 -5.70183,1.37662 -8.56535,-15.93149 -11.73303,-17.30812 -3.16769,-1.37661 -10.56072,-6.46776 -12.46134,2.48026 1.21749,10.45359 -8.37756,25.69764 -12.49833,4.60744 -1.57964,-8.08456 1.0517,-17.14327 -0.21537,-19.20821 -1.26708,-2.06493 -13.30431,4.81818 -13.30431,4.81818 0,0 10.13662,-57.81803 27.24216,-55.06479"
         style="fill:none;stroke:#000000;stroke-width:0.23112476px;stroke-linecap:butt;stroke-linejoin:miter;stroke-opacity:1"
         sodipodi:nodetypes="cccccsccc" />
      <path
         style="fill:#000000;fill-opacity:1;stroke-width:0.35355338"
         d="m 91.688793,301.79677 c -1.63361,-1.86057 -2.538049,-3.8735 -5.149815,-11.46145 -1.302131,-3.78308 -2.601026,-7.32989 -2.886433,-7.88181 -0.556252,-1.07567 -3.403245,-3.05504 -6.161455,-4.28373 l -1.695153,-0.75514 2.890309,-2.41737 c 10.323793,-8.63455 17.397451,-16.75588 19.300087,-22.15861 0.342041,-0.97126 0.709574,-1.85361 0.81674,-1.96077 0.107165,-0.10717 0.435487,0.48994 0.729603,1.32691 0.294116,0.83697 1.407444,3.60579 2.474054,6.15293 l 1.93931,4.63116 -1.19281,1.90958 c -2.38171,3.81291 -3.947654,9.09955 -4.545197,15.3446 -0.111635,1.16673 -0.355764,5.4624 -0.542508,9.54594 -0.362331,7.92309 -0.923452,11.09686 -2.202666,12.45852 -1.124253,1.19671 -2.468539,1.03616 -3.774066,-0.45076 z"
         id="path832"
         inkscape:connector-curvature="0"
         transform="matrix(0.95667595,0,0,0.77947097,277.5544,35.291263)" />
      <path
         style="fill:#000000;fill-opacity:1;stroke-width:0.35355338"
         d="m 60.202684,302.07499 c -1.050096,-1.27026 -2.812567,-6.00688 -3.340574,-8.97776 l -0.228909,-1.28797 5.731289,-4.19211 c 3.152209,-2.30565 5.964525,-4.3328 6.249593,-4.50477 0.448485,-0.27055 0.490675,0.27715 0.313202,4.06587 -0.318625,6.80203 -2.250526,12.9859 -4.739703,15.17142 -1.625013,1.42679 -2.635943,1.3571 -3.984898,-0.27468 z"
         id="path834"
         inkscape:connector-curvature="0"
         transform="matrix(0.95667595,0,0,0.77947097,277.5544,35.291263)" />
    </g>
    <path
       style="fill:#333333;stroke:#000000;stroke-width:0.0419806px;stroke-linecap:butt;stroke-linejoin:miter;stroke-opacity:1"
       d="m 26.413119,161.22731 c -1.819706,0.80642 -1.873229,0.80642 -1.980269,1.44482 l -3.05069,-1.34402 0.802811,-0.67202 -2.461957,-1.54563 0.749291,-0.67201 2.46196,1.71363 0.909854,-0.47041 c 0,0 3.05069,0.84002 2.515482,1.44483"
       id="path51"
       inkscape:connector-curvature="0" />
    <path
       style="fill:none;stroke:#000000;stroke-width:0.0419806px;stroke-linecap:butt;stroke-linejoin:miter;stroke-opacity:1"
       d="m 20.617826,169.85231 c -2.140834,-2.88966 5.434663,-9.45449 6.719164,-9.65609 1.284501,-0.20161 7.38588,-0.1344 7.38588,-0.1344 0,0 11.642145,9.15522 1.070415,9.27378"
       id="path53"
       inkscape:connector-curvature="0"
       sodipodi:nodetypes="cccc" />
    <path
       style="fill:none;stroke:#000000;stroke-width:0.0419806px;stroke-linecap:butt;stroke-linejoin:miter;stroke-opacity:1"
       d="m 20.617826,169.85231 c 0,0 12.713501,-3.40637 12.392376,-5.1536"
       id="path55"
       inkscape:connector-curvature="0"
       sodipodi:nodetypes="cc" />
    <path
       style="fill:none;stroke:#000000;stroke-width:0.0419806px;stroke-linecap:butt;stroke-linejoin:miter;stroke-opacity:1"
       d="m 35.793285,169.3356 c 0,0 -5.352084,-7.86256 -3.960544,-9.20659"
       id="path57"
       inkscape:connector-curvature="0" />
    <path
       style="fill:none;stroke:#000000;stroke-width:0.0419806px;stroke-linecap:butt;stroke-linejoin:miter;stroke-opacity:1"
       d="m 20.236196,168.88087 c 5.860536,-1.81444 11.757107,-4.11496 12.131756,-5.50939"
       id="path63"
       inkscape:connector-curvature="0"
       sodipodi:nodetypes="cc" />
    <path
       style="fill:none;stroke:#000000;stroke-width:0.0419806px;stroke-linecap:butt;stroke-linejoin:miter;stroke-opacity:1"
       d="m 20.457029,167.34884 c 2.622524,-0.38642 10.198254,-5.47259 11.322193,-5.47259"
       id="path65"
       inkscape:connector-curvature="0"
       sodipodi:nodetypes="cc" />
    <path
       style="fill:none;stroke:#000000;stroke-width:0.0419806px;stroke-linecap:butt;stroke-linejoin:miter;stroke-opacity:1"
       d="m 21.533726,165.5963 c 2.51431,-1.39869 5.830026,-5.58489 7.783536,-5.51769"
       id="path67"
       inkscape:connector-curvature="0"
       sodipodi:nodetypes="cc" />
    <path
       style="fill:#e6e6e6;stroke-width:0.08481362"
       d="m 34.939767,160.22207 -0.134147,-0.20332 -2.582774,-0.001 c -1.420526,-5.2e-4 -3.355128,0.0352 -4.299119,0.0794 -2.018499,0.0945 -2.588854,0.0468 -3.762552,-0.31484 -1.301332,-0.40097 -2.183462,-1.20945 -2.543525,-2.33117 -0.216261,-0.67372 -0.215527,-2.08882 0.0016,-2.96847 0.326595,-1.32352 1.148696,-3.04251 1.812132,-3.78914 l 0.254695,-0.28663 -0.262767,-0.37302 c -0.370733,-0.52629 -0.947807,-1.76167 -1.17462,-2.51457 -0.250877,-0.83281 -0.256696,-2.32416 -0.01173,-3.00692 0.217854,-0.60721 0.623461,-1.21936 1.118345,-1.68782 0.4784,-0.45286 1.754369,-1.23705 2.854191,-1.75411 1.348173,-0.63383 1.778789,-0.62057 1.297136,0.0399 -0.369205,0.50629 -0.954361,0.99124 -2.097657,1.73842 -0.958873,0.62666 -1.230351,0.86328 -1.119566,0.97581 0.105492,0.10716 0.840655,0.0754 1.567961,-0.0677 0.92773,-0.18257 0.973721,-0.17076 0.354481,0.091 -0.747087,0.31586 -1.30139,0.7228 -1.448652,1.06351 -0.1762,0.40765 -0.06583,1.40719 0.209067,1.89356 0.308834,0.54639 1.0782,1.48837 1.663097,2.03621 l 0.48996,0.45893 2.48838,0.0705 c 1.368611,0.0387 2.605606,0.0523 2.74888,0.03 0.726597,-0.113 1.256828,-0.9977 1.147661,-1.91487 -0.08834,-0.74208 -0.191571,-0.92689 -0.911729,-1.63201 -0.727581,-0.71237 -0.921782,-0.97695 -0.828771,-1.12913 0.05772,-0.0944 0.194571,-0.10275 1.01853,-0.0618 0.8943,0.0445 0.955985,0.0391 1.020247,-0.088 0.08727,-0.17263 -0.0054,-0.40287 -0.391966,-0.9755 -0.170548,-0.25254 -0.295229,-0.53982 -0.277069,-0.63841 0.02808,-0.1525 0.07966,-0.17714 0.345392,-0.16506 1.223278,0.0556 2.72418,2.00927 3.217366,4.18791 0.196458,0.86784 0.202388,2.28194 0.01238,2.95484 -0.124035,0.4393 -0.121864,0.51149 0.0169,0.5622 0.242482,0.0886 1.047474,1.21079 1.356276,1.89065 0.358605,0.78953 0.599166,1.81438 0.583638,2.48645 l -0.01241,0.53762 -0.09056,-0.38852 c -0.10349,-0.44398 -0.377569,-0.84906 -0.612838,-0.90573 -0.257661,-0.062 -0.633296,0.27878 -0.773087,0.70154 -0.197819,0.59822 -0.09021,1.85955 0.192487,2.25594 0.232743,0.32635 0.485951,0.40653 0.753483,0.23857 0.09991,-0.0627 0.128802,-0.059 0.130033,0.0169 0.0038,0.23374 -0.716139,1.44748 -1.219054,2.05522 -0.495537,0.59882 -0.595402,0.67693 -1.030403,0.80601 -0.84962,0.25208 -0.91949,0.25383 -1.069287,0.0268 z m -2.882904,-2.50656 c 0.467962,-0.19798 0.908308,-0.75525 1.072381,-1.35711 0.243218,-0.89219 -0.212815,-2.00913 -0.987377,-2.41829 -0.244176,-0.129 -0.444883,-0.1711 -0.81569,-0.1711 -0.440029,0 -0.537801,0.0304 -0.928403,0.2881 -0.541476,0.35732 -0.810773,0.80267 -0.887791,1.4682 -0.183757,1.58788 1.186118,2.76591 2.54688,2.1902 z"
       id="path58"
       inkscape:connector-curvature="0" />
    <path
       style="fill:#6f917c;fill-opacity:1;stroke-width:0.35355338"
       d="m 116.90126,289.74209 c -3.67259,-7.65689 -6.46011,-13.7022 -9.55925,-20.73127 l -2.61409,-5.92896 1.9082,-2.55632 c 3.11538,-4.17353 4.04711,-6.5769 4.99672,-12.889 0.83141,-5.52642 1.33871,-19.18857 1.14337,-30.7925 l -0.18044,-10.71957 0.86525,-0.32897 c 0.47589,-0.18094 0.99735,-0.32897 1.1588,-0.32897 0.36642,0 6.26753,6.96934 10.47768,12.37437 13.89515,17.83871 22.91269,33.64926 26.16485,45.87513 1.11821,4.20368 1.51593,10.61125 0.86609,13.95313 -1.21781,6.26267 -5.63322,11.27715 -12.37945,14.05908 -4.36245,1.79892 -9.43811,2.80654 -17.0676,3.38824 l -3.08934,0.23554 z"
       id="path835"
       inkscape:connector-curvature="0"
       transform="matrix(0.13229167,0,0,0.09799383,20,140.37037)" />
    <path
       style="fill:#6f917c;fill-opacity:1;stroke-width:0.35355338"
       d="m 103.47789,260.08154 c -2.2167,-5.01235 -7.15872,-17.9138 -9.344572,-24.39457 -4.118769,-12.21163 -6.01189,-20.69777 -6.014603,-26.96117 -0.0011,-2.44475 0.121423,-3.3286 0.480356,-3.46634 0.264978,-0.10168 3.725382,0.15681 7.689786,0.57443 4.641873,0.48898 8.749933,0.71608 11.539123,0.63791 l 4.33111,-0.12139 -0.002,14.49569 c -0.003,24.59075 -0.94979,31.78396 -4.97855,37.80745 -2.56099,3.82899 -2.62787,3.8548 -3.70112,1.42799 z"
       id="path837"
       inkscape:connector-curvature="0"
       transform="matrix(0.13229167,0,0,0.09799383,20,140.37037)" />
    <path
       style="fill:#6f917c;fill-opacity:1;stroke-width:0.35355338"
       d="m 95.313458,205.01589 -6.769193,-0.71676 0.569882,-1.53762 0.569882,-1.53762 h 10.663831 c 8.10394,0 10.74998,0.10609 11.02273,0.44194 0.1974,0.24307 0.41594,1.18569 0.48566,2.09472 0.12093,1.57676 0.08,1.66213 -0.89014,1.85615 -1.91629,0.38326 -8.8852,0.11576 -15.652652,-0.60081 z"
       id="path839"
       inkscape:connector-curvature="0"
       transform="matrix(0.13229167,0,0,0.09799383,20,140.37037)" />
    <path
       style="fill:#6f917c;fill-opacity:1;stroke-width:0.35355338"
       d="m 78.041021,203.50322 c -3.11127,-0.24504 -7.039581,-0.46039 -8.729581,-0.47855 -1.689999,-0.0182 -3.156455,-0.16849 -3.258791,-0.33407 -0.460297,-0.74478 3.113584,-1.1194 12.809637,-1.34275 l 10.311652,-0.23752 -0.616711,1.4674 -0.616711,1.46739 -2.12132,-0.0482 c -1.166726,-0.0265 -4.666905,-0.24868 -7.778175,-0.49372 z"
       id="path841"
       inkscape:connector-curvature="0"
       transform="matrix(0.13229167,0,0,0.09799383,20,140.37037)" />
    <path
       style="fill:#6f917c;fill-opacity:1;stroke-width:0.35355338"
       d="m 46.756001,247.79675 c 0.0082,-0.79436 2.82522,-12.02993 4.275196,-17.05115 3.399045,-11.77081 7.86801,-21.5796 11.829764,-25.96479 l 1.294723,-1.4331 2.346474,0.1786 c 1.290561,0.0982 6.244401,0.41904 11.008533,0.71291 4.764132,0.29388 8.980256,0.60362 9.369165,0.68832 0.655053,0.14266 0.699233,0.39591 0.600171,3.44008 -0.06719,2.06472 0.135719,4.69874 0.545922,7.08679 0.580754,3.38092 0.592566,3.8012 0.106939,3.80518 -2.084682,0.0171 -9.386097,4.9329 -27.150818,18.27974 -7.826788,5.88036 -14.228519,10.4962 -14.226069,10.25742 z"
       id="path843"
       inkscape:connector-curvature="0"
       transform="matrix(0.13229167,0,0,0.09799383,20,140.37037)" />
    <path
       style="fill:#6f917c;fill-opacity:1;stroke-width:0.35355338"
       d="m 4.3251385,274.56151 c 0,-0.0899 0.7180023,-2.14417 1.5955606,-4.56511 1.9567781,-5.39821 5.0889599,-12.20397 5.6165719,-12.20397 0.658858,0 7.635758,-6.40948 11.003359,-10.10847 4.879578,-5.35976 7.200552,-8.05017 15.374974,-17.82225 9.265824,-11.07679 15.416992,-17.89855 18.808513,-20.85897 1.418216,-1.23795 2.935921,-2.56718 3.372676,-2.95384 1.215202,-1.07581 1.239704,-0.54763 0.05571,1.2009 -2.847109,4.20462 -6.189964,12.01981 -8.945619,20.91378 -1.56395,5.04771 -5.162445,19.09637 -5.162445,20.15439 0,0.51911 -9.403369,7.52912 -18.092697,13.48771 -5.654375,3.87742 -13.060699,8.36871 -16.740391,10.15158 -2.8550702,1.38334 -6.8862125,2.90785 -6.8862125,2.60425 z"
       id="path845"
       inkscape:connector-curvature="0"
       transform="matrix(0.13229167,0,0,0.09799383,20,140.37037)" />
    <path
       style="fill:#6f917c;fill-opacity:1;stroke-width:0.35355338"
       d="m 12.103313,256.14761 c 0,-0.17445 1.370651,-2.69974 3.04589,-5.61175 5.614018,-9.75867 12.893483,-20.11616 20.866582,-29.68976 4.780613,-5.74026 12.993263,-14.01409 16.065928,-16.18561 l 2.324964,-1.6431 3.998144,0.2523 3.998145,0.25229 -1.329397,0.94399 c -5.392608,3.82918 -11.111903,9.88404 -25.32413,26.80996 -10.221263,12.17291 -16.372381,18.98505 -19.960144,22.10513 -3.196026,2.7794 -3.685982,3.14715 -3.685982,2.76655 z"
       id="path847"
       inkscape:connector-curvature="0"
       transform="matrix(0.13229167,0,0,0.09799383,20,140.37037)" />
    <path
       style="fill:#6f917c;fill-opacity:1;stroke-width:0.35355338"
       d="m 56.130109,275.20494 c 0.148851,-2.09039 0.28718,-5.13177 0.307397,-6.75862 l 0.03676,-2.95792 4.949748,-2.82999 c 17.06081,-9.75439 27.966052,-18.47155 31.298402,-25.01852 l 0.8098,-1.59099 0.341069,1.06066 c 0.187589,0.58336 1.19662,3.38678 2.242289,6.22982 1.04567,2.84305 1.901216,5.55627 1.901216,6.02938 0,3.87242 -7.112787,10.58472 -18.384777,17.34961 -6.985789,4.19252 -22.521354,12.28726 -23.581925,12.28726 -0.104839,0 -0.06883,-1.71031 0.08002,-3.80069 z"
       id="path849"
       inkscape:connector-curvature="0"
       transform="matrix(0.13229167,0,0,0.09799383,20,140.37037)" />
    <path
       style="fill:#6f917c;fill-opacity:1;stroke-width:0.35355338"
       d="m 42.508905,270.22926 c 0,-0.75249 2.47684,-14.41862 3.34041,-18.43093 0.270111,-1.25499 0.709501,-2.44823 0.976421,-2.65165 9.358827,-7.1324 29.710914,-22.25165 32.452722,-24.10861 3.940812,-2.66903 8.223214,-5.07585 9.031348,-5.07585 0.45508,0 0.659911,0.55826 1.621499,4.41941 0.193711,0.77782 1.002037,3.51232 1.796284,6.07667 l 1.444085,4.66245 -0.919415,1.87829 c -3.113434,6.36046 -13.242583,14.53983 -30.297917,24.46581 -4.300311,2.50272 -6.158881,3.39777 -7.071068,3.40526 -2.028273,0.0167 -6.068431,1.95331 -11.501649,5.51329 -0.830233,0.54399 -0.87272,0.53649 -0.87272,-0.15414 z"
       id="path851"
       inkscape:connector-curvature="0"
       transform="matrix(0.13229167,0,0,0.09799383,20,140.37037)" />
    <path
       style="fill:#6f917c;fill-opacity:1;stroke-width:0.35355338"
       d="m 2.206489,287.74733 c 0.00283,-2.70823 0.376823,-5.56002 1.2663864,-9.65656 l 0.5441469,-2.50586 2.0102135,-0.62865 c 6.8377552,-2.13838 21.1122402,-11.0655 38.0552792,-23.79941 1.266057,-0.95153 1.679732,-1.13141 1.495039,-0.65011 -0.376598,0.9814 -3.008092,15.08758 -3.497601,18.74897 l -0.421779,3.15477 -6.380536,3.07841 c -9.858031,4.75619 -27.4693759,12.6725 -32.2783247,14.50914 -0.7797254,0.29779 -0.7954422,0.25317 -0.7928243,-2.2507 z"
       id="path853"
       inkscape:connector-curvature="0"
       transform="matrix(0.13229167,0,0,0.09799383,20,140.37037)" />
    <path
       style="fill:#6f917c;fill-opacity:1;stroke-width:0.35355338"
       d="M 4.3760296,299.60012 C 3.8412791,298.58999 2.66785,294.50732 2.4170578,292.78434 L 2.18404,291.18348 5.4642978,289.8038 C 18.980584,284.11884 39.311481,274.59933 49.22642,269.31313 c 3.402951,-1.8143 6.329051,-3.21616 6.502447,-3.11525 0.30861,0.17962 0.05192,8.49371 -0.363831,11.78424 l -0.205711,1.62813 -3.761946,1.68884 c -15.464723,6.94255 -44.804881,18.91975 -46.3470806,18.91975 -0.1907002,0 -0.4941213,-0.27843 -0.6742688,-0.61872 z"
       id="path855"
       inkscape:connector-curvature="0"
       transform="matrix(0.13229167,0,0,0.09799383,20,140.37037)" />
    <path
       style="fill:#6f917c;fill-opacity:1;stroke-width:0.015625"
       d="m 37.004147,274.7563 0.0046,-0.0953 2.328176,-1.12329 2.328176,-1.12329 0.08334,-0.62851 c 0.428964,-3.23496 0.526312,-3.88667 0.941099,-6.30039 0.265769,-1.54656 0.931433,-5.27009 0.975566,-5.45703 0.0069,-0.0294 0.0188,-0.0352 0.07246,-0.0352 0.06408,0 0.06414,6e-5 0.05384,0.0508 -0.0057,0.0279 -0.09406,0.51133 -0.196406,1.07422 -0.684539,3.76478 -1.276652,7.3101 -1.711714,10.24901 -0.05526,0.37328 -0.09843,0.68074 -0.09593,0.68324 0.0025,0.002 0.116617,-0.0737 0.253595,-0.16938 0.431055,-0.30102 1.322471,-0.90201 1.86749,-1.25906 4.465053,-2.92506 7.920869,-4.7471 9.946548,-5.24418 0.421487,-0.10343 0.587995,-0.12574 0.942826,-0.12631 0.287914,-4.6e-4 0.332744,0.003 0.443214,0.0351 0.238772,0.0692 0.278417,0.0308 -0.431364,0.41716 -3.165843,1.72316 -6.371397,3.40962 -9.964975,5.24263 -1.917414,0.97803 -5.96092,2.99346 -7.489014,3.7328 l -0.356201,0.17234 z"
       id="path857"
       inkscape:connector-curvature="0"
       transform="matrix(0.13229167,0,0,0.09799383,20,140.37037)" />
    <path
       style="fill:#6f917c;fill-opacity:1;stroke-width:0.17677669"
       d=""
       id="path859"
       inkscape:connector-curvature="0"
       transform="matrix(0.13229167,0,0,0.09799383,20,140.37037)" />
    <path
       style="fill:#6f917c;fill-opacity:1;stroke-width:0.17677669"
       d="m 58.480863,202.55766 c -1.855592,-0.0813 -2.068062,-0.11742 -1.325825,-0.2257 1.221719,-0.17823 4.390513,-0.4484 6.717514,-0.57274 l 1.944544,-0.1039 -0.972272,0.52704 c -1.071033,0.58057 -1.328686,0.59576 -6.363961,0.3753 z"
       id="path861"
       inkscape:connector-curvature="0"
       transform="matrix(0.13229167,0,0,0.09799383,20,140.37037)" />
    <path
       style="fill:#000000;fill-opacity:1;stroke-width:0.17677669"
       d="m 56.532785,291.60056 c -0.0019,-0.0243 -0.124757,-0.72037 -0.272919,-1.5468 -0.162709,-0.90758 -0.310241,-3.18523 -0.37256,-5.75174 l -0.103176,-4.24915 6.801962,-3.3756 c 18.275841,-9.06975 28.720955,-15.9119 33.593902,-22.00593 0.853918,-1.0679 2.252402,-3.69151 2.252402,-4.2256 0,-0.48232 0.298399,-0.57351 0.415198,-0.12688 0.05601,0.21419 0.03165,0.43282 -0.05414,0.48584 -0.08579,0.053 -0.465792,0.89532 -0.844458,1.87178 -2.388199,6.15844 -9.606288,14.2391 -21.582365,24.16149 -0.321564,0.26642 -0.541667,0.55397 -0.489118,0.639 0.05292,0.0856 -0.443469,0.11603 -1.112534,0.0682 -0.731381,-0.0523 -1.47366,0.001 -1.881129,0.13569 -1.468891,0.48477 -2.893319,2.38401 -3.467106,4.62281 -0.165229,0.64469 -0.289492,0.8411 -0.484743,0.76618 -0.300782,-0.11542 -0.174473,-0.2016 -7.046147,4.80735 -4.675049,3.40778 -5.341255,3.87116 -5.353072,3.7234 z"
       id="path863"
       inkscape:connector-curvature="0"
       transform="matrix(0.13229167,0,0,0.09799383,20,140.37037)" />
  </g>
</svg>
