<?xml version="1.0" encoding="UTF-8" standalone="no"?>
<!-- Created with Inkscape (http://www.inkscape.org/) -->

<svg
   xmlns:dc="http://purl.org/dc/elements/1.1/"
   xmlns:cc="http://creativecommons.org/ns#"
   xmlns:rdf="http://www.w3.org/1999/02/22-rdf-syntax-ns#"
   xmlns:svg="http://www.w3.org/2000/svg"
   xmlns="http://www.w3.org/2000/svg"
   xmlns:sodipodi="http://sodipodi.sourceforge.net/DTD/sodipodi-0.dtd"
   xmlns:inkscape="http://www.inkscape.org/namespaces/inkscape"
   width="40mm"
   height="80mm"
   viewBox="0 0 40 80"
   version="1.1"
   id="svg8"
   sodipodi:docname="knightHorAttack.svg"
   inkscape:version="0.92.4 (5da689c313, 2019-01-14)">
  <defs
     id="defs2" />
  <sodipodi:namedview
     id="base"
     pagecolor="#ffffff"
     bordercolor="#666666"
     borderopacity="1.0"
     inkscape:pageopacity="0.0"
     inkscape:pageshadow="2"
     inkscape:zoom="2"
     inkscape:cx="66.415727"
     inkscape:cy="144.66783"
     inkscape:document-units="mm"
     inkscape:current-layer="layer1"
     showgrid="false"
     inkscape:window-width="1920"
     inkscape:window-height="1001"
     inkscape:window-x="-9"
     inkscape:window-y="-9"
     inkscape:window-maximized="1" />
  <metadata
     id="metadata5">
    <rdf:RDF>
      <cc:Work
         rdf:about="">
        <dc:format>image/svg+xml</dc:format>
        <dc:type
           rdf:resource="http://purl.org/dc/dcmitype/StillImage" />
        <dc:title></dc:title>
      </cc:Work>
    </rdf:RDF>
  </metadata>
  <g
     inkscape:label="Camada 1"
     inkscape:groupmode="layer"
     id="layer1"
     transform="matrix(2,0,0,2.7,-40,-379)">
    <ellipse
       id="path21"
       cx="74.249496"
       cy="151.82832"
       rx="0.7794829"
       ry="1.6643295"
       style="stroke-width:0.04323959"
       transform="matrix(0.99190792,0.12695932,-0.23604527,0.97174206,0,0)" />
    <ellipse
       id="path23"
       cx="67.545944"
       cy="151.87729"
       rx="1.870759"
       ry="2.1048872"
       style="stroke-width:0.04323959"
       transform="matrix(0.99190792,0.12695932,-0.23604527,0.97174206,0,0)" />
    <path
       style="fill:none;stroke:#000000;stroke-width:0.04310635px;stroke-linecap:butt;stroke-linejoin:miter;stroke-opacity:1"
       d="m 25.590457,160.01095 c -9.74201,-1.24693 -2.041966,-9.97259 -1.021722,-10.23437"
       id="path27"
       inkscape:connector-curvature="0" />
    <path
       style="fill:none;stroke:#000000;stroke-width:0.04310635px;stroke-linecap:butt;stroke-linejoin:miter;stroke-opacity:1"
       d="m 25.590457,160.01095 c 8.458706,1.27885 6.309798,1.59236 9.765133,1.15173 6.327748,-4.38902 2.781959,-10.1399 2.511775,-9.684"
       id="path29"
       inkscape:connector-curvature="0" />
    <path
       style="fill:none;stroke:#000000;stroke-width:0.04310635px;stroke-linecap:butt;stroke-linejoin:miter;stroke-opacity:1"
       d="m 37.867349,151.47874 c 1.999691,-2.98113 0.720079,-7.5591 -1.220847,-8.1018 -1.94093,-0.54273 1.14636,2.50094 -1.08073,1.82352 -2.22709,-0.67743 -1.375737,0.41247 -0.524382,1.50237 0.851348,1.08991 -0.03564,3.42869 -1.713522,3.11584 -1.677865,-0.31292 -4.77056,-0.70876 -4.77056,-0.70876 0,0 -4.000842,-4.53392 0.05704,-5.48592 4.057879,-0.95201 -4.429342,0.51208 -0.719824,-0.97497 3.709522,-1.48706 5.323478,-3.53662 -0.49587,-1.24059 -5.819341,2.29604 -2.829896,8.36808 -2.829896,8.36808"
       id="path33"
       inkscape:connector-curvature="0" />
    <g
       id="g3840"
       transform="matrix(0.14343532,0,0,0.12778959,-20.286026,135.36508)">
      <path
         inkscape:connector-curvature="0"
         id="path35"
         d="m 380.06233,203.25487 c 1.9006,52.99986 1.06578,28.55278 -6.03637,41.97381 -4.83441,9.40624 -0.4211,25.12619 -6.12295,26.50281 -5.70183,1.37662 -8.56535,-15.93149 -11.73303,-17.30812 -3.16769,-1.37661 -10.56072,-6.46776 -12.46134,2.48026 1.21749,10.45359 -8.37756,25.69764 -12.49833,4.60744 -1.57964,-8.08456 1.0517,-17.14327 -0.21537,-19.20821 -1.26708,-2.06493 -13.30431,4.81818 -13.30431,4.81818 0,0 8.07086,-52.96735 25.1764,-50.21411"
         style="fill:none;stroke:#000000;stroke-width:0.23112476px;stroke-linecap:butt;stroke-linejoin:miter;stroke-opacity:1"
         sodipodi:nodetypes="cccccsccc" />
    </g>
    <path
       style="fill:none;stroke:#000000;stroke-width:0.04310635px;stroke-linecap:butt;stroke-linejoin:miter;stroke-opacity:1"
       d="m 22.332219,170.54473 c -2.220605,-2.93727 1.998545,-10.31459 3.330909,-10.51951 1.332364,-0.20493 7.407694,1.3511 7.407694,1.3511 0,0 7.91449,8.41702 1.3637,7.93885"
       id="path53"
       inkscape:connector-curvature="0"
       sodipodi:nodetypes="cccc" />
    <path
       style="fill:none;stroke:#000000;stroke-width:0.04310635px;stroke-linecap:butt;stroke-linejoin:miter;stroke-opacity:1"
       d="m 22.332219,170.54473 c 0,0 9.548607,-4.16682 9.215517,-5.94284"
       id="path55"
       inkscape:connector-curvature="0" />
    <path
       style="fill:none;stroke:#000000;stroke-width:0.04310635px;stroke-linecap:butt;stroke-linejoin:miter;stroke-opacity:1"
       d="m 34.434522,169.31517 c 0,0 -2.807091,-6.57268 -1.3637,-7.93885"
       id="path57"
       inkscape:connector-curvature="0"
       sodipodi:nodetypes="cc" />
    <path
       style="fill:none;stroke:#000000;stroke-width:0.04310635px;stroke-linecap:butt;stroke-linejoin:miter;stroke-opacity:1"
       d="m 21.693794,168.3247 c 6.078911,-1.84433 8.764846,-4.10274 9.153455,-5.52014"
       id="path63"
       inkscape:connector-curvature="0"
       sodipodi:nodetypes="cc" />
    <path
       style="fill:none;stroke:#000000;stroke-width:0.04310635px;stroke-linecap:butt;stroke-linejoin:miter;stroke-opacity:1"
       d="m 21.971371,166.30961 c 2.720244,-0.39279 7.133697,-4.57668 8.299516,-4.57668"
       id="path65"
       inkscape:connector-curvature="0" />
    <path
       style="fill:none;stroke:#000000;stroke-width:0.04310635px;stroke-linecap:butt;stroke-linejoin:miter;stroke-opacity:1"
       d="m 22.748583,164.14081 c 1.637697,-1.84434 2.067714,-4.22307 4.094016,-4.15476"
       id="path67"
       inkscape:connector-curvature="0"
       sodipodi:nodetypes="cc" />
    <path
       style="fill:#6f917c;stroke-width:0.043544"
       d="m 22.979984,163.7088 c 0.06763,-0.22523 0.641832,-1.28065 1.003397,-1.84433 0.575908,-0.89784 1.236694,-1.63805 1.581617,-1.77171 0.115803,-0.0448 0.71197,-0.10617 1.036159,-0.10652 l 0.241442,-1.9e-4 -0.324712,0.1503 c -0.719545,0.33308 -1.278928,0.86896 -2.587679,2.47896 -0.542366,0.66721 -0.969966,1.15931 -0.950224,1.09357 z"
       id="path3836"
       inkscape:connector-curvature="0" />
    <path
       style="fill:none;stroke:#000000;stroke-width:0.11691177px;stroke-linecap:butt;stroke-linejoin:miter;stroke-opacity:1"
       d="m 31.547736,164.60189 c -1.179392,-3.87495 -2.65452,-4.07415 -2.65452,-4.07415"
       id="path845"
       inkscape:connector-curvature="0" />
    <path
       style="fill:#e6e6e6;fill-opacity:1;stroke-width:0.04133455"
       d="m 33.004839,161.2907 c -0.133416,-0.0163 -0.406312,-0.0713 -0.606437,-0.12232 -1.37273,-0.34964 -4.01174,-0.90394 -4.984916,-1.04704 -0.351921,-0.0517 -0.545794,-0.0962 -0.545794,-0.12513 0,-0.035 -0.128424,-0.0404 -0.58254,-0.0246 -0.679446,0.0236 -1.066544,-0.0223 -1.942032,-0.2303 -1.322942,-0.31427 -2.343704,-0.85513 -2.902523,-1.53793 -0.46762,-0.57136 -0.661071,-1.15572 -0.656908,-1.98429 0.0044,-0.86762 0.238236,-1.70664 0.755882,-2.7117 0.72125,-1.40038 1.958888,-2.9645 2.819843,-3.56371 l 0.243701,-0.16961 -0.153263,-0.39602 c -0.38327,-0.99034 -0.540019,-1.73574 -0.57576,-2.73794 -0.02135,-0.59869 -0.0096,-0.85668 0.05629,-1.23259 0.237863,-1.35772 0.872072,-2.35695 2.011693,-3.16952 0.498789,-0.35565 0.923612,-0.57297 1.77463,-0.90785 1.606727,-0.63225 2.963901,-0.99409 3.339662,-0.89038 0.250248,0.0691 0.115017,0.29102 -0.427632,0.70188 -0.651231,0.49307 -1.428428,0.91074 -2.693713,1.44761 -0.962146,0.40825 -1.170639,0.55982 -0.970196,0.70532 0.142635,0.10354 0.486545,0.1193 1.540816,0.0706 0.541367,-0.025 0.996044,-0.0369 1.010395,-0.0265 0.01435,0.0104 -0.22089,0.0783 -0.522757,0.15079 -0.829949,0.19937 -1.134709,0.31715 -1.498434,0.57907 -0.573299,0.41282 -0.750492,0.80371 -0.71073,1.56787 0.02856,0.54882 0.165527,1.00899 0.49267,1.65519 0.184423,0.36429 1.027674,1.62831 1.181966,1.77175 0.07691,0.0715 0.242731,0.10249 1.370749,0.25621 0.705789,0.0962 1.81879,0.26164 2.473333,0.36768 0.654545,0.10604 1.27675,0.19264 1.382678,0.19245 0.484798,-9e-4 1.018466,-0.32964 1.331526,-0.82032 0.249844,-0.39159 0.340674,-0.67163 0.374345,-1.15415 0.0412,-0.59041 -0.04218,-0.83149 -0.510616,-1.47644 -0.498541,-0.68639 -0.638409,-0.92046 -0.671615,-1.12399 -0.02562,-0.15704 -0.01721,-0.17668 0.09936,-0.23213 0.169527,-0.0806 0.4245,-0.0515 1.109194,0.12649 0.597207,0.15529 0.752714,0.16726 0.917168,0.0706 0.173217,-0.10184 0.143562,-0.39692 -0.100715,-1.00219 -0.190501,-0.47202 -0.241826,-0.76164 -0.153016,-0.86344 0.0308,-0.0353 0.111238,-0.0441 0.289903,-0.0316 0.684255,0.0477 1.355237,0.66363 1.843283,1.69199 0.867468,1.82784 0.798318,4.31071 -0.167759,6.0234 -0.117966,0.20913 -0.214484,0.38742 -0.214484,0.39619 0,0.009 0.03231,0.0159 0.07179,0.0159 0.16211,0 0.55201,0.64822 0.783755,1.30302 0.267386,0.75551 0.328511,1.14808 0.329003,2.11301 5.48e-4,0.98367 -0.04185,1.26284 -0.316849,2.08875 -0.16582,0.49801 -0.246249,0.58796 -0.110922,0.12406 0.106857,-0.3663 0.121074,-1.12764 0.02607,-1.39607 -0.03639,-0.10283 -0.1202,-0.23357 -0.186245,-0.29054 -0.737644,-0.63635 -1.870749,1.65066 -1.394541,2.81468 0.07032,0.17189 0.293545,0.35689 0.430622,0.35689 0.122703,0 0.394755,-0.16379 0.549245,-0.33067 0.247091,-0.26691 0.185039,-0.11533 -0.152811,0.37329 -0.551524,0.79765 -1.396333,1.65008 -2.19617,2.21598 l -0.379988,0.26885 -0.679209,0.0739 c -0.851974,0.0927 -1.291426,0.11342 -1.600995,0.0756 z m -1.590686,-3.14009 c 0.438762,-0.11844 0.953417,-0.5109 1.239882,-0.9455 0.289164,-0.4387 0.377747,-0.70251 0.407971,-1.21498 0.06607,-1.12028 -0.626442,-1.90178 -1.676646,-1.89209 -1.406314,0.013 -2.539975,1.6738 -2.064926,3.02513 0.302369,0.86012 1.158015,1.28001 2.093719,1.02744 z"
       id="path1529"
       inkscape:connector-curvature="0" />
    <path
       style="fill:#000000;fill-opacity:1;stroke-width:0.04133455"
       d="m 27.825413,169.99763 c -0.07027,-0.0533 -0.173868,-0.17253 -0.230218,-0.26504 -0.144848,-0.23778 -0.334902,-0.86965 -0.367815,-1.22287 l -0.02789,-0.29935 0.691637,-0.38738 c 1.367471,-0.76592 2.685802,-1.67666 3.14937,-2.17567 l 0.217804,-0.23446 0.266833,-0.001 c 0.146758,-7e-4 0.545187,-0.0116 0.885399,-0.0242 0.359832,-0.0133 0.6182,-0.01 0.617693,0.009 -5.49e-4,0.0175 -0.172962,0.17447 -0.38329,0.34879 -0.21033,0.17433 -0.373924,0.32704 -0.363544,0.33935 0.01039,0.0123 0.253815,0.12224 0.540964,0.24427 0.28715,0.12202 0.529144,0.22535 0.537764,0.22962 0.0086,0.004 -0.04188,0.13999 -0.112225,0.3016 -0.180793,0.41535 -0.256037,0.84252 -0.313067,1.77732 -0.02733,0.44791 -0.07351,0.89502 -0.102634,0.99359 -0.114829,0.38867 -0.403427,0.52916 -0.6865,0.3342 -0.211978,-0.14599 -0.395335,-0.433 -0.71668,-1.12181 -0.412887,-0.88504 -0.4382,-0.91647 -0.898619,-1.11585 -0.428617,-0.1856 -0.728179,-0.24783 -0.964775,-0.20041 -0.346328,0.0694 -0.573442,0.37846 -0.566855,0.77134 0.01452,0.86583 -0.470833,1.79606 -0.937099,1.79606 -0.05967,0 -0.165982,-0.0436 -0.236251,-0.0968 z"
       id="path1531"
       inkscape:connector-curvature="0" />
    <path
       style="fill:#000000;fill-opacity:1;stroke-width:0.02922794"
       d="m 32.458082,164.65522 -0.144998,-0.0236 -0.585313,-0.70765 c -0.561391,-0.67872 -0.592991,-0.72405 -0.77318,-1.1092 -0.441146,-0.94292 -0.910571,-1.61456 -1.406608,-2.01252 -0.111558,-0.0895 -0.144744,-0.12924 -0.09977,-0.11946 0.03707,0.008 0.337545,0.0664 0.667733,0.12963 0.330188,0.0632 0.975019,0.19286 1.432957,0.28803 0.457937,0.0952 0.932333,0.18983 1.054215,0.21035 0.121879,0.0205 0.261706,0.0484 0.310726,0.0619 l 0.08913,0.0246 -0.06911,0.0812 c -0.10584,0.12431 -0.233072,0.47533 -0.275466,0.75999 -0.07133,0.47893 -0.04066,1.04422 0.101247,1.86647 l 0.0698,0.40446 -0.09603,0.0874 c -0.05282,0.0481 -0.103747,0.0862 -0.113181,0.0847 -0.0094,-0.001 -0.0824,-0.0133 -0.162152,-0.0262 z"
       id="path1535"
       inkscape:connector-curvature="0" />
    <path
       style="fill:#6f917c;fill-opacity:1;stroke-width:0.04133455"
       d="m 22.064234,166.13525 c 0.305732,-1.09252 0.601543,-1.82858 0.855611,-2.129 0.111321,-0.13164 0.369923,-0.47705 0.574671,-0.76759 0.412524,-0.58537 1.023296,-1.32852 1.62086,-1.97214 0.386479,-0.41627 1.030826,-0.94729 1.255247,-1.03448 0.09829,-0.0382 0.243217,-0.0239 1.009122,0.0996 0.49189,0.0793 0.925534,0.15234 0.963652,0.16226 0.04408,0.0115 -0.0043,0.0445 -0.132988,0.0907 -0.755563,0.27136 -1.530932,1.42912 -2.144048,3.20145 -0.138493,0.40034 -0.233194,0.60536 -0.30628,0.66306 -0.175935,0.1389 -1.242962,0.78868 -1.680399,1.0233 -0.518718,0.27822 -1.193625,0.56495 -1.611407,0.68459 -0.420178,0.12033 -0.443457,0.11908 -0.404041,-0.0218 z"
       id="path1537"
       inkscape:connector-curvature="0" />
    <path
       style="fill:#6f917c;fill-opacity:1;stroke-width:0.04133455"
       d="m 25.985424,164.25995 c 0.01557,-0.0387 0.09481,-0.26368 0.176089,-0.49987 0.641461,-1.86399 1.459907,-3.00558 2.283187,-3.18463 0.453222,-0.0986 0.98045,0.2126 1.546487,0.91272 0.0829,0.10254 0.150732,0.19345 0.150732,0.20203 0,0.009 -0.07877,0.0395 -0.175041,0.0687 -0.376066,0.11406 -1.02614,0.51178 -2.469026,1.51057 -1.496149,1.03565 -1.542869,1.06625 -1.512428,0.99051 z"
       id="path1539"
       inkscape:connector-curvature="0" />
    <path
       style="fill:#6f917c;fill-opacity:1;stroke-width:0.04133455"
       d="m 25.338934,166.84295 c 0,-0.085 0.297949,-1.35793 0.431502,-1.84345 l 0.145308,-0.52825 0.456048,-0.31695 c 1.50071,-1.04299 2.435217,-1.67788 2.780677,-1.88914 0.385421,-0.23571 0.909138,-0.48835 1.010853,-0.48764 0.05636,4e-4 0.137393,0.12424 0.421071,0.64355 0.103521,0.1895 0.188221,0.38415 0.188221,0.43254 0,0.25962 -0.52928,0.98994 -1.108536,1.5296 -0.766482,0.71408 -2.320512,1.6924 -3.185041,2.0051 -0.266833,0.0965 -0.632515,0.24647 -0.812627,0.33324 -0.180111,0.0868 -0.327476,0.14139 -0.327476,0.1214 z"
       id="path1541"
       inkscape:connector-curvature="0" />
    <path
       style="fill:#6f917c;fill-opacity:1;stroke-width:0.04133455"
       d="m 21.748825,168.06062 c 0,-0.28682 0.09236,-0.96635 0.185685,-1.36621 l 0.08115,-0.34766 0.266833,-0.0604 c 0.778842,-0.17621 1.901726,-0.71724 3.162896,-1.52395 0.314852,-0.2014 0.38855,-0.23522 0.362417,-0.16634 -0.07254,0.19119 -0.373042,1.38699 -0.474898,1.88976 l -0.108486,0.5355 -0.488536,0.19765 c -0.750509,0.30364 -2.852587,1.03806 -2.971167,1.03806 -0.0087,0 -0.01589,-0.0884 -0.01589,-0.19644 z"
       id="path1543"
       inkscape:connector-curvature="0" />
    <path
       style="fill:#6f917c;fill-opacity:1;stroke-width:0.04133455"
       d="m 22.215271,170.29452 c -0.255585,-0.41951 -0.46476,-1.19448 -0.464392,-1.72051 l 1.65e-4,-0.22891 0.447656,-0.13748 c 1.269134,-0.38976 2.917404,-1.02826 4.071176,-1.57706 0.452822,-0.21539 0.699779,-0.31222 0.77624,-0.30435 l 0.112135,0.0115 -0.01019,0.66912 c -0.0056,0.36802 -0.02386,0.78414 -0.04056,0.92472 l -0.03037,0.2556 -0.590134,0.31075 c -1.110198,0.58461 -3.835903,1.89617 -4.084629,1.96545 -0.0514,0.0143 -0.104919,-0.034 -0.187091,-0.16886 z"
       id="path1545"
       inkscape:connector-curvature="0" />
    <path
       style="fill:#6f917c;fill-opacity:1;stroke-width:0.04133455"
       d="m 27.212016,167.5673 c 0.06993,-0.90593 0.0591,-1.24454 -0.04152,-1.29789 -0.07597,-0.0403 -0.03815,-0.0708 0.363863,-0.2937 1.577378,-0.87456 2.793407,-1.93733 3.212226,-2.80738 l 0.108401,-0.22519 0.05127,0.12127 c 0.04602,0.10886 0.03187,0.15039 -0.138214,0.4057 -0.104217,0.15644 -0.189486,0.30745 -0.189486,0.33557 0,0.0281 0.200684,0.26862 0.445965,0.53444 0.247444,0.26816 0.442386,0.51566 0.437924,0.556 -0.01697,0.15338 -0.285527,0.5122 -0.621605,0.83051 -0.606501,0.57445 -2.226282,1.64741 -3.450068,2.28537 l -0.222015,0.11574 z"
       id="path1549"
       inkscape:connector-curvature="0" />
    <path
       style="fill:#6f917c;fill-opacity:1;stroke-width:0.04133455"
       d="m 34.176847,165.30719 c -0.0525,-0.0535 -0.103107,-0.13647 -0.112462,-0.18434 -0.01065,-0.0545 -0.07951,-0.11356 -0.184172,-0.15801 -0.09194,-0.039 -0.330324,-0.19437 -0.529743,-0.34516 -0.247485,-0.18714 -0.374319,-0.26039 -0.399557,-0.23075 -0.02475,0.0291 -0.04537,0.0149 -0.06238,-0.0428 -0.16077,-0.54538 -0.220544,-1.81148 -0.10767,-2.28056 0.06671,-0.27722 0.225537,-0.60538 0.293,-0.60538 0.02052,0 0.723323,0.79733 1.008856,1.14455 l 0.173763,0.2113 0.03543,1.29422 c 0.01949,0.71182 0.02305,1.29422 0.0079,1.29422 -0.01513,0 -0.07047,-0.0438 -0.122971,-0.0973 z"
       id="path1551"
       inkscape:connector-curvature="0" />
    <path
       style="fill:#6f917c;fill-opacity:1;stroke-width:0.04133455"
       d="m 36.55039,167.33198 c -0.220865,-0.19819 -0.793375,-0.69396 -1.272242,-1.10172 l -0.870671,-0.74139 -0.02236,-1.00185 c -0.0123,-0.55101 -0.0337,-1.13655 -0.04756,-1.30118 l -0.0252,-0.29935 0.319716,0.405 c 0.478807,0.60651 1.338021,1.88911 1.641326,2.4501 0.147365,0.27256 0.335119,0.66875 0.417229,0.88042 0.141228,0.36406 0.316833,1.03001 0.278871,1.05757 -0.0096,0.007 -0.198242,-0.14942 -0.419106,-0.3476 z"
       id="path1553"
       inkscape:connector-curvature="0" />
    <path
       style="fill:#6f917c;fill-opacity:1;stroke-width:0.04133455"
       d="m 34.718455,169.28676 -0.250706,-0.0119 -0.09675,-0.23597 c -0.05321,-0.12979 -0.165717,-0.41823 -0.250011,-0.64097 -0.08429,-0.22275 -0.165583,-0.43612 -0.180643,-0.47416 -0.01554,-0.0392 0.180084,0.069 0.452202,0.25018 0.263772,0.17563 0.734878,0.47096 1.046903,0.65629 l 0.567318,0.33695 -0.151899,0.0384 c -0.08355,0.0211 -0.273343,0.0471 -0.421774,0.0578 -0.148431,0.0107 -0.313537,0.0229 -0.366903,0.0273 -0.05337,0.004 -0.209848,0.003 -0.347736,-0.004 z"
       id="path1555"
       inkscape:connector-curvature="0" />
  </g>
  <g
     inkscape:groupmode="layer"
     id="layer2"
     inkscape:label="Camada 2">
    <path
       style="fill:#333333;stroke:#000000;stroke-width:0.07515503px;stroke-linecap:butt;stroke-linejoin:miter;stroke-opacity:1"
       d="M 37.734467,79.861843 C 35.609464,82.075049 25.362794,71.683148 26.690759,73.073887 l -3.562513,-3.688638 0.937501,-1.844348 -2.875006,-4.241954 0.875001,-1.84432 2.87501,4.703028 1.062504,-1.291032 c 0,0 12.356212,13.33533 11.731211,14.99522"
       id="path51"
       inkscape:connector-curvature="0"
       sodipodi:nodetypes="ccccccccc" />
    <path
       style="fill:none;stroke:#000000;stroke-width:0.27167839px;stroke-linecap:butt;stroke-linejoin:miter;stroke-opacity:1"
       d="m 23.095471,65.425102 c 4.757089,0.732557 4.94824,1.203043 4.879629,1.572835 -0.0686,0.369792 -5.45454,0.437031 -5.45454,0.437031"
       id="path847"
       inkscape:connector-curvature="0" />
    <path
       style="fill:none;stroke:#000000;stroke-width:0.27167836px;stroke-linecap:butt;stroke-linejoin:miter;stroke-opacity:1"
       d="m 23.095471,65.425102 c 0.557162,1.034949 -0.574911,2.009865 -0.574911,2.009865"
       id="path856"
       inkscape:connector-curvature="0" />
    <path
       style="fill:#000000;fill-opacity:1;stroke-width:0.03395979"
       d="m 22.953171,67.19425 c 0.137178,-0.188044 0.310772,-0.51869 0.371984,-0.708521 0.05252,-0.16286 0.06424,-0.278158 0.05441,-0.535338 -0.0068,-0.180274 -0.0033,-0.327773 0.008,-0.327773 0.01127,0 0.37289,0.06071 0.803614,0.134918 2.236473,0.385298 3.441877,0.744591 3.610585,1.076203 0.05069,0.09965 0.03415,0.111428 -0.229859,0.163573 -0.60171,0.11885 -3.023426,0.270927 -4.335225,0.272239 l -0.338661,2.7e-4 z"
       id="path858"
       inkscape:connector-curvature="0" />
  </g>
</svg>
