<?xml version="1.0" encoding="UTF-8" standalone="no"?>
<!-- Created with Inkscape (http://www.inkscape.org/) -->

<svg
   xmlns:dc="http://purl.org/dc/elements/1.1/"
   xmlns:cc="http://creativecommons.org/ns#"
   xmlns:rdf="http://www.w3.org/1999/02/22-rdf-syntax-ns#"
   xmlns:svg="http://www.w3.org/2000/svg"
   xmlns="http://www.w3.org/2000/svg"
   xmlns:sodipodi="http://sodipodi.sourceforge.net/DTD/sodipodi-0.dtd"
   xmlns:inkscape="http://www.inkscape.org/namespaces/inkscape"
   width="210mm"
   height="100mm"
   viewBox="0 0 210 100"
   version="1.1"
   id="svg8"
   inkscape:version="0.92.4 (5da689c313, 2019-01-14)"
   sodipodi:docname="logo.svg">
  <defs
     id="defs2" />
  <sodipodi:namedview
     id="base"
     pagecolor="#ffffff"
     bordercolor="#666666"
     borderopacity="1.0"
     inkscape:pageopacity="0.0"
     inkscape:pageshadow="2"
     inkscape:zoom="1.979899"
     inkscape:cx="642.44452"
     inkscape:cy="198.11294"
     inkscape:document-units="mm"
     inkscape:current-layer="layer1"
     showgrid="false"
     inkscape:window-width="1920"
     inkscape:window-height="1001"
     inkscape:window-x="-9"
     inkscape:window-y="-9"
     inkscape:window-maximized="1" />
  <metadata
     id="metadata5">
    <rdf:RDF>
      <cc:Work
         rdf:about="">
        <dc:format>image/svg+xml</dc:format>
        <dc:type
           rdf:resource="http://purl.org/dc/dcmitype/StillImage" />
        <dc:title />
      </cc:Work>
    </rdf:RDF>
  </metadata>
  <g
     inkscape:label="Camada 1"
     inkscape:groupmode="layer"
     id="layer1"
     transform="translate(0,-197)">
    <path
       style="fill:none;stroke:#000000;stroke-width:0.17709965px;stroke-linecap:butt;stroke-linejoin:miter;stroke-opacity:1"
       d="m 0.30709862,204.38835 0.4082496,44.21472 4.89894828,-0.31358 -1.8371057,-21.32341 h 9.5937712 l -1.632978,20.69625 4.694825,-0.31358 -0.40825,-43.90114 -4.490703,-0.31358 2.245355,17.56046 H 3.7771908 l 1.2247348,-16.30614 z"
       id="path21"
       inkscape:connector-curvature="0" />
    <path
       style="fill:none;stroke:#000000;stroke-width:0.05547493px;stroke-linecap:butt;stroke-linejoin:miter;stroke-opacity:1"
       d="m 20.429839,229.73048 c -0.388865,-21.90046 6.286727,-21.51284 7.647772,-8.72142 1.361045,12.79142 -4.277564,38.76188 -7.647772,8.72142 z"
       id="path31"
       inkscape:connector-curvature="0" />
    <path
       style="fill:none;stroke:#000000;stroke-width:0.10022727px;stroke-linecap:butt;stroke-linejoin:miter;stroke-opacity:1"
       d="m 15.785004,225.96886 c -0.859576,-32.34087 13.896459,-31.76847 16.90497,-12.87911 3.008517,18.88935 -9.455324,57.24048 -16.90497,12.87911 z"
       id="path31-0"
       inkscape:connector-curvature="0" />
    <path
       style="fill:none;stroke:#000000;stroke-width:0.20081776px;stroke-linecap:butt;stroke-linejoin:miter;stroke-opacity:1"
       d="m 33.145381,202.58476 c 0.185695,1.77283 -0.185695,44.98559 -0.185695,44.98559 l 18.75522,-0.88642 -2.599731,-7.09132 H 38.159153 l -0.557086,-30.13813 z"
       id="path56"
       inkscape:connector-curvature="0" />
    <path
       style="fill:none;stroke:#000000;stroke-width:0.20081776px;stroke-linecap:butt;stroke-linejoin:miter;stroke-opacity:1"
       d="m 51.900602,201.69834 c 0.185688,1.77283 -0.185696,44.98559 -0.185696,44.98559 l 18.755219,-0.88641 -2.599734,-7.09133 H 56.914365 l -0.557087,-30.13813 z"
       id="path56-5"
       inkscape:connector-curvature="0" />
    <path
       style="fill:none;stroke:#000000;stroke-width:0.0548852px;stroke-linecap:butt;stroke-linejoin:miter;stroke-opacity:1"
       d="m 69.341138,228.52343 c -0.380641,-21.90047 6.153773,-21.51285 7.486033,-8.72143 1.33226,12.79142 -4.187103,38.76189 -7.486033,8.72143 z"
       id="path31-7"
       inkscape:connector-curvature="0" />
    <path
       style="fill:none;stroke:#000000;stroke-width:0.0991618px;stroke-linecap:butt;stroke-linejoin:miter;stroke-opacity:1"
       d="m 64.794529,224.7618 c -0.841394,-32.34087 13.602581,-31.76847 16.547468,-12.87911 2.944887,18.88935 -9.255361,57.24049 -16.547468,12.87911 z"
       id="path31-0-1"
       inkscape:connector-curvature="0" />
    <path
       style="fill:#b3b3b3;stroke:#000000;stroke-width:0.18140328px;stroke-linecap:butt;stroke-linejoin:miter;stroke-opacity:1"
       d="m 80.878901,201.91995 3.03052,44.09917 5.454928,-27.47888 4.697299,27.25728 6.212562,-43.21276 -2.727466,1.77283 -3.636622,28.80851 -4.848825,-28.5869 -4.242727,29.47331 -1.666779,-29.25171 z"
       id="path117"
       inkscape:connector-curvature="0" />
    <path
       style="fill:none;stroke:#000000;stroke-width:0.20081776px;stroke-linecap:butt;stroke-linejoin:miter;stroke-opacity:1"
       d="m 1.5771891,248.01356 -0.1856956,41.66153 6.6850292,-0.4432 -2.5997313,-19.27955 6.6850266,18.61473 5.385164,-0.2216 -10.0275463,-22.60359 8.9133733,-18.39313 h -4.456687 l -5.7565553,17.0635 -2.22834,-14.62586 z"
       id="path119"
       inkscape:connector-curvature="0" />
    <path
       style="fill:none;stroke:#000000;stroke-width:0.20081776px;stroke-linecap:butt;stroke-linejoin:miter;stroke-opacity:1"
       d="m 32.773991,288.34547 5.942251,0.2216 -2.228347,-41.21832 -3.528209,0.2216 z"
       id="path121"
       inkscape:connector-curvature="0" />
    <path
       style="fill:none;stroke:#000000;stroke-width:0.20081776px;stroke-linecap:butt;stroke-linejoin:miter;stroke-opacity:1"
       d="m 17.546982,288.34547 -0.371391,-40.99672 11.141714,27.47888 -0.742782,-28.5869 5.199468,2.65924 v 39.4455 l -12.998669,-27.03568 0.742783,28.80851 z"
       id="path123"
       inkscape:connector-curvature="0" />
    <path
       style="fill:none;stroke:#000000;stroke-width:0.20081776px;stroke-linecap:butt;stroke-linejoin:miter;stroke-opacity:1"
       d="m 53.01477,253.99686 -0.371392,-7.75613 c 0,0 -15.784092,-1.32963 -15.227008,16.8419 0.557086,18.17152 2.971124,27.03567 9.841851,26.37086 6.870722,-0.66481 5.756549,-12.63142 5.756549,-12.63142 l -7.613505,-2.88085 4.642382,5.7617 -0.928478,6.20491 c 0,0 -10.213237,-2.88085 -8.727675,-17.06351 1.485562,-14.18264 9.470458,-23.2684 12.627276,-14.84746 z"
       id="path125"
       inkscape:connector-curvature="0"
       sodipodi:nodetypes="ccssccccsc" />
    <path
       style="fill:none;stroke:#000000;stroke-width:0.20081776px;stroke-linecap:butt;stroke-linejoin:miter;stroke-opacity:1"
       d="m 52.643378,246.24073 0.525231,44.18873 6.302709,-0.3134 -2.363518,-21.31087 h 12.342802 l -2.100905,20.68409 6.040094,-0.3134 -0.525224,-43.87534 -5.777485,-0.31339 2.888744,17.55013 H 57.1078 l 1.575679,-16.29655 z"
       id="path21-4"
       inkscape:connector-curvature="0" />
    <path
       style="fill:none;stroke:#000000;stroke-width:0.20081776px;stroke-linecap:butt;stroke-linejoin:miter;stroke-opacity:1"
       d="m 79.549594,288.2917 2.971122,-4.43208 -0.557079,-32.35417 -6.127947,0.2216 -2.599732,5.3185 -0.371391,-11.74501 25.625937,0.44321 -0.37139,10.19378 -3.528206,-4.21048 -7.613505,-0.2216 0.371392,31.68936 2.042651,4.43208 z"
       id="path142"
       inkscape:connector-curvature="0" />
    <path
       style="fill:#b3b3b3;stroke-width:0.14344126"
       d="m 0.84247332,246.79562 c -0.00139,-0.91841 -0.08894,-10.23728 -0.1939288,-20.7086 -0.1049892,-10.47131 -0.1922544,-19.58524 -0.1939288,-20.25316 l -0.00278,-1.21441 H 2.6183974 4.78495 v 0.43909 c 0,0.45371 -0.9857005,13.79145 -1.1169109,15.11315 l -0.073891,0.74431 h 5.1936266 5.1936263 l -0.06635,-0.35257 c -0.192435,-1.0229 -2.182512,-17.07922 -2.125317,-17.14747 0.0371,-0.0443 0.972645,-0.0207 2.079009,0.0522 l 2.011574,0.13272 -0.01084,6.73799 c -0.0063,3.7059 -0.05808,8.71239 -0.115765,11.12553 -0.09187,3.84294 -0.07732,4.54314 0.11728,5.64112 0.179623,1.01353 0.233379,2.42382 0.280735,7.36479 0.03224,3.36116 0.08258,7.60963 0.111937,9.44103 l 0.05336,3.32982 h -2.212506 -2.212499 l 0.05947,-0.50926 c 0.1079,-0.92361 1.499662,-18.92703 1.499662,-19.39927 v -0.46216 H 8.5256047 3.600062 l 0.070729,0.58762 c 0.067742,0.56279 1.7706633,20.34353 1.7706633,20.56762 0,0.0597 -0.7121283,0.15664 -1.5825012,0.21535 -1.4850225,0.10015 -1.6068672,0.086 -1.9779895,-0.22934 -0.393534,-0.33441 -0.3958268,-0.3345 -0.4648885,-0.0194 -0.038144,0.17419 -0.1821105,0.35188 -0.3198728,0.39487 -0.23471968,0.0733 -0.25066498,-0.0268 -0.25350668,-1.59166 z"
       id="path144"
       inkscape:connector-curvature="0" />
    <path
       style="fill:#b3b3b3;stroke-width:0.14344126"
       d="m 23.411849,246.22016 c -2.322338,-0.88416 -4.68548,-6.29702 -6.483852,-14.85145 l -0.588338,-2.79861 v -7.10975 c 0,-6.50054 0.02286,-7.25107 0.266729,-8.75918 0.511647,-3.16399 1.336894,-5.98756 2.370145,-8.10939 0.727796,-1.49457 2.180657,-3.22709 3.206259,-3.82343 0.710843,-0.41332 0.916465,-0.45808 2.104001,-0.45808 1.232037,0 1.374218,0.0341 2.224477,0.53383 1.153485,0.67792 2.674532,2.45271 3.544356,4.13562 1.243842,2.40657 2.166987,5.53209 2.654073,8.986 0.299307,2.12236 0.335971,8.59427 0.06379,11.25947 -0.885126,8.66716 -3.203907,16.43355 -5.848924,19.59005 -1.183868,1.41279 -2.309519,1.863 -3.512716,1.40492 z m 1.634353,-2.89088 c 1.773769,-1.85854 3.25504,-9.87305 3.27366,-17.71235 0.01341,-5.6526 -0.742511,-9.74597 -2.250907,-12.18842 -1.334511,-2.16089 -3.074138,-1.61694 -4.154795,1.29914 -0.852746,2.30108 -1.311118,5.48067 -1.525313,10.58061 -0.130509,3.10742 -0.121692,3.75516 0.07356,5.40607 0.979857,8.28491 2.382659,13.07953 3.826786,13.07953 0.172495,0 0.513149,-0.20906 0.757005,-0.46458 z"
       id="path146"
       inkscape:connector-curvature="0" />
    <path
       style="fill:#b3b3b3;stroke-width:0.14344126"
       d="m 33.199816,234.9843 c 0.04912,-6.83263 0.09947,-16.77388 0.111916,-22.09165 0.01244,-5.31777 0.04513,-9.64181 0.07264,-9.60899 0.02751,0.0328 0.959267,1.4574 2.070579,3.16573 l 2.020566,3.10604 0.0042,1.17523 c 0.0023,0.64638 0.120602,7.20417 0.262918,14.57288 0.142316,7.3687 0.259625,13.62681 0.260686,13.90691 l 0.0019,0.50927 h 5.494676 5.494677 l 1.133456,3.08762 c 0.714112,1.9453 1.082085,3.12551 0.994607,3.19003 -0.07637,0.0563 -0.592108,0.14427 -1.146091,0.19543 -0.553985,0.0512 -1.479948,0.19925 -2.057694,0.32909 -0.679653,0.15273 -3.0435,0.32098 -6.696625,0.47665 -3.105396,0.13233 -6.200915,0.27843 -6.878933,0.32467 l -1.232759,0.0841 z"
       id="path148"
       inkscape:connector-curvature="0" />
    <path
       style="fill:#b3b3b3;stroke-width:0.14344126"
       d="m 55.348897,246.03777 -3.468371,-0.0554 0.08714,-11.86719 c 0.04793,-6.52696 0.08718,-16.36898 0.08723,-21.87115 l 9.6e-5,-10.00395 2.100902,3.24126 2.100899,3.24126 0.0028,1.82671 c 0.0021,1.28796 0.490402,27.93061 0.519722,28.3478 0.0014,0.0215 2.474961,0.0392 5.496546,0.0392 h 5.493788 l 0.166936,0.43091 c 0.411425,1.06199 1.976122,5.39 1.976122,5.46602 0,0.0465 -0.679495,0.0609 -1.509996,0.0319 l -1.509994,-0.0527 0.07639,0.48479 0.07639,0.4848 -2.275801,0.10484 c -3.84299,0.17704 -5.813592,0.20861 -9.420748,0.15095 z"
       id="path150"
       inkscape:connector-curvature="0" />
    <path
       style="fill:#b3b3b3;stroke-width:0.14344126"
       d="m 72.735747,245.06325 c -0.361094,-0.0532 -0.875542,-0.25869 -1.143216,-0.4566 -1.948827,-1.44088 -3.872812,-6.14668 -5.425597,-13.27026 -1.170409,-5.36941 -1.243932,-5.94585 -1.243813,-9.75176 3.68e-4,-9.98127 1.628871,-17.24211 4.640933,-20.69145 1.231272,-1.41002 2.059277,-1.83649 3.565609,-1.83649 1.064607,0 1.266367,0.0498 2.035252,0.50199 4.32663,2.54478 6.992623,11.41681 6.441713,21.43702 -0.546526,9.94042 -2.961722,19.0782 -5.999343,22.69823 -0.583641,0.69554 -1.762777,1.53679 -2.083699,1.48661 -0.07222,-0.0113 -0.426745,-0.0641 -0.787839,-0.11729 z m 1.094907,-2.91748 c 1.444899,-1.45091 2.720832,-7.31843 3.185415,-14.64847 0.558678,-8.81472 -1.301133,-16.60994 -3.962867,-16.60994 -2.239082,0 -3.797071,6.2839 -3.797071,15.31487 0,1.84387 0.08285,3.08982 0.335457,5.04496 0.764321,5.91556 1.655322,9.44264 2.724161,10.78382 0.497758,0.62458 0.971464,0.66046 1.514905,0.11476 z"
       id="path152"
       inkscape:connector-curvature="0" />
    <path
       style="fill:#b3b3b3;stroke-width:0.14344126"
       d="m 80.255775,287.55965 c 0.218066,-0.32758 0.845611,-1.26548 1.394534,-2.08422 l 0.998047,-1.48863 -0.0014,-1.17523 c -6.85e-4,-0.64638 -0.117687,-7.62726 -0.259826,-15.51307 -0.14214,-7.88581 -0.259454,-14.70819 -0.260705,-15.16085 l -0.0021,-0.82301 -3.118528,0.0952 c -2.704172,0.0825 -3.144694,0.1305 -3.315487,0.36114 -0.108324,0.14629 -0.669663,1.23981 -1.247412,2.43003 l -1.050448,2.16404 -0.08233,-2.09392 c -0.0453,-1.15165 -0.126,-3.60344 -0.179373,-5.44842 l -0.09705,-3.35451 5.299546,0.11251 c 4.40503,0.0935 5.317403,0.15059 5.405328,0.33808 0.138818,0.29602 0.355341,0.28917 0.355341,-0.0112 0,-0.20917 0.731659,-0.22674 6.269878,-0.15058 3.448434,0.0474 6.647981,0.12546 7.110104,0.17342 l 0.84023,0.0872 -0.0868,2.68806 c -0.0477,1.47844 -0.12462,3.59064 -0.17086,4.6938 l -0.0841,2.00573 -1.654167,-1.9448 -1.654175,-1.94479 -3.865556,-0.0966 c -2.12606,-0.0531 -3.890665,-0.0666 -3.921354,-0.03 -0.03071,0.0366 0.02835,7.21479 0.131155,15.9515 l 0.186939,15.88491 0.95331,2.08038 c 0.524321,1.14421 0.934418,2.0996 0.911324,2.12309 -0.02307,0.0235 -1.81463,0.15833 -3.981182,0.29962 -2.166553,0.14129 -4.227206,0.29512 -4.579227,0.34183 l -0.640037,0.0849 z"
       id="path154"
       inkscape:connector-curvature="0" />
    <path
       style="fill:#b3b3b3;stroke-width:0.14344126"
       d="m 53.316123,288.8836 c -0.03741,-0.36628 -0.10527,-4.8968 -0.150799,-10.06783 -0.04553,-5.17102 -0.126621,-12.82178 -0.180209,-17.00169 -0.06568,-5.12307 -0.05375,-7.63443 0.03661,-7.70599 0.0909,-0.072 0.08108,-1.24999 -0.03051,-3.65969 -0.0905,-1.95444 -0.146091,-3.57557 -0.123525,-3.6025 0.02257,-0.0269 1.304622,-0.10054 2.849013,-0.16358 l 2.807989,-0.11462 -0.08271,0.68932 c -0.04551,0.37913 -0.37836,3.79194 -0.739718,7.58402 -0.361359,3.79208 -0.689374,7.12386 -0.728929,7.40396 l -0.07191,0.50927 h 6.633634 6.633644 l -0.0716,-0.43092 c -1.131498,-6.80959 -2.645673,-16.10885 -2.627011,-16.13362 0.01369,-0.0181 0.738342,-0.0811 1.61042,-0.13987 1.503879,-0.10143 1.582036,-0.1232 1.516455,-0.42247 -0.06614,-0.30175 -0.02466,-0.31151 0.949057,-0.22363 0.560012,0.0505 1.052789,0.13318 1.095067,0.18363 0.07248,0.0865 0.531123,34.01287 0.546894,40.45423 l 0.0073,2.995 -2.767203,0.11423 c -1.521967,0.0628 -2.79433,0.0819 -2.827478,0.0423 -0.03314,-0.0396 0.406311,-4.6471 0.976578,-10.23898 0.570277,-5.59188 1.011918,-10.21994 0.981444,-10.28458 -0.0305,-0.0646 -2.855116,-0.11752 -6.276968,-0.11752 -3.421858,0 -6.247464,0.0529 -6.279126,0.11752 -0.04342,0.0886 1.818395,17.37558 2.193921,20.3707 l 0.06385,0.50926 h -2.938092 -2.938097 z"
       id="path156"
       inkscape:connector-curvature="0" />
    <path
       style="fill:#b3b3b3;stroke-width:0.14344126"
       d="m 44.52673,288.91931 c -3.759011,-1.58279 -5.672273,-7.00516 -6.60595,-18.72191 -0.14646,-1.83795 -0.226936,-4.32175 -0.231006,-7.12974 -0.0058,-3.96706 0.01651,-4.4055 0.280265,-5.52236 0.643552,-2.72499 1.357555,-4.30786 2.726378,-6.04411 1.492205,-1.89274 2.948128,-2.98151 5.258803,-3.93264 1.0935,-0.45011 1.359554,-0.49308 3.801909,-0.61406 1.44437,-0.0716 2.64632,-0.1121 2.671001,-0.0901 0.02468,0.022 0.07806,1.32195 0.118618,2.88882 l 0.07374,2.84887 -0.662683,-0.79083 c -1.681647,-2.00683 -3.764781,-1.56963 -6.146007,1.28991 -1.966036,2.36094 -3.574917,5.9163 -4.599385,10.16385 -2.157196,8.94396 -1.119001,15.48649 3.144338,19.81511 1.19405,1.21233 3.297682,2.57125 4.553829,2.94172 l 0.335212,0.0989 0.479964,-3.24251 0.479965,-3.24251 -2.021626,-2.52201 c -1.111894,-1.38711 -1.997929,-2.5503 -1.968966,-2.58486 0.02897,-0.0346 1.537557,0.49278 3.35243,1.17188 l 3.299769,1.23472 -0.06247,2.58552 c -0.06911,2.86007 -0.240486,3.89497 -0.953163,5.75589 -0.567592,1.48209 -1.538842,2.70918 -2.670781,3.37431 -0.800099,0.47014 -0.971494,0.50973 -2.375261,0.54871 -1.253358,0.0348 -1.64436,-0.0133 -2.278921,-0.28052 z"
       id="path158"
       inkscape:connector-curvature="0" />
    <path
       style="fill:#b3b3b3;stroke-width:0.14344126"
       d="m 35.733429,288.27627 c -1.502242,-0.0555 -2.750106,-0.12661 -2.773029,-0.15809 -0.05842,-0.0802 0.144745,-40.25445 0.203875,-40.31509 0.02654,-0.0272 0.742627,-0.0885 1.591306,-0.13611 1.50548,-0.0845 1.544427,-0.0784 1.599402,0.25306 0.07909,0.47685 2.204338,40.39922 2.152322,40.43106 -0.02339,0.0143 -1.271633,-0.0194 -2.773876,-0.0748 z"
       id="path160"
       inkscape:connector-curvature="0" />
    <path
       style="fill:#b3b3b3;stroke-width:0.14344126"
       d="m 18.735998,288.87871 -1.083276,-0.65238 6.95e-4,-3.1383 c 3.68e-4,-1.72607 -0.0626,-9.6961 -0.140034,-17.71118 -0.0775,-8.01509 -0.122192,-15.5508 -0.09934,-16.74604 l 0.04155,-2.17315 5.373736,13.25951 c 2.955559,7.29273 5.422475,13.25951 5.482046,13.25951 0.156743,0 0.147003,-0.63416 -0.231809,-15.09174 -0.18926,-7.22316 -0.314238,-13.16866 -0.277741,-13.21222 0.03648,-0.0436 1.135858,0.46572 2.443008,1.13173 l 2.376649,1.21094 -5.51e-4,19.28773 c -5.52e-4,18.73951 -0.0073,19.27436 -0.240155,18.81763 -0.131816,-0.25855 -2.947002,-6.11121 -6.255964,-13.00591 -3.308962,-6.89469 -6.094792,-12.63738 -6.190728,-12.76152 -0.09594,-0.12415 -0.206956,-0.18691 -0.246712,-0.13947 -0.05551,0.0663 0.29286,15.22978 0.623161,27.12167 0.0412,1.48275 0.0056,1.49498 -1.574761,0.54319 z"
       id="path162"
       inkscape:connector-curvature="0" />
    <path
       style="fill:#b3b3b3;stroke-width:0.14344126"
       d="m 1.5917518,275.40085 c 0.063156,-20.34777 0.1561116,-26.74937 0.388485,-26.74937 0.1016264,0 0.5632912,0.28529 1.0259286,0.63397 0.6118707,0.46116 0.8609725,0.74948 0.9138388,1.05771 0.1470793,0.85752 2.1777595,14.27792 2.1777595,14.39241 0,0.44693 0.5654379,-1.12731 3.01925,-8.40591 1.5253823,-4.52464 2.8285863,-8.293 2.8960013,-8.37413 0.124061,-0.1493 3.914566,-0.47483 4.022946,-0.3455 0.03231,0.0385 -1.902145,4.11401 -4.298741,9.05661 -3.8869553,8.01621 -4.3435823,9.02883 -4.2289983,9.37828 0.07065,0.21546 2.2896067,5.25589 4.9310243,11.20096 2.641411,5.94506 4.778929,10.83742 4.750033,10.8719 -0.0289,0.0345 -1.147697,0.10631 -2.486231,0.15962 l -2.433691,0.0969 -3.2330773,-9.01011 c -3.6266811,-10.10704 -3.4491424,-9.64023 -3.596979,-9.45786 -0.059891,0.0739 0.4688766,4.40044 1.1750574,9.61456 0.706181,5.21411 1.2776846,9.49192 1.2700006,9.50624 -0.0077,0.0143 -1.1957209,0.10279 -2.6400915,0.1966 -1.4443708,0.0938 -2.8669321,0.20245 -3.1612506,0.24143 l -0.5351267,0.0709 z"
       id="path164"
       inkscape:connector-curvature="0" />
    <path
       style="fill:none;stroke:#000000;stroke-width:0.21347307px;stroke-linecap:butt;stroke-linejoin:miter;stroke-opacity:1"
       d="m 114.3331,208.48464 c -6.03463,0 -11.31494,19.63397 -0.5388,20.497 10.77615,0.86302 2.8018,-5.39395 -1.18538,-4.31516 -3.98717,1.07879 -3.44836,-10.35638 0.86209,-10.7879 4.31046,-0.43151 9.48301,-7.55152 0.86209,-5.39394 z"
       id="path170"
       inkscape:connector-curvature="0" />
    <path
       sodipodi:type="spiral"
       style="fill:none;fill-rule:evenodd;stroke:#000000;stroke-width:0.26458332"
       id="path178"
       sodipodi:cx="66.967308"
       sodipodi:cy="36.421772"
       sodipodi:expansion="1"
       sodipodi:revolution="3"
       sodipodi:radius="11.34086"
       sodipodi:argument="-18.832891"
       sodipodi:t0="0"
       d="m 66.967308,36.421772 c 0.568534,0.0095 0.267722,0.771047 -0.01575,0.94494 -0.768188,0.471241 -1.653294,-0.240435 -1.874133,-0.976437 -0.395029,-1.316534 0.683965,-2.559144 1.937126,-2.803324 1.839065,-0.358345 3.481244,1.12968 3.732517,2.897815 0.334907,2.356645 -1.57567,4.40963 -3.858504,4.661708 -2.872713,0.317216 -5.341139,-2.021668 -5.590901,-4.819192 -0.302494,-3.388177 2.467646,-6.274434 5.779882,-6.520093 3.903354,-0.289501 7.208844,2.913607 7.449285,6.74057 0.277598,4.41838 -3.359559,8.144 -7.701259,8.378477 -4.933316,0.266428 -9.079678,-3.805503 -9.30767,-8.661948 -0.255772,-5.448197 4.251444,-10.015736 9.622637,-10.236861 5.963043,-0.245492 10.952079,4.697382 11.166054,10.583326"
       transform="matrix(0.60277212,0,0,1.1416478,82.265222,177.53912)" />
    <path
       style="fill:none;stroke:#000000;stroke-width:0.24658141px;stroke-linecap:butt;stroke-linejoin:miter;stroke-opacity:1"
       d="m 129.82586,229.61278 -0.7189,-22.0073 2.8756,0.43152 6.61387,14.88729 -0.86268,-14.45578 4.31341,-0.21576 -1.15025,21.57578 -8.91435,-14.02425 1.15024,13.37698 z"
       id="path180"
       inkscape:connector-curvature="0" />
    <path
       style="fill:none;stroke:#000000;stroke-width:0.24658141px;stroke-linecap:butt;stroke-linejoin:miter;stroke-opacity:1"
       d="m 147.11748,228.90502 -0.28757,-15.10305 -3.59449,-0.21575 -1.18826,-5.33347 13.95388,0.30513 -2.23668,5.33973 h -3.66004 l 0.10161,15.56152 z"
       id="path182"
       inkscape:connector-curvature="0" />
    <path
       style="fill:none;stroke:#000000;stroke-width:0.24658141px;stroke-linecap:butt;stroke-linejoin:miter;stroke-opacity:1"
       d="m 156.51243,229.78852 -0.51139,-21.23064 c 0,0 11.59318,-1.95907 11.89818,6.88964 0.305,8.8487 -3.15171,5.64486 -3.15171,5.64486 l 3.96505,9.45895 -4.37172,-0.61025 -4.16837,-9.15383 -0.305,9.00127 z"
       id="path184"
       inkscape:connector-curvature="0" />
    <path
       style="fill:none;stroke:#000000;stroke-width:0.30415353px;stroke-linecap:butt;stroke-linejoin:miter;stroke-opacity:1"
       d="m 159.2669,213.78384 c 0,0 3.80489,-3.34928 4.75611,0.66985 0.95121,4.01913 -5.07319,6.92183 -4.75611,-0.66985 z"
       id="path186"
       inkscape:connector-curvature="0" />
    <path
       sodipodi:type="spiral"
       style="fill:none;fill-rule:evenodd;stroke:#000000;stroke-width:0.26458332"
       id="path192"
       sodipodi:cx="132.03114"
       sodipodi:cy="37.748558"
       sodipodi:expansion="1"
       sodipodi:revolution="3"
       sodipodi:radius="11.520526"
       sodipodi:argument="-18.779902"
       sodipodi:t0="0"
       d="m 132.03114,37.748558 c 0.57622,0.0402 0.2301,0.796567 -0.0668,0.957716 -0.80462,0.436703 -1.6642,-0.332856 -1.84862,-1.09135 -0.32989,-1.356769 0.83152,-2.559238 2.11588,-2.739513 1.88486,-0.264561 3.47065,1.333272 3.63042,3.140416 0.21293,2.408639 -1.83565,4.388423 -4.16495,4.52131 -2.9312,0.167225 -5.30937,-2.338189 -5.41221,-5.189482 -0.12456,-3.453298 2.84081,-6.232119 6.21401,-6.303108 3.97521,-0.08366 7.15601,3.343478 7.19401,7.238549 0.0439,4.497013 -3.84617,8.080649 -8.26308,8.084905 -5.01877,0.0048 -9.00582,-4.348891 -8.97581,-9.287615 0.0337,-5.540503 4.85163,-9.931382 10.31215,-9.866702 6.06222,0.07181 10.85723,5.35437 10.7576,11.336681"
       transform="matrix(0.60255318,0,0,1.1416478,94.025566,177.69169)" />
    <path
       style="fill:none;stroke:#000000;stroke-width:0.24658141px;stroke-linecap:butt;stroke-linejoin:miter;stroke-opacity:1"
       d="m 181.14686,230.52288 -0.50834,-22.27432 2.5417,0.30513 0.10162,17.08715 7.42174,-1.06795 0.305,6.10255 z"
       id="path194"
       inkscape:connector-curvature="0" />
    <path
       style="fill:none;stroke:#000000;stroke-width:0.27697071px;stroke-linecap:butt;stroke-linejoin:miter;stroke-opacity:1"
       d="m 200.21044,208.89817 c -10.06458,-0.27222 -10.20836,3.26658 -10.28026,5.71652 -0.0719,2.44995 4.81662,2.58607 4.81662,2.58607 0,0 4.88852,0.27221 4.9604,4.35545 0.0719,4.08324 -3.30693,4.21935 -4.9604,4.08324 -1.65347,-0.13611 -3.81016,-0.54444 -3.81016,-0.54444 l 0.0719,5.58043 11.21483,-1.36108 c 0,0 1.94104,-14.29133 -1.4378,-14.15524 -3.37883,0.13612 -8.62679,0 -8.483,-1.9055 0.14377,-1.90551 8.84245,-2.17773 9.63324,-1.90551 0.79079,0.27221 -1.72535,-2.44994 -1.72535,-2.44994 z"
       id="path198"
       inkscape:connector-curvature="0" />
    <path
       style="fill:none;stroke:#000000;stroke-width:0.24658141px;stroke-linecap:butt;stroke-linejoin:miter;stroke-opacity:1"
       d="m 129.46625,219.33572 -2.43745,-0.53181"
       id="path200"
       inkscape:connector-curvature="0" />
    <path
       style="fill:none;stroke:#000000;stroke-width:0.24658141px;stroke-linecap:butt;stroke-linejoin:miter;stroke-opacity:1"
       d="m 180.50624,221.70263 -2.23692,-0.15256"
       id="path202"
       inkscape:connector-curvature="0" />
    <path
       style="fill:#b3b3b3;stroke-width:0.08806479"
       d="m 148.42353,228.94578 c -0.6324,-0.11647 -1.15518,-0.22011 -1.16172,-0.23033 -0.007,-0.0103 -0.0773,-3.38509 -0.15719,-7.49971 -0.0799,-4.11464 -0.16637,-7.51282 -0.19214,-7.55154 -0.0258,-0.0387 -0.82868,-0.11211 -1.78425,-0.16298 -0.95556,-0.0509 -1.75761,-0.12374 -1.78233,-0.16181 -0.075,-0.11552 -1.0869,-4.77157 -1.04928,-4.82803 0.0496,-0.0744 12.35036,0.17618 12.93745,0.2636 l 0.48463,0.0722 -0.99496,2.37333 -0.99494,2.37334 -1.86204,0.0539 -1.86204,0.054 0.0292,7.74031 0.0292,7.74031 -0.24494,-0.0123 c -0.13471,-0.007 -0.76236,-0.10766 -1.39477,-0.22416 z"
       id="path204"
       inkscape:connector-curvature="0" />
    <path
       style="fill:#b3b3b3;stroke-width:0.08806479"
       d="m 129.95552,229.16687 c -0.0481,-0.35502 -0.71154,-21.2419 -0.67639,-21.29464 0.0288,-0.0432 1.97384,0.22649 2.41405,0.3347 0.22206,0.0546 0.4305,0.49572 3.51823,7.44614 2.29191,5.15906 3.31603,7.37797 3.39439,7.35447 0.0803,-0.0241 0.1072,-0.14043 0.0945,-0.40853 -0.01,-0.20618 -0.19696,-3.40312 -0.41602,-7.10433 -0.21905,-3.7012 -0.38313,-6.75219 -0.36461,-6.77998 0.038,-0.0571 3.92834,-0.27835 3.96106,-0.22533 0.0327,0.0531 -1.07685,20.67356 -1.11551,20.73061 -0.0188,0.0277 -2.02085,-3.07623 -4.44894,-6.89782 -2.42809,-3.82158 -4.43494,-6.94834 -4.4597,-6.94834 -0.0247,0 0.21698,3.04624 0.53718,6.7694 0.51306,5.96573 0.56884,6.77733 0.4698,6.83605 -0.0617,0.0366 -0.59762,0.12278 -1.19072,0.1914 -0.59309,0.0686 -1.21436,0.15304 -1.38059,0.1876 -0.27525,0.0572 -0.3053,0.0402 -0.33668,-0.1914 z"
       id="path206"
       inkscape:connector-curvature="0" />
    <path
       style="fill:none;stroke:#000000;stroke-width:0.24658141px;stroke-linecap:butt;stroke-linejoin:miter;stroke-opacity:1"
       d="m 119.26248,218.43119 2.08481,-0.43152"
       id="path222"
       inkscape:connector-curvature="0" />
    <path
       style="fill:none;stroke:#000000;stroke-width:0.24658141px;stroke-linecap:butt;stroke-linejoin:miter;stroke-opacity:1"
       d="m 170.08866,219.83361 2.30047,-0.86303"
       id="path224"
       inkscape:connector-curvature="0" />
    <path
       style="fill:#916f6f;stroke-width:0.12454242"
       d="m 112.58825,228.57482 c -2.41464,-0.65745 -3.93956,-2.33015 -4.57042,-5.01329 -1.0891,-4.63217 1.06574,-11.73255 4.27011,-14.07038 0.98911,-0.72162 2.75388,-1.15077 4.71793,-1.14726 1.52689,0.002 2.02286,0.39835 1.74793,1.39434 -0.43744,1.58479 -3.0283,3.54245 -5.21381,3.93957 -1.53269,0.27849 -2.58175,1.39543 -3.23276,3.44189 -0.38598,1.21334 -0.52495,2.31258 -0.48247,3.81643 0.047,1.66027 0.42565,2.84199 1.11624,3.48267 0.50569,0.46917 0.5292,0.47287 2.62995,0.41439 0.87126,-0.0242 1.40681,0.047 2.10169,0.27995 1.66828,0.55904 3.29341,1.79771 3.36819,2.56722 0.037,0.38169 -0.41376,0.74412 -1.20621,0.96963 -0.75615,0.2152 -4.37015,0.16342 -5.24637,-0.0751 z"
       id="path262"
       inkscape:connector-curvature="0" />
    <path
       style="fill:#916f6f;stroke-width:0.12454242"
       d="m 121.34853,228.43672 c -1.16262,-0.42427 -2.45698,-1.96993 -3.18883,-3.80791 -0.82635,-2.07535 -1.25217,-5.21567 -1.0367,-7.64546 0.59388,-6.69681 3.99834,-10.83579 7.47214,-9.08426 2.34269,1.18122 4.32415,5.49148 4.68163,10.18403 0.0838,1.10027 0.17734,1.03728 -1.11425,0.75053 -0.73206,-0.16252 -0.81785,-0.21714 -0.88066,-0.56065 -0.51376,-2.81027 -0.80424,-3.73748 -1.57281,-5.02023 -0.30731,-0.51291 -0.70952,-0.95491 -1.19997,-1.31865 -0.6367,-0.47219 -0.83516,-0.54666 -1.4493,-0.54375 -1.04074,0.005 -1.76603,0.45729 -2.50061,1.55961 -1.12373,1.68629 -1.66348,4.23122 -1.41226,6.65877 0.30819,2.97789 1.59071,5.09455 3.08688,5.09455 0.78405,0 1.31989,-0.37774 1.90977,-1.34627 0.91104,-1.49583 1.16235,-3.78144 0.61864,-5.62652 -0.41205,-1.39831 -0.99476,-2.05027 -1.83248,-2.05027 -0.44593,0 -0.56591,0.0716 -0.91664,0.54709 -0.22194,0.3009 -0.45824,0.77412 -0.5251,1.05158 -0.12058,0.50039 -0.12934,0.50605 -1.07435,0.69374 -0.52403,0.10411 -0.98316,0.14363 -1.0203,0.0879 -0.12681,-0.1903 0.15078,-2.01701 0.44226,-2.91027 0.6747,-2.06778 1.90495,-3.35555 3.1888,-3.33791 1.61835,0.0223 3.0726,1.97005 3.72413,4.9881 0.33819,1.56657 0.38123,4.01631 0.0982,5.59259 -0.38909,2.16747 -1.51111,4.51138 -2.57588,5.381 -0.58384,0.47684 -1.54437,0.87952 -2.05414,0.86114 -0.19794,-0.007 -0.58865,-0.0965 -0.86823,-0.19847 z"
       id="path264"
       inkscape:connector-curvature="0" />
    <path
       style="fill:#916f6f;stroke-width:0.12454242"
       d="m 130.2953,229.30045 c -0.11185,-0.0394 -0.23664,-0.11837 -0.27733,-0.17549 -0.0407,-0.0571 -0.0989,-0.99443 -0.12939,-2.08294 -0.0304,-1.0885 -0.0767,-2.56267 -0.1026,-3.2759 -0.0526,-1.444 -0.13,-3.83291 -0.20268,-6.25511 -0.0265,-0.88106 -0.0734,-2.35712 -0.10435,-3.28013 -0.031,-0.92301 -0.0753,-2.36474 -0.0987,-3.20384 -0.0233,-0.8391 -0.0515,-1.62861 -0.0626,-1.75448 -0.0555,-0.62739 0.02,-1.53593 0.12012,-1.44316 0.0596,0.0553 0.34554,0.12634 0.63543,0.15794 1.65362,0.18021 1.63009,0.17166 1.9257,0.69949 0.15416,0.27522 1.34157,2.87101 2.63871,5.76839 1.29714,2.89737 2.40628,5.34154 2.46478,5.43148 0.0585,0.09 0.3993,0.83017 0.75734,1.64498 0.60798,1.38358 0.90273,1.75473 0.85278,1.0738 -0.0116,-0.1588 -0.0483,-0.80361 -0.0815,-1.43294 -0.0957,-1.81638 -0.13069,-2.44603 -0.19925,-3.58526 -0.0354,-0.58736 -0.0856,-1.44553 -0.1117,-1.90704 -0.0261,-0.46151 -0.0703,-1.2167 -0.0982,-1.6782 -0.12941,-2.13755 -0.15308,-2.57148 -0.18316,-3.35641 -0.0176,-0.4615 -0.0454,-0.90775 -0.0619,-0.99166 -0.0163,-0.0839 -0.0243,-0.30158 -0.0176,-0.48371 0.0161,-0.44311 0.2274,-0.49847 2.22331,-0.58242 1.50993,-0.0635 1.65314,-0.0469 1.66414,0.19319 0.007,0.14448 7.6e-4,0.33133 -0.0129,0.41524 -0.0137,0.0839 -0.0414,0.53016 -0.0614,0.99167 -0.0464,1.06614 -0.12025,2.54509 -0.19052,3.8141 -0.0302,0.54541 -0.0762,1.43791 -0.10228,1.98333 -0.0261,0.54541 -0.0737,1.43792 -0.10577,1.98333 -0.0321,0.54542 -0.0775,1.36925 -0.10085,1.83077 -0.0233,0.4615 -0.0688,1.28534 -0.10107,1.83075 -0.0323,0.54543 -0.0782,1.4036 -0.10216,1.90706 -0.0239,0.50346 -0.0712,1.36163 -0.10512,1.90704 -0.0339,0.54542 -0.077,1.36927 -0.0957,1.83077 -0.0782,1.9315 -0.0156,1.93918 -1.46157,-0.17951 -0.70574,-1.03405 -1.29935,-1.94875 -1.31914,-2.03266 -0.0336,-0.14255 -1.07322,-1.7683 -3.37033,-5.27073 -0.53121,-0.80994 -1.20376,-1.88638 -1.49456,-2.39207 -0.29079,-0.50569 -0.7194,-1.14609 -0.95247,-1.42309 l -0.42377,-0.50363 0.0638,0.98066 c 0.035,0.53937 0.0879,1.22095 0.1175,1.51464 0.0296,0.29369 0.0725,0.77426 0.0956,1.06795 0.0885,1.12843 0.16481,2.07745 0.20255,2.5173 0.0216,0.25173 0.0673,0.80096 0.10173,1.22051 0.0343,0.41955 0.0835,1.0031 0.10939,1.29679 0.14342,1.62929 0.2363,2.87441 0.29181,3.91173 l 0.0502,0.93672 -0.58041,0.11017 c -0.31922,0.0606 -0.76685,0.12837 -0.99472,0.15062 -0.22786,0.0223 -0.50238,0.0744 -0.61001,0.11604 -0.10763,0.0416 -0.28718,0.0434 -0.39902,0.003 z"
       id="path266"
       inkscape:connector-curvature="0" />
    <path
       style="fill:#916f6f;stroke-width:0.12454242"
       d="m 149.47032,229.08192 c -0.12977,-0.072 -0.35681,-0.12411 -0.50456,-0.11572 -0.32013,0.0181 -0.97685,-0.099 -1.35037,-0.24077 -0.25024,-0.095 -0.27288,-0.17601 -0.33434,-1.19568 -0.0362,-0.60157 -0.0884,-2.39818 -0.11575,-3.99247 -0.0981,-5.71183 -0.12782,-6.96431 -0.19856,-8.37996 -0.0857,-1.7169 0.0604,-1.59358 -2.01411,-1.69921 -0.94727,-0.0482 -1.47788,-0.13711 -1.55517,-0.26047 -0.0645,-0.10298 -0.34627,-1.23883 -0.62612,-2.52406 -0.39954,-1.83494 -0.47302,-2.31618 -0.34216,-2.24083 0.15735,0.0907 8.44202,0.30584 11.77236,0.30584 h 1.53935 l -0.19918,0.41954 c -0.10954,0.23076 -0.17141,0.41956 -0.13746,0.41956 0.0339,0 -0.0255,0.14049 -0.1321,0.31219 -0.10666,0.17171 -0.27996,0.56459 -0.38522,0.87308 -0.10523,0.30848 -0.27322,0.6987 -0.37325,0.86714 -0.1,0.16843 -0.20791,0.46209 -0.23977,0.65256 -0.0319,0.19046 -0.0888,0.3463 -0.12665,0.3463 -0.0378,0 -0.1498,0.20596 -0.24889,0.4577 l -0.18017,0.45768 h -1.25018 c -0.6876,0 -1.5279,0.0436 -1.86734,0.0968 l -0.61714,0.0968 0.0176,7.67615 c 0.0192,8.35135 0.0445,7.98717 -0.53088,7.66783 z"
       id="path268"
       inkscape:connector-curvature="0" />
    <path
       style="fill:#916f6f;stroke-width:0.12454242"
       d="m 166.43815,230.01486 c -0.97854,-0.15104 -1.83368,-0.28006 -1.90029,-0.28669 -0.0666,-0.007 -1.08923,-2.14472 -2.27252,-4.75132 -1.18328,-2.60659 -2.16608,-4.71727 -2.184,-4.69038 -0.0253,0.0379 -0.35325,8.51991 -0.35325,9.13592 0,0.0802 -0.65493,0.14116 -1.51634,0.14116 h -1.51634 l -0.0575,-1.10609 c -0.15458,-2.97551 -0.4767,-19.53832 -0.38273,-19.67934 0.0651,-0.0978 1.04091,-0.12325 2.72763,-0.0709 2.06865,0.0642 2.83112,0.14575 3.59194,0.38451 2.6088,0.81873 4.10321,2.14265 4.79345,4.2466 0.29094,0.88685 0.33099,1.1708 0.36989,2.62179 0.0688,2.56511 -0.26386,4.40632 -0.92643,5.12826 -0.36289,0.39539 -1.19401,0.40656 -1.68148,0.0226 -0.22224,-0.17505 -0.37684,-0.21735 -0.44124,-0.12071 -0.0644,0.0966 0.5631,1.73055 1.79088,4.66317 1.03949,2.48291 1.88999,4.55008 1.88999,4.59369 0,0.0436 -0.0343,0.071 -0.0762,0.0608 -0.0419,-0.0103 -0.87688,-0.14202 -1.85545,-0.29306 z m -3.50242,-11.82065 c 1.11437,-0.85521 1.56773,-2.29302 1.21934,-3.86701 -0.49082,-2.21749 -2.19855,-2.70096 -4.33085,-1.2261 l -0.70613,0.48842 v 0.94139 c 0,1.84866 0.51342,3.32271 1.36531,3.91987 0.6346,0.44482 1.68104,0.33534 2.45233,-0.25657 z"
       id="path270"
       inkscape:connector-curvature="0" />
    <path
       style="fill:#916f6f;stroke-width:0.12454242"
       d="m 173.63114,213.12885 c 0.18174,-0.0338 0.47912,-0.0338 0.66084,0 0.18174,0.0338 0.0331,0.0615 -0.33041,0.0615 -0.36346,0 -0.51215,-0.0277 -0.33043,-0.0615 z"
       id="path272"
       inkscape:connector-curvature="0" />
    <path
       style="fill:#916f6f;stroke-width:0.12454242"
       d="m 172.60708,230.29648 c -1.66474,-0.32192 -3.28658,-2.55876 -4.09236,-5.64419 -1.45706,-5.57922 0.064,-12.50943 3.26022,-14.85437 2.07298,-1.52083 4.21317,-0.87068 6.00789,1.8251 0.92702,1.39245 1.52593,2.80113 1.97374,4.64242 0.32876,1.35181 0.61006,3.45814 0.61006,4.56806 v 0.68894 l -0.77785,-0.0986 c -0.42781,-0.0542 -0.88005,-0.0986 -1.00496,-0.0986 -0.20056,0 -0.23534,-0.10263 -0.29744,-0.87724 -0.2582,-3.22072 -1.34624,-5.88899 -2.85063,-6.99074 -0.52859,-0.38712 -0.72535,-0.44675 -1.47418,-0.44675 -0.74355,0 -0.94625,0.0605 -1.45211,0.43323 -1.46708,1.08104 -2.50662,3.78219 -2.51143,6.52575 -0.005,2.98454 1.07885,5.7041 2.52635,6.33759 1.77655,0.77749 3.47054,-1.57971 3.47054,-4.82928 0,-3.42032 -1.92895,-5.45172 -3.18915,-3.35852 -0.32715,0.54339 -0.46973,0.64529 -1.39557,0.99747 -0.56717,0.21574 -1.05777,0.3524 -1.09024,0.30369 -0.11166,-0.16758 0.18404,-1.83453 0.49283,-2.7781 0.38196,-1.16715 1.02383,-2.17849 1.74009,-2.7417 0.47322,-0.3721 0.65765,-0.42795 1.40869,-0.42654 0.70665,0.001 0.95684,0.0692 1.37251,0.37253 0.75351,0.54979 1.57568,1.85889 2.01403,3.20683 0.50584,1.55547 0.68045,2.69217 0.67866,4.41826 -0.003,2.81902 -0.56093,4.96917 -1.76165,6.78797 -1.11436,1.68799 -2.23516,2.31209 -3.65804,2.03693 z"
       id="path274"
       inkscape:connector-curvature="0" />
    <path
       style="fill:#916f6f;stroke-width:0.12454242"
       d="m 184.50959,230.36458 -3.22795,-0.0425 -0.003,-0.49368 c -0.001,-0.27153 -0.11196,-5.16214 -0.24533,-10.86803 -0.13338,-5.70589 -0.22943,-10.3942 -0.21345,-10.41847 0.016,-0.0243 0.5038,0.0103 1.08408,0.0763 l 1.05505,0.12042 0.0622,2.5173 c 0.0343,1.38452 0.0686,5.24866 0.0762,8.58697 l 0.014,6.06966 0.48292,-0.0869 c 0.26562,-0.0477 1.92086,-0.29169 3.67831,-0.54203 2.29304,-0.32662 3.215,-0.4075 3.26487,-0.2864 0.0382,0.0928 0.10019,0.93508 0.13768,1.87171 0.0376,0.93663 0.0958,2.13205 0.12961,2.65649 l 0.0614,0.95352 -1.56446,-0.036 c -0.86046,-0.0198 -3.01705,-0.055 -4.79242,-0.0784 z"
       id="path276"
       inkscape:connector-curvature="0" />
    <path
       style="fill:#916f6f;stroke-width:0.12454242"
       d="m 191.12851,227.89737 v -2.52955 l 1.09292,0.18697 c 3.94743,0.67524 5.85879,0.31353 6.94336,-1.31401 0.36432,-0.5467 0.50394,-0.8982 0.60309,-1.51841 0.36395,-2.27667 -0.43918,-4.00395 -2.31747,-4.98417 -0.75964,-0.39643 -2.4008,-0.82517 -3.1702,-0.8282 -0.61838,-0.002 -2.26623,-0.38938 -2.92438,-0.6867 -0.29436,-0.13298 -0.69468,-0.4519 -0.8896,-0.70872 -0.29948,-0.39459 -0.3544,-0.56659 -0.3544,-1.10999 0,-1.14743 0.2623,-2.12615 0.75101,-2.80212 0.54845,-0.75864 0.80487,-0.95996 1.85383,-1.45551 1.21032,-0.57178 2.8636,-0.87721 5.27513,-0.97453 l 2.13574,-0.0862 0.7872,0.93873 c 0.43296,0.5163 0.78721,0.97533 0.78721,1.02008 0,0.0447 -0.15195,0.0386 -0.33765,-0.0137 -0.40234,-0.11326 -4.58562,0.17459 -5.78421,0.39802 -1.88635,0.35164 -3.12216,0.91251 -3.3678,1.52851 -0.20324,0.50966 0.0141,1.05624 0.5721,1.43896 0.97194,0.66659 2.10344,0.86671 5.30835,0.93885 1.7417,0.0392 3.06363,0.13329 3.23001,0.22987 0.43204,0.25082 0.76139,0.95111 1.01375,2.15556 0.20718,0.98882 0.22879,1.38669 0.22126,4.07093 -0.007,2.22692 -0.0631,3.50783 -0.226,5.09403 -0.1197,1.16548 -0.23045,2.13829 -0.24612,2.16179 -0.0157,0.0235 -2.33874,0.32222 -5.16238,0.66379 -2.82366,0.34158 -5.28261,0.64225 -5.46434,0.66815 l -0.33041,0.0471 z"
       id="path280"
       inkscape:connector-curvature="0" />
    <path
       style="fill:none;stroke:#000000;stroke-width:0.17377092px;stroke-linecap:butt;stroke-linejoin:miter;stroke-opacity:1"
       d="m 115.15587,247.48105 -1.74507,19.24605 h 15.35662 l -2.87937,-20.1289 z"
       id="path282"
       inkscape:connector-curvature="0" />
    <path
       style="fill:none;stroke:#000000;stroke-width:0.17377092px;stroke-linecap:butt;stroke-linejoin:miter;stroke-opacity:1"
       d="m 116.61737,247.61347 c 0,0 -0.76347,14.47869 -0.6544,14.52283 0.10907,0.0442 10.07778,-0.0883 10.07778,-0.0883 l -1.13429,-15.31739"
       id="path284"
       inkscape:connector-curvature="0" />
    <path
       style="fill:none;stroke:#000000;stroke-width:0.17377092px;stroke-linecap:butt;stroke-linejoin:miter;stroke-opacity:1"
       d="m 126.04075,262.04802 2.72667,4.67908"
       id="path286"
       inkscape:connector-curvature="0" />
    <path
       style="fill:none;stroke:#000000;stroke-width:0.17377092px;stroke-linecap:butt;stroke-linejoin:miter;stroke-opacity:1"
       d="m 113.4108,266.7271 2.5958,-4.67908"
       id="path288"
       inkscape:connector-curvature="0" />
    <path
       style="fill:#b3b3b3;stroke-width:0.06206106"
       d="m 113.56027,266.09002 c 0,-0.12127 1.6574,-18.40339 1.6704,-18.42556 0.005,-0.009 0.30183,-0.0447 0.65945,-0.08 l 0.65022,-0.0643 -0.0293,0.56164 c -0.27151,5.19613 -0.57062,11.49903 -0.62016,13.06783 l -0.0297,0.94091 -1.06762,1.92835 c -1.171,2.11507 -1.23323,2.21959 -1.23323,2.07117 z"
       id="path305"
       inkscape:connector-curvature="0" />
    <path
       style="fill:#b3b3b3;stroke-width:0.06206106"
       d="m 113.69116,266.48371 c 0,-0.0205 0.51637,-0.96823 1.14749,-2.10599 l 1.1475,-2.06865 5.01327,-0.0447 5.01327,-0.0447 1.23397,2.11807 c 0.67868,1.16494 1.23396,2.13275 1.23396,2.15069 0,0.0179 -3.32763,0.0326 -7.39473,0.0326 -4.06711,0 -7.39473,-0.0168 -7.39473,-0.0373 z"
       id="path307"
       inkscape:connector-curvature="0" />
    <path
       style="fill:#999999;stroke-width:0.06206106"
       d="m 127.47721,264.30125 c -0.58788,-1.01826 -1.13462,-1.95998 -1.21498,-2.09271 l -0.14613,-0.24132 -0.55838,-7.54476 c -0.30711,-4.14962 -0.55546,-7.55017 -0.5519,-7.55678 0.003,-0.007 0.19045,-0.0265 0.41531,-0.0442 l 0.40884,-0.0321 0.89066,6.22407 c 1.74378,12.18581 1.88029,13.15432 1.85302,13.14678 -0.0152,-0.004 -0.50857,-0.84076 -1.09644,-1.85902 z"
       id="path309"
       inkscape:connector-curvature="0" />
    <text
       xml:space="preserve"
       style="font-style:normal;font-weight:normal;font-size:10.58333302px;line-height:1.25;font-family:sans-serif;letter-spacing:0px;word-spacing:0px;fill:#000000;fill-opacity:1;stroke:none;stroke-width:0.26458332"
       x="55.5625"
       y="71.348213"
       id="text317"><tspan
         sodipodi:role="line"
         id="tspan315"
         x="55.5625"
         y="81.003708"
         style="stroke-width:0.26458332" /></text>
    <path
       style="fill:#000000;stroke:#000000;stroke-width:0.10818163px;stroke-linecap:butt;stroke-linejoin:miter;stroke-opacity:1"
       d="m 110.33569,275.34381 -4.15649,-0.10128 0.58958,3.19025 -2.80047,-4.70942 2.62359,-4.65878 -0.35375,3.44345 c 0,0 3.30161,0.10127 3.1837,0.10127 z"
       id="path319"
       inkscape:connector-curvature="0" />
    <path
       style="fill:#000000;stroke:#000000;stroke-width:0.15507379px;stroke-linecap:butt;stroke-linejoin:miter;stroke-opacity:1"
       d="m 122.92118,267.50726 -0.10613,8.15036 3.34306,-1.15608 -4.935,5.49138 -4.88192,-5.14455 3.60838,0.69365 c 0,0 0.10613,-6.47405 0.10613,-6.24283 z"
       id="path319-6"
       inkscape:connector-curvature="0" />
    <path
       style="fill:#000000;stroke:#000000;stroke-width:0.12696038px;stroke-linecap:butt;stroke-linejoin:miter;stroke-opacity:1"
       d="m 119.74338,260.13062 0.0769,-7.53662 -2.42328,1.06902 3.57723,-5.07786 3.53875,4.75716 -2.6156,-0.64142 c 0,0 -0.0769,5.98654 -0.0769,5.77273 z"
       id="path319-5"
       inkscape:connector-curvature="0" />
    <path
       style="fill:#000000;stroke:#000000;stroke-width:0.12530757px;stroke-linecap:butt;stroke-linejoin:miter;stroke-opacity:1"
       d="m 133.56223,271.23194 4.65638,0.12129 -0.66048,-3.82075 3.13729,5.64017 -2.93915,5.57951 0.3963,-4.12399 c 0,0 -3.69869,-0.12129 -3.5666,-0.12129 z"
       id="path319-61"
       inkscape:connector-curvature="0" />
    <path
       style="fill:none;stroke:#000000;stroke-width:0.20720288px;stroke-linecap:butt;stroke-linejoin:miter;stroke-opacity:1"
       d="m 113.352,266.7271 -2.48113,19.24606 h 21.83398 l -4.09388,-20.1289 z"
       id="path282-9"
       inkscape:connector-curvature="0" />
    <path
       style="fill:none;stroke:#000000;stroke-width:0.20720288px;stroke-linecap:butt;stroke-linejoin:miter;stroke-opacity:1"
       d="m 115.42995,266.85953 c 0,0 -1.0855,14.47868 -0.93042,14.52282 0.15507,0.0441 14.32854,-0.0883 14.32854,-0.0883 l -1.61273,-15.31738"
       id="path284-3"
       inkscape:connector-curvature="0" />
    <path
       style="fill:none;stroke:#000000;stroke-width:0.20720288px;stroke-linecap:butt;stroke-linejoin:miter;stroke-opacity:1"
       d="m 128.82807,281.29407 3.87678,4.67909"
       id="path286-5"
       inkscape:connector-curvature="0" />
    <path
       style="fill:none;stroke:#000000;stroke-width:0.20720288px;stroke-linecap:butt;stroke-linejoin:miter;stroke-opacity:1"
       d="m 110.87087,285.97316 3.69068,-4.67909"
       id="path288-8"
       inkscape:connector-curvature="0" />
    <path
       style="fill:#b3b3b3;stroke-width:0.07400104"
       d="m 111.08339,285.33608 c 0,-0.12127 2.35647,-18.40339 2.37496,-18.42556 0.007,-0.009 0.42914,-0.0447 0.9376,-0.08 l 0.92448,-0.0643 -0.0418,0.56164 c -0.38603,5.19612 -0.81131,11.49903 -0.88174,13.06783 l -0.0422,0.94091 -1.51794,1.92834 c -1.66492,2.11508 -1.7534,2.2196 -1.7534,2.07119 z"
       id="path305-6"
       inkscape:connector-curvature="0" />
    <path
       style="fill:#b3b3b3;stroke-width:0.07400104"
       d="m 111.26947,285.72976 c 0,-0.0206 0.73418,-0.96823 1.63151,-2.10599 l 1.63151,-2.06865 7.12785,-0.0447 7.12784,-0.0447 1.75445,2.11808 c 0.96495,1.16493 1.75445,2.13274 1.75445,2.15068 0,0.0179 -4.73121,0.0326 -10.51381,0.0326 -5.78259,0 -10.5138,-0.0168 -10.5138,-0.0374 z"
       id="path307-5"
       inkscape:connector-curvature="0" />
    <path
       style="fill:#999999;stroke-width:0.07400104"
       d="m 130.87043,283.5473 c -0.83583,-1.01826 -1.61319,-1.95998 -1.72746,-2.09271 l -0.20775,-0.24132 -0.79391,-7.54475 c -0.43664,-4.14962 -0.78976,-7.55017 -0.78469,-7.55678 0.005,-0.007 0.27079,-0.0265 0.59048,-0.0442 l 0.58128,-0.0321 1.26634,6.22406 c 2.47931,12.18583 2.6734,13.15434 2.63463,13.14679 -0.0215,-0.005 -0.72309,-0.84076 -1.55892,-1.85902 z"
       id="path309-7"
       inkscape:connector-curvature="0" />
    <path
       style="fill:none;stroke:#000000;stroke-width:0.17377092px;stroke-linecap:butt;stroke-linejoin:miter;stroke-opacity:1"
       d="m 113.352,266.7271 -11.06602,-0.17656 -2.879359,18.71635 11.464249,0.70627"
       id="path4912"
       inkscape:connector-curvature="0" />
    <path
       style="fill:none;stroke:#000000;stroke-width:0.17377092px;stroke-linecap:butt;stroke-linejoin:miter;stroke-opacity:1"
       d="m 132.70484,285.97316 11.33194,-0.5297 -1.91957,-20.2172 -13.50624,0.618"
       id="path4914"
       inkscape:connector-curvature="0" />
    <path
       style="fill:none;stroke:#000000;stroke-width:0.17377092px;stroke-linecap:butt;stroke-linejoin:miter;stroke-opacity:1"
       d="m 131.47228,265.84426 3.14112,14.47868 -1.90856,5.65022"
       id="path4916"
       inkscape:connector-curvature="0" />
    <path
       style="fill:none;stroke:#000000;stroke-width:0.17377092px;stroke-linecap:butt;stroke-linejoin:miter;stroke-opacity:1"
       d="m 134.6134,280.32294 h 7.67831 l 1.74507,5.12052"
       id="path4918"
       inkscape:connector-curvature="0" />
    <path
       style="fill:none;stroke:#000000;stroke-width:0.17377092px;stroke-linecap:butt;stroke-linejoin:miter;stroke-opacity:1"
       d="m 142.29171,280.32294 -2.35584,-14.83182"
       id="path4920"
       inkscape:connector-curvature="0" />
    <path
       style="fill:none;stroke:#000000;stroke-width:0.17377092px;stroke-linecap:butt;stroke-linejoin:miter;stroke-opacity:1"
       d="m 110.87087,285.97316 -0.7757,-5.12051 1.78869,-14.12555"
       id="path4924"
       inkscape:connector-curvature="0" />
    <path
       style="fill:none;stroke:#000000;stroke-width:0.17377092px;stroke-linecap:butt;stroke-linejoin:miter;stroke-opacity:1"
       d="m 110.09517,280.85265 -7.89644,0.0883 1.91958,-14.21383"
       id="path4926"
       inkscape:connector-curvature="0" />
    <path
       style="fill:#999999;stroke:#000000;stroke-width:0.17377092px;stroke-linecap:butt;stroke-linejoin:miter;stroke-opacity:1"
       d="m 102.19873,280.94094 -2.792109,4.32595"
       id="path4928"
       inkscape:connector-curvature="0" />
    <path
       style="fill:#b3b3b3;stroke-width:0.06206106"
       d="m 105.18358,285.46639 c -2.87936,-0.18307 -5.298119,-0.34659 -5.375009,-0.36338 -0.13094,-0.0286 -0.0604,-0.15352 1.112489,-1.9719 l 1.25228,-1.94137 0.34901,-0.0601 c 0.19196,-0.0331 1.96223,-0.0633 3.93393,-0.0671 l 3.58492,-0.007 0.0443,0.28693 c 0.19133,1.23762 0.66043,4.38076 0.66043,4.42511 0,0.0304 -0.0736,0.05 -0.1636,0.0435 -0.09,-0.007 -2.51944,-0.16162 -5.39881,-0.34468 z"
       id="path4934"
       inkscape:connector-curvature="0" />
    <path
       style="fill:#b3b3b3;stroke-width:0.06206106"
       d="m 99.584431,284.67006 c 0.0124,-0.07 0.637769,-4.12989 1.389589,-9.02197 l 1.36695,-8.89468 h 0.84408 0.84409 l -0.0252,0.19864 c -0.0139,0.10925 -0.4418,3.27757 -0.9509,7.0407 l -0.92565,6.84206 -1.08948,1.69726 c -1.350219,2.10344 -1.481679,2.29681 -1.453429,2.13799 z"
       id="path4936"
       inkscape:connector-curvature="0" />
    <path
       style="fill:#b3b3b3;stroke-width:0.06206106"
       d="m 110.51745,283.06915 -0.33591,-2.23434 0.88379,-6.97448 0.8838,-6.97449 0.61784,0.003 c 0.33981,0.002 0.62667,0.0215 0.63745,0.0441 0.0147,0.0309 -2.25181,17.76798 -2.33506,18.27338 -0.009,0.0534 -0.16715,-0.90835 -0.35191,-2.13724 z"
       id="path4938"
       inkscape:connector-curvature="0" />
    <path
       style="fill:#b3b3b3;stroke-width:0.06206106"
       d="m 132.69948,285.41246 c -0.0936,-0.36259 -3.94454,-19.37647 -3.92976,-19.40298 0.009,-0.0157 0.60357,-0.0435 1.32179,-0.0617 l 1.30586,-0.0331 1.55989,7.19045 c 0.85793,3.95474 1.54902,7.22601 1.53574,7.26949 -0.0133,0.0435 -0.36168,1.07854 -0.77424,2.30016 -0.41256,1.22161 -0.80118,2.3741 -0.8636,2.56109 -0.10199,0.30548 -0.11778,0.32339 -0.15568,0.17657 z"
       id="path4940"
       inkscape:connector-curvature="0" />
    <path
       style="fill:#b3b3b3;stroke-width:0.06206106"
       d="m 133.47637,283.99623 c 0.34049,-1.01043 0.73971,-2.20369 0.88716,-2.65169 l 0.26811,-0.81454 3.81734,1.8e-4 3.81734,1.8e-4 0.7978,2.34874 c 0.43879,1.2918 0.79209,2.36026 0.78513,2.37436 -0.0122,0.0246 -3.65223,0.20972 -7.69067,0.39111 -1.05577,0.0474 -2.23046,0.1093 -2.61043,0.13751 l -0.69085,0.0513 z"
       id="path4942"
       inkscape:connector-curvature="0" />
    <path
       style="fill:#b3b3b3;stroke-width:0.06206106"
       d="m 143.10009,282.40188 -0.73679,-2.1651 -1.16533,-7.3376 -1.16534,-7.33761 0.20068,-0.0585 c 0.11038,-0.0322 0.56512,-0.062 1.01054,-0.0662 l 0.80986,-0.008 0.90593,9.54249 c 0.49827,5.24838 0.89948,9.55439 0.89159,9.56892 -0.008,0.0145 -0.3459,-0.94788 -0.75114,-2.13868 z"
       id="path4944"
       inkscape:connector-curvature="0" />
    <path
       style="fill:#4d4d4d;stroke-width:0.08776757"
       d="m 102.35944,280.45846 c 0.0202,-0.15584 0.44534,-3.30793 0.9449,-7.00465 l 0.90827,-6.7213 3.7671,0.0886 c 2.07191,0.0487 3.77104,0.0954 3.77586,0.10371 0.0181,0.0312 -1.71659,13.62591 -1.74632,13.68614 -0.0171,0.0346 -1.75351,0.0782 -3.85874,0.0969 l -3.82769,0.034 z m 4.47458,-2.06323 c -0.0365,-0.18884 -0.1584,-0.849 -0.27076,-1.46703 -0.11236,-0.61802 -0.22482,-1.22869 -0.24991,-1.35705 -0.0442,-0.22622 0.0179,-0.23053 2.03067,-0.14069 1.14196,0.051 2.0763,0.0573 2.0763,0.014 0,-0.0433 -0.20966,-0.71574 -0.46591,-1.49433 l -0.46591,-1.41564 -0.96856,-0.0813 c -0.53271,-0.0447 -1.23926,-0.0815 -1.57012,-0.0817 -0.41127,-2.4e-4 -0.60154,-0.0457 -0.60154,-0.14366 0,-0.0788 0.0723,-0.84086 0.16058,-1.6935 0.0883,-0.85263 0.14571,-1.58035 0.12753,-1.61715 -0.0333,-0.0675 -2.71665,4.64569 -2.73512,4.80428 -0.0108,0.0922 2.88026,4.99238 2.95448,5.00783 0.0246,0.005 0.0149,-0.1452 -0.0217,-0.33404 z"
       id="path4946"
       inkscape:connector-curvature="0" />
    <path
       style="fill:#4d4d4d;stroke-width:0.08776757"
       d="m 116.0632,260.97405 c 0.13854,-3.47582 0.62688,-13.31828 0.66458,-13.39456 0.0202,-0.0408 7.42187,-0.67853 7.8754,-0.67853 h 0.22683 l 0.54813,7.42948 c 0.30147,4.08622 0.53671,7.44951 0.52276,7.47398 -0.014,0.0245 -2.24233,0.0785 -4.95197,0.12002 l -4.92662,0.0755 z m 4.75932,-1.54246 1.05503,-0.83453 0.0399,-1.94638 c 0.022,-1.07051 0.04,-2.35372 0.0401,-2.85157 1.3e-4,-0.66186 0.0219,-0.90518 0.0809,-0.90518 0.10882,0 2.05667,0.47773 2.31537,0.56787 0.1591,0.0554 0.20108,0.031 0.1851,-0.10755 -0.0114,-0.0986 -0.81874,-1.25316 -1.79414,-2.56573 l -1.77347,-2.38647 -1.81997,2.58393 c -1.07606,1.52774 -1.79733,2.62978 -1.76455,2.6961 0.0453,0.0917 1.76817,-0.57375 2.2499,-0.86902 0.11239,-0.0689 0.11456,0.0447 0.0703,3.68807 -0.0254,2.08706 -0.022,3.76044 0.007,3.76206 0.0292,0.002 0.52784,-0.37262 1.1081,-0.8316 z"
       id="path4948"
       inkscape:connector-curvature="0" />
    <path
       style="fill:#4d4d4d;stroke-width:0.08776757"
       d="m 114.61574,280.67452 c 0,-0.81607 0.76309,-12.32122 0.89647,-13.5161 l 0.0313,-0.28092 h 5.82508 c 5.49443,0 5.82689,0.0124 5.85695,0.2185 0.0761,0.52152 1.46556,13.91404 1.44696,13.94633 -0.0113,0.0197 -3.17876,0.0654 -7.03871,0.10165 l -7.0181,0.0658 z m 9.06211,-3.20397 c 1.31053,-1.45278 2.42278,-2.71558 2.47166,-2.80623 0.0489,-0.0907 0.0703,-0.20244 0.0476,-0.24843 -0.0227,-0.046 -0.77069,0.17078 -1.66215,0.4817 -0.89147,0.31091 -1.62513,0.55789 -1.63036,0.54883 -0.006,-0.009 0.0169,-1.83509 0.0492,-4.05785 0.0323,-2.22277 0.0504,-4.05428 0.0404,-4.07002 -0.0192,-0.0301 -2.96683,1.80257 -2.99763,1.86377 -0.01,0.0194 -0.0434,1.39818 -0.0748,3.06388 -0.0313,1.66569 -0.0657,3.04625 -0.0764,3.0679 -0.0107,0.0217 -0.71281,-0.0973 -1.56023,-0.26426 -1.73483,-0.34185 -2.02372,-0.36685 -1.99168,-0.17231 0.0256,0.15533 4.78878,5.22149 4.91654,5.22925 0.0468,0.003 1.15737,-1.18345 2.46791,-2.63623 z"
       id="path4950"
       inkscape:connector-curvature="0" />
    <path
       style="fill:#4d4d4d;stroke-width:0.08776757"
       d="m 134.6037,279.83104 c -2.26705,-10.42278 -3.0004,-13.8948 -2.93983,-13.9186 0.14803,-0.0582 8.1458,-0.40679 8.17082,-0.35617 0.0315,0.0637 2.29816,14.32632 2.29816,14.46073 0,0.0522 -1.68031,0.095 -3.73402,0.095 h -3.73403 z m 4.73692,-3.88497 c 0.78919,-1.50153 1.43293,-2.76567 1.43054,-2.8092 -0.002,-0.0435 -0.49248,-0.94998 -1.08912,-2.01435 -0.59663,-1.06438 -1.33144,-2.37795 -1.63291,-2.91906 -0.30147,-0.54111 -0.56083,-0.95815 -0.57634,-0.92676 -0.0155,0.0314 0.1215,0.92433 0.30447,1.98432 l 0.33265,1.92726 -2.34015,-0.0471 -2.34014,-0.0472 0.54179,1.74302 0.5418,1.74302 0.64199,0.0816 c 0.3531,0.0449 1.15131,0.0816 1.77381,0.0816 0.62249,0 1.1317,0.014 1.13157,0.0312 -1.1e-4,0.0172 -0.0833,0.90206 -0.18486,1.96644 -0.22155,2.32207 -0.22209,2.33688 -0.0775,2.10658 0.0591,-0.0942 0.75325,-1.39989 1.54243,-2.90143 z"
       id="path4952"
       inkscape:connector-curvature="0" />
    <path
       style="fill:none;stroke:#000000;stroke-width:0.25661778px;stroke-linecap:butt;stroke-linejoin:miter;stroke-opacity:1"
       d="m 150.10508,264.70162 -2.26625,20.45915 20.54738,-1.11191 -4.07926,-19.56963 z"
       id="path4954"
       inkscape:connector-curvature="0" />
    <path
       style="fill:none;stroke:#000000;stroke-width:0.25661778px;stroke-linecap:butt;stroke-linejoin:miter;stroke-opacity:1"
       d="m 162.52449,264.76866 1.81615,15.80341 -13.30062,1.02211 1.54908,-16.7469"
       id="path4956"
       inkscape:connector-curvature="0" />
    <path
       style="fill:none;stroke:#000000;stroke-width:0.25661778px;stroke-linecap:butt;stroke-linejoin:miter;stroke-opacity:1"
       d="m 147.83883,285.16077 3.20119,-3.56659"
       id="path4958"
       inkscape:connector-curvature="0" />
    <path
       style="fill:none;stroke:#000000;stroke-width:0.25661778px;stroke-linecap:butt;stroke-linejoin:miter;stroke-opacity:1"
       d="m 168.38621,284.04886 -4.04557,-3.47679"
       id="path4960"
       inkscape:connector-curvature="0" />
    <path
       style="fill:none;stroke:#000000;stroke-width:0.25661778px;stroke-linecap:butt;stroke-linejoin:miter;stroke-opacity:1"
       d="m 170.65245,263.58971 -2.26624,20.45915 20.54737,-1.11191 -4.07926,-19.56963 z"
       id="path4954-2"
       inkscape:connector-curvature="0" />
    <path
       style="fill:none;stroke:#000000;stroke-width:0.25661778px;stroke-linecap:butt;stroke-linejoin:miter;stroke-opacity:1"
       d="m 183.07187,263.65675 1.81615,15.80341 -13.30062,1.02212 1.54907,-16.74691"
       id="path4956-7"
       inkscape:connector-curvature="0" />
    <path
       style="fill:none;stroke:#000000;stroke-width:0.25661778px;stroke-linecap:butt;stroke-linejoin:miter;stroke-opacity:1"
       d="m 168.38621,284.04886 3.20119,-3.56658"
       id="path4958-6"
       inkscape:connector-curvature="0" />
    <path
       style="fill:none;stroke:#000000;stroke-width:0.25661778px;stroke-linecap:butt;stroke-linejoin:miter;stroke-opacity:1"
       d="m 188.93358,282.93695 -4.04556,-3.47679"
       id="path4960-2"
       inkscape:connector-curvature="0" />
    <path
       style="fill:none;stroke:#000000;stroke-width:0.25661778px;stroke-linecap:butt;stroke-linejoin:miter;stroke-opacity:1"
       d="m 191.0142,263.05708 -2.26625,20.45915 20.54738,-1.11191 -4.07927,-19.56963 z"
       id="path4954-3"
       inkscape:connector-curvature="0" />
    <path
       style="fill:none;stroke:#000000;stroke-width:0.25661778px;stroke-linecap:butt;stroke-linejoin:miter;stroke-opacity:1"
       d="m 203.43361,263.12411 1.81615,15.80342 -13.30062,1.02211 1.54907,-16.7469"
       id="path4956-6"
       inkscape:connector-curvature="0" />
    <path
       style="fill:none;stroke:#000000;stroke-width:0.25661778px;stroke-linecap:butt;stroke-linejoin:miter;stroke-opacity:1"
       d="m 188.74795,283.51623 3.20119,-3.56659"
       id="path4958-9"
       inkscape:connector-curvature="0" />
    <path
       style="fill:none;stroke:#000000;stroke-width:0.25661778px;stroke-linecap:butt;stroke-linejoin:miter;stroke-opacity:1"
       d="m 209.29533,282.40432 -4.04557,-3.47679"
       id="path4960-7"
       inkscape:connector-curvature="0" />
    <path
       style="fill:none;stroke:#000000;stroke-width:0.25661778px;stroke-linecap:butt;stroke-linejoin:miter;stroke-opacity:1"
       d="m 155.05307,267.81497 c 0.18885,-0.0556 5.62786,-0.1112 5.62786,-0.1112 l -0.0755,1.2787 -3.92818,5.67075 4.00371,-0.44477 -0.0378,3.00216 -7.47864,-0.38917 5.28792,-6.89384 -4.45697,0.22238 z"
       id="path5056"
       inkscape:connector-curvature="0" />
    <path
       style="fill:none;stroke:#000000;stroke-width:0.25661778px;stroke-linecap:butt;stroke-linejoin:miter;stroke-opacity:1"
       d="m 175.00428,267.53981 1.85077,-0.27798 1.39753,3.16895 1.28421,-3.11335 2.07741,-0.33358 -2.26626,5.89313 2.15294,3.7805 -1.96409,0.83393 -1.39753,-4.11407 -1.01982,3.44693 -3.13497,0.88952 3.17275,-4.83681 z"
       id="path5058"
       inkscape:connector-curvature="0" />
    <path
       style="fill:none;stroke:#000000;stroke-width:0.25661778px;stroke-linecap:butt;stroke-linejoin:miter;stroke-opacity:1"
       d="m 200.46509,265.89526 c 0,0.38918 0.0755,2.5574 0.0755,2.5574 0,0 -2.94612,-0.33357 -2.94612,2.39061 0,2.72418 2.22847,2.89097 2.87058,2.77978 l 0.22663,2.00144 c 0,0 -5.62786,1.44548 -5.43901,-4.61443 0.18885,-6.05992 4.23033,-5.00361 5.21238,-5.1148 z"
       id="path5060"
       inkscape:connector-curvature="0" />
    <path
       style="fill:#000000;stroke-width:0.04582461"
       d="m 198.49469,275.53497 c -1.50076,-0.26495 -2.41926,-1.03105 -2.85553,-2.38174 -0.1785,-0.55263 -0.26058,-1.13725 -0.26058,-1.85608 0,-2.20616 0.58364,-3.79888 1.6808,-4.58675 0.61777,-0.44361 1.1799,-0.59204 2.38902,-0.63083 l 0.91595,-0.0294 1.8e-4,0.49377 c 8e-5,0.27157 0.0114,0.7792 0.025,1.12806 0.018,0.45986 0.0133,0.62377 -0.0172,0.59604 -0.0752,-0.0684 -1.01523,0.0751 -1.3773,0.21029 -0.67178,0.25083 -1.12017,0.68463 -1.34261,1.29892 -0.28344,0.78275 -0.21339,1.94141 0.16288,2.69402 0.39516,0.79037 1.22041,1.29848 2.16758,1.33458 0.2094,0.008 0.38108,0.027 0.38154,0.0423 4.2e-4,0.0153 0.0414,0.37805 0.091,0.80613 0.0495,0.42809 0.0828,0.78964 0.0738,0.80346 -0.0568,0.0874 -1.63718,0.14734 -2.03445,0.0772 z"
       id="path5062"
       inkscape:connector-curvature="0" />
    <path
       style="fill:#000000;stroke-width:0.04582461"
       d="m 174.4125,277.35201 c 0,-0.017 0.65012,-1.02084 1.44474,-2.23069 0.7946,-1.20985 1.44071,-2.22065 1.43579,-2.24623 -0.005,-0.0256 -0.46948,-1.18792 -1.03239,-2.58298 -0.56289,-1.39507 -1.0122,-2.55315 -0.99843,-2.57352 0.0138,-0.0204 0.36384,-0.088 0.77797,-0.15034 l 0.75294,-0.11331 0.70877,1.61028 c 0.38983,0.88566 0.72528,1.61816 0.74545,1.62778 0.0202,0.01 0.33245,-0.70154 0.69396,-1.58037 0.3615,-0.87884 0.65979,-1.6033 0.66288,-1.60992 0.0118,-0.0253 1.73396,-0.29231 1.74838,-0.27107 0.008,0.0123 -0.47147,1.28808 -1.06627,2.83508 -0.61004,1.58664 -1.06973,2.84067 -1.05456,2.87681 0.0148,0.0352 0.47476,0.84986 1.02212,1.81027 0.54734,0.9604 0.99513,1.76347 0.99506,1.7846 -1.2e-4,0.0363 -1.62803,0.7477 -1.64532,0.71904 -0.005,-0.007 -0.33411,-0.9737 -0.73254,-2.14731 -0.39841,-1.17362 -0.73746,-2.11179 -0.75341,-2.08484 -0.016,0.027 -0.264,0.84959 -0.55118,1.82807 -0.28718,0.97849 -0.52583,1.78641 -0.53032,1.79539 -0.0102,0.0205 -2.51214,0.73297 -2.57643,0.73368 -0.026,3e-4 -0.0472,-0.0134 -0.0472,-0.0305 z"
       id="path5064"
       inkscape:connector-curvature="0" />
    <path
       style="fill:#000000;stroke-width:0.04582461"
       d="m 160.20247,277.00421 c -4.12936,-0.21229 -6.66405,-0.35237 -6.67528,-0.36891 -0.007,-0.0115 1.1595,-1.55111 2.59401,-3.4214 1.43451,-1.87028 2.6082,-3.41917 2.6082,-3.44196 0,-0.0228 -0.10623,-0.0343 -0.23606,-0.0255 -0.3395,0.0229 -2.35382,0.12155 -3.36679,0.16479 -0.59366,0.0254 -0.85986,0.0188 -0.84984,-0.021 0.008,-0.0318 0.20146,-0.47106 0.42982,-0.97602 l 0.41522,-0.9181 0.86899,-0.0322 c 0.47796,-0.0177 1.69844,-0.0444 2.71219,-0.0593 l 1.84319,-0.0271 -0.0245,0.4844 -0.0245,0.48441 -0.91217,1.33651 c -0.5017,0.73509 -1.42794,2.08164 -2.05829,2.99234 -0.63036,0.9107 -1.14026,1.66384 -1.13312,1.67365 0.007,0.01 0.87131,-0.0789 1.9204,-0.19705 1.04909,-0.11819 1.97967,-0.21561 2.06795,-0.21649 l 0.16053,-0.002 -6.3e-4,1.237 c -2.1e-4,0.68035 -0.0131,1.26202 -0.0284,1.29259 -0.0154,0.0309 -0.1536,0.0491 -0.31104,0.041 z"
       id="path5066"
       inkscape:connector-curvature="0" />
    <path
       style="fill:#666666;stroke-width:0.04582461"
       d="m 151.19625,281.23014 c 0.0295,-0.23563 1.48619,-16.03425 1.49615,-16.22682 l 0.009,-0.16973 2.77804,-0.0369 c 5.22022,-0.0694 7.1217,-0.0849 7.01782,-0.0571 -0.0572,0.0153 -0.10296,0.0324 -0.10186,0.038 6.9e-4,0.006 0.40583,3.51273 0.89941,7.79358 0.87743,7.61006 0.89567,7.78419 0.81951,7.82003 -0.0428,0.0202 -0.46882,0.0642 -0.94661,0.0979 -1.05475,0.0744 -10.00226,0.75882 -10.9508,0.83766 -0.3724,0.0309 -0.75866,0.0563 -0.85834,0.0563 -0.17719,0 -0.18082,-0.003 -0.1621,-0.15289 z m 9.57278,-4.42481 c 0,-0.31614 0.0113,-1.07063 0.0251,-1.67664 l 0.0251,-1.10183 -0.41223,0.0384 c -0.22672,0.0211 -1.07344,0.11298 -1.8816,0.20416 -0.80815,0.0912 -1.47536,0.15699 -1.48266,0.14623 -0.007,-0.0109 0.81729,-1.21566 1.83247,-2.67754 l 1.84577,-2.65796 0.0432,-0.7007 c 0.0238,-0.38538 0.0431,-0.73604 0.0429,-0.77924 -2.2e-4,-0.0673 -0.38796,-0.073 -2.70556,-0.0401 -1.48791,0.0211 -2.801,0.0531 -2.91799,0.0712 l -0.2127,0.0327 -0.59487,1.3139 c -0.58552,1.29329 -0.59321,1.31421 -0.49082,1.33349 0.0573,0.0109 0.97086,-0.023 2.03033,-0.0751 1.05947,-0.0521 1.97808,-0.0859 2.04134,-0.0752 0.10688,0.0181 -0.0686,0.25881 -2.48363,3.4059 -1.42926,1.86253 -2.59431,3.39247 -2.58901,3.39987 0.0111,0.0155 1.42811,0.0967 3.86226,0.2213 0.93483,0.0479 2.02263,0.10685 2.41734,0.13111 0.39471,0.0242 0.91736,0.0479 1.16146,0.0525 l 0.44381,0.008 z"
       id="path5068"
       inkscape:connector-curvature="0" />
    <path
       style="fill:#666666;stroke-width:0.04582461"
       d="m 171.73877,280.14444 c 0.009,-0.0712 0.35542,-3.79407 0.76928,-8.27299 l 0.75244,-8.14348 4.49473,-0.0678 c 4.47199,-0.0674 5.44274,-0.0721 5.27613,-0.0253 -0.0721,0.0203 -0.0838,0.0505 -0.067,0.17311 0.0472,0.34495 1.7596,15.31733 1.7596,15.38539 0,0.10573 -0.10176,0.12107 -1.4353,0.21638 -0.65437,0.0468 -3.46655,0.26033 -6.24928,0.47457 -2.78273,0.21423 -5.11754,0.38952 -5.18846,0.38952 -0.11468,0 -0.1271,-0.0144 -0.11215,-0.1295 z m 3.76884,-2.67985 c 0.92429,-0.26158 1.69098,-0.49328 1.70373,-0.51489 0.0128,-0.0216 0.22354,-0.72104 0.46841,-1.55427 0.24486,-0.83324 0.45561,-1.51498 0.46833,-1.51498 0.0127,0 0.31579,0.86196 0.67348,1.91546 l 0.65035,1.91547 0.18036,-0.0779 c 0.0992,-0.0428 0.59545,-0.25447 1.10277,-0.47025 0.50734,-0.21578 0.92879,-0.4017 0.93656,-0.41315 0.008,-0.0114 -0.47955,-0.88775 -1.08294,-1.94734 -0.60339,-1.05959 -1.09708,-1.93802 -1.09708,-1.95206 0,-0.014 0.52027,-1.37815 1.15616,-3.03134 0.63589,-1.6532 1.14958,-3.01549 1.14155,-3.02733 -0.008,-0.0118 -0.53984,0.0641 -1.18177,0.16878 -0.78135,0.12738 -1.17712,0.21364 -1.19731,0.26094 -0.0166,0.0389 -0.28875,0.6995 -0.60483,1.46808 l -0.5747,1.39741 -0.28639,-0.64687 c -0.1575,-0.35578 -0.45382,-1.0284 -0.65847,-1.49471 -0.32438,-0.73908 -0.38482,-0.84782 -0.47125,-0.84778 -0.0545,2e-5 -0.51558,0.0626 -1.02454,0.13894 -0.50897,0.0764 -0.93996,0.13892 -0.95777,0.13894 -0.0178,3e-5 -0.0217,0.0408 -0.009,0.0905 0.0129,0.0498 0.4909,1.24936 1.06206,2.66574 0.57117,1.41637 1.04853,2.61376 1.0608,2.66087 0.0155,0.0596 -0.45815,0.8174 -1.55848,2.49314 -0.86945,1.32412 -1.62332,2.47726 -1.67525,2.56252 l -0.0944,0.15503 0.0944,-0.0317 c 0.052,-0.0174 0.85067,-0.24571 1.77497,-0.50729 z"
       id="path5070"
       inkscape:connector-curvature="0" />
    <path
       style="fill:#666666;stroke-width:0.04582461"
       d="m 192.10053,279.6118 c 0.009,-0.0712 0.35541,-3.79407 0.76926,-8.27299 l 0.75244,-8.14348 4.49474,-0.0678 c 4.472,-0.0674 5.44274,-0.0721 5.27613,-0.0253 -0.0721,0.0203 -0.0838,0.0505 -0.067,0.17311 0.0473,0.34495 1.7596,15.31733 1.7596,15.3854 0,0.10573 -0.10177,0.12106 -1.43529,0.21638 -0.6544,0.0468 -3.46657,0.26032 -6.24929,0.47456 -2.78273,0.21424 -5.11754,0.38952 -5.18846,0.38952 -0.11467,0 -0.12711,-0.0143 -0.11215,-0.1295 z m 8.41489,-3.76582 c 0.15582,-0.0338 0.29015,-0.0715 0.29853,-0.0838 0.008,-0.0123 -0.0427,-0.53515 -0.11332,-1.16197 l -0.12855,-1.13966 -0.52879,-0.0222 c -1.51958,-0.0639 -2.39624,-1.09941 -2.31239,-2.7314 0.0258,-0.5021 0.14183,-0.85537 0.39582,-1.20506 0.40599,-0.55896 0.97354,-0.80568 1.98767,-0.86402 l 0.56213,-0.0323 -0.0232,-0.53372 c -0.0128,-0.29354 -0.0345,-0.94026 -0.0484,-1.43714 l -0.0251,-0.90343 -0.94815,9.3e-4 c -1.33236,10e-4 -1.93128,0.14114 -2.61659,0.61034 -0.53155,0.36394 -0.90879,0.80877 -1.20239,1.41788 -0.46301,0.96053 -0.67467,2.07255 -0.67194,3.53032 0.001,0.91467 0.07,1.40683 0.28942,2.08483 0.46092,1.42446 1.5121,2.28379 3.09479,2.52997 0.3842,0.0598 1.6095,0.0231 1.99047,-0.0596 z"
       id="path5072"
       inkscape:connector-curvature="0" />
    <path
       style="fill:#999999;stroke-width:0.04582461"
       d="m 188.93358,282.93695 c 0.0297,-0.20785 2.17689,-19.6032 2.17689,-19.6634 0,-0.0242 0.51067,-0.0441 1.13484,-0.0441 h 1.13484 l -0.0221,0.18068 c -0.0121,0.0994 -0.35857,3.82286 -0.76985,8.2744 -0.4113,4.45155 -0.75901,8.12037 -0.77268,8.15294 -0.0137,0.0326 -0.64957,0.75375 -1.41311,1.60263 -0.76354,0.84887 -1.41171,1.57022 -1.44039,1.60299 -0.0427,0.0487 -0.0478,0.0294 -0.0284,-0.10612 z"
       id="path5074"
       inkscape:connector-curvature="0" />
    <path
       style="fill:#999999;stroke-width:0.04582461"
       d="m 168.57184,283.46959 c 0.0297,-0.20785 2.17688,-19.6032 2.17688,-19.66341 0,-0.0242 0.51068,-0.0441 1.13484,-0.0441 h 1.13484 l -0.0221,0.18068 c -0.0121,0.0994 -0.35857,3.82286 -0.76987,8.27441 -0.41129,4.45154 -0.75899,8.12036 -0.77268,8.15293 -0.0137,0.0326 -0.64956,0.75375 -1.41311,1.60263 -0.76353,0.84888 -1.4117,1.57022 -1.44037,1.60299 -0.0427,0.0487 -0.0478,0.0294 -0.0284,-0.10612 z"
       id="path5076"
       inkscape:connector-curvature="0" />
    <path
       style="fill:#999999;stroke-width:0.04582461"
       d="m 168.84317,283.78068 c 0.0197,-0.0283 0.65262,-0.7379 1.40643,-1.57699 l 1.37052,-1.52561 0.2725,-0.0328 c 0.14988,-0.0181 3.12799,-0.2504 6.61801,-0.51632 l 6.34552,-0.4835 1.80252,1.54817 c 0.99137,0.8515 1.79741,1.55566 1.79119,1.56481 -0.0167,0.0247 -1.25824,0.0959 -8.06956,0.46311 -3.39654,0.18312 -7.31196,0.39539 -8.70094,0.47173 -2.86616,0.15753 -2.88556,0.15812 -2.83619,0.0874 z"
       id="path5078"
       inkscape:connector-curvature="0" />
    <path
       style="fill:#999999;stroke-width:0.04582461"
       d="m 186.85802,280.94094 c -0.99716,-0.85581 -1.82642,-1.58741 -1.84282,-1.62577 -0.0164,-0.0384 -0.43305,-3.58478 -0.9259,-7.88093 l -0.89608,-7.81117 0.26491,-0.0344 c 0.14569,-0.0189 0.49803,-0.0377 0.78296,-0.0417 l 0.51804,-0.007 0.13184,0.62545 c 0.95764,4.5432 3.79918,18.24807 3.79097,18.28403 -0.007,0.0263 -0.82678,-0.65241 -1.82392,-1.50822 z"
       id="path5080"
       inkscape:connector-curvature="0" />
    <path
       style="fill:#999999;stroke-width:0.04582461"
       d="m 207.21977,280.4083 c -0.99715,-0.8558 -1.82642,-1.5874 -1.84282,-1.62576 -0.0164,-0.0384 -0.43305,-3.58478 -0.9259,-7.88093 l -0.89608,-7.81117 0.2649,-0.0344 c 0.1457,-0.0189 0.49804,-0.0377 0.78296,-0.0417 l 0.51805,-0.007 0.13183,0.62545 c 0.95765,4.5432 3.79919,18.24806 3.79098,18.28403 -0.007,0.0263 -0.82678,-0.65241 -1.82392,-1.50822 z"
       id="path5082"
       inkscape:connector-curvature="0" />
    <path
       style="fill:#999999;stroke-width:0.04582461"
       d="m 189.20492,283.24804 c 0.0197,-0.0283 0.65263,-0.73789 1.40641,-1.57698 l 1.37054,-1.52561 0.2725,-0.0328 c 0.14988,-0.0181 3.12799,-0.2504 6.61802,-0.51632 l 6.34552,-0.4835 1.80249,1.54817 c 0.99139,0.8515 1.79742,1.55566 1.79121,1.56481 -0.0168,0.0247 -1.25825,0.0959 -8.06955,0.46311 -3.39655,0.18311 -7.31198,0.39539 -8.70095,0.47173 -2.86616,0.15752 -2.88557,0.15812 -2.83619,0.0874 z"
       id="path5084"
       inkscape:connector-curvature="0" />
    <path
       style="fill:#999999;stroke-width:0.04582461"
       d="m 148.28763,284.89382 c 0.0197,-0.026 0.63927,-0.71744 1.37675,-1.53646 0.73748,-0.81902 1.35942,-1.51051 1.38209,-1.53663 0.0226,-0.0261 3.01562,-0.27621 6.651,-0.55573 l 6.60978,-0.50823 1.80656,1.55013 1.80658,1.55013 -0.29905,0.039 c -0.16448,0.0215 -1.07241,0.0784 -2.01763,0.12661 -0.94522,0.0482 -2.152,0.11193 -2.68174,0.14166 -3.18387,0.17863 -14.34367,0.77684 -14.49214,0.77684 -0.10089,0 -0.16253,-0.0205 -0.1422,-0.0473 z"
       id="path5086"
       inkscape:connector-curvature="0" />
    <path
       style="fill:#999999;stroke-width:0.04582461"
       d="m 148.03875,284.5983 c -7e-4,-0.0408 0.4876,-4.49606 1.0854,-9.90064 l 1.08688,-9.82651 h 1.12752 1.12752 l -0.0224,0.20848 c -0.0124,0.11467 -0.35406,3.81108 -0.75935,8.21424 -0.4053,4.40317 -0.74536,8.0558 -0.7557,8.11695 -0.011,0.0651 -0.59944,0.75628 -1.41998,1.66787 -0.77066,0.85617 -1.41631,1.56501 -1.43478,1.5752 -0.0185,0.0103 -0.0343,-0.0148 -0.035,-0.0556 z"
       id="path5088"
       inkscape:connector-curvature="0" />
    <path
       style="fill:#999999;stroke-width:0.04582461"
       d="m 166.30255,282.04776 -1.8507,-1.59595 -0.90179,-7.84834 c -0.49598,-4.3166 -0.89456,-7.85898 -0.88573,-7.87198 0.009,-0.013 0.36198,-0.0307 0.78478,-0.0393 l 0.76872,-0.0157 1.97593,9.47621 c 1.08676,5.21191 1.97223,9.47952 1.96771,9.48357 -0.004,0.004 -0.84103,-0.71081 -1.85892,-1.58858 z"
       id="path5090"
       inkscape:connector-curvature="0" />
  </g>
</svg>
