<?xml version="1.0" encoding="UTF-8" standalone="no"?>
<!-- Created with Inkscape (http://www.inkscape.org/) -->

<svg
   xmlns:dc="http://purl.org/dc/elements/1.1/"
   xmlns:cc="http://creativecommons.org/ns#"
   xmlns:rdf="http://www.w3.org/1999/02/22-rdf-syntax-ns#"
   xmlns:svg="http://www.w3.org/2000/svg"
   xmlns="http://www.w3.org/2000/svg"
   xmlns:sodipodi="http://sodipodi.sourceforge.net/DTD/sodipodi-0.dtd"
   xmlns:inkscape="http://www.inkscape.org/namespaces/inkscape"
   width="20mm"
   height="30mm"
   viewBox="0 0 20 30"
   version="1.1"
   id="svg177"
   inkscape:version="0.92.4 (5da689c313, 2019-01-14)"
   sodipodi:docname="maskShard.svg">
  <defs
     id="defs171" />
  <sodipodi:namedview
     id="base"
     pagecolor="#ffffff"
     bordercolor="#666666"
     borderopacity="1.0"
     inkscape:pageopacity="0.0"
     inkscape:pageshadow="2"
     inkscape:zoom="3.959798"
     inkscape:cx="133.00595"
     inkscape:cy="25.84396"
     inkscape:document-units="mm"
     inkscape:current-layer="layer1"
     showgrid="false"
     inkscape:window-width="1920"
     inkscape:window-height="1001"
     inkscape:window-x="-9"
     inkscape:window-y="-9"
     inkscape:window-maximized="1" />
  <metadata
     id="metadata174">
    <rdf:RDF>
      <cc:Work
         rdf:about="">
        <dc:format>image/svg+xml</dc:format>
        <dc:type
           rdf:resource="http://purl.org/dc/dcmitype/StillImage" />
        <dc:title></dc:title>
      </cc:Work>
    </rdf:RDF>
  </metadata>
  <g
     inkscape:label="Camada 1"
     inkscape:groupmode="layer"
     id="layer1"
     transform="translate(0,-267)">
    <path
       style="fill:none;stroke:#000000;stroke-width:0.32968819px;stroke-linecap:butt;stroke-linejoin:miter;stroke-opacity:1"
       d="m 10.15398,267.33959 c 0,0 9.698261,2.3902 9.698261,12.05962 0,9.66942 -9.9534776,17.49187 -9.9534776,17.49187 0,0 -9.69825997,-6.08413 -9.69825997,-17.27458 0,-11.19046 9.95347657,-12.27691 9.95347657,-12.27691 z"
       id="path200"
       inkscape:connector-curvature="0" />
    <path
       style="fill:none;stroke:#000000;stroke-width:0.09116217px;stroke-linecap:butt;stroke-linejoin:miter;stroke-opacity:1"
       d="m 3.9332714,282.29922 c 0,0 1.8726163,-0.26945 3.442309,2.61747 1.5696933,2.88692 0.7710774,4.81153 0.7710774,4.81153 0,0 -2.0653852,1.38572 -4.2409248,-2.34803 -2.1755396,-3.73375 0.027538,-5.08097 0.027538,-5.08097 z"
       id="path216"
       inkscape:connector-curvature="0" />
    <path
       style="fill:none;stroke:#000000;stroke-width:0.089664px;stroke-linecap:butt;stroke-linejoin:miter;stroke-opacity:1"
       d="m 15.293145,282.0319 c 0,0 -1.771838,-0.27549 -3.257055,2.67617 -1.485217,2.95167 -0.729581,4.91944 -0.729581,4.91944 0,0 1.954233,1.41679 4.012693,-2.40068 2.058458,-3.81749 -0.02605,-5.19493 -0.02605,-5.19493 z"
       id="path216-0"
       inkscape:connector-curvature="0" />
    <path
       style="fill:#000000;stroke-width:0.35714287"
       d="m 23.493236,85.571903 c -3.281584,-1.528067 -6.37653,-4.920867 -9.056208,-9.927767 -3.649114,-6.818264 -3.816514,-12.862903 -0.455703,-16.455006 1.1599,-1.239725 2.480553,-1.266675 4.982869,-0.101683 3.481637,1.62093 6.045689,4.252046 8.539054,8.762397 3.92008,7.091196 5.039043,17.091074 2.04004,18.231293 -1.568295,0.596265 -4.140986,0.379721 -6.050052,-0.509234 z"
       id="path233"
       inkscape:connector-curvature="0"
       transform="matrix(0.26458333,0,0,0.26458333,0,267)" />
    <path
       style="fill:#000000;stroke-width:0.35714287"
       d="m 43.834128,85.714235 c -0.414641,-0.16754 -0.852337,-0.561159 -0.972657,-0.874708 -0.517048,-1.347406 -0.641367,-5.233801 -0.24983,-7.810045 1.499979,-9.869584 7.910637,-18.987565 13.916083,-19.793064 1.219279,-0.16354 1.448801,-0.05891 2.289977,1.043931 2.654102,3.479707 2.732668,9.049406 0.210554,14.926638 -3.349251,7.804694 -8.431898,12.895502 -12.813929,12.834505 -0.894468,-0.01245 -1.965557,-0.159716 -2.380198,-0.327257 z"
       id="path235"
       inkscape:connector-curvature="0"
       transform="matrix(0.26458333,0,0,0.26458333,0,267)" />
    <path
       style="fill:#ececec;stroke-width:0.35714287"
       d="M 33.640949,109.22253 C 29.228629,105.8447 20.962626,97.494148 17.596702,93.014176 6.2760622,77.946644 0.90874513,61.68813 1.6847331,44.81413 2.2676368,32.138783 6.1888086,22.260829 13.656789,14.654926 18.469411,9.753422 25.163761,5.7443616 32.105883,3.6062764 c 5.323652,-1.6396171 5.981612,-1.6806819 9.08928,-0.5672815 15.573165,5.5794792 27.30804,17.0701111 31.177429,30.5285101 1.705146,5.9308 2.229339,14.128614 1.324321,20.710911 C 71.951835,66.97053 65.25962,81.010451 54.545549,94.456987 51.088574,98.795609 38.308178,111.77842 37.49417,111.77842 c -0.283017,0 -2.016967,-1.15015 -3.853221,-2.55589 z M 29.924766,86.631384 c 1.080021,-0.451261 1.252141,-0.723008 1.640007,-2.589286 C 32.469116,79.690712 31.4469,74.345837 28.604585,68.56413 25.421356,62.088951 20.053236,57.492701 15.673881,57.492701 c -2.380257,0 -4.835861,4.195125 -4.835861,8.261529 0,2.934446 0.696269,5.35695 2.706618,9.417043 3.035122,6.129721 6.305129,9.742875 10.2448,11.319864 1.868595,0.747968 4.53497,0.808918 6.135328,0.140247 z m 19.945162,-0.726465 c 3.237732,-1.554578 6.858625,-5.958275 9.371989,-11.398121 3.157525,-6.83405 3.059771,-13.483011 -0.248407,-16.89619 -1.3317,-1.373964 -2.087722,-1.456439 -4.60005,-0.501832 -3.539072,1.344743 -6.608772,4.623107 -9.223265,9.850225 -2.834946,5.667858 -4.006325,12.028658 -3.145346,17.079779 0.249864,1.465882 0.464211,1.801643 1.428571,2.237793 1.46479,0.662475 4.64655,0.478182 6.416508,-0.371654 z"
       id="path237"
       inkscape:connector-curvature="0"
       transform="matrix(0.26458333,0,0,0.26458333,0,267)" />
  </g>
</svg>
