<?xml version="1.0" encoding="UTF-8" standalone="no"?>
<!-- Created with Inkscape (http://www.inkscape.org/) -->

<svg
   xmlns:dc="http://purl.org/dc/elements/1.1/"
   xmlns:cc="http://creativecommons.org/ns#"
   xmlns:rdf="http://www.w3.org/1999/02/22-rdf-syntax-ns#"
   xmlns:svg="http://www.w3.org/2000/svg"
   xmlns="http://www.w3.org/2000/svg"
   xmlns:sodipodi="http://sodipodi.sourceforge.net/DTD/sodipodi-0.dtd"
   xmlns:inkscape="http://www.inkscape.org/namespaces/inkscape"
   width="120mm"
   height="100mm"
   viewBox="0 0 120 100"
   version="1.1"
   id="svg8"
   inkscape:version="0.92.4 (5da689c313, 2019-01-14)"
   sodipodi:docname="vengeflyKing.svg">
  <defs
     id="defs2" />
  <sodipodi:namedview
     id="base"
     pagecolor="#ffffff"
     bordercolor="#666666"
     borderopacity="1.0"
     inkscape:pageopacity="0.0"
     inkscape:pageshadow="2"
     inkscape:zoom="1.4"
     inkscape:cx="122.40722"
     inkscape:cy="229.42221"
     inkscape:document-units="mm"
     inkscape:current-layer="layer1"
     showgrid="false"
     inkscape:window-width="1920"
     inkscape:window-height="1001"
     inkscape:window-x="-9"
     inkscape:window-y="-9"
     inkscape:window-maximized="1" />
  <metadata
     id="metadata5">
    <rdf:RDF>
      <cc:Work
         rdf:about="">
        <dc:format>image/svg+xml</dc:format>
        <dc:type
           rdf:resource="http://purl.org/dc/dcmitype/StillImage" />
        <dc:title></dc:title>
      </cc:Work>
    </rdf:RDF>
  </metadata>
  <g
     inkscape:label="Camada 1"
     inkscape:groupmode="layer"
     id="layer1"
     transform="translate(0,-197)">
    <path
       style="fill:none;stroke:#000000;stroke-width:0.18411362px;stroke-linecap:butt;stroke-linejoin:miter;stroke-opacity:1"
       d="M -0.05312683,285.95488 C 1.4333793,272.22612 25.514777,268.03768 25.514777,268.03768 c 0,0 0.891906,-3.02497 -3.270304,-3.02497 -4.162228,0 3.864911,-15.59028 8.621737,-13.72876 4.756809,1.86153 9.513627,3.02499 11.000133,11.63455 1.486515,8.60954 7.432539,8.84224 6.837931,12.3326 -0.594598,3.49036 -3.567611,1.86153 -3.567611,1.86153 l -11.892048,0.23269 c 0,0 -11.29745,19.08063 -25.5679205,19.31333 -14.2704537,0.23269 3.2703205,-2.3269 3.2703205,-2.3269 0,0 -3.8649108,-2.09423 0.891907,-3.25768 4.756818,-1.16346 0.891907,-5.35189 5.648724,-6.74803 4.756827,-1.39613 2.081106,-5.1192 6.243333,-6.51535 4.162211,-1.39614 -3.804453,-0.33716 -3.804453,-0.33716 0,0 1.261344,2.22124 -2.207347,2.30351 -3.468691,0.0823 -2.838022,2.96168 -5.255594,1.72764 -2.417573,-1.23402 0.210225,1.39857 -2.9431325,1.72764 -3.1533572,0.32908 -1.9971296,3.70211 -4.4146931,2.63261 -2.4175808,-1.0695 -5.15888623,0.0899 -5.15888623,0.0899 z"
       id="path837"
       inkscape:connector-curvature="0" />
    <ellipse
       style="fill:#000000;fill-opacity:1;stroke-width:0.18411362"
       id="path843"
       cx="25.663441"
       cy="261.98776"
       rx="2.8243616"
       ry="3.8393972" />
    <ellipse
       style="fill:#000000;fill-opacity:1;stroke-width:0.18411362"
       id="path845"
       cx="36.737911"
       cy="266.17615"
       rx="3.6419382"
       ry="4.1884308" />
    <path
       style="fill:none;stroke:#000000;stroke-width:0.16912594px;stroke-linecap:butt;stroke-linejoin:miter;stroke-opacity:1"
       d="m 47.103103,277.11476 c 0,0 20.565748,-15.82714 24.327778,-9.77559 3.762031,6.05156 36.867859,11.40486 43.639509,7.68083 6.77166,-3.72404 -3.76203,-4.65505 -3.76203,-4.65505 0,0 -8.52726,-34.44732 -26.334177,-34.21457 -17.806929,0.23275 -24.829384,1.86202 -28.340611,5.58605 -3.511228,3.72403 -19.180025,-5.68004 -22.942055,10.84537"
       id="path847"
       inkscape:connector-curvature="0"
       sodipodi:nodetypes="csscssc" />
    <path
       style="fill:none;stroke:#000000;stroke-width:0.16912594px;stroke-linecap:butt;stroke-linejoin:miter;stroke-opacity:1"
       d="m 69.92607,265.2444 c 0,0 2.257212,-27.46475 -4.514439,-27.69751"
       id="path849"
       inkscape:connector-curvature="0" />
    <path
       style="fill:none;stroke:#000000;stroke-width:0.16912594px;stroke-linecap:butt;stroke-linejoin:miter;stroke-opacity:1"
       d="m 111.30836,270.36495 c 0,0 -33.35663,-21.64595 -40.128281,-12.10311"
       id="path851"
       inkscape:connector-curvature="0" />
    <path
       style="fill:none;stroke:#000000;stroke-width:0.16912594px;stroke-linecap:butt;stroke-linejoin:miter;stroke-opacity:1"
       d="m 65.411631,237.54689 c 0,0 -1.755604,-36.07658 11.286091,-40.03336 13.041687,-3.9568 -4.663729,39.55768 -4.663729,39.55768 0,0 11.882022,-26.82664 15.606242,-19.42051 3.724213,7.40613 -15.251559,19.09135 -15.251559,19.09135"
       id="path853"
       inkscape:connector-curvature="0" />
    <path
       style="fill:none;stroke:#000000;stroke-width:0.16912594px;stroke-linecap:butt;stroke-linejoin:miter;stroke-opacity:1"
       d="m 85.512112,256.32715 c 1.064062,0.32916 3.369527,-15.14142 -2.66016,-19.42051"
       id="path855"
       inkscape:connector-curvature="0" />
    <path
       style="fill:none;stroke:#000000;stroke-width:0.16912594px;stroke-linecap:butt;stroke-linejoin:miter;stroke-opacity:1"
       d="m 98.812889,263.23954 c 0,0 5.142951,-13.33103 2.482801,-15.47059"
       id="path857"
       inkscape:connector-curvature="0" />
    <path
       style="fill:none;stroke:#000000;stroke-width:0.18411362px;stroke-linecap:butt;stroke-linejoin:miter;stroke-opacity:1"
       d="m 57.661686,269.32894 c 0,0 -5.255594,-25.00966 -13.664539,-27.97132"
       id="path859"
       inkscape:connector-curvature="0" />
    <path
       style="fill:none;stroke:#000000;stroke-width:0.16912594px;stroke-linecap:butt;stroke-linejoin:miter;stroke-opacity:1"
       d="m 64.585552,267.18947 c 0,0 -1.064062,-19.74968 -5.852336,-26.82664"
       id="path861"
       inkscape:connector-curvature="0" />
    <path
       style="fill:none;stroke:#000000;stroke-width:0.16912594px;stroke-linecap:butt;stroke-linejoin:miter;stroke-opacity:1"
       d="m 69.551184,243.48986 c 0,0 42.385146,-30.94116 49.124196,-26.99123 6.73906,3.94994 -36.887481,40.65143 -48.414826,32.25781"
       id="path863"
       inkscape:connector-curvature="0" />
    <path
       style="fill:none;stroke:#000000;stroke-width:0.16912594px;stroke-linecap:butt;stroke-linejoin:miter;stroke-opacity:1"
       d="m 70.260554,248.75644 c 0,0 46.818726,-12.17897 49.656226,-4.60826 2.8375,7.57071 -49.656226,4.60826 -49.656226,4.60826 z"
       id="path865"
       inkscape:connector-curvature="0" />
    <path
       style="fill:#c8b7b7;fill-opacity:1;stroke-width:0.17084301"
       d="m 2.682608,296.32077 c -0.185106,-0.10872 0.00696,-0.21917 0.7121888,-0.40942 1.0462362,-0.28225 4.4384897,-0.9323 6.5020476,-1.24595 0.7071576,-0.10748 1.2857416,-0.21602 1.2857416,-0.24119 0,-0.0252 -0.359123,-0.37904 -0.798045,-0.78638 -0.4389283,-0.40734 -0.798052,-0.81443 -0.798052,-0.90465 0,-0.45971 0.79713,-1.03113 1.908472,-1.36808 2.351309,-0.71292 2.864109,-1.24188 3.305684,-3.40984 0.432019,-2.12106 1.056594,-2.94033 2.605559,-3.41779 2.018663,-0.62223 2.888733,-1.49891 3.720983,-3.74918 0.55611,-1.50362 1.289762,-2.26488 2.730346,-2.83308 1.127593,-0.44474 1.444667,-0.80923 0.879156,-1.01063 -0.278507,-0.0992 -4.338881,0.22371 -4.777505,0.37991 -0.171651,0.0611 -0.190669,0.21636 -0.07311,0.59676 0.116919,0.37834 0.08926,0.61275 -0.104725,0.88751 -0.368889,0.52247 -0.716732,0.65872 -2.037055,0.79792 -1.560559,0.16449 -1.877319,0.29771 -2.95328,1.24208 -0.509875,0.44751 -1.071486,0.81204 -1.248018,0.81006 -0.176533,-0.002 -0.675094,-0.15271 -1.107922,-0.33493 -0.432828,-0.18223 -0.89027,-0.29453 -1.016546,-0.24955 -0.126268,0.0449 -0.281981,0.38585 -0.346025,0.75752 -0.13531,0.78529 -0.520651,1.07952 -1.6287366,1.24365 -1.0508405,0.15566 -1.7755803,0.65531 -2.4168496,1.66623 -0.8258271,1.30184 -0.7903151,1.28745 -2.1455924,0.86891 -0.9714173,-0.30001 -1.4381732,-0.35106 -2.5429085,-0.27817 -0.7442017,0.0491 -1.54164525,0.14297 -1.7720813,0.20861 -0.40840489,0.11633 -0.41570747,0.10108 -0.28903073,-0.60416 0.24475389,-1.36256 1.17588093,-3.4158 2.20735523,-4.86746 3.7086145,-5.21936 12.0244439,-9.53267 22.7683849,-11.80962 0.486671,-0.10315 0.50125,-0.13571 0.431628,-0.96395 -0.03959,-0.47145 -0.135163,-0.98679 -0.212297,-1.1452 -0.114866,-0.23588 -0.05231,-0.28802 0.345484,-0.28802 0.765883,0 1.574842,-0.57544 2.134338,-1.51824 0.460254,-0.77554 0.515551,-1.02622 0.51831,-2.3494 0.0026,-1.33222 -0.04909,-1.56856 -0.51522,-2.34941 -0.617533,-1.03439 -1.377281,-1.51824 -2.383958,-1.51824 -0.941781,0 -1.990802,0.83259 -2.449689,1.94429 -0.489221,1.18515 -0.41925,3.01552 0.155869,4.07799 l 0.453613,0.83798 -0.909627,-0.0717 c -1.160929,-0.0914 -1.530323,-0.45409 -1.530323,-1.50242 0,-2.4596 2.729565,-7.69848 5.306975,-10.18569 1.26245,-1.21828 2.388849,-1.8483 3.304519,-1.8483 0.694398,0 3.145697,0.80581 3.52658,1.15928 0.09327,0.0865 0.294941,0.15737 0.448165,0.15737 0.577765,0 3.10787,1.5542 4.19142,2.57474 0.817436,0.7699 1.348287,1.47699 1.933922,2.57598 0.776781,1.4577 0.925922,1.93439 2.044522,6.5345 0.681881,2.80416 1.886564,4.74558 4.683923,7.54845 1.585034,1.58815 1.950502,2.24753 1.791412,3.23206 -0.08749,0.54145 -0.29595,0.84559 -1.005623,1.46719 l -0.895259,0.78415 -0.769435,-0.23508 c -0.639963,-0.19552 -1.77423,-0.21396 -6.740568,-0.10958 -3.284117,0.069 -5.987421,0.14954 -6.007335,0.17894 -0.01993,0.0294 -0.508221,0.75703 -1.085134,1.61697 -6.513311,9.7087 -14.523868,16.07368 -21.872005,17.37896 -1.4637973,0.26002 -7.0549196,0.31788 -7.4646476,0.0772 z m 35.899575,-26.47312 c 2.661065,-1.71651 2.3407,-6.4178 -0.519493,-7.62338 -2.030326,-0.85579 -4.086407,0.26364 -4.827075,2.62809 -0.694337,2.21655 0.540226,4.86825 2.541873,5.45967 0.809106,0.23906 2.026705,0.0374 2.804695,-0.46438 z"
       id="path867"
       inkscape:connector-curvature="0" />
    <path
       style="fill:#004455;fill-opacity:1;stroke-width:0.17084301"
       d="m 48.952893,274.87348 c -0.0062,-0.87893 -0.591258,-1.81661 -2.04098,-3.27228 -1.826838,-1.83434 -2.591268,-2.79371 -3.326626,-4.175 -0.806104,-1.51415 -1.093908,-2.37705 -1.626865,-4.87772 -1.118914,-5.24997 -2.878271,-7.7448 -6.818609,-9.66901 l -1.217895,-0.59475 0.431366,-1.3989 c 1.443082,-4.67992 4.423945,-7.43126 8.818724,-8.13969 0.866248,-0.13965 1.786495,-0.25389 2.045009,-0.25389 0.984587,0 3.430255,2.88075 5.147146,6.06284 2.278518,4.22299 4.932114,11.68475 6.580661,18.50439 0.336362,1.39143 0.654134,2.36947 0.743052,2.28695 0.08892,-0.0825 -0.07825,-1.08703 -0.390953,-2.34884 -2.780125,-11.21918 -6.485598,-19.90083 -10.023388,-23.48406 l -1.062548,-1.0762 1.505906,0.11208 c 0.828248,0.0617 2.627354,0.15895 3.998012,0.21625 3.43398,0.14355 4.016158,4.9e-4 5.584795,-1.37283 l 1.207797,-1.05738 0.443578,0.70809 c 2.352397,3.75515 4.300785,12.62187 5.345315,24.32541 l 0.110166,1.23436 -1.721582,0.73156 c -3.050712,1.29636 -7.984697,4.18247 -12.165961,7.11644 -0.750172,0.52638 -1.408562,0.95707 -1.463084,0.95707 -0.05449,0 -0.100895,-0.24071 -0.103036,-0.53489 z"
       id="path869"
       inkscape:connector-curvature="0" />
    <path
       style="fill:#004455;fill-opacity:1;stroke-width:0.17084301"
       d="m 101.71654,275.88871 c -6.684085,-0.49721 -16.01478,-2.23961 -21.525007,-4.01957 -4.385109,-1.4165 -6.781505,-2.67576 -8.448442,-4.43946 -0.583936,-0.61784 -1.318512,-1.22316 -1.632375,-1.34517 -1.011447,-0.39316 -3.442274,-0.22217 -5.045553,0.35492 -0.328145,0.11811 -0.326945,0.1246 -0.687513,-3.70378 -0.87383,-9.27806 -2.728206,-17.45053 -4.844597,-21.35066 -0.354762,-0.65377 -0.64502,-1.21977 -0.64502,-1.25779 0,-0.18407 3.112317,-1.44768 4.439255,-1.80237 2.373383,-0.63437 2.500625,-0.6459 3.135906,-0.28389 1.477636,0.842 2.474226,3.45441 3.191428,8.36584 0.251185,1.72014 0.306639,3.44028 0.311487,9.66336 0.0035,4.16388 -0.05666,7.95953 -0.133213,8.43476 -0.08582,0.53328 -0.07382,0.86404 0.03159,0.86404 0.349244,0 0.453926,-2.07834 0.458025,-9.093 0.0026,-3.96018 0.04631,-7.20036 0.09776,-7.2004 0.05144,-5e-5 0.25096,0.10033 0.443361,0.22306 1.389108,0.88609 4.493123,1.07026 7.266215,0.43112 1.415317,-0.32621 1.987773,-0.3638 5.054292,-0.33188 1.902013,0.0198 3.471302,0.0479 3.487308,0.0625 0.01601,0.0146 -0.04717,0.92327 -0.140411,2.01927 -0.151013,1.77516 -0.579489,3.90564 -0.948047,4.71393 -0.07572,0.16617 -0.05449,0.28802 0.05031,0.28802 0.499971,0 1.271973,-3.56538 1.274001,-5.88376 l 8.7e-4,-1.19321 6.783401,-0.002 c 3.730847,-8.9e-4 7.082659,-0.0477 7.448429,-0.10382 l 0.66503,-0.10202 v 1.37933 c 0,1.57714 -0.32563,3.46801 -1.05957,6.16492 -0.69856,2.56689 -1.943832,6.19225 -2.105184,6.12876 -0.07277,-0.0287 -1.644808,-0.76734 -3.493431,-1.64158 -5.625274,-2.66029 -9.911114,-4.22709 -13.94274,-5.09715 -2.218904,-0.47886 -5.671276,-0.52547 -7.001957,-0.0945 -1.133632,0.36713 -2.415891,1.14273 -2.808464,1.69875 -0.49238,0.69739 -0.174035,0.62472 0.661923,-0.15108 3.022956,-2.80539 10.069876,-1.83551 20.616797,2.83754 4.444693,1.96933 10.678966,5.2837 16.027396,8.52077 2.40298,1.45438 2.63409,1.55665 4.02666,1.78202 1.90051,0.30757 3.40006,0.83221 4.01816,1.40583 0.58403,0.54199 0.58764,0.57596 0.13493,1.26503 -0.46572,0.70888 -2.19224,1.73017 -3.48696,2.06263 -2.28949,0.58788 -7.15036,0.76711 -11.67566,0.43049 z"
       id="path871"
       inkscape:connector-curvature="0" />
    <path
       style="fill:#004455;fill-opacity:1;stroke-width:0.17084301"
       d="m 108.54425,268.46627 c -2.34654,-1.43025 -7.6662,-4.42814 -8.840869,-4.98224 -0.702615,-0.33144 -0.740422,-0.0392 0.488379,-3.77418 1.19802,-3.64144 1.96459,-7.16121 1.96658,-9.02972 0.002,-0.86796 0.0734,-1.44009 0.18239,-1.44009 0.25661,0 3.13069,5.5412 4.39624,8.4759 0.58553,1.35779 1.47578,3.61666 1.97834,5.01971 0.90891,2.53754 2.35526,7.10244 2.26854,7.15983 -0.025,0.0165 -1.12282,-0.62661 -2.4396,-1.42921 z"
       id="path873"
       inkscape:connector-curvature="0" />
    <path
       style="fill:#004455;fill-opacity:1;stroke-width:0.17084301"
       d="m 92.076409,243.73623 c 0.06258,-0.0611 0.98033,-0.65797 2.039446,-1.32636 l 1.92567,-1.21524 0.838291,0.76231 c 0.46106,0.41928 0.80619,0.79212 0.766937,0.82855 -0.03927,0.0364 -1.058265,0.23528 -2.26447,0.44192 -1.206214,0.20663 -2.469088,0.43064 -2.806391,0.49781 -0.337294,0.0671 -0.562064,0.0721 -0.499483,0.011 z"
       id="path875"
       inkscape:connector-curvature="0" />
    <path
       style="fill:#004455;fill-opacity:1;stroke-width:0.17084301"
       d="m 69.455485,243.13406 c -0.04534,-0.1267 -0.247974,-0.80874 -0.450323,-1.51564 -0.459679,-1.60583 -1.123605,-2.84028 -1.889262,-3.51273 l -0.590821,-0.5189 1.102758,-0.17263 c 2.732247,-0.42769 4.055632,-0.53741 4.29142,-0.3558 0.171207,0.13185 0.252963,0.13119 0.300965,-0.003 0.06179,-0.17198 1.349758,-0.30255 5.536879,-0.5613 l 1.578071,-0.0975 -4.504239,3.14637 c -2.477332,1.7305 -4.681711,3.29815 -4.89863,3.48368 -0.309954,0.2651 -0.412043,0.288 -0.476818,0.10694 z"
       id="path877"
       inkscape:connector-curvature="0" />
    <path
       style="fill:#002255;fill-opacity:1;stroke-width:0.17084301"
       d="m 70.1679,247.89524 c -0.05283,-0.39185 -0.184575,-1.37901 -0.292772,-2.19368 -0.1082,-0.81468 -0.232979,-1.6026 -0.277291,-1.75093 -0.05875,-0.19677 1.324231,-1.25264 5.113818,-3.90418 l 5.19438,-3.63446 3.45681,-0.0304 c 2.703096,-0.0238 3.720488,0.029 4.666125,0.24252 2.31114,0.52172 4.915202,1.85954 6.875268,3.53213 l 0.941824,0.80367 -2.562428,1.56502 c -2.441369,1.49108 -2.637817,1.57838 -4.158512,1.84792 -0.87785,0.1556 -1.761941,0.3194 -1.964638,0.36399 -0.333264,0.0733 -0.390544,-0.0342 -0.598184,-1.12286 -0.523663,-2.74557 -1.585243,-4.99447 -2.940121,-6.22849 -0.446249,-0.40644 -0.790202,-0.61714 -0.78692,-0.48204 0.0035,0.13199 0.321,0.53289 0.706201,0.89089 1.216658,1.13074 2.434136,3.88681 2.74852,6.22198 l 0.118948,0.88352 -1.834089,0.37508 c -1.930344,0.39474 -13.669109,3.1043 -14.074667,3.24874 -0.166636,0.0593 -0.264512,-0.12575 -0.332272,-0.62835 z"
       id="path879"
       inkscape:connector-curvature="0" />
    <path
       style="fill:#002255;fill-opacity:1;stroke-width:0.17084301"
       d="m 88.483957,249.11417 -1.350542,-0.0517 -0.111001,-0.85753 c -0.212393,-1.64079 -0.203036,-1.66574 0.816967,-2.1779 0.512086,-0.25713 1.419094,-0.7434 2.015581,-1.0806 1.066117,-0.60268 2.299382,-0.88432 7.547049,-1.72348 0.642714,-0.10278 0.663447,-0.0885 1.607852,1.10498 1.620787,2.0483 2.164917,2.84156 2.184067,3.18406 0.0101,0.18104 0.15198,0.56648 0.31521,0.85653 l 0.29679,0.52737 -0.57674,0.0812 c -0.70606,0.0994 -10.874005,0.20882 -12.745233,0.13711 z"
       id="path881"
       inkscape:connector-curvature="0" />
    <path
       style="fill:#002255;fill-opacity:1;stroke-width:0.17084301"
       d="m 73.518881,248.75435 c -1.381224,-0.0587 -1.972516,-0.13444 -1.684764,-0.21599 1.914424,-0.54256 13.972274,-3.24826 14.47576,-3.24826 0.193453,0 0.251047,0.14595 0.21066,0.53383 -0.05049,0.48478 -0.17776,0.59 -1.385645,1.14539 -0.731546,0.33636 -2.142058,0.91081 -3.134487,1.27656 l -1.804408,0.665 -2.274496,-0.0331 c -1.250971,-0.0182 -3.232154,-0.0738 -4.40262,-0.12344 z"
       id="path887"
       inkscape:connector-curvature="0" />
    <path
       style="fill:#002255;fill-opacity:1;stroke-width:0.04271076"
       d="m 84.718445,249.16221 c -0.792508,-0.0156 -2.06629,-0.0427 -2.830625,-0.0602 l -1.389709,-0.0319 0.702502,-0.23458 c 1.38191,-0.46147 2.887747,-1.07182 4.489894,-1.81989 0.522443,-0.24393 0.960215,-0.43395 0.972819,-0.42224 0.01262,0.0117 0.03159,0.60403 0.04222,1.3163 l 0.01932,1.29503 -0.28278,-0.007 c -0.155522,-0.004 -0.931187,-0.0198 -1.723688,-0.0354 z"
       id="path889"
       inkscape:connector-curvature="0" />
    <path
       style="fill:#002255;fill-opacity:1;stroke-width:0.04271076"
       d="m 86.804504,245.67701 c -0.02951,-0.30405 -0.04326,-0.56252 -0.03055,-0.57436 0.02994,-0.0278 3.258414,-0.66826 3.375594,-0.66964 0.122264,-0.002 -1.246478,0.75699 -2.700519,1.49639 l -0.590847,0.30045 z"
       id="path891"
       inkscape:connector-curvature="0" />
    <path
       style="fill:#002255;fill-opacity:1;stroke-width:0.04271076"
       d="m 73.780832,249.86334 c -0.828271,-0.0814 -1.655935,-0.27403 -2.224231,-0.5177 -0.414298,-0.17764 -0.905668,-0.43061 -0.880958,-0.45354 0.0101,-0.009 0.355772,8.8e-4 0.768137,0.0233 1.823513,0.0982 6.625539,0.2884 7.333646,0.29052 0.255442,8.1e-4 0.395027,0.015 0.354693,0.0363 -0.09636,0.0509 -1.270136,0.31381 -1.839947,0.4122 -1.165296,0.20125 -2.675033,0.29106 -3.51134,0.20888 z"
       id="path893"
       inkscape:connector-curvature="0" />
    <path
       style="fill:#b7c8c4;fill-opacity:1;stroke-width:0.24160852"
       d="m 102.00684,247.83419 c -0.37243,-0.59816 -1.28307,-1.89187 -2.023645,-2.87492 -0.740588,-0.98304 -1.25972,-1.83593 -1.153653,-1.8953 0.106076,-0.0594 1.660058,-0.3023 3.453298,-0.53986 4.57391,-0.60594 13.53157,-0.61416 15.16636,-0.0139 1.55994,0.57275 2.26435,1.24521 2.26435,2.16155 0,2.17389 -4.34822,3.3227 -15.72534,4.15465 l -1.30425,0.0954 z"
       id="path895"
       inkscape:connector-curvature="0" />
    <path
       style="fill:#b7c8c4;fill-opacity:1;stroke-width:0.24160852"
       d="m 94.507984,239.39195 c -2.053869,-1.58428 -4.929241,-2.88825 -7.127578,-3.23237 -0.981365,-0.15362 -2.905609,-0.24336 -4.276083,-0.19942 -1.370483,0.044 -2.41255,0.009 -2.31571,-0.0765 0.09684,-0.0861 2.264,-1.54116 4.815908,-3.23362 18.392539,-12.19814 30.687899,-18.05595 33.134089,-15.78583 0.95506,0.88635 0.17654,2.87589 -2.4943,6.37423 -1.61487,2.11519 -9.56769,9.63489 -12.95826,12.25254 -2.88569,2.22784 -6.89784,5.09161 -7.10978,5.07476 -0.08992,-0.007 -0.84064,-0.53533 -1.668286,-1.17375 z"
       id="path897"
       inkscape:connector-curvature="0" />
    <path
       style="fill:#b7c8c4;fill-opacity:1;stroke-width:0.24160852"
       d="m 72.941375,235.68404 c 0.400389,-1.17071 3.768245,-7.72618 5.317612,-10.35061 3.800457,-6.43752 6.741891,-9.46573 8.324862,-8.57048 0.675241,0.38188 1.277091,1.76321 1.2775,2.93206 8.71e-4,2.67944 -1.980218,5.75292 -6.260061,9.71158 -1.591597,1.47216 -4.078853,3.52347 -5.527236,4.55848 -3.31511,2.36896 -3.364175,2.39587 -3.132677,1.71897 z"
       id="path899"
       inkscape:connector-curvature="0" />
    <path
       style="fill:#b7c8c4;fill-opacity:1;stroke-width:0.24160852"
       d="m 65.541536,233.33564 c 0.0043,-15.04206 2.403194,-26.70392 6.62151,-32.18992 2.422656,-3.15072 6.105079,-4.57221 7.735557,-2.9861 0.858362,0.835 1.119148,1.51818 1.321419,3.46169 0.527935,5.07261 -2.558167,17.38809 -7.898913,31.52159 l -1.279935,3.38718 -2.309896,0.27726 c -1.270441,0.15251 -2.733116,0.34398 -3.250397,0.42551 l -0.940501,0.14822 8.7e-4,-4.04543 z"
       id="path901"
       inkscape:connector-curvature="0" />
    <path
       style="fill:none;stroke:#000000;stroke-width:0.42046106px;stroke-linecap:butt;stroke-linejoin:miter;stroke-opacity:1"
       d="m 27.812688,257.17296 c 0,0 1.274061,-47.2405 -8.943454,-57.7812 -10.2175246,-10.54067 5.989211,59.14517 5.989211,59.14517"
       id="path903"
       inkscape:connector-curvature="0" />
    <path
       style="fill:none;stroke:#000000;stroke-width:0.40604699px;stroke-linecap:butt;stroke-linejoin:miter;stroke-opacity:1"
       d="m 38.309414,259.2122 c 0,0 0.316424,-47.39751 -9.373062,-58.20699 -9.689492,-10.80946 6.652521,59.51057 6.652521,59.51057"
       id="path903-8"
       inkscape:connector-curvature="0" />
    <path
       style="fill:#37c871;fill-opacity:1;stroke-width:0.15016469"
       d="m 24.519349,255.86383 c -0.994096,-4.38599 -2.880427,-13.36914 -4.044802,-19.26231 -3.748672,-18.97291 -5.294507,-31.26924 -4.517084,-35.93108 0.37759,-2.26422 1.01012,-2.55892 2.528541,-1.17802 5.609074,5.10101 9.114137,25.14417 9.104007,52.05975 -0.0022,5.94784 0.05925,5.37251 -0.6014,5.62645 -0.305804,0.11744 -0.848917,0.38562 -1.206875,0.59576 -0.357959,0.21012 -0.672387,0.37825 -0.698716,0.37361 -0.02647,-0.004 -0.279981,-1.03252 -0.563671,-2.28416 z"
       id="path920"
       inkscape:connector-curvature="0" />
    <path
       style="fill:#48373e;fill-opacity:1;stroke-width:0.13641126"
       d="m 36.891749,258.85161 c -0.264518,-0.0867 -0.728147,-0.25419 -1.03027,-0.37248 l -0.549303,-0.21516 -0.728856,-3.27201 C 29.300738,231.27718 26,211.51817 26.096758,204.18944 c 0.05405,-4.09403 0.877629,-4.94756 2.735519,-2.83496 4.819618,5.4804 8.012485,21.63943 8.98204,45.45795 0.139142,3.41828 0.329482,11.89912 0.275399,12.27081 -0.01904,0.13083 -0.193378,0.097 -1.197957,-0.23171 z"
       id="path922"
       inkscape:connector-curvature="0" />
    <path
       style="fill:#48373e;fill-opacity:1;stroke-width:0.21236493"
       d="m 24.5454,255.57432 c -0.974037,-4.17128 -4.274685,-20.28885 -5.284763,-25.80633 -1.996056,-10.90331 -3.115383,-18.99137 -3.344603,-24.16753 -0.192823,-4.35431 0.284094,-7.02706 1.224301,-6.86127 0.886552,0.15632 2.296176,1.76297 3.518948,4.01079 4.260173,7.83152 6.677795,24.87614 6.83665,48.19956 0.0197,2.89276 0.0056,5.41273 -0.03139,5.59993 -0.03707,0.18721 -0.580808,0.59296 -1.208531,0.90163 l -1.141314,0.56123 z"
       id="path924"
       inkscape:connector-curvature="0" />
  </g>
</svg>
