<?xml version="1.0" encoding="UTF-8" standalone="no"?>
<!-- Created with Inkscape (http://www.inkscape.org/) -->

<svg
   xmlns:dc="http://purl.org/dc/elements/1.1/"
   xmlns:cc="http://creativecommons.org/ns#"
   xmlns:rdf="http://www.w3.org/1999/02/22-rdf-syntax-ns#"
   xmlns:svg="http://www.w3.org/2000/svg"
   xmlns="http://www.w3.org/2000/svg"
   xmlns:sodipodi="http://sodipodi.sourceforge.net/DTD/sodipodi-0.dtd"
   xmlns:inkscape="http://www.inkscape.org/namespaces/inkscape"
   width="40mm"
   height="80mm"
   viewBox="0 0 40 80"
   version="1.1"
   id="svg8"
   sodipodi:docname="knightUpAttack.svg"
   inkscape:version="0.92.4 (5da689c313, 2019-01-14)">
  <defs
     id="defs2" />
  <sodipodi:namedview
     id="base"
     pagecolor="#ffffff"
     bordercolor="#666666"
     borderopacity="1.0"
     inkscape:pageopacity="0.0"
     inkscape:pageshadow="2"
     inkscape:zoom="1.4142136"
     inkscape:cx="101.12218"
     inkscape:cy="136.58923"
     inkscape:document-units="mm"
     inkscape:current-layer="layer1"
     showgrid="false"
     inkscape:window-width="1920"
     inkscape:window-height="1001"
     inkscape:window-x="-9"
     inkscape:window-y="-9"
     inkscape:window-maximized="1" />
  <metadata
     id="metadata5">
    <rdf:RDF>
      <cc:Work
         rdf:about="">
        <dc:format>image/svg+xml</dc:format>
        <dc:type
           rdf:resource="http://purl.org/dc/dcmitype/StillImage" />
        <dc:title></dc:title>
      </cc:Work>
    </rdf:RDF>
  </metadata>
  <g
     inkscape:label="Camada 1"
     inkscape:groupmode="layer"
     id="layer1"
     transform="matrix(2,0,0,2.7,-40,-379)">
    <ellipse
       id="path21-6-9"
       cx="-27.321716"
       cy="158.51636"
       rx="0.69635463"
       ry="1.7057297"
       style="stroke-width:0.04137413"
       transform="matrix(0.95939055,-0.28208113,0.41078962,0.91173016,0,0)" />
    <ellipse
       id="path23-9-4"
       cx="-33.310368"
       cy="158.56653"
       rx="1.6712511"
       ry="2.1572466"
       style="stroke-width:0.04137413"
       transform="matrix(0.95939055,-0.28208113,0.41078962,0.91173016,0,0)" />
    <path
       style="fill:none;stroke:#000000;stroke-width:0.04117883px;stroke-linecap:butt;stroke-linejoin:miter;stroke-opacity:1"
       d="m 31.2216,159.35922 c -8.41776,2.47501 -7.821754,-7.95655 -7.18493,-8.55818"
       id="path27-60-5"
       inkscape:connector-curvature="0" />
    <path
       style="fill:none;stroke:#000000;stroke-width:0.04117883px;stroke-linecap:butt;stroke-linejoin:miter;stroke-opacity:1"
       d="m 31.2216,159.35922 c 7.431267,-1.97775 5.941568,-0.91818 8.376515,-2.56653 2.224777,-6.14489 -4.143041,-9.86698 -4.070561,-9.37028"
       id="path29-3-3"
       inkscape:connector-curvature="0" />
    <path
       style="fill:none;stroke:#000000;stroke-width:0.04117883px;stroke-linecap:butt;stroke-linejoin:miter;stroke-opacity:1"
       d="m 35.52758,147.42248 c -0.291252,-3.33315 -4.150266,-6.86048 -6.010915,-6.6242 -1.860666,0.23621 2.458976,1.76338 0.289883,1.98675 -2.169102,0.22336 -0.821622,0.86315 0.52586,1.50296 1.347483,0.63981 2.110692,3.00539 0.599703,3.34605 -1.511014,0.3406 -4.183315,1.12631 -4.183315,1.12631 0,0 -5.965606,-2.49356 -3.377099,-4.80861 2.588498,-2.31507 -3.154222,2.06699 -1.172646,-0.58761 1.981569,-2.65461 1.968876,-5.03366 -1.16269,-0.90133 -3.131561,4.13232 3.00028,8.33818 3.00028,8.33818"
       id="path33-09-4"
       inkscape:connector-curvature="0" />
    <path
       inkscape:connector-curvature="0"
       id="path35-0-0"
       d="m 37.474872,157.8565 c 0.306642,6.82531 -0.0853,5.27879 -1.231169,7.00714 -0.779985,1.21134 0.773959,4.05201 -0.14598,4.22929 -0.919936,0.17728 -2.223836,-2.86792 -2.734911,-3.04519 -0.511076,-0.17728 -0.721654,-0.549 -1.028302,0.60332 0.196431,1.34621 -1.398412,4.23208 -2.063258,1.51608 -0.25486,-1.04113 -0.765761,-3.41435 -0.970193,-3.68029 -0.204431,-0.26591 -1.124078,1.18422 -1.124078,1.18422 0,0 0.284805,-6.66641 3.044619,-6.31185"
       style="fill:none;stroke:#000000;stroke-width:0.03331515px;stroke-linecap:butt;stroke-linejoin:miter;stroke-opacity:1"
       sodipodi:nodetypes="cccccsccc" />
    <path
       style="fill:none;stroke:#000000;stroke-width:0.04248865px;stroke-linecap:butt;stroke-linejoin:miter;stroke-opacity:1"
       d="m 29.402765,170.07676 c -2.785719,-2.63298 -0.481329,-10.49046 0.736398,-10.86308 1.217724,-0.37263 7.242165,-1.10875 7.242165,-1.10875 0,0 4.927511,6.97572 0.608918,9.60463"
       id="path53-7-4"
       inkscape:connector-curvature="0"
       sodipodi:nodetypes="cccc" />
    <path
       style="fill:none;stroke:#000000;stroke-width:0.04248865px;stroke-linecap:butt;stroke-linejoin:miter;stroke-opacity:1"
       d="m 29.402765,170.07676 c 0,0 7.449948,-4.1416 6.724107,-5.86187"
       id="path55-4-8"
       inkscape:connector-curvature="0"
       sodipodi:nodetypes="cc" />
    <path
       style="fill:none;stroke:#000000;stroke-width:0.04248865px;stroke-linecap:butt;stroke-linejoin:miter;stroke-opacity:1"
       d="m 37.990246,167.70956 c 0,0 -4.494714,-7.61685 -3.439389,-9.15604"
       id="path57-3-8"
       inkscape:connector-curvature="0"
       sodipodi:nodetypes="cc" />
    <path
       style="fill:none;stroke:#000000;stroke-width:0.04248865px;stroke-linecap:butt;stroke-linejoin:miter;stroke-opacity:1"
       d="m 28.284629,167.95461 c 5.346151,-2.60258 6.996863,-4.0703 7.038931,-5.52635"
       id="path63-2-3"
       inkscape:connector-curvature="0"
       sodipodi:nodetypes="cc" />
    <path
       style="fill:none;stroke:#000000;stroke-width:0.03534169px;stroke-linecap:butt;stroke-linejoin:miter;stroke-opacity:1"
       d="m 28.083034,165.92133 c 1.789604,-0.7085 3.971418,-4.90726 4.76627,-5.04994"
       id="path65-9-7"
       inkscape:connector-curvature="0"
       sodipodi:nodetypes="cc" />
    <path
       style="fill:none;stroke:#000000;stroke-width:0.04248865px;stroke-linecap:butt;stroke-linejoin:miter;stroke-opacity:1"
       d="m 28.321164,163.66837 c 1.12953,-2.03842 1.80103,-4.64465 3.740615,-4.83426"
       id="path67-6-4"
       inkscape:connector-curvature="0" />
    <path
       style="fill:#333333;stroke:#000000;stroke-width:0.05021092px;stroke-linecap:butt;stroke-linejoin:miter;stroke-opacity:1"
       d="m 39.692527,145.61909 c 1.375387,1.67228 -3.280622,10.53743 -2.653648,9.38683 l -1.659308,3.08507 -1.071911,-0.70472 -2.017101,2.53782 -1.066326,-0.65305 2.264174,-2.55541 -0.786534,-0.82913 c 0,0 6.045441,-10.72087 6.990654,-10.26741"
       id="path51-34"
       inkscape:connector-curvature="0"
       sodipodi:nodetypes="ccccccccc" />
    <path
       style="fill:#6f917c;fill-opacity:1;stroke-width:0.04074224"
       d="m 37.642759,167.01108 c -2.025941,-3.62785 -3.206773,-6.49367 -3.201977,-7.77104 6.62e-4,-0.16341 0.02386,-0.36099 0.05165,-0.43907 0.02779,-0.0781 0.0536,-0.17789 0.05735,-0.22181 0.0037,-0.0439 0.02126,-0.0799 0.03891,-0.0799 0.03575,0 2.470444,-0.31075 2.661732,-0.33973 0.11618,-0.0176 0.135451,0.005 0.452185,0.52444 0.906416,1.48723 1.554918,2.98007 1.831469,4.21601 0.465691,2.08124 0.03523,3.60626 -1.295644,4.59016 l -0.232235,0.17169 z"
       id="path2259"
       inkscape:connector-curvature="0" />
    <path
       style="fill:#6f917c;fill-opacity:1;stroke-width:0.04074224"
       d="m 28.431466,163.18395 c 0.05525,-0.36825 0.392228,-1.57944 0.577618,-2.07614 0.421953,-1.13052 0.80823,-1.73652 1.187545,-1.86306 0.219797,-0.0733 0.969028,-0.22489 0.999063,-0.2021 0.01058,0.008 -0.05321,0.0565 -0.141752,0.10777 -0.241332,0.13967 -0.681988,0.60357 -0.951495,1.00168 -0.31497,0.46527 -0.569394,0.94157 -1.140121,2.13442 -0.259513,0.54238 -0.49171,1.01011 -0.515993,1.03939 -0.02898,0.0349 -0.03409,-0.0138 -0.01487,-0.14196 z"
       id="path2261"
       inkscape:connector-curvature="0" />
    <path
       style="fill:#6f917c;fill-opacity:1;stroke-width:0.04074224"
       d="m 29.230245,169.82835 c -0.09691,-0.11166 -0.247634,-0.31723 -0.334936,-0.45682 -0.185852,-0.29716 -0.473253,-0.99526 -0.51138,-1.24214 l -0.02658,-0.17208 0.971489,-0.48515 c 3.070773,-1.53351 4.87567,-2.76742 5.599755,-3.82821 0.201047,-0.29454 0.395947,-0.73931 0.403434,-0.92065 0.0028,-0.0687 0.02046,-0.0524 0.07603,0.0703 0.03979,0.0879 0.218765,0.47113 0.397727,0.85176 0.307967,0.65499 0.324246,0.70508 0.304026,0.93547 -0.01789,0.20381 -0.0609,0.30377 -0.264355,0.61434 -0.390138,0.59553 -0.951162,1.12651 -2.151162,2.03597 -1.235315,0.93623 -2.704472,1.90072 -4.121542,2.70579 l -0.166306,0.0944 z"
       id="path2267"
       inkscape:connector-curvature="0" />
    <path
       style="fill:none;stroke:#000000;stroke-width:0.11523646px;stroke-linecap:butt;stroke-linejoin:miter;stroke-opacity:1"
       d="m 33.476059,161.94926 c 0,0 -0.637271,-3.98372 -1.151764,-4.64915 -0.514494,-0.66543 0.613884,-0.80739 0.935443,-0.0754 0.321559,0.73198 1.76565,4.1035 1.315467,4.67134"
       id="path2269"
       inkscape:connector-curvature="0" />
    <path
       style="fill:none;stroke:#000000;stroke-width:0.11523646px;stroke-linecap:butt;stroke-linejoin:miter;stroke-opacity:1"
       d="m 34.522759,164.10567 c 0,0 -1.774999,-3.5898 -2.2322,-4.18158"
       id="path2271"
       inkscape:connector-curvature="0" />
    <path
       style="fill:#6f917c;fill-opacity:1;stroke-width:0.02037112"
       d="m 29.978732,166.80573 c -0.09015,-0.39883 -0.371159,-1.51907 -0.433083,-1.72651 l -0.05887,-0.1972 0.265682,-0.29997 c 0.344222,-0.38864 0.776893,-0.93624 1.393237,-1.7633 0.61307,-0.82268 1.008303,-1.32629 1.204604,-1.53494 0.167565,-0.17809 0.399431,-0.36932 0.436465,-0.35995 0.01329,0.003 0.09683,0.1407 0.185643,0.30519 0.372666,0.69024 1.471401,2.84734 1.471401,2.88874 0,0.0482 -0.495526,0.48015 -0.922862,0.80446 -0.634263,0.48135 -1.230838,0.86615 -2.175795,1.40345 -0.337487,0.19189 -0.926002,0.51308 -1.206345,0.65841 l -0.107199,0.0555 z"
       id="path2273"
       inkscape:connector-curvature="0" />
    <path
       style="fill:#6f917c;fill-opacity:1;stroke-width:0.02037112"
       d="m 28.224245,165.43611 c -0.0022,-0.22282 0.118908,-1.29064 0.198908,-1.75385 0.02718,-0.15735 0.06043,-0.24605 0.182931,-0.48798 0.08235,-0.16263 0.271065,-0.5512 0.419376,-0.86352 0.764198,-1.60922 1.02891,-2.06919 1.50121,-2.60849 l 0.170942,-0.19519 0.292137,-0.0754 c 0.160675,-0.0415 0.302763,-0.0754 0.31575,-0.0754 0.04562,0 0.928492,0.55464 0.942462,0.59207 0.0078,0.0208 0.05651,0.10172 0.10831,0.17983 0.127236,0.19179 0.403745,0.67841 0.403745,0.71055 0,0.0142 -0.0099,0.0258 -0.02209,0.0258 -0.04226,0 -0.265343,0.18738 -0.422521,0.3549 -0.223359,0.23805 -0.392594,0.45075 -0.945916,1.1889 -0.701017,0.93517 -0.930977,1.2374 -1.154441,1.51719 -0.252791,0.31651 -0.730434,0.86551 -0.744037,0.85519 -0.0057,-0.004 -0.03222,-0.0668 -0.05892,-0.13874 -0.08645,-0.23308 -0.137832,-0.26942 -0.279014,-0.1973 -0.162881,0.0832 -0.501571,0.47843 -0.84766,0.98916 l -0.06012,0.0887 z"
       id="path2275"
       inkscape:connector-curvature="0" />
    <path
       style="fill:#6f917c;fill-opacity:1;stroke-width:0.02037112"
       d="m 28.304926,167.8716 c -0.0169,-0.0366 -0.101917,-0.5395 -0.128221,-0.7586 -0.02228,-0.18555 -0.06915,-0.91631 -0.07012,-1.09314 -3.83e-4,-0.0707 0.0044,-0.0753 0.167278,-0.15742 0.28101,-0.14178 0.709263,-0.4748 1.044235,-0.81203 0.0653,-0.0658 0.123511,-0.11366 0.129351,-0.10647 0.02815,0.0346 0.529624,2.02985 0.529624,2.10721 0,0.0195 -1.608484,0.84262 -1.646556,0.84262 -0.0084,0 -0.01994,-0.0102 -0.02559,-0.0221 z"
       id="path2277"
       inkscape:connector-curvature="0" />
    <path
       style="fill:#6f917c;fill-opacity:1;stroke-width:0.02037112"
       d="m 28.120638,165.62686 c 0.03452,-0.79939 0.161126,-1.90349 0.223296,-1.94727 0.01834,-0.0129 0.02137,0.009 0.01075,0.0796 -0.129869,0.85775 -0.228638,1.90172 -0.18199,1.92359 0.016,0.007 0.08003,-0.0703 0.16958,-0.20604 0.376184,-0.57028 0.749763,-0.99002 0.881142,-0.99002 0.0529,0 0.112066,0.0983 0.168283,0.27978 0.02523,0.0814 0.02398,0.0993 -0.0097,0.13825 -0.110042,0.12743 -0.525825,0.49783 -0.717887,0.63953 -0.204505,0.15089 -0.492381,0.32654 -0.535154,0.32654 -0.01037,0 -0.01411,-0.1098 -0.0083,-0.244 z"
       id="path2279"
       inkscape:connector-curvature="0" />
    <path
       style="fill:#000000;fill-opacity:1;stroke-width:0.02037112"
       d="m 35.940372,169.0661 c -0.285777,-0.066 -0.606603,-0.3563 -1.030703,-0.93277 -0.16629,-0.22604 -0.746158,-1.10495 -0.746376,-1.1313 -6.1e-5,-0.007 0.09597,-0.0912 0.2134,-0.18631 1.094279,-0.88643 1.753077,-1.69233 1.81678,-2.22249 l 0.01599,-0.13308 0.05679,0.12612 0.05679,0.12613 -0.05979,0.0779 c -0.08614,0.1123 -0.169812,0.30112 -0.219329,0.49494 -0.03388,0.13261 -0.043,0.25187 -0.04275,0.55896 3.96e-4,0.45777 0.01364,0.55916 0.201975,1.54381 0.134242,0.70182 0.142673,0.76546 0.144589,1.0913 0.0021,0.36546 -0.0108,0.42426 -0.112834,0.51246 -0.04543,0.0392 -0.175889,0.0928 -0.217632,0.0893 -0.01007,-8.1e-4 -0.04467,-0.007 -0.07691,-0.0151 z"
       id="path2281"
       inkscape:connector-curvature="0" />
    <path
       style="fill:#000000;fill-opacity:1;stroke-width:0.02037112"
       d="m 30.921374,169.24655 c -0.01597,-0.008 0.141699,-0.11879 0.40341,-0.28362 0.236297,-0.14883 0.429631,-0.26445 0.429631,-0.25694 0,0.007 -0.0471,0.0747 -0.104669,0.14934 -0.123098,0.15955 -0.330477,0.33579 -0.442685,0.37619 -0.08217,0.0296 -0.239732,0.0379 -0.285687,0.0151 z"
       id="path2283"
       inkscape:connector-curvature="0" />
    <path
       style="fill:none;stroke:#000000;stroke-width:0.11523646px;stroke-linecap:butt;stroke-linejoin:miter;stroke-opacity:1"
       d="M 33.47606,161.94926 Z"
       id="path2305"
       inkscape:connector-curvature="0" />
    <path
       style="fill:none;stroke:#000000;stroke-width:0.11523646px;stroke-linecap:butt;stroke-linejoin:miter;stroke-opacity:1"
       d="m 34.575206,161.89606 -1.099145,0.0532"
       id="path2307"
       inkscape:connector-curvature="0" />
    <path
       style="fill:#000000;fill-opacity:1;stroke-width:0.01440456"
       d="m 33.529502,161.86544 c -0.0035,-0.008 -0.02618,-0.13426 -0.05035,-0.27919 -0.127828,-0.76655 -0.33583,-1.82053 -0.487815,-2.47186 -0.237401,-1.01737 -0.421185,-1.56949 -0.619271,-1.86037 -0.08098,-0.11892 -0.108439,-0.18446 -0.108369,-0.2586 8.3e-5,-0.0863 0.04469,-0.14008 0.143797,-0.17335 0.217267,-0.0729 0.54168,0.0555 0.703285,0.27845 0.123468,0.17032 0.694731,1.56925 1.011963,2.47813 0.281213,0.80569 0.445567,1.45926 0.466993,1.85703 0.0097,0.18026 -0.0081,0.33849 -0.04279,0.38113 -0.0099,0.0121 -0.135594,0.023 -0.466286,0.0401 -0.547009,0.0283 -0.543162,0.0282 -0.551158,0.008 z"
       id="path2309"
       inkscape:connector-curvature="0" />
    <path
       style="fill:#000000;fill-opacity:1;stroke-width:0.01440456"
       d="m 34.322568,163.55935 c -0.125436,-0.25017 -0.353494,-0.70001 -0.506795,-0.99966 -0.153299,-0.29964 -0.276889,-0.54599 -0.274644,-0.54742 0.0022,-0.001 0.212445,-0.012 0.467106,-0.0236 0.537438,-0.0243 0.570508,-0.0273 0.570508,-0.0513 0,-0.0103 0.01,-0.015 0.02369,-0.011 0.02922,0.008 0.06275,-0.039 0.09398,-0.13317 0.03504,-0.10563 0.02746,-0.45255 -0.01523,-0.69693 -0.09059,-0.51864 -0.32683,-1.29742 -0.662128,-2.18272 -0.04443,-0.11732 -0.07621,-0.21469 -0.07061,-0.21639 0.06151,-0.0186 0.539475,-0.12647 0.54434,-0.12278 0.0036,0.003 -0.0087,0.0358 -0.02735,0.0735 -0.01862,0.0378 -0.04724,0.1186 -0.06359,0.17967 -0.04109,0.15338 -0.04065,0.63622 7.94e-4,0.89523 0.108835,0.67984 0.386179,1.55283 0.837115,2.63498 0.05742,0.13778 0.0584,0.1511 0.02523,0.34309 -0.06553,0.37932 -0.263931,0.77718 -0.57819,1.15946 -0.06949,0.0845 -0.128562,0.15372 -0.131264,0.15372 -0.0027,0 -0.10754,-0.20469 -0.232975,-0.45486 z"
       id="path2311"
       inkscape:connector-curvature="0" />
    <path
       style="fill:#000000;fill-opacity:1;stroke-width:0.01440456"
       d="m 33.290302,161.54565 c -0.239856,-0.46702 -0.635321,-1.17679 -0.805124,-1.44501 -0.06728,-0.10627 -0.122321,-0.19789 -0.122321,-0.20359 0,-0.006 0.11706,-0.15802 0.260132,-0.33846 l 0.260132,-0.32806 0.01959,0.0737 c 0.08243,0.31001 0.462546,2.28645 0.44894,2.33426 -0.0027,0.009 -0.03029,-0.0324 -0.06135,-0.0928 z"
       id="path2313"
       inkscape:connector-curvature="0" />
    <path
       style="fill:#000000;fill-opacity:1;stroke-width:0.01440456"
       d="m 31.040508,159.3224 -0.10692,-0.007 0.131724,-0.086 c 0.142865,-0.0932 0.270691,-0.16416 0.281222,-0.15617 0.0036,0.003 -0.03406,0.0511 -0.08377,0.10746 -0.08592,0.0974 -0.08875,0.1031 -0.05738,0.11583 0.01815,0.007 0.033,0.0188 0.033,0.0255 0,0.0126 -0.01939,0.0126 -0.19787,5e-4 z"
       id="path2315"
       inkscape:connector-curvature="0" />
    <path
       style="fill:#000000;fill-opacity:1;stroke-width:0.00509278"
       d="m 35.804613,158.27787 c 0.0034,-0.002 0.369662,-0.0776 0.727349,-0.14892 0.549052,-0.10955 0.638244,-0.12788 0.823475,-0.16935 0.05418,-0.0121 0.09957,-0.0212 0.10087,-0.0203 0.003,0.002 0.01489,0.24362 0.01206,0.24577 -0.0012,9e-4 -0.01847,-0.0223 -0.03844,-0.0517 -0.01997,-0.0293 -0.03768,-0.0533 -0.03936,-0.0533 -0.0079,0 -0.920518,0.1154 -1.225895,0.15501 -0.32855,0.0426 -0.365751,0.047 -0.360066,0.0427 z"
       id="path2317"
       inkscape:connector-curvature="0" />
    <path
       style="fill:#000000;fill-opacity:1;stroke-width:0.00180057"
       d="m 30.766665,159.458 c 0.0074,-0.007 0.07551,-0.0669 0.08796,-0.0769 l 0.01415,-0.0115 0.03204,-0.003 c 0.02477,-0.002 0.0508,-0.003 0.114721,-0.002 0.04548,6e-5 0.08671,7e-4 0.09163,0.001 l 0.0089,0.001 -0.03582,0.0102 c -0.09249,0.0258 -0.310186,0.0833 -0.315355,0.0833 -5.82e-4,0 1.99e-4,-0.001 0.0017,-0.003 z"
       id="path2319"
       inkscape:connector-curvature="0" />
    <path
       style="fill:#e6e6e6;fill-opacity:1;stroke-width:0.05761823"
       d="m 27.863384,159.60747 c -1.968397,-0.36191 -3.362549,-1.98587 -3.880591,-4.52027 -0.304323,-1.48882 -0.286589,-3.53976 0.03591,-4.15343 0.06854,-0.13041 0.0462,-0.15936 -0.394615,-0.51148 -2.812806,-2.24687 -3.988267,-4.81731 -3.143697,-6.8745 0.38935,-0.94838 1.993702,-2.89036 2.637114,-3.19208 0.329938,-0.15473 0.383772,-0.1008 0.345446,0.34622 -0.04604,0.53693 -0.340101,1.1635 -1.0745,2.28948 -0.726927,1.11453 -0.785365,1.27985 -0.4524,1.27985 0.210681,0 0.599032,-0.16627 1.307876,-0.55993 0.288669,-0.16033 0.537162,-0.28215 0.552207,-0.27073 0.01505,0.0114 -0.133598,0.17475 -0.330319,0.36297 -0.461333,0.44139 -0.536752,0.5373 -0.678466,0.86285 -0.261384,0.60045 -0.03616,1.30213 0.653252,2.03521 0.552892,0.58791 2.125619,1.61469 3.049314,1.99082 l 0.265109,0.10794 1.355464,-0.3786 c 0.745505,-0.20823 1.735538,-0.4734 2.200074,-0.58927 0.464536,-0.11587 0.919292,-0.25524 1.010569,-0.30973 0.621152,-0.37073 0.636519,-1.40219 0.03461,-2.32302 -0.367222,-0.5618 -0.574185,-0.72924 -1.454336,-1.17666 -0.763428,-0.3881 -1.196131,-0.68959 -1.196131,-0.83342 0,-0.12049 0.384583,-0.26295 0.887226,-0.32866 0.581338,-0.076 0.819099,-0.16276 0.870305,-0.31757 0.05605,-0.16944 -0.0408,-0.28158 -0.706768,-0.81835 -0.773452,-0.6234 -0.824517,-0.77532 -0.291288,-0.86657 1.51256,-0.25884 4.407959,2.20506 5.484858,4.66746 0.250292,0.57232 0.502543,1.43912 0.502543,1.72689 0,0.14374 0.02551,0.18034 0.125738,0.18034 0.161217,0 0.802002,0.36776 1.239734,0.71153 l 0.340212,0.26718 -0.750968,1.17945 c -0.413033,0.64872 -1.027295,1.63663 -1.365027,2.19537 l -0.614059,1.01589 -0.33979,-0.28944 c -0.440955,-0.37561 -0.921449,-0.57722 -1.375681,-0.57722 -0.593412,0 -0.971037,0.23064 -1.226778,0.74929 -0.172517,0.34987 -0.189301,1.04662 -0.0361,1.4985 0.158594,0.46777 0.542995,1.01533 0.919193,1.30933 0.201663,0.15759 0.331038,0.30145 0.320083,0.35592 -0.01011,0.0503 0.145548,0.2608 0.345912,0.46783 0.200365,0.20703 0.363962,0.38772 0.363549,0.40151 -3.97e-4,0.0138 -0.04308,0.0675 -0.0948,0.11935 -0.09083,0.091 -0.101146,0.0897 -0.300628,-0.0377 -0.23065,-0.14726 -0.557953,-0.17417 -0.759348,-0.0624 -0.170318,0.0945 -0.149706,0.3307 0.06298,0.72171 l 0.170993,0.31435 -0.473517,0.53888 c -0.260435,0.29638 -0.481679,0.54646 -0.491654,0.55574 -0.01,0.009 -0.31075,0.0729 -0.668389,0.14143 -0.757902,0.1452 -0.890316,0.20108 -1.11433,0.47035 l -0.165967,0.19949 -0.677165,-0.004 c -0.372442,-0.002 -0.832776,-0.0329 -1.022966,-0.0678 z"
       id="path2321"
       inkscape:connector-curvature="0" />
    <path
       style="fill:#e6e6e6;fill-opacity:1;stroke-width:0.05761823"
       d="m 33.818594,158.35647 c -0.06504,-0.1608 -0.04917,-0.20262 0.196399,-0.51754 0.146935,-0.18844 0.27657,-0.35139 0.288075,-0.36212 0.01151,-0.0108 0.2466,0.13042 0.522428,0.31369 0.275828,0.18326 0.524129,0.3332 0.551779,0.3332 0.08499,0 1.635346,-2.94191 2.228757,-4.22922 0.308395,-0.66902 0.57514,-1.24673 0.592768,-1.2838 0.01763,-0.0371 0.16576,0.13526 0.329184,0.38297 0.434549,0.65866 0.963406,0.97635 1.225858,0.73641 0.04651,-0.0425 0.10391,-0.21756 0.127567,-0.38898 0.04275,-0.30974 0.04335,-0.30827 0.09792,0.24019 0.06781,0.68152 0.0065,1.56504 -0.155821,2.24525 -0.215788,0.90433 -0.212116,0.8985 -0.818117,1.29702 -0.608879,0.40039 -0.940762,0.56151 -1.44439,0.70118 -0.477714,0.1325 -2.448309,0.53067 -2.96874,0.59985 -0.236471,0.0315 -0.491364,0.0683 -0.566429,0.082 -0.109806,0.02 -0.150309,-0.009 -0.207235,-0.15011 z"
       id="path2323"
       inkscape:connector-curvature="0" />
  </g>
  <g
     inkscape:groupmode="layer"
     id="layer2"
     inkscape:label="Camada 2" />
</svg>
