<?xml version="1.0" encoding="UTF-8" standalone="no"?>
<!-- Created with Inkscape (http://www.inkscape.org/) -->

<svg
   xmlns:dc="http://purl.org/dc/elements/1.1/"
   xmlns:cc="http://creativecommons.org/ns#"
   xmlns:rdf="http://www.w3.org/1999/02/22-rdf-syntax-ns#"
   xmlns:svg="http://www.w3.org/2000/svg"
   xmlns="http://www.w3.org/2000/svg"
   xmlns:sodipodi="http://sodipodi.sourceforge.net/DTD/sodipodi-0.dtd"
   xmlns:inkscape="http://www.inkscape.org/namespaces/inkscape"
   width="40mm"
   height="80mm"
   viewBox="0 0 40 80"
   version="1.1"
   id="svg8"
   sodipodi:docname="knightDash.svg"
   inkscape:version="0.92.4 (5da689c313, 2019-01-14)">
  <defs
     id="defs2" />
  <sodipodi:namedview
     id="base"
     pagecolor="#ffffff"
     bordercolor="#666666"
     borderopacity="1.0"
     inkscape:pageopacity="0.0"
     inkscape:pageshadow="2"
     inkscape:zoom="0.70710678"
     inkscape:cx="12.00336"
     inkscape:cy="502.53908"
     inkscape:document-units="mm"
     inkscape:current-layer="layer1"
     showgrid="false"
     inkscape:window-width="960"
     inkscape:window-height="1001"
     inkscape:window-x="951"
     inkscape:window-y="-9"
     inkscape:window-maximized="0" />
  <metadata
     id="metadata5">
    <rdf:RDF>
      <cc:Work
         rdf:about="">
        <dc:format>image/svg+xml</dc:format>
        <dc:type
           rdf:resource="http://purl.org/dc/dcmitype/StillImage" />
        <dc:title></dc:title>
      </cc:Work>
    </rdf:RDF>
  </metadata>
  <g
     inkscape:label="Camada 1"
     inkscape:groupmode="layer"
     id="layer1"
     transform="matrix(2,0,0,2.7,-40,-379)">
    <ellipse
       id="path21"
       cx="74.567322"
       cy="151.48338"
       rx="0.7517314"
       ry="1.6355431"
       style="stroke-width:0.04209407"
       transform="matrix(0.99157779,0.12951253,-0.23157098,0.97281801,0,0)" />
    <ellipse
       id="path23"
       cx="68.102432"
       cy="151.53149"
       rx="1.8041553"
       ry="2.068481"
       style="stroke-width:0.04209407"
       transform="matrix(0.99157779,0.12951253,-0.23157098,0.97281801,0,0)" />
    <path
       style="fill:none;stroke:#000000;stroke-width:0.0419806px;stroke-linecap:butt;stroke-linejoin:miter;stroke-opacity:1"
       d="m 27.079268,160.0201 c -9.392046,-1.22671 -1.96861,-9.81094 -0.985018,-10.06849"
       id="path27"
       inkscape:connector-curvature="0" />
    <path
       style="fill:none;stroke:#000000;stroke-width:0.0419806px;stroke-linecap:butt;stroke-linejoin:miter;stroke-opacity:1"
       d="m 27.079268,160.0201 c 8.154843,1.25813 6.083132,1.56655 9.414337,1.13307 6.100442,-4.31789 2.682024,-9.97554 2.421548,-9.52705"
       id="path29"
       inkscape:connector-curvature="0" />
    <path
       style="fill:none;stroke:#000000;stroke-width:0.0419806px;stroke-linecap:butt;stroke-linejoin:miter;stroke-opacity:1"
       d="m 38.915136,151.62619 c 1.927856,-2.93281 0.694207,-7.43659 -1.176994,-7.9705 -1.87121,-0.53391 1.105181,2.46041 -1.041909,1.79399 -2.147086,-0.66645 -1.326312,0.40579 -0.505537,1.47801 0.820765,1.07224 -0.03437,3.37312 -1.651973,3.06535 -1.617586,-0.30784 -4.599183,-0.69728 -4.599183,-0.69728 0,0 -3.85712,-4.46043 0.05499,-5.397 3.912103,-0.93658 -4.270217,0.50383 -0.693967,-0.95917 3.576264,-1.46297 5.132232,-3.4793 -0.478063,-1.22047 -5.61028,2.25881 -2.728229,8.23244 -2.728229,8.23244"
       id="path33"
       inkscape:connector-curvature="0" />
    <g
       id="g3840"
       transform="matrix(0.13618181,0.01778706,-0.02947154,0.12380845,46.271158,135.44612)">
      <path
         inkscape:connector-curvature="0"
         id="path35"
         d="m -35.727095,212.59147 c 2.26785,58.20833 -6.80357,64.25595 -16.630972,65.76785 -9.82736,1.51191 -20.174045,16.90654 -26.977625,11.80441 -6.80355,1.51191 10.346685,-14.07226 6.566935,-15.58417 -3.77976,-1.5119 -5.171564,-6.24478 -14.54239,-0.55117 -2.26785,9.82738 -25.163513,23.38 -15.797293,10.08771 8.039954,-11.41007 -10.58334,-19.65475 -12.09524,-21.92261 -1.51191,-2.26786 2.38974,-17.85743 2.38974,-17.85743 0,0 9.05112,-34.01245 29.461843,-30.98864"
         style="fill:none;stroke:#000000;stroke-width:0.26458332px;stroke-linecap:butt;stroke-linejoin:miter;stroke-opacity:1"
         sodipodi:nodetypes="cccccsccc" />
    </g>
    <path
       style="fill:#333333;stroke:#000000;stroke-width:0.0419806px;stroke-linecap:butt;stroke-linejoin:miter;stroke-opacity:1"
       d="m 27.673129,161.11586 c -1.819706,0.80642 -1.873229,0.80642 -1.980269,1.44482 l -3.05069,-1.34402 0.802811,-0.67202 -2.461957,-1.54563 0.749291,-0.67201 2.46196,1.71363 0.909854,-0.47041 c 0,0 3.05069,0.84002 2.515482,1.44483"
       id="path51"
       inkscape:connector-curvature="0" />
    <path
       style="fill:none;stroke:#000000;stroke-width:0.03850895px;stroke-linecap:butt;stroke-linejoin:miter;stroke-opacity:1"
       d="m 21.51372,167.69017 c -0.622872,-2.9816 5.972194,-8.28036 7.167499,-8.1559 1.195304,0.12447 6.437978,1.59699 6.437978,1.59699 0,0 2.244475,10.09293 -3.01198,8.22397"
       id="path53"
       inkscape:connector-curvature="0" />
    <path
       style="fill:none;stroke:#000000;stroke-width:0.03850895px;stroke-linecap:butt;stroke-linejoin:miter;stroke-opacity:1"
       d="m 21.566666,167.68171 c 0,0 9.693195,-1.39102 10.157468,-2.96816"
       id="path55"
       inkscape:connector-curvature="0" />
    <path
       style="fill:none;stroke:#000000;stroke-width:0.03850895px;stroke-linecap:butt;stroke-linejoin:miter;stroke-opacity:1"
       d="m 32.107217,169.35523 c 0,0 -1.286174,-8.00307 0.486572,-8.83633"
       id="path57"
       inkscape:connector-curvature="0" />
    <path
       style="fill:none;stroke:#000000;stroke-width:0.03850895px;stroke-linecap:butt;stroke-linejoin:miter;stroke-opacity:1"
       d="m 21.962058,165.66063 c 5.83336,-0.2016 8.855014,-1.12507 9.770626,-2.23747"
       id="path63"
       inkscape:connector-curvature="0" />
    <path
       style="fill:none;stroke:#000000;stroke-width:0.03850895px;stroke-linecap:butt;stroke-linejoin:miter;stroke-opacity:1"
       d="m 23.034797,164.01772 c 2.429725,0.27578 7.852982,-2.27763 8.823993,-2.01702"
       id="path65"
       inkscape:connector-curvature="0" />
    <path
       style="fill:none;stroke:#000000;stroke-width:0.03850895px;stroke-linecap:butt;stroke-linejoin:miter;stroke-opacity:1"
       d="m 24.587875,162.35645 c 2.134278,-1.19439 4.247859,-2.98339 5.907042,-2.47264"
       id="path67"
       inkscape:connector-curvature="0" />
    <path
       style="fill:#e6e6e6;stroke-width:0.5"
       d="m 114.72934,212.53899 c 0,-1.04482 -0.2128,-1.14183 -11.5,-5.24254 -24.826754,-9.01973 -35.882159,-12.39158 -38.986967,-11.89088 -0.969668,0.15637 -3.338032,1.37181 -5.263032,2.70097 -3.919885,2.70656 -2.960357,2.66113 -11.465765,0.54293 -14.647926,-3.64794 -24.451216,-12.54643 -27.854303,-25.28348 -2.096851,-7.84808 -1.300758,-19.72275 2.086679,-31.1253 4.367037,-14.7 14.003681,-33.09795 21.670663,-41.37288 l 2.870341,-3.097948 -1.732614,-6.902055 C 41.939374,80.450802 41.066428,73.739432 41.0552,63.965752 41.040715,51.357376 43.0921,41.972002 47.757074,33.303744 53.082633,23.408015 59.283803,17.943697 72.999531,11.060717 93.746291,0.64934287 100.28433,1.6004748 87.916036,13.230721 c -3.98274,3.745079 -9.365645,7.617071 -16.186695,11.643297 -6.332276,3.737718 -7.411112,4.492322 -8.360607,5.847916 -0.761874,1.087727 -0.740054,1.203641 0.402533,2.138306 1.133031,0.926848 1.71278,0.967924 9.333074,0.661261 4.46875,-0.179835 8.125,-0.228042 8.125,-0.107127 0,0.120916 -1.51875,0.719664 -3.375,1.330551 -5.268275,1.733775 -8.72411,3.67408 -11.062867,6.211333 -2.646147,2.870731 -3.839419,5.485483 -4.559002,9.989892 -1.357548,8.497912 2.517972,22.473222 9.954289,35.895647 l 2.561775,4.623955 9.100175,1.69026 c 5.0051,0.929645 13.043625,2.560895 17.863389,3.625 9.71361,2.14457 11.82321,2.310995 14.31363,1.129215 5.79406,-2.74946 10.19761,-14.677125 8.8562,-23.988305 -0.4671,-3.24225 -1.16962,-5.0692 -4.32453,-11.24625 -2.07176,-4.056325 -3.91862,-8.18418 -4.10412,-9.17301 -0.68734,-3.663815 1.54059,-4.143591 8.25204,-1.777045 4.85552,1.71212 6.11923,1.823495 7.29942,0.643312 1.08498,-1.084987 0.73975,-4.66372 -1.02522,-10.627498 -1.46584,-4.953052 -1.61957,-7.77694 -0.44784,-8.226575 1.55516,-0.596774 4.9138,0.889505 7.23694,3.202521 7.32507,7.293166 11.92726,23.66391 11.95096,42.51149 0.0154,12.30443 -1.62713,21.956223 -5.29821,31.131783 -1.7524,4.37999 -1.76463,4.4601 -0.78527,5.14607 2.0951,1.46747 5.68046,12.48615 7.14521,21.95903 0.88529,5.72535 0.76025,19.45768 -0.22991,25.25 -1.36907,8.00882 -1.66454,8.32678 -1.62625,1.75 0.0297,-5.09052 -0.1249,-6.34874 -1.01948,-8.30074 -3.89691,-8.50317 -11.67633,5.0019 -11.67633,20.27011 0,6.67922 1.26533,9.78063 3.99034,9.78063 0.77733,0 1.8253,-0.52153 2.50781,-1.24803 0.64485,-0.68641 1.26131,-1.15918 1.3699,-1.05059 0.10858,0.10859 -0.49937,1.57778 -1.35101,3.26488 -3.63325,7.19741 -8.71334,14.40554 -14.69963,20.85727 -3.24382,3.49602 -3.38894,3.58589 -6.69157,4.14364 -1.85671,0.31356 -4.10709,0.69927 -5.00084,0.85712 -1.26738,0.22384 -1.625,0.11358 -1.625,-0.50105 z M 96.787476,181.52957 c 2.82045,-1.3482 6.344004,-5.22747 8.232684,-9.06382 5.36075,-10.8889 3.59486,-25.17362 -3.68252,-29.7888 -4.907669,-3.11235 -11.403479,-1.37088 -15.536959,4.16532 -3.66986,4.91524 -5.349455,9.44133 -5.87064,15.81989 -0.51446,6.29628 1.441395,13.25934 4.70257,16.74164 3.05051,3.25736 7.982935,4.11999 12.154865,2.12577 z"
       id="path3788"
       inkscape:connector-curvature="0"
       transform="matrix(0.13229167,0,0,0.09799383,20,140.37037)" />
    <path
       style="fill:#000000;stroke-width:0.5"
       d="m 53.604733,302.56747 c -1.306034,-0.60595 -2.374784,-1.35263 -2.375,-1.65929 -4.94e-4,-0.70275 1.368118,-2.50771 5.264118,-6.94243 4.689914,-5.33841 6.73549,-8.21209 6.73549,-9.46219 0,-0.73508 -1.044965,-2.13232 -2.962882,-3.9617 -2.813688,-2.6838 -3.092262,-2.82611 -5.532309,-2.82611 -3.613799,0 -7.234138,1.63944 -8.068488,3.65374 -0.35708,0.86206 -2.209413,3.20985 -4.116295,5.2173 -4.934067,5.19429 -11.902772,9.62896 -15.131088,9.62896 -1.548474,0 -1.506214,-0.90132 0.15497,-3.30523 0.73915,-1.06962 2.072869,-3.01194 2.963821,-4.31625 2.277795,-3.3346 3.004702,-7.16628 2.078643,-10.95697 l -0.715551,-2.929 2.039589,-0.52916 c 27.007191,-7.00679 44.47235,-13.92011 51.34815,-20.32536 l 2.30856,-2.15058 0.31094,1.88128 c 0.171015,1.0347 0.31816,3.45627 0.32699,5.38127 0.014,3.05721 0.420425,9.02864 1.7895,26.2937 l 0.34048,4.29369 -1.951485,0.78083 c -1.073315,0.42946 -3.297445,0.93354 -4.942515,1.12019 -4.771135,0.54133 -7.331545,1.58789 -14.374682,5.8756 -10.353188,6.30281 -11.997186,6.85867 -15.490956,5.23771 z"
       id="path3790"
       inkscape:connector-curvature="0"
       transform="matrix(0.13229167,0,0,0.09799383,20,140.37037)" />
    <path
       style="fill:#6f917c;stroke-width:0.5;fill-opacity:1"
       d="m 29.789631,270.73469 c -0.929341,-1.62323 -3.122048,-4.71029 -4.872682,-6.86014 -1.750634,-2.14984 -3.184015,-4.28876 -3.18529,-4.75316 -0.0025,-0.89801 0.865754,-1.08492 7.747682,-1.66795 7.627187,-0.64617 20.983631,-2.82191 27.727176,-4.51671 13.594409,-3.41658 22.227694,-7.44904 28.147824,-13.14737 l 2.375,-2.28602 v 6.24229 c 0,6.20779 -0.0084,6.2524 -1.51051,8.07479 -3.562685,4.32215 -13.227905,9.28432 -27.604917,14.17248 -7.303017,2.48301 -25.51551,7.74556 -26.675575,7.70798 -0.252449,-0.008 -1.219368,-1.34297 -2.148708,-2.96619 z"
       id="path3792"
       inkscape:connector-curvature="0"
       transform="matrix(0.13229167,0,0,0.09799383,20,140.37037)" />
    <path
       style="fill:#6f917c;fill-opacity:1;stroke-width:0.5"
       d="m 22.482632,255.59075 c 0.183011,-0.89375 1.260262,-4.38125 2.393891,-7.75 l 2.061143,-6.125 1.770837,-0.0108 c 5.621051,-0.0343 16.740141,-3.73947 35.481218,-11.82312 14.76378,-6.36811 20.896695,-8.66606 23.128555,-8.66606 h 1.50925 l -0.28859,2.875 c -0.158725,1.58125 -0.431245,4.9 -0.605595,7.375 -0.37456,5.31713 -1.10837,6.57566 -5.888825,10.09977 -8.393845,6.18787 -21.378423,10.58082 -39.507744,13.36629 -6.427598,0.98756 -17.674628,2.27277 -19.972159,2.28223 -0.2281,9.4e-4 -0.264991,-0.72954 -0.08198,-1.62329 z"
       id="path5142"
       inkscape:connector-curvature="0"
       transform="matrix(0.13229167,0,0,0.09799383,20,140.37037)" />
    <path
       style="fill:#6f917c;fill-opacity:1;stroke-width:0.5"
       d="m 15.46106,256.65513 c 0.186983,-0.65416 1.844283,-4.22688 3.682888,-7.93938 3.325503,-6.71483 3.352497,-6.7508 5.181608,-6.90324 l 1.83869,-0.15324 -1.94293,5.76829 c -1.068611,3.17256 -2.091972,6.56276 -2.274134,7.53377 -0.182162,0.971 -0.474448,1.853 -0.649523,1.95998 -0.175075,0.10698 -1.636425,0.35846 -3.247444,0.55885 -2.913367,0.36238 -2.927296,0.35794 -2.589155,-0.82503 z"
       id="path5144"
       inkscape:connector-curvature="0"
       transform="matrix(0.13229167,0,0,0.09799383,20,140.37037)" />
    <path
       style="fill:#6f917c;fill-opacity:1;stroke-width:0.5"
       d="m 11.869624,272.62679 c 0.307188,-6.14607 1.851231,-12.73777 3.229244,-13.78604 0.451881,-0.34375 2.016098,-0.625 3.476038,-0.625 2.445757,0 2.654435,0.0915 2.654435,1.16399 0,0.68187 1.431697,2.98737 3.456603,5.56627 3.514342,4.47581 6.452141,9.26974 5.680655,9.26974 -0.233835,0 -3.679128,0.75566 -7.656206,1.67924 -3.977079,0.92359 -8.106901,1.83981 -9.177384,2.03604 l -1.946332,0.3568 z"
       id="path5146"
       inkscape:connector-curvature="0"
       transform="matrix(0.13229167,0,0,0.09799383,20,140.37037)" />
    <path
       style="fill:#6f917c;fill-opacity:1;stroke-width:0.5"
       d="m 23.729341,240.65171 c 0,-0.74495 7.485954,-12.11667 7.78168,-11.82095 0.12587,0.12587 -0.748807,2.34524 -1.943726,4.93193 -1.194919,2.58668 -2.429966,5.32181 -2.744548,6.07806 -0.409829,0.98522 -0.929349,1.375 -1.832687,1.375 -0.693395,0 -1.260719,-0.25382 -1.260719,-0.56404 z"
       id="path5148"
       inkscape:connector-curvature="0"
       transform="matrix(0.13229167,0,0,0.09799383,20,140.37037)" />
    <path
       style="fill:#6f917c;fill-opacity:1;stroke-width:0.5"
       d="m 27.992929,239.17724 c 1.503398,-4.26108 7.309111,-14.82718 8.720324,-15.87053 0.783673,-0.5794 4.989137,-4.02261 9.345474,-7.65158 4.356338,-3.62897 9.589249,-7.83641 11.628692,-9.34987 3.574483,-2.65261 3.776274,-2.73355 5.600899,-2.24653 1.189653,0.31754 2.068509,0.32953 2.36575,0.0323 0.297241,-0.29724 5.086826,0.67284 12.892843,2.61131 6.83095,1.69633 12.489215,3.15354 12.57392,3.23825 0.0847,0.0847 -0.306225,1.91114 -0.86874,4.05876 -0.56251,2.14761 -1.02275,4.42487 -1.02275,5.06058 0,0.96965 -0.26176,1.15664 -1.625,1.16087 -2.338965,0.007 -9.47294,2.64588 -22.667096,8.3838 -18.112452,7.8768 -27.804273,11.23485 -35.561608,12.32148 l -2.103704,0.29469 z"
       id="path5150"
       inkscape:connector-curvature="0"
       transform="matrix(0.13229167,0,0,0.09799383,20,140.37037)" />
    <path
       style="fill:#6f917c;fill-opacity:1;stroke-width:0.5"
       d="m 91.039408,286.96298 c -1.752154,-10.96554 -2.955561,-51.20263 -1.849108,-61.82675 0.633514,-6.08298 1.808299,-12.00798 2.723966,-13.73827 l 0.565075,-1.06779 6,1.72613 c 3.977959,1.14442 7.561949,1.82228 10.634779,2.01143 l 4.63478,0.2853 -0.25657,1.55636 c -2.9425,17.84954 -4.01676,24.00013 -5.0693,29.024 -4.56545,21.79119 -9.446998,35.37013 -14.972865,41.64985 l -2.091626,2.37697 z"
       id="path5162"
       inkscape:connector-curvature="0"
       transform="matrix(0.13229167,0,0,0.09799383,20,140.37037)" />
    <path
       style="fill:#6f917c;fill-opacity:1;stroke-width:0.5"
       d="m 94.917394,296.64501 -3.061946,-1.02774 -0.322641,-2.74516 -0.32264,-2.74517 2.441044,-2.67089 c 7.432859,-8.13273 13.407929,-27.6233 19.067139,-62.19662 0.82883,-5.06347 1.58148,-9.28083 1.67255,-9.37191 0.1961,-0.19609 1.63792,12.55974 2.38252,21.07823 0.70192,8.03016 0.68777,28.3999 -0.0236,34 -1.53303,12.06825 -3.79346,18.53557 -7.96744,22.79565 -4.05521,4.13885 -7.80296,4.9183 -13.864976,2.88361 z"
       id="path5164"
       inkscape:connector-curvature="0"
       transform="matrix(0.13229167,0,0,0.09799383,20,140.37037)" />
    <path
       style="fill:#6f917c;fill-opacity:1;stroke-width:0.5"
       d="m 106.97934,213.21003 c -2.29925,-0.40114 -13.758881,-3.47484 -14.185238,-3.80475 -0.101882,-0.0788 0.460618,-1.0174 1.25,-2.0857 l 1.435239,-1.94236 8.749999,3.19704 c 8.53458,3.11832 9.99913,3.80903 9.38296,4.4252 -0.54259,0.54259 -4.08528,0.65506 -6.63296,0.21057 z"
       id="path5166"
       inkscape:connector-curvature="0"
       transform="matrix(0.13229167,0,0,0.09799383,20,140.37037)" />
    <path
       style="fill:#6f917c;fill-opacity:1;stroke-width:0.5"
       d="m 86.979341,207.93486 c -2.2,-0.64761 -8.05,-2.11913 -13,-3.27007 -4.95,-1.15093 -9.178602,-2.25015 -9.396893,-2.44271 -0.700269,-0.61773 5.657398,-3.10262 8.576001,-3.35193 2.476557,-0.21154 3.819502,0.10411 11.001809,2.58596 4.499505,1.5548 8.736958,3.03832 9.416563,3.2967 l 1.235646,0.4698 -1.291563,1.53493 c -0.71036,0.84422 -1.291563,1.74267 -1.291563,1.99657 0,0.63602 -0.651749,0.53431 -5.25,-0.81925 z"
       id="path5168"
       inkscape:connector-curvature="0"
       transform="matrix(0.13229167,0,0,0.09799383,20,140.37037)" />
    <path
       style="fill:#6f917c;fill-opacity:1;stroke-width:0.5"
       d="m 59.229341,201.35532 c -2.289014,-0.41064 -2.095449,-0.99309 1.021822,-3.07472 3.320653,-2.21745 4.999332,-2.51264 8.728178,-1.5348 3.537698,0.92771 3.579027,1.03409 0.75,1.93052 -1.5125,0.47927 -3.697287,1.35921 -4.855081,1.95542 -2.049269,1.05527 -3.068065,1.18586 -5.644919,0.72358 z"
       id="path5170"
       inkscape:connector-curvature="0"
       transform="matrix(0.13229167,0,0,0.09799383,20,140.37037)" />
    <path
       style="fill:#6f917c;fill-opacity:1;stroke-width:0.5"
       d=""
       id="path5172"
       inkscape:connector-curvature="0"
       transform="matrix(0.13229167,0,0,0.09799383,20,140.37037)" />
    <path
       style="fill:#6f917c;fill-opacity:1;stroke-width:0.5"
       d="m 37.729341,220.96588 c 0,-0.20477 1.16098,-1.80325 2.579956,-3.55217 1.695406,-2.08962 3.752535,-3.88833 6,-5.24627 2.64517,-1.59823 3.420044,-2.32841 3.420044,-3.22276 0,-1.47063 1.814931,-2.90076 5.36857,-4.23035 3.987379,-1.49187 4.616682,-1.06475 1.667582,1.13181 -1.388531,1.03421 -5.849434,4.63421 -9.913118,8 -9.29907,7.70205 -9.123034,7.56467 -9.123034,7.11974 z"
       id="path5174"
       inkscape:connector-curvature="0"
       transform="matrix(0.13229167,0,0,0.09799383,20,140.37037)" />
  </g>
</svg>
