<?xml version="1.0" encoding="UTF-8" standalone="no"?>
<!-- Created with Inkscape (http://www.inkscape.org/) -->

<svg
   xmlns:dc="http://purl.org/dc/elements/1.1/"
   xmlns:cc="http://creativecommons.org/ns#"
   xmlns:rdf="http://www.w3.org/1999/02/22-rdf-syntax-ns#"
   xmlns:svg="http://www.w3.org/2000/svg"
   xmlns="http://www.w3.org/2000/svg"
   xmlns:sodipodi="http://sodipodi.sourceforge.net/DTD/sodipodi-0.dtd"
   xmlns:inkscape="http://www.inkscape.org/namespaces/inkscape"
   width="40mm"
   height="60mm"
   viewBox="0 0 40 60"
   version="1.1"
   id="svg8"
   inkscape:version="0.92.4 (5da689c313, 2019-01-14)"
   sodipodi:docname="lamp.svg">
  <defs
     id="defs2" />
  <sodipodi:namedview
     id="base"
     pagecolor="#ffffff"
     bordercolor="#666666"
     borderopacity="1.0"
     inkscape:pageopacity="0.0"
     inkscape:pageshadow="2"
     inkscape:zoom="2.8"
     inkscape:cx="38.564437"
     inkscape:cy="118.91694"
     inkscape:document-units="mm"
     inkscape:current-layer="layer1"
     showgrid="false"
     inkscape:window-width="1920"
     inkscape:window-height="1001"
     inkscape:window-x="-9"
     inkscape:window-y="-9"
     inkscape:window-maximized="1" />
  <metadata
     id="metadata5">
    <rdf:RDF>
      <cc:Work
         rdf:about="">
        <dc:format>image/svg+xml</dc:format>
        <dc:type
           rdf:resource="http://purl.org/dc/dcmitype/StillImage" />
        <dc:title></dc:title>
      </cc:Work>
    </rdf:RDF>
  </metadata>
  <g
     inkscape:label="Camada 1"
     inkscape:groupmode="layer"
     id="layer1"
     transform="translate(0,-237)">
    <path
       style="fill:none;stroke:#000000;stroke-width:0.3424401px;stroke-linecap:butt;stroke-linejoin:miter;stroke-opacity:1"
       d="m 11.171089,287.24521 c -8.8251122,2.50162 -2.7982055,9.86746 11.62332,9.72848 16.789238,1e-5 18.080717,-4.03037 12.484304,-9.45052"
       id="path826"
       inkscape:connector-curvature="0" />
    <path
       style="fill:none;stroke:#000000;stroke-width:0.3424401px;stroke-linecap:butt;stroke-linejoin:miter;stroke-opacity:1"
       d="m 35.278713,287.52317 c 0,0 -1.076232,-3.33547 -3.228702,-4.16934 -2.152464,-0.83388 18.941707,-35.1615 -0.430492,-35.02252"
       id="path828"
       inkscape:connector-curvature="0" />
    <path
       style="fill:none;stroke:#000000;stroke-width:0.3424401px;stroke-linecap:butt;stroke-linejoin:miter;stroke-opacity:1"
       d="m 11.171089,287.24521 c 0,0 -4.5201804,-1.11183 1.506727,-4.58629 6.026905,-3.47445 -31.641257,-29.88031 1.29148,-34.46659"
       id="path830"
       inkscape:connector-curvature="0" />
    <path
       style="fill:none;stroke:#000000;stroke-width:0.3424401px;stroke-linecap:butt;stroke-linejoin:miter;stroke-opacity:1"
       d="m 26.238355,295.44492 c 0,0 5.165919,2.36263 9.040358,-7.92175"
       id="path832"
       inkscape:connector-curvature="0" />
    <path
       style="fill:none;stroke:#000000;stroke-width:0.3424401px;stroke-linecap:butt;stroke-linejoin:miter;stroke-opacity:1"
       d="m 20.211449,292.24843 c -6.457399,1.25079 -9.04036,-5.00322 -9.04036,-5.00322 0,0 20.448431,4.03037 24.107624,0.27796"
       id="path834"
       inkscape:connector-curvature="0" />
    <path
       style="fill:none;stroke:#000000;stroke-width:0.3424401px;stroke-linecap:butt;stroke-linejoin:miter;stroke-opacity:1"
       d="m 13.108309,282.242 c 0,0 14.852018,-3.61343 18.51121,0.83387"
       id="path836"
       inkscape:connector-curvature="0" />
    <path
       style="fill:none;stroke:#000000;stroke-width:0.3424401px;stroke-linecap:butt;stroke-linejoin:miter;stroke-opacity:1"
       d="m 16.552256,255.55818 c 0,0 -6.242154,-11.25725 -1.076234,-12.09111 5.165919,-0.83387 6.4574,-5.8371 6.4574,-5.8371 0,0 2.367713,4.86425 6.672645,5.55914 4.304934,0.6949 2.798207,12.23008 2.798207,12.23008 z"
       id="path838"
       inkscape:connector-curvature="0" />
    <path
       style="fill:none;stroke:#000000;stroke-width:0.3424401px;stroke-linecap:butt;stroke-linejoin:miter;stroke-opacity:1"
       d="m 27.74508,281.13017 c 0,0 10.116591,-10.42337 3.659194,-25.71098"
       id="path840"
       inkscape:connector-curvature="0" />
    <path
       style="fill:none;stroke:#000000;stroke-width:0.3424401px;stroke-linecap:butt;stroke-linejoin:miter;stroke-opacity:1"
       d="m 16.552256,255.55818 c 0,0 -9.9013474,16.12147 2.798205,25.71097"
       id="path842"
       inkscape:connector-curvature="0" />
    <path
       style="fill:none;stroke:#000000;stroke-width:0.3424401px;stroke-linecap:butt;stroke-linejoin:miter;stroke-opacity:1"
       d="m 23.440147,262.29861 c 0,0 -4.412557,6.53198 -0.215246,9.65899 5.596411,-3.96087 0.215246,-9.65899 0.215246,-9.65899 z"
       id="path844"
       inkscape:connector-curvature="0" />
    <path
       style="fill:none;stroke:#000000;stroke-width:0.3424401px;stroke-linecap:butt;stroke-linejoin:miter;stroke-opacity:1"
       d="m 21.395305,268.96957 c 0,0 3.013452,-0.97284 3.874438,0.13898"
       id="path846"
       inkscape:connector-curvature="0" />
    <path
       style="fill:none;stroke:#000000;stroke-width:0.3424401px;stroke-linecap:butt;stroke-linejoin:miter;stroke-opacity:1"
       d="m 21.233871,280.88696 c 0,0 -1.88341,0.38219 -1.345293,-5.10746 0.538118,-5.48964 3.336323,-3.8219 3.336323,-3.8219 0,0 -3.82063,0.24322 0,0 3.82063,-0.2432 4.197309,1.35505 2.905831,8.89461"
       id="path848"
       inkscape:connector-curvature="0" />
    <path
       style="fill:#ff0000;fill-opacity:1;stroke-width:0.08647919"
       d="m 25.071965,268.6861 c -0.423767,-0.25575 -1.243438,-0.33456 -2.178482,-0.20947 -0.43817,0.0586 -0.881425,0.12841 -0.985013,0.15511 -0.172109,0.0444 -0.188286,-0.0136 -0.187706,-0.67119 0.0011,-1.23364 0.455037,-2.77063 1.309994,-4.4354 l 0.445076,-0.86665 0.369237,0.5192 c 0.467702,0.65767 1.145074,1.9613 1.37103,2.63863 0.207721,0.62267 0.324063,2.18838 0.198792,2.67532 l -0.08938,0.34746 z"
       id="path850"
       inkscape:connector-curvature="0" />
    <path
       style="fill:#ffff00;fill-opacity:1;stroke-width:0.08647919"
       d="m 22.884528,271.35796 c -0.158684,-0.16236 -0.393682,-0.45155 -0.522219,-0.64265 -0.247452,-0.36789 -0.667525,-1.55029 -0.582375,-1.63925 0.111957,-0.11697 1.218448,-0.29982 1.833635,-0.30303 0.715709,-0.004 1.068414,0.0865 1.369706,0.35047 0.186942,0.16376 0.187486,0.18815 0.01193,0.53426 -0.329687,0.64997 -1.50696,1.99591 -1.745451,1.99553 -0.04219,-7e-5 -0.20654,-0.13297 -0.365224,-0.29533 z"
       id="path852"
       inkscape:connector-curvature="0" />
    <path
       style="fill:#c87137;fill-opacity:1;stroke-width:0.08647919"
       d="m 21.031085,280.65553 c -0.678034,-0.36934 -0.925306,-1.23291 -0.925306,-3.23155 0,-2.10455 0.281239,-3.62505 0.849616,-4.5934 0.361241,-0.61545 0.344479,-0.60885 1.679533,-0.66147 1.573974,-0.062 1.956427,-0.0457 2.488935,0.10643 0.538811,0.1539 0.913903,0.5282 1.188808,1.18631 0.151782,0.36335 0.186318,0.72415 0.179431,1.87449 -0.0084,1.40103 -0.07353,2.05498 -0.426568,4.28247 l -0.177626,1.12073 -1.357432,-0.0324 c -0.746588,-0.0178 -1.780614,-0.005 -2.297837,0.0291 -0.868153,0.0568 -0.960468,0.0506 -1.201554,-0.0807 z"
       id="path854"
       inkscape:connector-curvature="0" />
    <path
       style="fill:#917c6f;fill-opacity:1;stroke-width:0.08647919"
       d="m 25.723743,288.9066 c -3.134082,-0.12659 -8.643788,-0.78765 -13.015756,-1.56165 -1.890439,-0.33468 -2.365961,-0.52774 -2.7459241,-1.11491 -0.4866172,-0.75197 0.1687211,-1.64197 2.2307021,-3.02946 0.662959,-0.4461 1.351287,-0.85347 1.529615,-0.90527 0.651144,-0.18909 3.604686,-0.69953 5.225548,-0.90309 2.286228,-0.28711 3.947514,-0.38465 5.751637,-0.33773 3.072052,0.0799 5.105234,0.64146 6.317571,1.74488 0.235806,0.21462 0.4731,0.37252 0.527316,0.35089 0.05422,-0.0216 0.09858,0.005 0.09858,0.0599 0,0.0545 0.328216,0.31438 0.729372,0.57739 1.007803,0.66075 1.850372,1.77672 2.448822,3.24344 l 0.192622,0.47208 -0.420835,0.27891 c -0.540494,0.35822 -1.86381,0.78584 -2.865293,0.92591 -1.580885,0.22111 -3.707592,0.29152 -6.003971,0.19877 z"
       id="path856"
       inkscape:connector-curvature="0" />
    <path
       style="fill:#917c6f;fill-opacity:1;stroke-width:0.08647919"
       d="m 20.342577,296.75895 c -0.998694,-0.0521 -3.100813,-0.29832 -4.035875,-0.47282 -2.963245,-0.55301 -5.223528,-1.38996 -6.8874425,-2.55035 -1.7712506,-1.23524 -2.4678513,-2.65049 -1.89938,-3.85892 0.2719375,-0.57806 0.9345278,-1.24523 1.5902292,-1.60123 0.6358811,-0.34521 1.7866763,-0.79253 1.8705603,-0.72707 0.03708,0.0289 0.203963,0.28713 0.370859,0.57378 0.495813,0.85156 1.404458,1.93938 2.163384,2.58999 1.731909,1.48472 3.838264,2.08678 6.220172,1.77791 0.550414,-0.0714 0.605235,-0.0941 0.542697,-0.22583 -0.09631,-0.20276 -0.08276,-0.19985 -0.543945,-0.11716 -0.662164,0.11872 -1.876434,0.09 -2.635528,-0.0623 -1.643142,-0.3297 -3.255532,-1.38892 -4.445371,-2.92028 -0.460784,-0.59305 -1.027849,-1.46433 -1.027849,-1.57926 0,-0.0339 1.101794,0.11788 2.448431,0.33718 9.834834,1.60157 16.929906,1.79352 20.03783,0.54209 0.270225,-0.10881 0.507049,-0.16861 0.526274,-0.13289 0.01921,0.0357 -0.164342,0.49261 -0.407926,1.01533 -1.507847,3.23577 -3.396731,5.32799 -5.365848,5.94346 -0.595579,0.18616 -1.565614,0.24576 -2.110444,0.12966 -0.306453,-0.0653 -0.426652,-0.0651 -0.549521,8.2e-4 -0.254344,0.1363 -0.188714,0.18833 0.395601,0.31364 1.167244,0.25032 2.520389,0.0103 3.657974,-0.64909 1.872799,-1.08541 3.754846,-3.64446 4.967711,-6.75468 l 0.149039,-0.38219 0.348766,0.34745 c 0.191818,0.19109 0.634102,0.72268 0.982847,1.18131 3.405356,4.47829 -0.02481,6.82645 -10.605397,7.26005 -1.618767,0.0663 -4.678648,0.0778 -5.757848,0.0215 z"
       id="path858"
       inkscape:connector-curvature="0" />
    <path
       style="fill:#917c6f;fill-opacity:1;stroke-width:0.08647919"
       d="m 31.23673,282.40086 c -0.184198,-0.16563 -0.591902,-0.42905 -0.906008,-0.58543 -0.543651,-0.27063 -1.837065,-0.71132 -2.088082,-0.71144 -0.06483,-3e-5 0.232565,-0.46129 0.660881,-1.02502 2.381067,-3.13385 3.941769,-6.77534 4.623698,-10.78818 0.238923,-1.40595 0.326407,-4.5446 0.168507,-6.04556 -0.262779,-2.49794 -0.806903,-4.7223 -1.739651,-7.11167 -0.176684,-0.45262 -0.297054,-0.87475 -0.267492,-0.9381 0.118045,-0.25294 0.260841,-4.35924 0.190689,-5.48332 l -0.07481,-1.19876 0.450361,8e-5 c 0.745834,1.3e-4 1.969622,0.19831 2.773709,0.44916 2.313087,0.72159 3.688996,2.30089 4.330884,4.97107 0.26557,1.10473 0.263486,4.21215 -0.0039,5.83709 -0.512666,3.11536 -1.449602,6.43664 -2.989436,10.59709 -0.605348,1.63557 -0.937903,2.4713 -3.179902,7.99125 -0.496739,1.22301 -1.050978,2.69256 -1.231642,3.26568 -0.180665,0.57312 -0.340724,1.04993 -0.355685,1.05959 -0.01496,0.009 -0.177911,-0.11793 -0.362109,-0.28353 z"
       id="path860"
       inkscape:connector-curvature="0" />
    <path
       style="fill:#917c6f;fill-opacity:1;stroke-width:0.08647919"
       d="m 13.534739,281.22941 c -0.113139,-1.43877 -0.953741,-2.81852 -5.0296493,-8.2557 -2.6712328,-3.56337 -3.5445359,-4.81165 -4.8462742,-6.92716 -2.1889248,-3.5573 -3.25765726,-6.69284 -3.08026376,-9.03713 0.25825103,-3.41282 2.64202636,-5.76555 7.40548596,-7.30905 1.3241572,-0.42906 3.3036823,-0.90903 4.6096603,-1.11771 0.266368,-0.0426 0.564382,-0.0923 0.662254,-0.11055 0.146519,-0.0273 0.200506,0.0563 0.30564,0.47318 0.370503,1.46922 1.324221,3.88141 2.269394,5.73984 l 0.435187,0.8557 -0.538392,1.05526 c -3.239217,6.34901 -3.966975,12.64248 -2.046172,17.69484 0.900386,2.36832 2.428712,4.51689 4.448136,6.25334 l 0.601729,0.51741 -1.104762,0.15967 c -0.913828,0.13209 -3.470345,0.58573 -3.9155,0.69477 -0.08151,0.02 -0.138269,-0.20092 -0.176473,-0.68671 z"
       id="path862"
       inkscape:connector-curvature="0" />
    <path
       style="fill:#917c6f;fill-opacity:1;stroke-width:0.08647919"
       d="m 16.115157,254.13275 c -1.134418,-2.3801 -2.005422,-4.70368 -2.067315,-5.51498 -0.01749,-0.22931 -0.09251,-0.55765 -0.166721,-0.72964 -0.190813,-0.44226 -0.197435,-2.3631 -0.0098,-2.84905 0.192315,-0.49811 0.627986,-1.01833 0.993628,-1.18644 0.160148,-0.0736 0.638928,-0.20983 1.063958,-0.30267 2.551419,-0.55736 4.412253,-2.02916 5.696148,-4.50529 l 0.39267,-0.75732 0.25283,0.4052 c 0.790204,1.26642 2.038267,2.57368 3.221329,3.37412 0.960342,0.64974 1.625233,0.94374 2.821961,1.24778 0.85924,0.2183 0.931111,0.25318 1.346796,0.65351 1.327398,1.2784 1.945255,4.62953 1.669915,9.05729 -0.06553,1.05382 -0.118889,1.98252 -0.118575,2.0638 5.53e-4,0.14726 -0.01357,0.14795 -3.954585,0.19139 -2.175336,0.0241 -5.435391,0.0626 -7.244566,0.0861 l -3.289409,0.0425 z"
       id="path864"
       inkscape:connector-curvature="0" />
  </g>
</svg>
