<?xml version="1.0" encoding="UTF-8" standalone="no"?>
<!-- Created with Inkscape (http://www.inkscape.org/) -->

<svg
   xmlns:dc="http://purl.org/dc/elements/1.1/"
   xmlns:cc="http://creativecommons.org/ns#"
   xmlns:rdf="http://www.w3.org/1999/02/22-rdf-syntax-ns#"
   xmlns:svg="http://www.w3.org/2000/svg"
   xmlns="http://www.w3.org/2000/svg"
   xmlns:sodipodi="http://sodipodi.sourceforge.net/DTD/sodipodi-0.dtd"
   xmlns:inkscape="http://www.inkscape.org/namespaces/inkscape"
   width="50mm"
   height="50mm"
   viewBox="0 0 50 50"
   version="1.1"
   id="svg8"
   inkscape:version="0.92.4 (5da689c313, 2019-01-14)"
   sodipodi:docname="smallFly.svg">
  <defs
     id="defs2" />
  <sodipodi:namedview
     id="base"
     pagecolor="#ffffff"
     bordercolor="#666666"
     borderopacity="1.0"
     inkscape:pageopacity="0.0"
     inkscape:pageshadow="2"
     inkscape:zoom="3.959798"
     inkscape:cx="86.354041"
     inkscape:cy="88.410212"
     inkscape:document-units="mm"
     inkscape:current-layer="layer1"
     showgrid="false"
     inkscape:window-width="1920"
     inkscape:window-height="1001"
     inkscape:window-x="-9"
     inkscape:window-y="-9"
     inkscape:window-maximized="1" />
  <metadata
     id="metadata5">
    <rdf:RDF>
      <cc:Work
         rdf:about="">
        <dc:format>image/svg+xml</dc:format>
        <dc:type
           rdf:resource="http://purl.org/dc/dcmitype/StillImage" />
        <dc:title></dc:title>
      </cc:Work>
    </rdf:RDF>
  </metadata>
  <g
     inkscape:label="Camada 1"
     inkscape:groupmode="layer"
     id="layer1"
     transform="translate(0,-247)">
    <path
       style="fill:none;stroke:#000000;stroke-width:0.49036148px;stroke-linecap:butt;stroke-linejoin:miter;stroke-opacity:1"
       d="m 42.946281,295.97869 c -5.713517,1.83049 -8.846735,0.49922 -9.768274,-2.82894 -0.921533,-3.32817 -0.921533,-10.81656 -0.921533,-10.81656 l -4.791979,-3.66095 c 0,0 1.474455,-7.32197 4.23906,-7.32197 2.764602,0 5.897821,4.82584 5.897821,6.98915 0,2.16329 14.744559,11.14934 11.795651,13.97828 -2.948914,2.82895 -3.133219,-2.32971 -3.133219,-2.32971 0,0 -8.109512,-6.65634 -9.399659,-5.65789 -1.290149,0.99845 3.501834,8.81965 5.160594,7.9876 1.658766,-0.83204 0.921538,3.66099 0.921538,3.66099 z"
       id="path826"
       inkscape:connector-curvature="0" />
    <ellipse
       style="fill:#000000;fill-opacity:1;stroke-width:0.52748281"
       id="path832"
       cx="30.387774"
       cy="278.05533"
       rx="1.4395592"
       ry="2.0801034" />
    <ellipse
       style="fill:#000000;fill-opacity:1;stroke-width:0.49036148"
       id="path834"
       cx="36.403381"
       cy="277.89603"
       rx="0.9215349"
       ry="1.8160052" />
    <path
       style="fill:none;stroke:#000000;stroke-width:0.49036148px;stroke-linecap:butt;stroke-linejoin:miter;stroke-opacity:1"
       d="m 28.10957,275.59368 c 0,0 -9.915531,1.39009 -10.007684,0.0588 -0.09216,-1.33128 -1.419351,-11.20818 6.04508,-12.37304 7.464435,-1.16487 8.201662,7.98759 8.201662,7.98759"
       id="path836"
       inkscape:connector-curvature="0"
       sodipodi:nodetypes="ccsc" />
    <path
       style="fill:none;stroke:#000000;stroke-width:0.49036148px;stroke-linecap:butt;stroke-linejoin:miter;stroke-opacity:1"
       d="m 27.464495,278.67224 c 0,0 -1.499611,2.15662 -2.998345,2.09778"
       id="path838"
       inkscape:connector-curvature="0" />
    <path
       style="fill:none;stroke:#000000;stroke-width:0.49036148px;stroke-linecap:butt;stroke-linejoin:miter;stroke-opacity:1"
       d="m 26.160373,275.94561 -0.521299,1.82386"
       id="path840"
       inkscape:connector-curvature="0" />
    <path
       style="fill:none;stroke:#000000;stroke-width:0.49036148px;stroke-linecap:butt;stroke-linejoin:miter;stroke-opacity:1"
       d="m 23.228064,276.00445 c 0,0 0.130325,4.00072 -0.977432,4.23606"
       id="path842"
       inkscape:connector-curvature="0" />
    <path
       style="fill:none;stroke:#000000;stroke-width:0.49036148px;stroke-linecap:butt;stroke-linejoin:miter;stroke-opacity:1"
       d="m 21.599009,276.35744 c 0,0 0.651623,2.94173 -0.390975,3.05939"
       id="path844"
       inkscape:connector-curvature="0" />
    <path
       style="fill:none;stroke:#000000;stroke-width:0.49036148px;stroke-linecap:butt;stroke-linejoin:miter;stroke-opacity:1"
       d="m 19.839625,276.29863 c 0,0 0.260648,2.11802 -0.781949,2.23568"
       id="path846"
       inkscape:connector-curvature="0" />
    <path
       style="fill:none;stroke:#000000;stroke-width:0.49036148px;stroke-linecap:butt;stroke-linejoin:miter;stroke-opacity:1"
       d="m 25.160656,263.11304 c 0,0 -6.635049,-15.80877 -3.317524,-15.72556 3.317524,0.0831 5.805668,15.97518 5.805668,15.97518"
       id="path848"
       inkscape:connector-curvature="0" />
    <path
       style="fill:none;stroke:#000000;stroke-width:0.49036148px;stroke-linecap:butt;stroke-linejoin:miter;stroke-opacity:1"
       d="m 20.092214,265.27637 c 0,0 -8.47812,-1.91371 -12.0721066,-1.24807 -3.5939855,0.66564 -4.4233669,6.07389 -4.4233669,6.07389 0,0 -0.5529213,1.49769 -2.85675923,1.24808 -2.30383507,-0.24961 10.87411273,7.48836 16.86408973,1.41447"
       id="path850"
       inkscape:connector-curvature="0" />
    <path
       style="fill:none;stroke:#000000;stroke-width:0.49036148px;stroke-linecap:butt;stroke-linejoin:miter;stroke-opacity:1"
       d="m 14.286546,264.1947 c 0,0 -4.146907,2.08012 -1.382304,10.73333"
       id="path852"
       inkscape:connector-curvature="0" />
    <path
       style="fill:none;stroke:#000000;stroke-width:0.49036148px;stroke-linecap:butt;stroke-linejoin:miter;stroke-opacity:1"
       d="m 8.2044149,264.11151 c 0,0 -3.6861406,-0.0833 -0.4607675,10.65013"
       id="path856"
       inkscape:connector-curvature="0" />
    <path
       style="fill:#e3dbe2;fill-opacity:1;stroke-width:0.08756456"
       d="m 36.850271,296.36544 c -1.768437,-0.42381 -2.904707,-1.56093 -3.407948,-3.4105 -0.416852,-1.53205 -0.695457,-4.32122 -0.824843,-8.25778 -0.06817,-2.07395 -0.107423,-2.54082 -0.220378,-2.62094 -0.625857,-0.44395 -2.627925,-2.01061 -2.600749,-2.03515 0.01894,-0.0171 0.125324,0.0133 0.23637,0.0664 0.507504,0.24524 1.223448,-0.14291 1.571185,-0.85179 0.308408,-0.62872 0.312799,-1.75557 0.0092,-2.36346 -0.298814,-0.59831 -0.642123,-0.87179 -1.160633,-0.92456 -0.401103,-0.0408 -0.441764,-0.0249 -0.827786,0.32361 -0.533827,0.48198 -0.738497,1.08224 -0.680017,1.99435 0.03107,0.48459 0.102338,0.7535 0.283007,1.06792 0.132818,0.23114 0.219759,0.42025 0.193212,0.42025 -0.106127,0 -1.601668,-1.20047 -1.601668,-1.28566 0,-0.0503 0.121578,-0.54091 0.270168,-1.09033 0.660169,-2.44094 1.596456,-4.39813 2.4899,-5.2048 0.39094,-0.35298 0.622006,-0.49341 0.885243,-0.538 1.014878,-0.1719 2.393376,0.64895 3.670974,2.18593 0.542203,0.65228 1.502244,2.08848 1.426219,2.13358 -0.01868,0.0107 -0.156032,0.0563 -0.305177,0.10029 -0.191573,0.0567 -0.340363,0.20157 -0.506844,0.49366 -0.210851,0.36995 -0.235668,0.51008 -0.235668,1.33095 0,1.01965 0.144233,1.42434 0.619375,1.73778 0.20984,0.13844 0.288837,0.14976 0.48411,0.0695 0.207269,-0.0852 0.482267,-0.49681 0.641844,-0.96052 0.0417,-0.12123 0.106761,-0.064 0.305749,0.26913 0.430869,0.72126 1.443063,1.69243 4.21536,4.04452 3.286541,2.78839 5.516945,4.83746 6.340256,5.82481 1.135568,1.36182 1.567733,2.42341 1.228015,3.01654 -0.285587,0.49864 -1.261259,1.08132 -1.632497,0.97493 -0.492305,-0.14107 -0.921456,-1.06176 -1.092493,-2.34381 -0.105676,-0.79216 0.04676,-0.6308 -2.264052,-2.39642 -3.508698,-2.68088 -5.994362,-4.14079 -7.073596,-4.15454 -0.389414,-0.005 -0.483662,0.0279 -0.684729,0.23887 -0.217503,0.22819 -0.230296,0.28965 -0.190518,0.91526 0.05314,0.83567 0.355254,1.66467 1.104816,3.03158 1.134814,2.06949 2.655678,3.87316 3.628048,4.30269 0.46625,0.20597 0.539056,0.21606 0.884262,0.1227 0.311752,-0.0843 0.398569,-0.0815 0.5069,0.0163 0.191877,0.17323 0.322553,1.1648 0.260336,1.97542 -0.09982,1.30061 -0.02106,1.18665 -0.992717,1.43659 -1.865504,0.47984 -3.820491,0.61593 -4.952241,0.3447 z"
       id="path83250"
       inkscape:connector-curvature="0" />
    <path
       style="fill:#9393ac;fill-opacity:1;stroke-width:0.08756456"
       d="m 18.947963,275.83461 c -0.241571,-0.062 -0.46362,-0.13477 -0.493441,-0.1617 -0.146567,-0.13229 -0.242077,-2.81554 -0.144196,-4.051 0.374788,-4.73059 2.249629,-7.38959 5.657608,-8.0239 3.009887,-0.56021 5.362478,0.61312 6.805366,3.39409 0.556879,1.07331 0.934904,2.25863 1.23042,3.85808 l 0.04996,0.27041 h -0.416057 c -1.009113,0 -1.934382,0.8273 -2.786495,2.49141 -0.177069,0.34582 -0.412956,0.87213 -0.524182,1.16958 l -0.202233,0.54082 -0.452239,0.0609 c -3.341909,0.45062 -7.823907,0.68243 -8.724509,0.45123 z"
       id="path83252"
       inkscape:connector-curvature="0" />
    <path
       style="fill:#9393ac;fill-opacity:1;stroke-width:0.08756456"
       d="m 13.118082,274.58791 c -0.132916,-0.35171 -0.442856,-1.61322 -0.600432,-2.44382 -0.483826,-2.55031 -0.265961,-4.7622 0.618798,-6.28239 0.430065,-0.73894 0.990086,-1.31423 1.279339,-1.31423 0.270277,0 3.381593,0.52653 4.48768,0.75945 l 0.807035,0.16995 -0.173515,0.22173 c -0.368129,0.47043 -0.938138,1.61333 -1.196975,2.39999 -0.3441,1.0458 -0.563923,2.28974 -0.631983,3.57631 -0.04379,0.82777 -0.07739,1.00365 -0.184641,0.96648 -0.07416,-0.0256 -0.278391,0.0816 -0.470185,0.24695 -0.842751,0.72666 -1.78364,1.23128 -2.873295,1.541 -0.861566,0.24489 -1.020251,0.26859 -1.061826,0.15858 z"
       id="path83254"
       inkscape:connector-curvature="0" />
    <path
       style="fill:#9393ac;fill-opacity:1;stroke-width:0.08756456"
       d="m 10.351971,274.76705 c -0.8176436,-0.0455 -2.3246664,-0.25985 -2.398954,-0.34133 -0.0093,-0.0107 -0.1650681,-0.58019 -0.3461419,-1.26662 -1.1854965,-4.49412 -1.1733429,-7.49525 0.034338,-8.48035 0.2007161,-0.16373 0.423566,-0.29769 0.4952226,-0.29769 0.071662,0 0.1465497,-0.044 0.1664286,-0.0979 0.050873,-0.1378 2.6647447,-0.13096 4.0989517,0.0107 l 1.124749,0.11109 -0.325677,0.34168 c -0.449868,0.47198 -1.00272,1.53542 -1.2374,2.38018 -0.144102,0.51873 -0.209537,1.07507 -0.245491,2.0872 -0.05637,1.58671 0.09893,2.89062 0.537279,4.51143 0.146226,0.54066 0.265866,0.99629 0.265866,1.01249 0,0.0655 -1.219964,0.0819 -2.169176,0.0292 z"
       id="path83256"
       inkscape:connector-curvature="0" />
    <path
       style="fill:#9393ac;fill-opacity:1;stroke-width:0.08756456"
       d="m 6.1625539,273.97964 c -1.7354052,-0.53028 -4.0257741,-1.54977 -4.8512118,-2.15938 l -0.2633064,-0.19445 0.4261435,-0.003 c 0.8285772,-0.005 1.7189066,-0.42253 2.1450952,-1.00401 0.1329159,-0.18135 0.3005051,-0.60418 0.3838462,-0.96847 0.3239531,-1.41605 0.9080154,-2.76294 1.5857907,-3.65693 0.4156351,-0.54824 1.1090118,-1.18145 0.9911044,-0.90511 -0.3049756,0.71478 -0.3531363,1.00026 -0.3941026,2.33622 -0.035718,1.16485 -0.00789,1.64475 0.1542202,2.66254 0.1622808,1.01862 0.6447991,3.18355 0.8933308,4.00809 0.031042,0.10296 0.020493,0.18563 -0.023437,0.18368 -0.04393,-10e-4 -0.5152889,-0.13656 -1.047475,-0.29918 z"
       id="path83258"
       inkscape:connector-curvature="0" />
    <path
       style="fill:#916f7c;fill-opacity:1;stroke-width:0.08756456"
       d="m 26.777936,263.04888 c -0.141556,-0.0384 -0.518553,-0.0951 -0.837761,-0.12589 l -0.580376,-0.0561 -0.144925,-0.38695 c -0.07972,-0.21282 -0.483022,-1.26683 -0.896246,-2.34224 -2.181139,-5.67638 -3.357696,-10.19077 -3.048958,-11.69869 0.183371,-0.89561 0.637931,-1.00145 1.36374,-0.3175 1.404116,1.32309 2.983614,6.0621 4.266862,12.80191 0.200893,1.05513 0.365299,1.98394 0.365345,2.06402 9.3e-5,0.1577 -0.09073,0.16916 -0.487681,0.0615 z"
       id="path83260"
       inkscape:connector-curvature="0" />
  </g>
  <g
     inkscape:groupmode="layer"
     id="layer2"
     inkscape:label="Camada 2">
    <path
       style="fill:none;stroke:#000000;stroke-width:0.49036148px;stroke-linecap:butt;stroke-linejoin:miter;stroke-opacity:1"
       d="m 19.710502,18.476869 -1.474456,2.080112 c 0,0 -14.1916379,-4.576234 -17.2327034,-10.400521 -3.041064,-5.8242862 16.1268624,1.33128 18.7071594,8.320409 z"
       id="path858"
       inkscape:connector-curvature="0" />
    <path
       style="fill:#916f7c;fill-opacity:1;stroke-width:0.08756457"
       d="M 16.870448,19.7864 C 10.519208,17.447327 5.1840087,14.518833 2.832803,12.081124 1.7499463,10.95844 0.98885807,9.7104045 0.98885807,9.0574272 c 0,-0.6131782 0.82474473,-0.884714 2.17511353,-0.7161292 4.2794664,0.534231 11.1363464,4.053644 14.2742854,7.326528 0.732408,0.763906 1.656689,2.040541 1.808435,2.497832 0.09844,0.296631 0.08235,0.335056 -0.473368,1.130362 -0.316394,0.452799 -0.601075,0.848876 -0.632626,0.88017 -0.03156,0.03135 -0.603165,-0.144054 -1.27025,-0.38979 z"
       id="path83262"
       inkscape:connector-curvature="0" />
  </g>
</svg>
