<?xml version="1.0" encoding="UTF-8" standalone="no"?>
<!-- Created with Inkscape (http://www.inkscape.org/) -->

<svg
   xmlns:dc="http://purl.org/dc/elements/1.1/"
   xmlns:cc="http://creativecommons.org/ns#"
   xmlns:rdf="http://www.w3.org/1999/02/22-rdf-syntax-ns#"
   xmlns:svg="http://www.w3.org/2000/svg"
   xmlns="http://www.w3.org/2000/svg"
   xmlns:sodipodi="http://sodipodi.sourceforge.net/DTD/sodipodi-0.dtd"
   xmlns:inkscape="http://www.inkscape.org/namespaces/inkscape"
   width="210mm"
   height="100mm"
   viewBox="0 0 210 100"
   version="1.1"
   id="svg8"
   inkscape:version="0.92.4 (5da689c313, 2019-01-14)"
   sodipodi:docname="logo.svg">
  <defs
     id="defs2" />
  <sodipodi:namedview
     id="base"
     pagecolor="#ffffff"
     bordercolor="#666666"
     borderopacity="1.0"
     inkscape:pageopacity="0.0"
     inkscape:pageshadow="2"
     inkscape:zoom="0.98994949"
     inkscape:cx="336.28789"
     inkscape:cy="174.77561"
     inkscape:document-units="mm"
     inkscape:current-layer="layer1"
     showgrid="false"
     inkscape:window-width="1920"
     inkscape:window-height="1001"
     inkscape:window-x="-9"
     inkscape:window-y="-9"
     inkscape:window-maximized="1" />
  <metadata
     id="metadata5">
    <rdf:RDF>
      <cc:Work
         rdf:about="">
        <dc:format>image/svg+xml</dc:format>
        <dc:type
           rdf:resource="http://purl.org/dc/dcmitype/StillImage" />
        <dc:title></dc:title>
      </cc:Work>
    </rdf:RDF>
  </metadata>
  <g
     inkscape:label="Camada 1"
     inkscape:groupmode="layer"
     id="layer1"
     transform="translate(0,-197)">
    <path
       style="fill:none;stroke:#000000;stroke-width:0.17709965px;stroke-linecap:butt;stroke-linejoin:miter;stroke-opacity:1"
       d="m 0.30709862,204.38835 0.4082496,44.21472 4.89894828,-0.31358 -1.8371057,-21.32341 h 9.5937712 l -1.632978,20.69625 4.694825,-0.31358 -0.40825,-43.90114 -4.490703,-0.31358 2.245355,17.56046 H 3.7771908 l 1.2247348,-16.30614 z"
       id="path21"
       inkscape:connector-curvature="0" />
    <path
       style="fill:none;stroke:#000000;stroke-width:0.05547493px;stroke-linecap:butt;stroke-linejoin:miter;stroke-opacity:1"
       d="m 20.429839,229.73048 c -0.388865,-21.90046 6.286727,-21.51284 7.647772,-8.72142 1.361045,12.79142 -4.277564,38.76188 -7.647772,8.72142 z"
       id="path31"
       inkscape:connector-curvature="0" />
    <path
       style="fill:none;stroke:#000000;stroke-width:0.10022727px;stroke-linecap:butt;stroke-linejoin:miter;stroke-opacity:1"
       d="m 15.785004,225.96886 c -0.859576,-32.34087 13.896459,-31.76847 16.90497,-12.87911 3.008517,18.88935 -9.455324,57.24048 -16.90497,12.87911 z"
       id="path31-0"
       inkscape:connector-curvature="0" />
    <path
       style="fill:none;stroke:#000000;stroke-width:0.20081776px;stroke-linecap:butt;stroke-linejoin:miter;stroke-opacity:1"
       d="m 33.145381,202.58476 c 0.185695,1.77283 -0.185695,44.98559 -0.185695,44.98559 l 18.75522,-0.88642 -2.599731,-7.09132 H 38.159153 l -0.557086,-30.13813 z"
       id="path56"
       inkscape:connector-curvature="0" />
    <path
       style="fill:none;stroke:#000000;stroke-width:0.20081776px;stroke-linecap:butt;stroke-linejoin:miter;stroke-opacity:1"
       d="m 51.900602,201.69834 c 0.185688,1.77283 -0.185696,44.98559 -0.185696,44.98559 l 18.755219,-0.88641 -2.599734,-7.09133 H 56.914365 l -0.557087,-30.13813 z"
       id="path56-5"
       inkscape:connector-curvature="0" />
    <path
       style="fill:none;stroke:#000000;stroke-width:0.0548852px;stroke-linecap:butt;stroke-linejoin:miter;stroke-opacity:1"
       d="m 69.341138,228.52343 c -0.380641,-21.90047 6.153773,-21.51285 7.486033,-8.72143 1.33226,12.79142 -4.187103,38.76189 -7.486033,8.72143 z"
       id="path31-7"
       inkscape:connector-curvature="0" />
    <path
       style="fill:none;stroke:#000000;stroke-width:0.0991618px;stroke-linecap:butt;stroke-linejoin:miter;stroke-opacity:1"
       d="m 64.794529,224.7618 c -0.841394,-32.34087 13.602581,-31.76847 16.547468,-12.87911 2.944887,18.88935 -9.255361,57.24049 -16.547468,12.87911 z"
       id="path31-0-1"
       inkscape:connector-curvature="0" />
    <path
       style="fill:#b3b3b3;stroke:#000000;stroke-width:0.18140328px;stroke-linecap:butt;stroke-linejoin:miter;stroke-opacity:1"
       d="m 80.878901,201.91995 3.03052,44.09917 5.454928,-27.47888 4.697299,27.25728 6.212562,-43.21276 -2.727466,1.77283 -3.636622,28.80851 -4.848825,-28.5869 -4.242727,29.47331 -1.666779,-29.25171 z"
       id="path117"
       inkscape:connector-curvature="0" />
    <path
       style="fill:none;stroke:#000000;stroke-width:0.20081776px;stroke-linecap:butt;stroke-linejoin:miter;stroke-opacity:1"
       d="m 1.5771891,248.01356 -0.1856956,41.66153 6.6850292,-0.4432 -2.5997313,-19.27955 6.6850266,18.61473 5.385164,-0.2216 -10.0275463,-22.60359 8.9133733,-18.39313 h -4.456687 l -5.7565553,17.0635 -2.22834,-14.62586 z"
       id="path119"
       inkscape:connector-curvature="0" />
    <path
       style="fill:none;stroke:#000000;stroke-width:0.20081776px;stroke-linecap:butt;stroke-linejoin:miter;stroke-opacity:1"
       d="m 32.773991,288.34547 5.942251,0.2216 -2.228347,-41.21832 -3.528209,0.2216 z"
       id="path121"
       inkscape:connector-curvature="0" />
    <path
       style="fill:none;stroke:#000000;stroke-width:0.20081776px;stroke-linecap:butt;stroke-linejoin:miter;stroke-opacity:1"
       d="m 17.546982,288.34547 -0.371391,-40.99672 11.141714,27.47888 -0.742782,-28.5869 5.199468,2.65924 v 39.4455 l -12.998669,-27.03568 0.742783,28.80851 z"
       id="path123"
       inkscape:connector-curvature="0" />
    <path
       style="fill:none;stroke:#000000;stroke-width:0.20081776px;stroke-linecap:butt;stroke-linejoin:miter;stroke-opacity:1"
       d="m 53.01477,253.99686 -0.371392,-7.75613 c 0,0 -15.784092,-1.32963 -15.227008,16.8419 0.557086,18.17152 2.971124,27.03567 9.841851,26.37086 6.870722,-0.66481 5.756549,-12.63142 5.756549,-12.63142 l -7.613505,-2.88085 4.642382,5.7617 -0.928478,6.20491 c 0,0 -10.213237,-2.88085 -8.727675,-17.06351 1.485562,-14.18264 9.470458,-23.2684 12.627276,-14.84746 z"
       id="path125"
       inkscape:connector-curvature="0"
       sodipodi:nodetypes="ccssccccsc" />
    <path
       style="fill:none;stroke:#000000;stroke-width:0.20081776px;stroke-linecap:butt;stroke-linejoin:miter;stroke-opacity:1"
       d="m 52.643378,246.24073 0.525231,44.18873 6.302709,-0.3134 -2.363518,-21.31087 h 12.342802 l -2.100905,20.68409 6.040094,-0.3134 -0.525224,-43.87534 -5.777485,-0.31339 2.888744,17.55013 H 57.1078 l 1.575679,-16.29655 z"
       id="path21-4"
       inkscape:connector-curvature="0" />
    <path
       style="fill:none;stroke:#000000;stroke-width:0.20081776px;stroke-linecap:butt;stroke-linejoin:miter;stroke-opacity:1"
       d="m 79.549594,288.2917 2.971122,-4.43208 -0.557079,-32.35417 -6.127947,0.2216 -2.599732,5.3185 -0.371391,-11.74501 25.625937,0.44321 -0.37139,10.19378 -3.528206,-4.21048 -7.613505,-0.2216 0.371392,31.68936 2.042651,4.43208 z"
       id="path142"
       inkscape:connector-curvature="0" />
    <path
       style="fill:#b3b3b3;stroke-width:0.14344126"
       d="m 0.84247332,246.79562 c -0.00139,-0.91841 -0.08894,-10.23728 -0.1939288,-20.7086 -0.1049892,-10.47131 -0.1922544,-19.58524 -0.1939288,-20.25316 l -0.00278,-1.21441 H 2.6183974 4.78495 v 0.43909 c 0,0.45371 -0.9857005,13.79145 -1.1169109,15.11315 l -0.073891,0.74431 h 5.1936266 5.1936263 l -0.06635,-0.35257 c -0.192435,-1.0229 -2.182512,-17.07922 -2.125317,-17.14747 0.0371,-0.0443 0.972645,-0.0207 2.079009,0.0522 l 2.011574,0.13272 -0.01084,6.73799 c -0.0063,3.7059 -0.05808,8.71239 -0.115765,11.12553 -0.09187,3.84294 -0.07732,4.54314 0.11728,5.64112 0.179623,1.01353 0.233379,2.42382 0.280735,7.36479 0.03224,3.36116 0.08258,7.60963 0.111937,9.44103 l 0.05336,3.32982 h -2.212506 -2.212499 l 0.05947,-0.50926 c 0.1079,-0.92361 1.499662,-18.92703 1.499662,-19.39927 v -0.46216 H 8.5256047 3.600062 l 0.070729,0.58762 c 0.067742,0.56279 1.7706633,20.34353 1.7706633,20.56762 0,0.0597 -0.7121283,0.15664 -1.5825012,0.21535 -1.4850225,0.10015 -1.6068672,0.086 -1.9779895,-0.22934 -0.393534,-0.33441 -0.3958268,-0.3345 -0.4648885,-0.0194 -0.038144,0.17419 -0.1821105,0.35188 -0.3198728,0.39487 -0.23471968,0.0733 -0.25066498,-0.0268 -0.25350668,-1.59166 z"
       id="path144"
       inkscape:connector-curvature="0" />
    <path
       style="fill:#b3b3b3;stroke-width:0.14344126"
       d="m 23.411849,246.22016 c -2.322338,-0.88416 -4.68548,-6.29702 -6.483852,-14.85145 l -0.588338,-2.79861 v -7.10975 c 0,-6.50054 0.02286,-7.25107 0.266729,-8.75918 0.511647,-3.16399 1.336894,-5.98756 2.370145,-8.10939 0.727796,-1.49457 2.180657,-3.22709 3.206259,-3.82343 0.710843,-0.41332 0.916465,-0.45808 2.104001,-0.45808 1.232037,0 1.374218,0.0341 2.224477,0.53383 1.153485,0.67792 2.674532,2.45271 3.544356,4.13562 1.243842,2.40657 2.166987,5.53209 2.654073,8.986 0.299307,2.12236 0.335971,8.59427 0.06379,11.25947 -0.885126,8.66716 -3.203907,16.43355 -5.848924,19.59005 -1.183868,1.41279 -2.309519,1.863 -3.512716,1.40492 z m 1.634353,-2.89088 c 1.773769,-1.85854 3.25504,-9.87305 3.27366,-17.71235 0.01341,-5.6526 -0.742511,-9.74597 -2.250907,-12.18842 -1.334511,-2.16089 -3.074138,-1.61694 -4.154795,1.29914 -0.852746,2.30108 -1.311118,5.48067 -1.525313,10.58061 -0.130509,3.10742 -0.121692,3.75516 0.07356,5.40607 0.979857,8.28491 2.382659,13.07953 3.826786,13.07953 0.172495,0 0.513149,-0.20906 0.757005,-0.46458 z"
       id="path146"
       inkscape:connector-curvature="0" />
    <path
       style="fill:#b3b3b3;stroke-width:0.14344126"
       d="m 33.199816,234.9843 c 0.04912,-6.83263 0.09947,-16.77388 0.111916,-22.09165 0.01244,-5.31777 0.04513,-9.64181 0.07264,-9.60899 0.02751,0.0328 0.959267,1.4574 2.070579,3.16573 l 2.020566,3.10604 0.0042,1.17523 c 0.0023,0.64638 0.120602,7.20417 0.262918,14.57288 0.142316,7.3687 0.259625,13.62681 0.260686,13.90691 l 0.0019,0.50927 h 5.494676 5.494677 l 1.133456,3.08762 c 0.714112,1.9453 1.082085,3.12551 0.994607,3.19003 -0.07637,0.0563 -0.592108,0.14427 -1.146091,0.19543 -0.553985,0.0512 -1.479948,0.19925 -2.057694,0.32909 -0.679653,0.15273 -3.0435,0.32098 -6.696625,0.47665 -3.105396,0.13233 -6.200915,0.27843 -6.878933,0.32467 l -1.232759,0.0841 z"
       id="path148"
       inkscape:connector-curvature="0" />
    <path
       style="fill:#b3b3b3;stroke-width:0.14344126"
       d="m 55.348897,246.03777 -3.468371,-0.0554 0.08714,-11.86719 c 0.04793,-6.52696 0.08718,-16.36898 0.08723,-21.87115 l 9.6e-5,-10.00395 2.100902,3.24126 2.100899,3.24126 0.0028,1.82671 c 0.0021,1.28796 0.490402,27.93061 0.519722,28.3478 0.0014,0.0215 2.474961,0.0392 5.496546,0.0392 h 5.493788 l 0.166936,0.43091 c 0.411425,1.06199 1.976122,5.39 1.976122,5.46602 0,0.0465 -0.679495,0.0609 -1.509996,0.0319 l -1.509994,-0.0527 0.07639,0.48479 0.07639,0.4848 -2.275801,0.10484 c -3.84299,0.17704 -5.813592,0.20861 -9.420748,0.15095 z"
       id="path150"
       inkscape:connector-curvature="0" />
    <path
       style="fill:#b3b3b3;stroke-width:0.14344126"
       d="m 72.735747,245.06325 c -0.361094,-0.0532 -0.875542,-0.25869 -1.143216,-0.4566 -1.948827,-1.44088 -3.872812,-6.14668 -5.425597,-13.27026 -1.170409,-5.36941 -1.243932,-5.94585 -1.243813,-9.75176 3.68e-4,-9.98127 1.628871,-17.24211 4.640933,-20.69145 1.231272,-1.41002 2.059277,-1.83649 3.565609,-1.83649 1.064607,0 1.266367,0.0498 2.035252,0.50199 4.32663,2.54478 6.992623,11.41681 6.441713,21.43702 -0.546526,9.94042 -2.961722,19.0782 -5.999343,22.69823 -0.583641,0.69554 -1.762777,1.53679 -2.083699,1.48661 -0.07222,-0.0113 -0.426745,-0.0641 -0.787839,-0.11729 z m 1.094907,-2.91748 c 1.444899,-1.45091 2.720832,-7.31843 3.185415,-14.64847 0.558678,-8.81472 -1.301133,-16.60994 -3.962867,-16.60994 -2.239082,0 -3.797071,6.2839 -3.797071,15.31487 0,1.84387 0.08285,3.08982 0.335457,5.04496 0.764321,5.91556 1.655322,9.44264 2.724161,10.78382 0.497758,0.62458 0.971464,0.66046 1.514905,0.11476 z"
       id="path152"
       inkscape:connector-curvature="0" />
    <path
       style="fill:#b3b3b3;stroke-width:0.14344126"
       d="m 80.255775,287.55965 c 0.218066,-0.32758 0.845611,-1.26548 1.394534,-2.08422 l 0.998047,-1.48863 -0.0014,-1.17523 c -6.85e-4,-0.64638 -0.117687,-7.62726 -0.259826,-15.51307 -0.14214,-7.88581 -0.259454,-14.70819 -0.260705,-15.16085 l -0.0021,-0.82301 -3.118528,0.0952 c -2.704172,0.0825 -3.144694,0.1305 -3.315487,0.36114 -0.108324,0.14629 -0.669663,1.23981 -1.247412,2.43003 l -1.050448,2.16404 -0.08233,-2.09392 c -0.0453,-1.15165 -0.126,-3.60344 -0.179373,-5.44842 l -0.09705,-3.35451 5.299546,0.11251 c 4.40503,0.0935 5.317403,0.15059 5.405328,0.33808 0.138818,0.29602 0.355341,0.28917 0.355341,-0.0112 0,-0.20917 0.731659,-0.22674 6.269878,-0.15058 3.448434,0.0474 6.647981,0.12546 7.110104,0.17342 l 0.84023,0.0872 -0.0868,2.68806 c -0.0477,1.47844 -0.12462,3.59064 -0.17086,4.6938 l -0.0841,2.00573 -1.654167,-1.9448 -1.654175,-1.94479 -3.865556,-0.0966 c -2.12606,-0.0531 -3.890665,-0.0666 -3.921354,-0.03 -0.03071,0.0366 0.02835,7.21479 0.131155,15.9515 l 0.186939,15.88491 0.95331,2.08038 c 0.524321,1.14421 0.934418,2.0996 0.911324,2.12309 -0.02307,0.0235 -1.81463,0.15833 -3.981182,0.29962 -2.166553,0.14129 -4.227206,0.29512 -4.579227,0.34183 l -0.640037,0.0849 z"
       id="path154"
       inkscape:connector-curvature="0" />
    <path
       style="fill:#b3b3b3;stroke-width:0.14344126"
       d="m 53.316123,288.8836 c -0.03741,-0.36628 -0.10527,-4.8968 -0.150799,-10.06783 -0.04553,-5.17102 -0.126621,-12.82178 -0.180209,-17.00169 -0.06568,-5.12307 -0.05375,-7.63443 0.03661,-7.70599 0.0909,-0.072 0.08108,-1.24999 -0.03051,-3.65969 -0.0905,-1.95444 -0.146091,-3.57557 -0.123525,-3.6025 0.02257,-0.0269 1.304622,-0.10054 2.849013,-0.16358 l 2.807989,-0.11462 -0.08271,0.68932 c -0.04551,0.37913 -0.37836,3.79194 -0.739718,7.58402 -0.361359,3.79208 -0.689374,7.12386 -0.728929,7.40396 l -0.07191,0.50927 h 6.633634 6.633644 l -0.0716,-0.43092 c -1.131498,-6.80959 -2.645673,-16.10885 -2.627011,-16.13362 0.01369,-0.0181 0.738342,-0.0811 1.61042,-0.13987 1.503879,-0.10143 1.582036,-0.1232 1.516455,-0.42247 -0.06614,-0.30175 -0.02466,-0.31151 0.949057,-0.22363 0.560012,0.0505 1.052789,0.13318 1.095067,0.18363 0.07248,0.0865 0.531123,34.01287 0.546894,40.45423 l 0.0073,2.995 -2.767203,0.11423 c -1.521967,0.0628 -2.79433,0.0819 -2.827478,0.0423 -0.03314,-0.0396 0.406311,-4.6471 0.976578,-10.23898 0.570277,-5.59188 1.011918,-10.21994 0.981444,-10.28458 -0.0305,-0.0646 -2.855116,-0.11752 -6.276968,-0.11752 -3.421858,0 -6.247464,0.0529 -6.279126,0.11752 -0.04342,0.0886 1.818395,17.37558 2.193921,20.3707 l 0.06385,0.50926 h -2.938092 -2.938097 z"
       id="path156"
       inkscape:connector-curvature="0" />
    <path
       style="fill:#b3b3b3;stroke-width:0.14344126"
       d="m 44.52673,288.91931 c -3.759011,-1.58279 -5.672273,-7.00516 -6.60595,-18.72191 -0.14646,-1.83795 -0.226936,-4.32175 -0.231006,-7.12974 -0.0058,-3.96706 0.01651,-4.4055 0.280265,-5.52236 0.643552,-2.72499 1.357555,-4.30786 2.726378,-6.04411 1.492205,-1.89274 2.948128,-2.98151 5.258803,-3.93264 1.0935,-0.45011 1.359554,-0.49308 3.801909,-0.61406 1.44437,-0.0716 2.64632,-0.1121 2.671001,-0.0901 0.02468,0.022 0.07806,1.32195 0.118618,2.88882 l 0.07374,2.84887 -0.662683,-0.79083 c -1.681647,-2.00683 -3.764781,-1.56963 -6.146007,1.28991 -1.966036,2.36094 -3.574917,5.9163 -4.599385,10.16385 -2.157196,8.94396 -1.119001,15.48649 3.144338,19.81511 1.19405,1.21233 3.297682,2.57125 4.553829,2.94172 l 0.335212,0.0989 0.479964,-3.24251 0.479965,-3.24251 -2.021626,-2.52201 c -1.111894,-1.38711 -1.997929,-2.5503 -1.968966,-2.58486 0.02897,-0.0346 1.537557,0.49278 3.35243,1.17188 l 3.299769,1.23472 -0.06247,2.58552 c -0.06911,2.86007 -0.240486,3.89497 -0.953163,5.75589 -0.567592,1.48209 -1.538842,2.70918 -2.670781,3.37431 -0.800099,0.47014 -0.971494,0.50973 -2.375261,0.54871 -1.253358,0.0348 -1.64436,-0.0133 -2.278921,-0.28052 z"
       id="path158"
       inkscape:connector-curvature="0" />
    <path
       style="fill:#b3b3b3;stroke-width:0.14344126"
       d="m 35.733429,288.27627 c -1.502242,-0.0555 -2.750106,-0.12661 -2.773029,-0.15809 -0.05842,-0.0802 0.144745,-40.25445 0.203875,-40.31509 0.02654,-0.0272 0.742627,-0.0885 1.591306,-0.13611 1.50548,-0.0845 1.544427,-0.0784 1.599402,0.25306 0.07909,0.47685 2.204338,40.39922 2.152322,40.43106 -0.02339,0.0143 -1.271633,-0.0194 -2.773876,-0.0748 z"
       id="path160"
       inkscape:connector-curvature="0" />
    <path
       style="fill:#b3b3b3;stroke-width:0.14344126"
       d="m 18.735998,288.87871 -1.083276,-0.65238 6.95e-4,-3.1383 c 3.68e-4,-1.72607 -0.0626,-9.6961 -0.140034,-17.71118 -0.0775,-8.01509 -0.122192,-15.5508 -0.09934,-16.74604 l 0.04155,-2.17315 5.373736,13.25951 c 2.955559,7.29273 5.422475,13.25951 5.482046,13.25951 0.156743,0 0.147003,-0.63416 -0.231809,-15.09174 -0.18926,-7.22316 -0.314238,-13.16866 -0.277741,-13.21222 0.03648,-0.0436 1.135858,0.46572 2.443008,1.13173 l 2.376649,1.21094 -5.51e-4,19.28773 c -5.52e-4,18.73951 -0.0073,19.27436 -0.240155,18.81763 -0.131816,-0.25855 -2.947002,-6.11121 -6.255964,-13.00591 -3.308962,-6.89469 -6.094792,-12.63738 -6.190728,-12.76152 -0.09594,-0.12415 -0.206956,-0.18691 -0.246712,-0.13947 -0.05551,0.0663 0.29286,15.22978 0.623161,27.12167 0.0412,1.48275 0.0056,1.49498 -1.574761,0.54319 z"
       id="path162"
       inkscape:connector-curvature="0" />
    <path
       style="fill:#b3b3b3;stroke-width:0.14344126"
       d="m 1.5917518,275.40085 c 0.063156,-20.34777 0.1561116,-26.74937 0.388485,-26.74937 0.1016264,0 0.5632912,0.28529 1.0259286,0.63397 0.6118707,0.46116 0.8609725,0.74948 0.9138388,1.05771 0.1470793,0.85752 2.1777595,14.27792 2.1777595,14.39241 0,0.44693 0.5654379,-1.12731 3.01925,-8.40591 1.5253823,-4.52464 2.8285863,-8.293 2.8960013,-8.37413 0.124061,-0.1493 3.914566,-0.47483 4.022946,-0.3455 0.03231,0.0385 -1.902145,4.11401 -4.298741,9.05661 -3.8869553,8.01621 -4.3435823,9.02883 -4.2289983,9.37828 0.07065,0.21546 2.2896067,5.25589 4.9310243,11.20096 2.641411,5.94506 4.778929,10.83742 4.750033,10.8719 -0.0289,0.0345 -1.147697,0.10631 -2.486231,0.15962 l -2.433691,0.0969 -3.2330773,-9.01011 c -3.6266811,-10.10704 -3.4491424,-9.64023 -3.596979,-9.45786 -0.059891,0.0739 0.4688766,4.40044 1.1750574,9.61456 0.706181,5.21411 1.2776846,9.49192 1.2700006,9.50624 -0.0077,0.0143 -1.1957209,0.10279 -2.6400915,0.1966 -1.4443708,0.0938 -2.8669321,0.20245 -3.1612506,0.24143 l -0.5351267,0.0709 z"
       id="path164"
       inkscape:connector-curvature="0" />
    <path
       style="fill:none;stroke:#000000;stroke-width:0.19092856px;stroke-linecap:butt;stroke-linejoin:miter;stroke-opacity:1"
       d="m 112.26532,220.34188 c -5.51111,0 -10.33333,17.19792 -0.49206,17.95387 9.84128,0.75595 2.55873,-4.7247 -1.08254,-3.77976 -3.64127,0.94494 -3.14921,-9.07143 0.7873,-9.44941 3.93651,-0.37797 8.66032,-6.61458 0.7873,-4.7247 z"
       id="path170"
       inkscape:connector-curvature="0" />
    <path
       sodipodi:type="spiral"
       style="fill:none;fill-rule:evenodd;stroke:#000000;stroke-width:0.26458332"
       id="path178"
       sodipodi:cx="66.967308"
       sodipodi:cy="36.421772"
       sodipodi:expansion="1"
       sodipodi:revolution="3"
       sodipodi:radius="11.34086"
       sodipodi:argument="-18.832891"
       sodipodi:t0="0"
       d="m 66.967308,36.421772 c 0.568534,0.0095 0.267722,0.771047 -0.01575,0.94494 -0.768188,0.471241 -1.653294,-0.240435 -1.874133,-0.976437 -0.395029,-1.316534 0.683965,-2.559144 1.937126,-2.803324 1.839065,-0.358345 3.481244,1.12968 3.732517,2.897815 0.334907,2.356645 -1.57567,4.40963 -3.858504,4.661708 -2.872713,0.317216 -5.341139,-2.021668 -5.590901,-4.819192 -0.302494,-3.388177 2.467646,-6.274434 5.779882,-6.520093 3.903354,-0.289501 7.208844,2.913607 7.449285,6.74057 0.277598,4.41838 -3.359559,8.144 -7.701259,8.378477 -4.933316,0.266428 -9.079678,-3.805503 -9.30767,-8.661948 -0.255772,-5.448197 4.251444,-10.015736 9.622637,-10.236861 5.963043,-0.245492 10.952079,4.697382 11.166054,10.583326"
       transform="matrix(0.55047926,0,0,1,82.979456,193.23587)" />
    <path
       style="fill:none;stroke:#000000;stroke-width:0.22054039px;stroke-linecap:butt;stroke-linejoin:miter;stroke-opacity:1"
       d="m 126.41402,238.84859 -0.65653,-19.27679 2.62613,0.37798 6.04009,13.04018 -0.78784,-12.66221 3.9392,-0.18899 -1.05046,18.89881 -8.14099,-12.28422 1.05045,11.71726 z"
       id="path180"
       inkscape:connector-curvature="0" />
    <path
       style="fill:none;stroke:#000000;stroke-width:0.22054039px;stroke-linecap:butt;stroke-linejoin:miter;stroke-opacity:1"
       d="m 142.20552,238.22864 -0.26262,-13.22917 -3.28265,-0.18898 -1.08518,-4.67173 12.74333,0.26727 -2.04264,4.67722 h -3.34252 l 0.0928,13.63075 z"
       id="path182"
       inkscape:connector-curvature="0" />
    <path
       style="fill:none;stroke:#000000;stroke-width:0.22054039px;stroke-linecap:butt;stroke-linejoin:miter;stroke-opacity:1"
       d="m 150.78542,239.00252 -0.46702,-18.59649 c 0,0 10.58742,-1.716 10.86596,6.03482 0.27854,7.75082 -2.87828,4.94449 -2.87828,4.94449 l 3.62106,8.28535 -3.99245,-0.53454 -3.80675,-8.01808 -0.27854,7.88445 z"
       id="path184"
       inkscape:connector-curvature="0" />
    <path
       style="fill:none;stroke:#000000;stroke-width:0.27203244px;stroke-linecap:butt;stroke-linejoin:miter;stroke-opacity:1"
       d="m 153.30093,224.98359 c 0,0 3.4748,-2.93372 4.3435,0.58674 0.86869,3.52047 -4.63307,6.06302 -4.3435,-0.58674 z"
       id="path186"
       inkscape:connector-curvature="0" />
    <path
       sodipodi:type="spiral"
       style="fill:none;fill-rule:evenodd;stroke:#000000;stroke-width:0.26458332"
       id="path192"
       sodipodi:cx="132.03114"
       sodipodi:cy="37.748558"
       sodipodi:expansion="1"
       sodipodi:revolution="3"
       sodipodi:radius="11.520526"
       sodipodi:argument="-18.779902"
       sodipodi:t0="0"
       d="m 132.03114,37.748558 c 0.57622,0.0402 0.2301,0.796567 -0.0668,0.957716 -0.80462,0.436703 -1.6642,-0.332856 -1.84862,-1.09135 -0.32989,-1.356769 0.83152,-2.559238 2.11588,-2.739513 1.88486,-0.264561 3.47065,1.333272 3.63042,3.140416 0.21293,2.408639 -1.83565,4.388423 -4.16495,4.52131 -2.9312,0.167225 -5.30937,-2.338189 -5.41221,-5.189482 -0.12456,-3.453298 2.84081,-6.232119 6.21401,-6.303108 3.97521,-0.08366 7.15601,3.343478 7.19401,7.238549 0.0439,4.497013 -3.84617,8.080649 -8.26308,8.084905 -5.01877,0.0048 -9.00582,-4.348891 -8.97581,-9.287615 0.0337,-5.540503 4.85163,-9.931382 10.31215,-9.866702 6.06222,0.07181 10.85723,5.35437 10.7576,11.336681"
       transform="matrix(0.55027932,0,0,1,93.719542,193.36951)" />
    <path
       style="fill:none;stroke:#000000;stroke-width:0.22054039px;stroke-linecap:butt;stroke-linejoin:miter;stroke-opacity:1"
       d="m 173.28272,239.64577 -0.46424,-19.51068 2.3212,0.26727 0.0928,14.9671 6.77788,-0.93545 0.27854,5.34539 z"
       id="path194"
       inkscape:connector-curvature="0" />
    <path
       style="fill:none;stroke:#000000;stroke-width:0.22054039px;stroke-linecap:butt;stroke-linejoin:miter;stroke-opacity:1"
       d="m 181.88938,221.09546 0.39956,18.68394 7.81273,-0.14174 -1.05046,-3.87426 -4.13615,-0.18899 -0.45957,-2.74032 2.56048,-1.13393 v -2.64583 l -2.69179,-2.64584 -0.0657,-2.74033 2.88873,0.0945 1.70699,-2.83482 z"
       id="path196"
       inkscape:connector-curvature="0" />
    <path
       style="fill:none;stroke:#000000;stroke-width:0.24772035px;stroke-linecap:butt;stroke-linejoin:miter;stroke-opacity:1"
       d="m 198.50527,220.56236 c -9.19144,-0.23844 -9.32275,2.86129 -9.38841,5.00726 -0.0657,2.14597 4.39876,2.2652 4.39876,2.2652 0,0 4.46442,0.23844 4.53007,3.81506 0.0657,3.57662 -3.02004,3.69584 -4.53007,3.57662 -1.51002,-0.11922 -3.47961,-0.47689 -3.47961,-0.47689 l 0.0657,4.88805 10.2419,-1.19221 c 0,0 1.77264,-12.51816 -1.31307,-12.39895 -3.0857,0.11923 -7.87838,0 -7.74707,-1.66908 0.1313,-1.66909 8.07534,-1.90753 8.79752,-1.66909 0.72219,0.23844 -1.57567,-2.14597 -1.57567,-2.14597 z"
       id="path198"
       inkscape:connector-curvature="0" />
    <path
       style="fill:none;stroke:#000000;stroke-width:0.22054039px;stroke-linecap:butt;stroke-linejoin:miter;stroke-opacity:1"
       d="m 126.08561,229.84663 -2.226,-0.46582"
       id="path200"
       inkscape:connector-curvature="0" />
    <path
       style="fill:none;stroke:#000000;stroke-width:0.22054039px;stroke-linecap:butt;stroke-linejoin:miter;stroke-opacity:1"
       d="m 172.69768,231.91987 -2.04286,-0.13363"
       id="path202"
       inkscape:connector-curvature="0" />
    <path
       style="fill:#b3b3b3;stroke-width:0.07876443"
       d="m 143.39827,238.26434 c -0.57754,-0.10202 -1.05497,-0.1928 -1.06094,-0.20175 -0.006,-0.009 -0.0706,-2.96509 -0.14355,-6.5692 -0.073,-3.60412 -0.15194,-6.58068 -0.17547,-6.61459 -0.0236,-0.0339 -0.75679,-0.0982 -1.62946,-0.14276 -0.87266,-0.0446 -1.60513,-0.10839 -1.62771,-0.14174 -0.0685,-0.10118 -0.99261,-4.17954 -0.95825,-4.229 0.0453,-0.0652 11.27892,0.15432 11.81508,0.2309 l 0.44258,0.0632 -0.90864,2.07887 -0.90863,2.07887 -1.7005,0.0472 -1.7005,0.0473 0.0267,6.77995 0.0267,6.77994 -0.22369,-0.0108 c -0.12302,-0.006 -0.69622,-0.0943 -1.27377,-0.19634 z"
       id="path204"
       inkscape:connector-curvature="0" />
    <path
       style="fill:#b3b3b3;stroke-width:0.07876443"
       d="m 126.53243,238.458 c -0.0439,-0.31097 -0.64981,-18.60635 -0.61771,-18.65255 0.0263,-0.0378 1.8026,0.19839 2.20462,0.29318 0.2028,0.0478 0.39315,0.43421 3.21301,6.52227 2.09308,4.51896 3.02835,6.46256 3.09991,6.44198 0.0733,-0.0211 0.0979,-0.12301 0.0863,-0.35784 -0.009,-0.1806 -0.17988,-2.98089 -0.37993,-6.22288 -0.20005,-3.24198 -0.34989,-5.91442 -0.33298,-5.93876 0.0347,-0.05 3.58754,-0.24382 3.61742,-0.19738 0.0299,0.0465 -0.98343,18.10853 -1.01873,18.1585 -0.0172,0.0243 -1.84554,-2.69455 -4.06298,-6.04198 -2.21744,-3.34743 -4.05019,-6.08624 -4.0728,-6.08624 -0.0226,0 0.19815,2.66828 0.49057,5.9295 0.46855,5.22554 0.51949,5.93644 0.42905,5.98788 -0.0564,0.0321 -0.54578,0.10754 -1.08742,0.16765 -0.54164,0.0601 -1.10901,0.13405 -1.26082,0.16432 -0.25137,0.0501 -0.27882,0.0352 -0.30747,-0.16765 z"
       id="path206"
       inkscape:connector-curvature="0" />
    <path
       style="fill:none;stroke:#000000;stroke-width:0.22054039px;stroke-linecap:butt;stroke-linejoin:miter;stroke-opacity:1"
       d="m 116.76705,229.05433 1.90395,-0.37798"
       id="path222"
       inkscape:connector-curvature="0" />
    <path
       style="fill:none;stroke:#000000;stroke-width:0.22054039px;stroke-linecap:butt;stroke-linejoin:miter;stroke-opacity:1"
       d="m 163.18386,230.28275 2.1009,-0.75595"
       id="path224"
       inkscape:connector-curvature="0" />
    <path
       style="fill:#916f6f;stroke-width:0.11138972"
       d="m 110.67184,237.93941 c -2.20516,-0.57588 -3.59779,-2.04104 -4.17392,-4.39128 -0.99462,-4.05744 0.97328,-10.27685 3.89966,-12.32462 0.9033,-0.63209 2.51497,-1.00799 4.30863,-1.00492 1.39443,0.002 1.84737,0.34893 1.59629,1.22134 -0.39949,1.38816 -2.76558,3.10293 -4.76149,3.45078 -1.39972,0.24394 -2.35777,1.22229 -2.9523,3.01484 -0.3525,1.0628 -0.47941,2.02565 -0.44062,3.34292 0.0429,1.45427 0.38873,2.48937 1.0194,3.05056 0.46182,0.41096 0.48329,0.4142 2.4018,0.36298 0.79567,-0.0212 1.28476,0.0412 1.91936,0.24521 1.52355,0.48968 3.00769,1.57466 3.07598,2.2487 0.0338,0.33433 -0.37786,0.65179 -1.10156,0.84932 -0.69056,0.1885 -3.99103,0.14315 -4.79123,-0.0658 z"
       id="path262"
       inkscape:connector-curvature="0" />
    <path
       style="fill:#916f6f;stroke-width:0.11138972"
       d="m 118.67213,237.81844 c -1.06176,-0.37163 -2.24383,-1.72551 -2.91219,-3.33545 -0.75466,-1.81785 -1.14354,-4.56854 -0.94676,-6.69686 0.54236,-5.86592 3.65147,-9.49136 6.8239,-7.95715 2.13946,1.03466 3.94902,4.81014 4.27548,8.92047 0.0765,0.96375 0.16196,0.90858 -1.01758,0.65741 -0.66855,-0.14236 -0.7469,-0.1902 -0.80426,-0.49109 -0.46919,-2.46159 -0.73447,-3.27376 -1.43636,-4.39736 -0.28065,-0.44927 -0.64797,-0.83643 -1.09587,-1.15504 -0.58146,-0.4136 -0.76271,-0.47883 -1.32357,-0.47628 -0.95045,0.004 -1.61282,0.40055 -2.28367,1.3661 -1.02624,1.47707 -1.51917,3.70624 -1.28974,5.8326 0.28145,2.60841 1.45271,4.46245 2.81908,4.46245 0.71603,0 1.20538,-0.33087 1.74409,-1.17923 0.832,-1.31024 1.06151,-3.31227 0.56497,-4.92842 -0.3763,-1.22482 -0.90846,-1.79589 -1.6735,-1.79589 -0.40725,0 -0.51682,0.0627 -0.83712,0.47921 -0.20269,0.26357 -0.41849,0.67807 -0.47955,0.92111 -0.11012,0.4383 -0.11812,0.44326 -0.98114,0.60766 -0.47857,0.0912 -0.89787,0.12581 -0.93179,0.077 -0.11581,-0.16669 0.1377,-1.76676 0.40389,-2.54919 0.61617,-1.81122 1.73969,-2.93921 2.91216,-2.92376 1.47795,0.0195 2.80604,1.72562 3.40105,4.36921 0.30885,1.3722 0.34816,3.51799 0.0897,4.8987 -0.35534,1.89854 -1.38002,3.95164 -2.35241,4.71336 -0.53319,0.41768 -1.41039,0.7704 -1.87594,0.7543 -0.18077,-0.006 -0.53758,-0.0845 -0.79291,-0.17385 z"
       id="path264"
       inkscape:connector-curvature="0" />
    <path
       style="fill:#916f6f;stroke-width:0.11138972"
       d="m 126.84273,238.57501 c -0.10214,-0.0345 -0.21611,-0.10369 -0.25327,-0.15372 -0.0372,-0.05 -0.0903,-0.87105 -0.11816,-1.8245 -0.0278,-0.95345 -0.07,-2.24471 -0.0937,-2.86945 -0.048,-1.26484 -0.11872,-3.35735 -0.1851,-5.47902 -0.0242,-0.77174 -0.067,-2.06466 -0.0953,-2.87315 -0.0283,-0.80849 -0.0688,-2.07134 -0.0901,-2.80633 -0.0213,-0.73499 -0.047,-1.42655 -0.0572,-1.5368 -0.0507,-0.54955 0.0183,-1.34536 0.1097,-1.2641 0.0544,0.0484 0.31556,0.11066 0.5803,0.13834 1.51016,0.15785 1.48867,0.15036 1.75864,0.6127 0.14078,0.24108 1.22518,2.5148 2.40979,5.05269 1.18461,2.53789 2.19753,4.6788 2.25095,4.75758 0.0534,0.0788 0.36466,0.72717 0.69164,1.44088 0.55523,1.21192 0.82441,1.53702 0.7788,0.94057 -0.0106,-0.13909 -0.0441,-0.7039 -0.0744,-1.25515 -0.0874,-1.59101 -0.11935,-2.14254 -0.18196,-3.14042 -0.0323,-0.51449 -0.0782,-1.26618 -0.10201,-1.67043 -0.0238,-0.40425 -0.0642,-1.06574 -0.0897,-1.46998 -0.11818,-1.87234 -0.1398,-2.25243 -0.16727,-2.93997 -0.0161,-0.40424 -0.0415,-0.79512 -0.0565,-0.86862 -0.0149,-0.0735 -0.0222,-0.26416 -0.0161,-0.4237 0.0147,-0.38813 0.20767,-0.43662 2.03043,-0.51015 1.37893,-0.0556 1.50972,-0.0411 1.51977,0.16922 0.006,0.12655 6.9e-4,0.29022 -0.0118,0.36372 -0.0125,0.0735 -0.0378,0.46438 -0.0561,0.86863 -0.0424,0.93386 -0.10982,2.22931 -0.174,3.34087 -0.0276,0.47774 -0.0696,1.2595 -0.0934,1.73725 -0.0238,0.47774 -0.0673,1.25951 -0.0966,1.73725 -0.0293,0.47775 -0.0708,1.19937 -0.0921,1.60362 -0.0213,0.40424 -0.0628,1.12587 -0.0923,1.60361 -0.0295,0.47775 -0.0714,1.22945 -0.0933,1.67044 -0.0218,0.441 -0.065,1.19269 -0.096,1.67043 -0.031,0.47775 -0.0703,1.19938 -0.0874,1.60362 -0.0714,1.69185 -0.0143,1.69858 -1.33478,-0.15724 -0.64451,-0.90575 -1.18662,-1.70696 -1.2047,-1.78046 -0.0307,-0.12486 -0.98011,-1.5489 -3.07794,-4.61677 -0.48512,-0.70945 -1.09933,-1.65233 -1.3649,-2.09528 -0.26556,-0.44295 -0.65699,-1.00389 -0.86984,-1.24652 l -0.387,-0.44115 0.0583,0.85899 c 0.032,0.47245 0.0803,1.06946 0.1073,1.32671 0.027,0.25725 0.0662,0.6782 0.0873,0.93545 0.0808,0.98842 0.15051,1.81969 0.18498,2.20497 0.0197,0.2205 0.0615,0.70158 0.0929,1.06908 0.0313,0.36749 0.0763,0.87864 0.0999,1.13589 0.13098,1.42714 0.2158,2.51777 0.2665,3.42639 l 0.0458,0.8205 -0.53006,0.0965 c -0.29153,0.0531 -0.70032,0.11244 -0.90842,0.13193 -0.2081,0.0195 -0.4588,0.0652 -0.55709,0.10164 -0.0983,0.0364 -0.26227,0.038 -0.36441,0.003 z"
       id="path266"
       inkscape:connector-curvature="0" />
    <path
       style="fill:#916f6f;stroke-width:0.11138972"
       d="m 144.35424,238.38359 c -0.11851,-0.0631 -0.32585,-0.10871 -0.46078,-0.10136 -0.29236,0.0159 -0.89211,-0.0867 -1.23322,-0.2109 -0.22853,-0.0832 -0.24921,-0.15417 -0.30534,-1.04733 -0.0331,-0.52693 -0.0807,-2.10063 -0.10571,-3.49711 -0.0896,-5.00314 -0.11673,-6.10022 -0.18133,-7.34023 -0.0783,-1.50388 0.0552,-1.39586 -1.83938,-1.48838 -0.86509,-0.0422 -1.34967,-0.1201 -1.42025,-0.22816 -0.0589,-0.0902 -0.31623,-1.08512 -0.5718,-2.21089 -0.36488,-1.60727 -0.43199,-2.0288 -0.31248,-1.9628 0.1437,0.0794 7.70964,0.26789 10.75106,0.26789 h 1.40581 l -0.1819,0.36749 c -0.10004,0.20213 -0.15654,0.3675 -0.12554,0.3675 0.031,0 -0.0233,0.12306 -0.12064,0.27346 -0.0974,0.1504 -0.25567,0.49454 -0.3518,0.76475 -0.0961,0.27021 -0.24952,0.61201 -0.34087,0.75955 -0.0913,0.14754 -0.18987,0.40476 -0.21897,0.5716 -0.0291,0.16683 -0.0811,0.30333 -0.11566,0.30333 -0.0345,0 -0.1368,0.18041 -0.2273,0.40091 l -0.16454,0.4009 h -1.14172 c -0.62795,0 -1.39535,0.0382 -1.70534,0.0848 l -0.5636,0.0848 0.0161,6.72375 c 0.0175,7.31517 0.0406,6.99618 -0.48482,6.71646 z"
       id="path268"
       inkscape:connector-curvature="0" />
    <path
       style="fill:#916f6f;stroke-width:0.11138972"
       d="m 159.85005,239.20078 c -0.89365,-0.1323 -1.6746,-0.24531 -1.73543,-0.25112 -0.0608,-0.006 -0.99474,-1.87862 -2.07537,-4.16181 -1.08063,-2.28318 -1.97817,-4.13198 -1.99453,-4.10843 -0.0231,0.0332 -0.32261,7.46282 -0.32261,8.0024 0,0.0702 -0.59811,0.12364 -1.38479,0.12364 h -1.38479 l -0.0525,-0.96885 c -0.14117,-2.60633 -0.43535,-17.11414 -0.34953,-17.23766 0.0595,-0.0857 0.95061,-0.10796 2.491,-0.0621 1.88918,0.0562 2.58551,0.12767 3.28032,0.33681 2.38248,0.71714 3.74724,1.8768 4.3776,3.71971 0.2657,0.77681 0.30228,1.02553 0.3378,2.29649 0.0628,2.24685 -0.24097,3.85962 -0.84606,4.49198 -0.3314,0.34634 -1.09042,0.35612 -1.5356,0.0198 -0.20296,-0.15333 -0.34415,-0.19038 -0.40296,-0.10573 -0.0588,0.0846 0.51425,1.51583 1.63551,4.08459 0.94931,2.17485 1.72603,3.98554 1.72603,4.02374 0,0.0382 -0.0313,0.0622 -0.0696,0.0533 -0.0383,-0.009 -0.80081,-0.1244 -1.69448,-0.2567 z m -3.19857,-10.35403 c 1.01769,-0.7491 1.43172,-2.00851 1.11355,-3.38721 -0.44824,-1.94236 -2.00781,-2.36585 -3.95513,-1.07398 l -0.64487,0.42782 v 0.82459 c 0,1.61929 0.46888,2.91045 1.24687,3.43352 0.57954,0.38963 1.5352,0.29373 2.23958,-0.22474 z"
       id="path270"
       inkscape:connector-curvature="0" />
    <path
       style="fill:#916f6f;stroke-width:0.11138972"
       d="m 166.41902,224.40987 c 0.16597,-0.0296 0.43755,-0.0296 0.60351,0 0.16597,0.0296 0.0302,0.0539 -0.30175,0.0539 -0.33193,0 -0.46772,-0.0243 -0.30176,-0.0539 z"
       id="path272"
       inkscape:connector-curvature="0" />
    <path
       style="fill:#916f6f;stroke-width:0.11138972"
       d="m 165.4838,239.44746 c -1.52032,-0.28198 -3.00146,-2.24129 -3.73733,-4.9439 -1.33066,-4.88699 0.0584,-10.95735 2.97738,-13.01134 1.89314,-1.33214 3.84766,-0.76265 5.48668,1.59865 0.8466,1.21969 1.39355,2.45359 1.80251,4.06642 0.30024,1.18409 0.55714,3.02908 0.55714,4.00129 v 0.60346 l -0.71037,-0.0864 c -0.3907,-0.0475 -0.8037,-0.0864 -0.91778,-0.0864 -0.18316,0 -0.21492,-0.0899 -0.27163,-0.7684 -0.2358,-2.82112 -1.22945,-5.15833 -2.60333,-6.12338 -0.48273,-0.33909 -0.66242,-0.39132 -1.34629,-0.39132 -0.67904,0 -0.86416,0.053 -1.32613,0.37948 -1.33981,0.94691 -2.28916,3.31292 -2.29356,5.71608 -0.005,2.61424 0.98526,4.99637 2.30718,5.55126 1.62243,0.68103 3.16946,-1.38371 3.16946,-4.23009 0,-2.99595 -1.76161,-4.77531 -2.91248,-2.94182 -0.29877,0.47597 -0.42898,0.56523 -1.2745,0.87371 -0.51796,0.18897 -0.966,0.30868 -0.99565,0.26601 -0.10198,-0.14679 0.16807,-1.60691 0.45007,-2.43341 0.34882,-1.02234 0.93501,-1.9082 1.58913,-2.40153 0.43217,-0.32593 0.6006,-0.37485 1.28648,-0.37362 0.64535,0.001 0.87383,0.0606 1.25344,0.32631 0.68814,0.48158 1.43898,1.62825 1.83931,2.80895 0.46195,1.36248 0.62141,2.35814 0.61978,3.87007 -0.003,2.46926 -0.51227,4.35263 -1.60882,5.94577 -1.01769,1.47855 -2.04125,2.02522 -3.34069,1.7842 z"
       id="path274"
       inkscape:connector-curvature="0" />
    <path
       style="fill:#916f6f;stroke-width:0.11138972"
       d="m 176.35372,239.50711 -2.94791,-0.0372 -0.003,-0.43243 c -10e-4,-0.23784 -0.10225,-4.52166 -0.22405,-9.5196 -0.1218,-4.99794 -0.20952,-9.10456 -0.19493,-9.12582 0.0146,-0.0213 0.4601,0.009 0.99003,0.0668 l 0.96352,0.10548 0.0568,2.20497 c 0.0313,1.21274 0.0626,4.59744 0.0696,7.52156 l 0.0128,5.31658 0.44103,-0.0761 c 0.24257,-0.0418 1.75421,-0.2555 3.3592,-0.47478 2.09411,-0.2861 2.93608,-0.35694 2.98163,-0.25087 0.0349,0.0813 0.0915,0.81906 0.12573,1.63948 0.0343,0.82042 0.0875,1.86752 0.11837,2.32689 l 0.0561,0.83522 -1.42874,-0.0315 c -0.78581,-0.0173 -2.75531,-0.0482 -4.37666,-0.0687 z"
       id="path276"
       inkscape:connector-curvature="0" />
    <path
       style="fill:#916f6f;stroke-width:0.11138972"
       d="m 182.41298,239.39454 c 5.5e-4,-0.14024 -0.0865,-4.24398 -0.19344,-9.11942 -0.10692,-4.87543 -0.17719,-8.88919 -0.15616,-8.91946 0.0705,-0.10149 6.38374,-0.2345 6.38374,-0.13449 0,0.0543 -0.30292,0.60808 -0.67314,1.23063 l -0.67315,1.1319 -1.48556,-0.0397 c -1.36584,-0.0365 -1.48494,-0.0209 -1.47782,0.19415 0.004,0.12863 0.0147,0.80265 0.0232,1.49783 l 0.0155,1.26397 1.34241,1.3085 1.34242,1.3085 0.004,1.22037 0.004,1.22038 -0.81242,0.35724 c -0.44683,0.19649 -1.02452,0.45916 -1.28375,0.5837 l -0.47135,0.22645 0.24032,1.46998 0.24032,1.46999 0.46314,0.0885 c 0.25473,0.0487 1.04809,0.0944 1.76301,0.10169 2.08453,0.0211 1.88995,-0.13026 2.43654,1.89576 l 0.46474,1.72262 -2.00772,5.3e-4 c -1.10426,1.8e-4 -2.79113,0.0398 -3.74862,0.0879 -1.67252,0.0841 -1.74086,0.0776 -1.73995,-0.16743 z"
       id="path278"
       inkscape:connector-curvature="0" />
    <path
       style="fill:#916f6f;stroke-width:0.11138972"
       d="m 190.21123,237.20427 v -2.2157 l 0.99811,0.16377 c 3.60497,0.59146 5.35051,0.27463 6.34099,-1.15097 0.33272,-0.47887 0.46022,-0.78676 0.55077,-1.33002 0.33238,-1.9942 -0.40108,-3.50717 -2.11642,-4.36577 -0.69374,-0.34724 -2.19252,-0.72279 -2.89517,-0.72544 -0.56473,-0.002 -2.06963,-0.34107 -2.67068,-0.6015 -0.26882,-0.11648 -0.63441,-0.39583 -0.81242,-0.62079 -0.2735,-0.34563 -0.32366,-0.49629 -0.32366,-0.97227 0,-1.00506 0.23955,-1.86235 0.68586,-2.45445 0.50087,-0.66451 0.73504,-0.84085 1.693,-1.27492 1.10532,-0.50084 2.61517,-0.76837 4.81749,-0.85362 l 1.95046,-0.0755 0.71891,0.82226 c 0.3954,0.45224 0.71891,0.85432 0.71891,0.89351 0,0.0392 -0.13876,0.0338 -0.30835,-0.012 -0.36744,-0.0992 -4.1878,0.15293 -5.28241,0.34864 -1.7227,0.30801 -2.8513,0.79929 -3.07563,1.33886 -0.18561,0.44643 0.0129,0.92519 0.52247,1.26043 0.88762,0.58388 1.92096,0.75917 4.84783,0.82236 1.5906,0.0343 2.79785,0.11675 2.94979,0.20135 0.39456,0.2197 0.69534,0.8331 0.9258,1.88811 0.18921,0.86614 0.20895,1.21464 0.20207,3.56584 -0.006,1.95062 -0.0576,3.0726 -0.20639,4.462 -0.10932,1.02087 -0.21046,1.87298 -0.22477,1.89357 -0.0143,0.0206 -2.13585,0.28224 -4.71453,0.58143 -2.57869,0.2992 -4.82432,0.56256 -4.99028,0.58525 l -0.30175,0.0413 z"
       id="path280"
       inkscape:connector-curvature="0" />
    <path
       style="fill:none;stroke:#000000;stroke-width:0.17377092px;stroke-linecap:butt;stroke-linejoin:miter;stroke-opacity:1"
       d="m 115.15587,247.48105 -1.74507,19.24605 h 15.35662 l -2.87937,-20.1289 z"
       id="path282"
       inkscape:connector-curvature="0" />
    <path
       style="fill:none;stroke:#000000;stroke-width:0.17377092px;stroke-linecap:butt;stroke-linejoin:miter;stroke-opacity:1"
       d="m 116.61737,247.61347 c 0,0 -0.76347,14.47869 -0.6544,14.52283 0.10907,0.0442 10.07778,-0.0883 10.07778,-0.0883 l -1.13429,-15.31739"
       id="path284"
       inkscape:connector-curvature="0" />
    <path
       style="fill:none;stroke:#000000;stroke-width:0.17377092px;stroke-linecap:butt;stroke-linejoin:miter;stroke-opacity:1"
       d="m 126.04075,262.04802 2.72667,4.67908"
       id="path286"
       inkscape:connector-curvature="0" />
    <path
       style="fill:none;stroke:#000000;stroke-width:0.17377092px;stroke-linecap:butt;stroke-linejoin:miter;stroke-opacity:1"
       d="m 113.4108,266.7271 2.5958,-4.67908"
       id="path288"
       inkscape:connector-curvature="0" />
    <path
       style="fill:#b3b3b3;stroke-width:0.06206106"
       d="m 113.56027,266.09002 c 0,-0.12127 1.6574,-18.40339 1.6704,-18.42556 0.005,-0.009 0.30183,-0.0447 0.65945,-0.08 l 0.65022,-0.0643 -0.0293,0.56164 c -0.27151,5.19613 -0.57062,11.49903 -0.62016,13.06783 l -0.0297,0.94091 -1.06762,1.92835 c -1.171,2.11507 -1.23323,2.21959 -1.23323,2.07117 z"
       id="path305"
       inkscape:connector-curvature="0" />
    <path
       style="fill:#b3b3b3;stroke-width:0.06206106"
       d="m 113.69116,266.48371 c 0,-0.0205 0.51637,-0.96823 1.14749,-2.10599 l 1.1475,-2.06865 5.01327,-0.0447 5.01327,-0.0447 1.23397,2.11807 c 0.67868,1.16494 1.23396,2.13275 1.23396,2.15069 0,0.0179 -3.32763,0.0326 -7.39473,0.0326 -4.06711,0 -7.39473,-0.0168 -7.39473,-0.0373 z"
       id="path307"
       inkscape:connector-curvature="0" />
    <path
       style="fill:#999999;stroke-width:0.06206106"
       d="m 127.47721,264.30125 c -0.58788,-1.01826 -1.13462,-1.95998 -1.21498,-2.09271 l -0.14613,-0.24132 -0.55838,-7.54476 c -0.30711,-4.14962 -0.55546,-7.55017 -0.5519,-7.55678 0.003,-0.007 0.19045,-0.0265 0.41531,-0.0442 l 0.40884,-0.0321 0.89066,6.22407 c 1.74378,12.18581 1.88029,13.15432 1.85302,13.14678 -0.0152,-0.004 -0.50857,-0.84076 -1.09644,-1.85902 z"
       id="path309"
       inkscape:connector-curvature="0" />
    <text
       xml:space="preserve"
       style="font-style:normal;font-weight:normal;font-size:10.58333302px;line-height:1.25;font-family:sans-serif;letter-spacing:0px;word-spacing:0px;fill:#000000;fill-opacity:1;stroke:none;stroke-width:0.26458332"
       x="55.5625"
       y="71.348213"
       id="text317"><tspan
         sodipodi:role="line"
         id="tspan315"
         x="55.5625"
         y="81.003708"
         style="stroke-width:0.26458332" /></text>
    <path
       style="fill:#000000;stroke:#000000;stroke-width:0.10818163px;stroke-linecap:butt;stroke-linejoin:miter;stroke-opacity:1"
       d="m 110.33569,275.34381 -4.15649,-0.10128 0.58958,3.19025 -2.80047,-4.70942 2.62359,-4.65878 -0.35375,3.44345 c 0,0 3.30161,0.10127 3.1837,0.10127 z"
       id="path319"
       inkscape:connector-curvature="0" />
    <path
       style="fill:#000000;stroke:#000000;stroke-width:0.15507379px;stroke-linecap:butt;stroke-linejoin:miter;stroke-opacity:1"
       d="m 122.92118,267.50726 -0.10613,8.15036 3.34306,-1.15608 -4.935,5.49138 -4.88192,-5.14455 3.60838,0.69365 c 0,0 0.10613,-6.47405 0.10613,-6.24283 z"
       id="path319-6"
       inkscape:connector-curvature="0" />
    <path
       style="fill:#000000;stroke:#000000;stroke-width:0.12696038px;stroke-linecap:butt;stroke-linejoin:miter;stroke-opacity:1"
       d="m 119.74338,260.13062 0.0769,-7.53662 -2.42328,1.06902 3.57723,-5.07786 3.53875,4.75716 -2.6156,-0.64142 c 0,0 -0.0769,5.98654 -0.0769,5.77273 z"
       id="path319-5"
       inkscape:connector-curvature="0" />
    <path
       style="fill:#000000;stroke:#000000;stroke-width:0.12530757px;stroke-linecap:butt;stroke-linejoin:miter;stroke-opacity:1"
       d="m 133.56223,271.23194 4.65638,0.12129 -0.66048,-3.82075 3.13729,5.64017 -2.93915,5.57951 0.3963,-4.12399 c 0,0 -3.69869,-0.12129 -3.5666,-0.12129 z"
       id="path319-61"
       inkscape:connector-curvature="0" />
    <path
       style="fill:none;stroke:#000000;stroke-width:0.20720288px;stroke-linecap:butt;stroke-linejoin:miter;stroke-opacity:1"
       d="m 113.352,266.7271 -2.48113,19.24606 h 21.83398 l -4.09388,-20.1289 z"
       id="path282-9"
       inkscape:connector-curvature="0" />
    <path
       style="fill:none;stroke:#000000;stroke-width:0.20720288px;stroke-linecap:butt;stroke-linejoin:miter;stroke-opacity:1"
       d="m 115.42995,266.85953 c 0,0 -1.0855,14.47868 -0.93042,14.52282 0.15507,0.0441 14.32854,-0.0883 14.32854,-0.0883 l -1.61273,-15.31738"
       id="path284-3"
       inkscape:connector-curvature="0" />
    <path
       style="fill:none;stroke:#000000;stroke-width:0.20720288px;stroke-linecap:butt;stroke-linejoin:miter;stroke-opacity:1"
       d="m 128.82807,281.29407 3.87678,4.67909"
       id="path286-5"
       inkscape:connector-curvature="0" />
    <path
       style="fill:none;stroke:#000000;stroke-width:0.20720288px;stroke-linecap:butt;stroke-linejoin:miter;stroke-opacity:1"
       d="m 110.87087,285.97316 3.69068,-4.67909"
       id="path288-8"
       inkscape:connector-curvature="0" />
    <path
       style="fill:#b3b3b3;stroke-width:0.07400104"
       d="m 111.08339,285.33608 c 0,-0.12127 2.35647,-18.40339 2.37496,-18.42556 0.007,-0.009 0.42914,-0.0447 0.9376,-0.08 l 0.92448,-0.0643 -0.0418,0.56164 c -0.38603,5.19612 -0.81131,11.49903 -0.88174,13.06783 l -0.0422,0.94091 -1.51794,1.92834 c -1.66492,2.11508 -1.7534,2.2196 -1.7534,2.07119 z"
       id="path305-6"
       inkscape:connector-curvature="0" />
    <path
       style="fill:#b3b3b3;stroke-width:0.07400104"
       d="m 111.26947,285.72976 c 0,-0.0206 0.73418,-0.96823 1.63151,-2.10599 l 1.63151,-2.06865 7.12785,-0.0447 7.12784,-0.0447 1.75445,2.11808 c 0.96495,1.16493 1.75445,2.13274 1.75445,2.15068 0,0.0179 -4.73121,0.0326 -10.51381,0.0326 -5.78259,0 -10.5138,-0.0168 -10.5138,-0.0374 z"
       id="path307-5"
       inkscape:connector-curvature="0" />
    <path
       style="fill:#999999;stroke-width:0.07400104"
       d="m 130.87043,283.5473 c -0.83583,-1.01826 -1.61319,-1.95998 -1.72746,-2.09271 l -0.20775,-0.24132 -0.79391,-7.54475 c -0.43664,-4.14962 -0.78976,-7.55017 -0.78469,-7.55678 0.005,-0.007 0.27079,-0.0265 0.59048,-0.0442 l 0.58128,-0.0321 1.26634,6.22406 c 2.47931,12.18583 2.6734,13.15434 2.63463,13.14679 -0.0215,-0.005 -0.72309,-0.84076 -1.55892,-1.85902 z"
       id="path309-7"
       inkscape:connector-curvature="0" />
    <path
       style="fill:none;stroke:#000000;stroke-width:0.17377092px;stroke-linecap:butt;stroke-linejoin:miter;stroke-opacity:1"
       d="m 113.352,266.7271 -11.06602,-0.17656 -2.879359,18.71635 11.464249,0.70627"
       id="path4912"
       inkscape:connector-curvature="0" />
    <path
       style="fill:none;stroke:#000000;stroke-width:0.17377092px;stroke-linecap:butt;stroke-linejoin:miter;stroke-opacity:1"
       d="m 132.70484,285.97316 11.33194,-0.5297 -1.91957,-20.2172 -13.50624,0.618"
       id="path4914"
       inkscape:connector-curvature="0" />
    <path
       style="fill:none;stroke:#000000;stroke-width:0.17377092px;stroke-linecap:butt;stroke-linejoin:miter;stroke-opacity:1"
       d="m 131.47228,265.84426 3.14112,14.47868 -1.90856,5.65022"
       id="path4916"
       inkscape:connector-curvature="0" />
    <path
       style="fill:none;stroke:#000000;stroke-width:0.17377092px;stroke-linecap:butt;stroke-linejoin:miter;stroke-opacity:1"
       d="m 134.6134,280.32294 h 7.67831 l 1.74507,5.12052"
       id="path4918"
       inkscape:connector-curvature="0" />
    <path
       style="fill:none;stroke:#000000;stroke-width:0.17377092px;stroke-linecap:butt;stroke-linejoin:miter;stroke-opacity:1"
       d="m 142.29171,280.32294 -2.35584,-14.83182"
       id="path4920"
       inkscape:connector-curvature="0" />
    <path
       style="fill:none;stroke:#000000;stroke-width:0.17377092px;stroke-linecap:butt;stroke-linejoin:miter;stroke-opacity:1"
       d="m 110.87087,285.97316 -0.7757,-5.12051 1.78869,-14.12555"
       id="path4924"
       inkscape:connector-curvature="0" />
    <path
       style="fill:none;stroke:#000000;stroke-width:0.17377092px;stroke-linecap:butt;stroke-linejoin:miter;stroke-opacity:1"
       d="m 110.09517,280.85265 -7.89644,0.0883 1.91958,-14.21383"
       id="path4926"
       inkscape:connector-curvature="0" />
    <path
       style="fill:#999999;stroke:#000000;stroke-width:0.17377092px;stroke-linecap:butt;stroke-linejoin:miter;stroke-opacity:1"
       d="m 102.19873,280.94094 -2.792109,4.32595"
       id="path4928"
       inkscape:connector-curvature="0" />
    <path
       style="fill:#b3b3b3;stroke-width:0.06206106"
       d="m 105.18358,285.46639 c -2.87936,-0.18307 -5.298119,-0.34659 -5.375009,-0.36338 -0.13094,-0.0286 -0.0604,-0.15352 1.112489,-1.9719 l 1.25228,-1.94137 0.34901,-0.0601 c 0.19196,-0.0331 1.96223,-0.0633 3.93393,-0.0671 l 3.58492,-0.007 0.0443,0.28693 c 0.19133,1.23762 0.66043,4.38076 0.66043,4.42511 0,0.0304 -0.0736,0.05 -0.1636,0.0435 -0.09,-0.007 -2.51944,-0.16162 -5.39881,-0.34468 z"
       id="path4934"
       inkscape:connector-curvature="0" />
    <path
       style="fill:#b3b3b3;stroke-width:0.06206106"
       d="m 99.584431,284.67006 c 0.0124,-0.07 0.637769,-4.12989 1.389589,-9.02197 l 1.36695,-8.89468 h 0.84408 0.84409 l -0.0252,0.19864 c -0.0139,0.10925 -0.4418,3.27757 -0.9509,7.0407 l -0.92565,6.84206 -1.08948,1.69726 c -1.350219,2.10344 -1.481679,2.29681 -1.453429,2.13799 z"
       id="path4936"
       inkscape:connector-curvature="0" />
    <path
       style="fill:#b3b3b3;stroke-width:0.06206106"
       d="m 110.51745,283.06915 -0.33591,-2.23434 0.88379,-6.97448 0.8838,-6.97449 0.61784,0.003 c 0.33981,0.002 0.62667,0.0215 0.63745,0.0441 0.0147,0.0309 -2.25181,17.76798 -2.33506,18.27338 -0.009,0.0534 -0.16715,-0.90835 -0.35191,-2.13724 z"
       id="path4938"
       inkscape:connector-curvature="0" />
    <path
       style="fill:#b3b3b3;stroke-width:0.06206106"
       d="m 132.69948,285.41246 c -0.0936,-0.36259 -3.94454,-19.37647 -3.92976,-19.40298 0.009,-0.0157 0.60357,-0.0435 1.32179,-0.0617 l 1.30586,-0.0331 1.55989,7.19045 c 0.85793,3.95474 1.54902,7.22601 1.53574,7.26949 -0.0133,0.0435 -0.36168,1.07854 -0.77424,2.30016 -0.41256,1.22161 -0.80118,2.3741 -0.8636,2.56109 -0.10199,0.30548 -0.11778,0.32339 -0.15568,0.17657 z"
       id="path4940"
       inkscape:connector-curvature="0" />
    <path
       style="fill:#b3b3b3;stroke-width:0.06206106"
       d="m 133.47637,283.99623 c 0.34049,-1.01043 0.73971,-2.20369 0.88716,-2.65169 l 0.26811,-0.81454 3.81734,1.8e-4 3.81734,1.8e-4 0.7978,2.34874 c 0.43879,1.2918 0.79209,2.36026 0.78513,2.37436 -0.0122,0.0246 -3.65223,0.20972 -7.69067,0.39111 -1.05577,0.0474 -2.23046,0.1093 -2.61043,0.13751 l -0.69085,0.0513 z"
       id="path4942"
       inkscape:connector-curvature="0" />
    <path
       style="fill:#b3b3b3;stroke-width:0.06206106"
       d="m 143.10009,282.40188 -0.73679,-2.1651 -1.16533,-7.3376 -1.16534,-7.33761 0.20068,-0.0585 c 0.11038,-0.0322 0.56512,-0.062 1.01054,-0.0662 l 0.80986,-0.008 0.90593,9.54249 c 0.49827,5.24838 0.89948,9.55439 0.89159,9.56892 -0.008,0.0145 -0.3459,-0.94788 -0.75114,-2.13868 z"
       id="path4944"
       inkscape:connector-curvature="0" />
    <path
       style="fill:#4d4d4d;stroke-width:0.08776757"
       d="m 102.35944,280.45846 c 0.0202,-0.15584 0.44534,-3.30793 0.9449,-7.00465 l 0.90827,-6.7213 3.7671,0.0886 c 2.07191,0.0487 3.77104,0.0954 3.77586,0.10371 0.0181,0.0312 -1.71659,13.62591 -1.74632,13.68614 -0.0171,0.0346 -1.75351,0.0782 -3.85874,0.0969 l -3.82769,0.034 z m 4.47458,-2.06323 c -0.0365,-0.18884 -0.1584,-0.849 -0.27076,-1.46703 -0.11236,-0.61802 -0.22482,-1.22869 -0.24991,-1.35705 -0.0442,-0.22622 0.0179,-0.23053 2.03067,-0.14069 1.14196,0.051 2.0763,0.0573 2.0763,0.014 0,-0.0433 -0.20966,-0.71574 -0.46591,-1.49433 l -0.46591,-1.41564 -0.96856,-0.0813 c -0.53271,-0.0447 -1.23926,-0.0815 -1.57012,-0.0817 -0.41127,-2.4e-4 -0.60154,-0.0457 -0.60154,-0.14366 0,-0.0788 0.0723,-0.84086 0.16058,-1.6935 0.0883,-0.85263 0.14571,-1.58035 0.12753,-1.61715 -0.0333,-0.0675 -2.71665,4.64569 -2.73512,4.80428 -0.0108,0.0922 2.88026,4.99238 2.95448,5.00783 0.0246,0.005 0.0149,-0.1452 -0.0217,-0.33404 z"
       id="path4946"
       inkscape:connector-curvature="0" />
    <path
       style="fill:#4d4d4d;stroke-width:0.08776757"
       d="m 116.0632,260.97405 c 0.13854,-3.47582 0.62688,-13.31828 0.66458,-13.39456 0.0202,-0.0408 7.42187,-0.67853 7.8754,-0.67853 h 0.22683 l 0.54813,7.42948 c 0.30147,4.08622 0.53671,7.44951 0.52276,7.47398 -0.014,0.0245 -2.24233,0.0785 -4.95197,0.12002 l -4.92662,0.0755 z m 4.75932,-1.54246 1.05503,-0.83453 0.0399,-1.94638 c 0.022,-1.07051 0.04,-2.35372 0.0401,-2.85157 1.3e-4,-0.66186 0.0219,-0.90518 0.0809,-0.90518 0.10882,0 2.05667,0.47773 2.31537,0.56787 0.1591,0.0554 0.20108,0.031 0.1851,-0.10755 -0.0114,-0.0986 -0.81874,-1.25316 -1.79414,-2.56573 l -1.77347,-2.38647 -1.81997,2.58393 c -1.07606,1.52774 -1.79733,2.62978 -1.76455,2.6961 0.0453,0.0917 1.76817,-0.57375 2.2499,-0.86902 0.11239,-0.0689 0.11456,0.0447 0.0703,3.68807 -0.0254,2.08706 -0.022,3.76044 0.007,3.76206 0.0292,0.002 0.52784,-0.37262 1.1081,-0.8316 z"
       id="path4948"
       inkscape:connector-curvature="0" />
    <path
       style="fill:#4d4d4d;stroke-width:0.08776757"
       d="m 114.61574,280.67452 c 0,-0.81607 0.76309,-12.32122 0.89647,-13.5161 l 0.0313,-0.28092 h 5.82508 c 5.49443,0 5.82689,0.0124 5.85695,0.2185 0.0761,0.52152 1.46556,13.91404 1.44696,13.94633 -0.0113,0.0197 -3.17876,0.0654 -7.03871,0.10165 l -7.0181,0.0658 z m 9.06211,-3.20397 c 1.31053,-1.45278 2.42278,-2.71558 2.47166,-2.80623 0.0489,-0.0907 0.0703,-0.20244 0.0476,-0.24843 -0.0227,-0.046 -0.77069,0.17078 -1.66215,0.4817 -0.89147,0.31091 -1.62513,0.55789 -1.63036,0.54883 -0.006,-0.009 0.0169,-1.83509 0.0492,-4.05785 0.0323,-2.22277 0.0504,-4.05428 0.0404,-4.07002 -0.0192,-0.0301 -2.96683,1.80257 -2.99763,1.86377 -0.01,0.0194 -0.0434,1.39818 -0.0748,3.06388 -0.0313,1.66569 -0.0657,3.04625 -0.0764,3.0679 -0.0107,0.0217 -0.71281,-0.0973 -1.56023,-0.26426 -1.73483,-0.34185 -2.02372,-0.36685 -1.99168,-0.17231 0.0256,0.15533 4.78878,5.22149 4.91654,5.22925 0.0468,0.003 1.15737,-1.18345 2.46791,-2.63623 z"
       id="path4950"
       inkscape:connector-curvature="0" />
    <path
       style="fill:#4d4d4d;stroke-width:0.08776757"
       d="m 134.6037,279.83104 c -2.26705,-10.42278 -3.0004,-13.8948 -2.93983,-13.9186 0.14803,-0.0582 8.1458,-0.40679 8.17082,-0.35617 0.0315,0.0637 2.29816,14.32632 2.29816,14.46073 0,0.0522 -1.68031,0.095 -3.73402,0.095 h -3.73403 z m 4.73692,-3.88497 c 0.78919,-1.50153 1.43293,-2.76567 1.43054,-2.8092 -0.002,-0.0435 -0.49248,-0.94998 -1.08912,-2.01435 -0.59663,-1.06438 -1.33144,-2.37795 -1.63291,-2.91906 -0.30147,-0.54111 -0.56083,-0.95815 -0.57634,-0.92676 -0.0155,0.0314 0.1215,0.92433 0.30447,1.98432 l 0.33265,1.92726 -2.34015,-0.0471 -2.34014,-0.0472 0.54179,1.74302 0.5418,1.74302 0.64199,0.0816 c 0.3531,0.0449 1.15131,0.0816 1.77381,0.0816 0.62249,0 1.1317,0.014 1.13157,0.0312 -1.1e-4,0.0172 -0.0833,0.90206 -0.18486,1.96644 -0.22155,2.32207 -0.22209,2.33688 -0.0775,2.10658 0.0591,-0.0942 0.75325,-1.39989 1.54243,-2.90143 z"
       id="path4952"
       inkscape:connector-curvature="0" />
    <path
       style="fill:none;stroke:#000000;stroke-width:0.25661778px;stroke-linecap:butt;stroke-linejoin:miter;stroke-opacity:1"
       d="m 150.10508,264.70162 -2.26625,20.45915 20.54738,-1.11191 -4.07926,-19.56963 z"
       id="path4954"
       inkscape:connector-curvature="0" />
    <path
       style="fill:none;stroke:#000000;stroke-width:0.25661778px;stroke-linecap:butt;stroke-linejoin:miter;stroke-opacity:1"
       d="m 162.52449,264.76866 1.81615,15.80341 -13.30062,1.02211 1.54908,-16.7469"
       id="path4956"
       inkscape:connector-curvature="0" />
    <path
       style="fill:none;stroke:#000000;stroke-width:0.25661778px;stroke-linecap:butt;stroke-linejoin:miter;stroke-opacity:1"
       d="m 147.83883,285.16077 3.20119,-3.56659"
       id="path4958"
       inkscape:connector-curvature="0" />
    <path
       style="fill:none;stroke:#000000;stroke-width:0.25661778px;stroke-linecap:butt;stroke-linejoin:miter;stroke-opacity:1"
       d="m 168.38621,284.04886 -4.04557,-3.47679"
       id="path4960"
       inkscape:connector-curvature="0" />
    <path
       style="fill:none;stroke:#000000;stroke-width:0.25661778px;stroke-linecap:butt;stroke-linejoin:miter;stroke-opacity:1"
       d="m 170.65245,263.58971 -2.26624,20.45915 20.54737,-1.11191 -4.07926,-19.56963 z"
       id="path4954-2"
       inkscape:connector-curvature="0" />
    <path
       style="fill:none;stroke:#000000;stroke-width:0.25661778px;stroke-linecap:butt;stroke-linejoin:miter;stroke-opacity:1"
       d="m 183.07187,263.65675 1.81615,15.80341 -13.30062,1.02212 1.54907,-16.74691"
       id="path4956-7"
       inkscape:connector-curvature="0" />
    <path
       style="fill:none;stroke:#000000;stroke-width:0.25661778px;stroke-linecap:butt;stroke-linejoin:miter;stroke-opacity:1"
       d="m 168.38621,284.04886 3.20119,-3.56658"
       id="path4958-6"
       inkscape:connector-curvature="0" />
    <path
       style="fill:none;stroke:#000000;stroke-width:0.25661778px;stroke-linecap:butt;stroke-linejoin:miter;stroke-opacity:1"
       d="m 188.93358,282.93695 -4.04556,-3.47679"
       id="path4960-2"
       inkscape:connector-curvature="0" />
    <path
       style="fill:none;stroke:#000000;stroke-width:0.25661778px;stroke-linecap:butt;stroke-linejoin:miter;stroke-opacity:1"
       d="m 191.0142,263.05708 -2.26625,20.45915 20.54738,-1.11191 -4.07927,-19.56963 z"
       id="path4954-3"
       inkscape:connector-curvature="0" />
    <path
       style="fill:none;stroke:#000000;stroke-width:0.25661778px;stroke-linecap:butt;stroke-linejoin:miter;stroke-opacity:1"
       d="m 203.43361,263.12411 1.81615,15.80342 -13.30062,1.02211 1.54907,-16.7469"
       id="path4956-6"
       inkscape:connector-curvature="0" />
    <path
       style="fill:none;stroke:#000000;stroke-width:0.25661778px;stroke-linecap:butt;stroke-linejoin:miter;stroke-opacity:1"
       d="m 188.74795,283.51623 3.20119,-3.56659"
       id="path4958-9"
       inkscape:connector-curvature="0" />
    <path
       style="fill:none;stroke:#000000;stroke-width:0.25661778px;stroke-linecap:butt;stroke-linejoin:miter;stroke-opacity:1"
       d="m 209.29533,282.40432 -4.04557,-3.47679"
       id="path4960-7"
       inkscape:connector-curvature="0" />
    <path
       style="fill:none;stroke:#000000;stroke-width:0.25661778px;stroke-linecap:butt;stroke-linejoin:miter;stroke-opacity:1"
       d="m 155.05307,267.81497 c 0.18885,-0.0556 5.62786,-0.1112 5.62786,-0.1112 l -0.0755,1.2787 -3.92818,5.67075 4.00371,-0.44477 -0.0378,3.00216 -7.47864,-0.38917 5.28792,-6.89384 -4.45697,0.22238 z"
       id="path5056"
       inkscape:connector-curvature="0" />
    <path
       style="fill:none;stroke:#000000;stroke-width:0.25661778px;stroke-linecap:butt;stroke-linejoin:miter;stroke-opacity:1"
       d="m 175.00428,267.53981 1.85077,-0.27798 1.39753,3.16895 1.28421,-3.11335 2.07741,-0.33358 -2.26626,5.89313 2.15294,3.7805 -1.96409,0.83393 -1.39753,-4.11407 -1.01982,3.44693 -3.13497,0.88952 3.17275,-4.83681 z"
       id="path5058"
       inkscape:connector-curvature="0" />
    <path
       style="fill:none;stroke:#000000;stroke-width:0.25661778px;stroke-linecap:butt;stroke-linejoin:miter;stroke-opacity:1"
       d="m 200.46509,265.89526 c 0,0.38918 0.0755,2.5574 0.0755,2.5574 0,0 -2.94612,-0.33357 -2.94612,2.39061 0,2.72418 2.22847,2.89097 2.87058,2.77978 l 0.22663,2.00144 c 0,0 -5.62786,1.44548 -5.43901,-4.61443 0.18885,-6.05992 4.23033,-5.00361 5.21238,-5.1148 z"
       id="path5060"
       inkscape:connector-curvature="0" />
    <path
       style="fill:#000000;stroke-width:0.04582461"
       d="m 198.49469,275.53497 c -1.50076,-0.26495 -2.41926,-1.03105 -2.85553,-2.38174 -0.1785,-0.55263 -0.26058,-1.13725 -0.26058,-1.85608 0,-2.20616 0.58364,-3.79888 1.6808,-4.58675 0.61777,-0.44361 1.1799,-0.59204 2.38902,-0.63083 l 0.91595,-0.0294 1.8e-4,0.49377 c 8e-5,0.27157 0.0114,0.7792 0.025,1.12806 0.018,0.45986 0.0133,0.62377 -0.0172,0.59604 -0.0752,-0.0684 -1.01523,0.0751 -1.3773,0.21029 -0.67178,0.25083 -1.12017,0.68463 -1.34261,1.29892 -0.28344,0.78275 -0.21339,1.94141 0.16288,2.69402 0.39516,0.79037 1.22041,1.29848 2.16758,1.33458 0.2094,0.008 0.38108,0.027 0.38154,0.0423 4.2e-4,0.0153 0.0414,0.37805 0.091,0.80613 0.0495,0.42809 0.0828,0.78964 0.0738,0.80346 -0.0568,0.0874 -1.63718,0.14734 -2.03445,0.0772 z"
       id="path5062"
       inkscape:connector-curvature="0" />
    <path
       style="fill:#000000;stroke-width:0.04582461"
       d="m 174.4125,277.35201 c 0,-0.017 0.65012,-1.02084 1.44474,-2.23069 0.7946,-1.20985 1.44071,-2.22065 1.43579,-2.24623 -0.005,-0.0256 -0.46948,-1.18792 -1.03239,-2.58298 -0.56289,-1.39507 -1.0122,-2.55315 -0.99843,-2.57352 0.0138,-0.0204 0.36384,-0.088 0.77797,-0.15034 l 0.75294,-0.11331 0.70877,1.61028 c 0.38983,0.88566 0.72528,1.61816 0.74545,1.62778 0.0202,0.01 0.33245,-0.70154 0.69396,-1.58037 0.3615,-0.87884 0.65979,-1.6033 0.66288,-1.60992 0.0118,-0.0253 1.73396,-0.29231 1.74838,-0.27107 0.008,0.0123 -0.47147,1.28808 -1.06627,2.83508 -0.61004,1.58664 -1.06973,2.84067 -1.05456,2.87681 0.0148,0.0352 0.47476,0.84986 1.02212,1.81027 0.54734,0.9604 0.99513,1.76347 0.99506,1.7846 -1.2e-4,0.0363 -1.62803,0.7477 -1.64532,0.71904 -0.005,-0.007 -0.33411,-0.9737 -0.73254,-2.14731 -0.39841,-1.17362 -0.73746,-2.11179 -0.75341,-2.08484 -0.016,0.027 -0.264,0.84959 -0.55118,1.82807 -0.28718,0.97849 -0.52583,1.78641 -0.53032,1.79539 -0.0102,0.0205 -2.51214,0.73297 -2.57643,0.73368 -0.026,3e-4 -0.0472,-0.0134 -0.0472,-0.0305 z"
       id="path5064"
       inkscape:connector-curvature="0" />
    <path
       style="fill:#000000;stroke-width:0.04582461"
       d="m 160.20247,277.00421 c -4.12936,-0.21229 -6.66405,-0.35237 -6.67528,-0.36891 -0.007,-0.0115 1.1595,-1.55111 2.59401,-3.4214 1.43451,-1.87028 2.6082,-3.41917 2.6082,-3.44196 0,-0.0228 -0.10623,-0.0343 -0.23606,-0.0255 -0.3395,0.0229 -2.35382,0.12155 -3.36679,0.16479 -0.59366,0.0254 -0.85986,0.0188 -0.84984,-0.021 0.008,-0.0318 0.20146,-0.47106 0.42982,-0.97602 l 0.41522,-0.9181 0.86899,-0.0322 c 0.47796,-0.0177 1.69844,-0.0444 2.71219,-0.0593 l 1.84319,-0.0271 -0.0245,0.4844 -0.0245,0.48441 -0.91217,1.33651 c -0.5017,0.73509 -1.42794,2.08164 -2.05829,2.99234 -0.63036,0.9107 -1.14026,1.66384 -1.13312,1.67365 0.007,0.01 0.87131,-0.0789 1.9204,-0.19705 1.04909,-0.11819 1.97967,-0.21561 2.06795,-0.21649 l 0.16053,-0.002 -6.3e-4,1.237 c -2.1e-4,0.68035 -0.0131,1.26202 -0.0284,1.29259 -0.0154,0.0309 -0.1536,0.0491 -0.31104,0.041 z"
       id="path5066"
       inkscape:connector-curvature="0" />
    <path
       style="fill:#666666;stroke-width:0.04582461"
       d="m 151.19625,281.23014 c 0.0295,-0.23563 1.48619,-16.03425 1.49615,-16.22682 l 0.009,-0.16973 2.77804,-0.0369 c 5.22022,-0.0694 7.1217,-0.0849 7.01782,-0.0571 -0.0572,0.0153 -0.10296,0.0324 -0.10186,0.038 6.9e-4,0.006 0.40583,3.51273 0.89941,7.79358 0.87743,7.61006 0.89567,7.78419 0.81951,7.82003 -0.0428,0.0202 -0.46882,0.0642 -0.94661,0.0979 -1.05475,0.0744 -10.00226,0.75882 -10.9508,0.83766 -0.3724,0.0309 -0.75866,0.0563 -0.85834,0.0563 -0.17719,0 -0.18082,-0.003 -0.1621,-0.15289 z m 9.57278,-4.42481 c 0,-0.31614 0.0113,-1.07063 0.0251,-1.67664 l 0.0251,-1.10183 -0.41223,0.0384 c -0.22672,0.0211 -1.07344,0.11298 -1.8816,0.20416 -0.80815,0.0912 -1.47536,0.15699 -1.48266,0.14623 -0.007,-0.0109 0.81729,-1.21566 1.83247,-2.67754 l 1.84577,-2.65796 0.0432,-0.7007 c 0.0238,-0.38538 0.0431,-0.73604 0.0429,-0.77924 -2.2e-4,-0.0673 -0.38796,-0.073 -2.70556,-0.0401 -1.48791,0.0211 -2.801,0.0531 -2.91799,0.0712 l -0.2127,0.0327 -0.59487,1.3139 c -0.58552,1.29329 -0.59321,1.31421 -0.49082,1.33349 0.0573,0.0109 0.97086,-0.023 2.03033,-0.0751 1.05947,-0.0521 1.97808,-0.0859 2.04134,-0.0752 0.10688,0.0181 -0.0686,0.25881 -2.48363,3.4059 -1.42926,1.86253 -2.59431,3.39247 -2.58901,3.39987 0.0111,0.0155 1.42811,0.0967 3.86226,0.2213 0.93483,0.0479 2.02263,0.10685 2.41734,0.13111 0.39471,0.0242 0.91736,0.0479 1.16146,0.0525 l 0.44381,0.008 z"
       id="path5068"
       inkscape:connector-curvature="0" />
    <path
       style="fill:#666666;stroke-width:0.04582461"
       d="m 171.73877,280.14444 c 0.009,-0.0712 0.35542,-3.79407 0.76928,-8.27299 l 0.75244,-8.14348 4.49473,-0.0678 c 4.47199,-0.0674 5.44274,-0.0721 5.27613,-0.0253 -0.0721,0.0203 -0.0838,0.0505 -0.067,0.17311 0.0472,0.34495 1.7596,15.31733 1.7596,15.38539 0,0.10573 -0.10176,0.12107 -1.4353,0.21638 -0.65437,0.0468 -3.46655,0.26033 -6.24928,0.47457 -2.78273,0.21423 -5.11754,0.38952 -5.18846,0.38952 -0.11468,0 -0.1271,-0.0144 -0.11215,-0.1295 z m 3.76884,-2.67985 c 0.92429,-0.26158 1.69098,-0.49328 1.70373,-0.51489 0.0128,-0.0216 0.22354,-0.72104 0.46841,-1.55427 0.24486,-0.83324 0.45561,-1.51498 0.46833,-1.51498 0.0127,0 0.31579,0.86196 0.67348,1.91546 l 0.65035,1.91547 0.18036,-0.0779 c 0.0992,-0.0428 0.59545,-0.25447 1.10277,-0.47025 0.50734,-0.21578 0.92879,-0.4017 0.93656,-0.41315 0.008,-0.0114 -0.47955,-0.88775 -1.08294,-1.94734 -0.60339,-1.05959 -1.09708,-1.93802 -1.09708,-1.95206 0,-0.014 0.52027,-1.37815 1.15616,-3.03134 0.63589,-1.6532 1.14958,-3.01549 1.14155,-3.02733 -0.008,-0.0118 -0.53984,0.0641 -1.18177,0.16878 -0.78135,0.12738 -1.17712,0.21364 -1.19731,0.26094 -0.0166,0.0389 -0.28875,0.6995 -0.60483,1.46808 l -0.5747,1.39741 -0.28639,-0.64687 c -0.1575,-0.35578 -0.45382,-1.0284 -0.65847,-1.49471 -0.32438,-0.73908 -0.38482,-0.84782 -0.47125,-0.84778 -0.0545,2e-5 -0.51558,0.0626 -1.02454,0.13894 -0.50897,0.0764 -0.93996,0.13892 -0.95777,0.13894 -0.0178,3e-5 -0.0217,0.0408 -0.009,0.0905 0.0129,0.0498 0.4909,1.24936 1.06206,2.66574 0.57117,1.41637 1.04853,2.61376 1.0608,2.66087 0.0155,0.0596 -0.45815,0.8174 -1.55848,2.49314 -0.86945,1.32412 -1.62332,2.47726 -1.67525,2.56252 l -0.0944,0.15503 0.0944,-0.0317 c 0.052,-0.0174 0.85067,-0.24571 1.77497,-0.50729 z"
       id="path5070"
       inkscape:connector-curvature="0" />
    <path
       style="fill:#666666;stroke-width:0.04582461"
       d="m 192.10053,279.6118 c 0.009,-0.0712 0.35541,-3.79407 0.76926,-8.27299 l 0.75244,-8.14348 4.49474,-0.0678 c 4.472,-0.0674 5.44274,-0.0721 5.27613,-0.0253 -0.0721,0.0203 -0.0838,0.0505 -0.067,0.17311 0.0473,0.34495 1.7596,15.31733 1.7596,15.3854 0,0.10573 -0.10177,0.12106 -1.43529,0.21638 -0.6544,0.0468 -3.46657,0.26032 -6.24929,0.47456 -2.78273,0.21424 -5.11754,0.38952 -5.18846,0.38952 -0.11467,0 -0.12711,-0.0143 -0.11215,-0.1295 z m 8.41489,-3.76582 c 0.15582,-0.0338 0.29015,-0.0715 0.29853,-0.0838 0.008,-0.0123 -0.0427,-0.53515 -0.11332,-1.16197 l -0.12855,-1.13966 -0.52879,-0.0222 c -1.51958,-0.0639 -2.39624,-1.09941 -2.31239,-2.7314 0.0258,-0.5021 0.14183,-0.85537 0.39582,-1.20506 0.40599,-0.55896 0.97354,-0.80568 1.98767,-0.86402 l 0.56213,-0.0323 -0.0232,-0.53372 c -0.0128,-0.29354 -0.0345,-0.94026 -0.0484,-1.43714 l -0.0251,-0.90343 -0.94815,9.3e-4 c -1.33236,10e-4 -1.93128,0.14114 -2.61659,0.61034 -0.53155,0.36394 -0.90879,0.80877 -1.20239,1.41788 -0.46301,0.96053 -0.67467,2.07255 -0.67194,3.53032 0.001,0.91467 0.07,1.40683 0.28942,2.08483 0.46092,1.42446 1.5121,2.28379 3.09479,2.52997 0.3842,0.0598 1.6095,0.0231 1.99047,-0.0596 z"
       id="path5072"
       inkscape:connector-curvature="0" />
    <path
       style="fill:#999999;stroke-width:0.04582461"
       d="m 188.93358,282.93695 c 0.0297,-0.20785 2.17689,-19.6032 2.17689,-19.6634 0,-0.0242 0.51067,-0.0441 1.13484,-0.0441 h 1.13484 l -0.0221,0.18068 c -0.0121,0.0994 -0.35857,3.82286 -0.76985,8.2744 -0.4113,4.45155 -0.75901,8.12037 -0.77268,8.15294 -0.0137,0.0326 -0.64957,0.75375 -1.41311,1.60263 -0.76354,0.84887 -1.41171,1.57022 -1.44039,1.60299 -0.0427,0.0487 -0.0478,0.0294 -0.0284,-0.10612 z"
       id="path5074"
       inkscape:connector-curvature="0" />
    <path
       style="fill:#999999;stroke-width:0.04582461"
       d="m 168.57184,283.46959 c 0.0297,-0.20785 2.17688,-19.6032 2.17688,-19.66341 0,-0.0242 0.51068,-0.0441 1.13484,-0.0441 h 1.13484 l -0.0221,0.18068 c -0.0121,0.0994 -0.35857,3.82286 -0.76987,8.27441 -0.41129,4.45154 -0.75899,8.12036 -0.77268,8.15293 -0.0137,0.0326 -0.64956,0.75375 -1.41311,1.60263 -0.76353,0.84888 -1.4117,1.57022 -1.44037,1.60299 -0.0427,0.0487 -0.0478,0.0294 -0.0284,-0.10612 z"
       id="path5076"
       inkscape:connector-curvature="0" />
    <path
       style="fill:#999999;stroke-width:0.04582461"
       d="m 168.84317,283.78068 c 0.0197,-0.0283 0.65262,-0.7379 1.40643,-1.57699 l 1.37052,-1.52561 0.2725,-0.0328 c 0.14988,-0.0181 3.12799,-0.2504 6.61801,-0.51632 l 6.34552,-0.4835 1.80252,1.54817 c 0.99137,0.8515 1.79741,1.55566 1.79119,1.56481 -0.0167,0.0247 -1.25824,0.0959 -8.06956,0.46311 -3.39654,0.18312 -7.31196,0.39539 -8.70094,0.47173 -2.86616,0.15753 -2.88556,0.15812 -2.83619,0.0874 z"
       id="path5078"
       inkscape:connector-curvature="0" />
    <path
       style="fill:#999999;stroke-width:0.04582461"
       d="m 186.85802,280.94094 c -0.99716,-0.85581 -1.82642,-1.58741 -1.84282,-1.62577 -0.0164,-0.0384 -0.43305,-3.58478 -0.9259,-7.88093 l -0.89608,-7.81117 0.26491,-0.0344 c 0.14569,-0.0189 0.49803,-0.0377 0.78296,-0.0417 l 0.51804,-0.007 0.13184,0.62545 c 0.95764,4.5432 3.79918,18.24807 3.79097,18.28403 -0.007,0.0263 -0.82678,-0.65241 -1.82392,-1.50822 z"
       id="path5080"
       inkscape:connector-curvature="0" />
    <path
       style="fill:#999999;stroke-width:0.04582461"
       d="m 207.21977,280.4083 c -0.99715,-0.8558 -1.82642,-1.5874 -1.84282,-1.62576 -0.0164,-0.0384 -0.43305,-3.58478 -0.9259,-7.88093 l -0.89608,-7.81117 0.2649,-0.0344 c 0.1457,-0.0189 0.49804,-0.0377 0.78296,-0.0417 l 0.51805,-0.007 0.13183,0.62545 c 0.95765,4.5432 3.79919,18.24806 3.79098,18.28403 -0.007,0.0263 -0.82678,-0.65241 -1.82392,-1.50822 z"
       id="path5082"
       inkscape:connector-curvature="0" />
    <path
       style="fill:#999999;stroke-width:0.04582461"
       d="m 189.20492,283.24804 c 0.0197,-0.0283 0.65263,-0.73789 1.40641,-1.57698 l 1.37054,-1.52561 0.2725,-0.0328 c 0.14988,-0.0181 3.12799,-0.2504 6.61802,-0.51632 l 6.34552,-0.4835 1.80249,1.54817 c 0.99139,0.8515 1.79742,1.55566 1.79121,1.56481 -0.0168,0.0247 -1.25825,0.0959 -8.06955,0.46311 -3.39655,0.18311 -7.31198,0.39539 -8.70095,0.47173 -2.86616,0.15752 -2.88557,0.15812 -2.83619,0.0874 z"
       id="path5084"
       inkscape:connector-curvature="0" />
    <path
       style="fill:#999999;stroke-width:0.04582461"
       d="m 148.28763,284.89382 c 0.0197,-0.026 0.63927,-0.71744 1.37675,-1.53646 0.73748,-0.81902 1.35942,-1.51051 1.38209,-1.53663 0.0226,-0.0261 3.01562,-0.27621 6.651,-0.55573 l 6.60978,-0.50823 1.80656,1.55013 1.80658,1.55013 -0.29905,0.039 c -0.16448,0.0215 -1.07241,0.0784 -2.01763,0.12661 -0.94522,0.0482 -2.152,0.11193 -2.68174,0.14166 -3.18387,0.17863 -14.34367,0.77684 -14.49214,0.77684 -0.10089,0 -0.16253,-0.0205 -0.1422,-0.0473 z"
       id="path5086"
       inkscape:connector-curvature="0" />
    <path
       style="fill:#999999;stroke-width:0.04582461"
       d="m 148.03875,284.5983 c -7e-4,-0.0408 0.4876,-4.49606 1.0854,-9.90064 l 1.08688,-9.82651 h 1.12752 1.12752 l -0.0224,0.20848 c -0.0124,0.11467 -0.35406,3.81108 -0.75935,8.21424 -0.4053,4.40317 -0.74536,8.0558 -0.7557,8.11695 -0.011,0.0651 -0.59944,0.75628 -1.41998,1.66787 -0.77066,0.85617 -1.41631,1.56501 -1.43478,1.5752 -0.0185,0.0103 -0.0343,-0.0148 -0.035,-0.0556 z"
       id="path5088"
       inkscape:connector-curvature="0" />
    <path
       style="fill:#999999;stroke-width:0.04582461"
       d="m 166.30255,282.04776 -1.8507,-1.59595 -0.90179,-7.84834 c -0.49598,-4.3166 -0.89456,-7.85898 -0.88573,-7.87198 0.009,-0.013 0.36198,-0.0307 0.78478,-0.0393 l 0.76872,-0.0157 1.97593,9.47621 c 1.08676,5.21191 1.97223,9.47952 1.96771,9.48357 -0.004,0.004 -0.84103,-0.71081 -1.85892,-1.58858 z"
       id="path5090"
       inkscape:connector-curvature="0" />
  </g>
</svg>
