<?xml version="1.0" encoding="UTF-8" standalone="no"?>
<!-- Created with Inkscape (http://www.inkscape.org/) -->

<svg
   xmlns:dc="http://purl.org/dc/elements/1.1/"
   xmlns:cc="http://creativecommons.org/ns#"
   xmlns:rdf="http://www.w3.org/1999/02/22-rdf-syntax-ns#"
   xmlns:svg="http://www.w3.org/2000/svg"
   xmlns="http://www.w3.org/2000/svg"
   xmlns:sodipodi="http://sodipodi.sourceforge.net/DTD/sodipodi-0.dtd"
   xmlns:inkscape="http://www.inkscape.org/namespaces/inkscape"
   width="210mm"
   height="297mm"
   viewBox="0 0 210 297"
   version="1.1"
   id="svg8"
   inkscape:version="0.92.4 (5da689c313, 2019-01-14)"
   sodipodi:docname="slash.svg">
  <defs
     id="defs2" />
  <sodipodi:namedview
     id="base"
     pagecolor="#ffffff"
     bordercolor="#666666"
     borderopacity="1.0"
     inkscape:pageopacity="0.0"
     inkscape:pageshadow="2"
     inkscape:zoom="0.49497475"
     inkscape:cx="1315.6356"
     inkscape:cy="521.96175"
     inkscape:document-units="mm"
     inkscape:current-layer="layer1"
     showgrid="false"
     inkscape:window-width="1920"
     inkscape:window-height="1001"
     inkscape:window-x="-9"
     inkscape:window-y="-9"
     inkscape:window-maximized="1" />
  <metadata
     id="metadata5">
    <rdf:RDF>
      <cc:Work
         rdf:about="">
        <dc:format>image/svg+xml</dc:format>
        <dc:type
           rdf:resource="http://purl.org/dc/dcmitype/StillImage" />
        <dc:title />
      </cc:Work>
    </rdf:RDF>
  </metadata>
  <g
     inkscape:label="Camada 1"
     inkscape:groupmode="layer"
     id="layer1"
     transform="scale(5,4) translate(-20 0)">
    <path
       style="fill:none;stroke:#000000;stroke-width:0.32192373px;stroke-linecap:butt;stroke-linejoin:miter;stroke-opacity:1"
       d="M 13.66902,73.823191 C 43.6032,76.988523 68.99381,53.248465 70.06289,44.939444 71.13196,36.630423 43.6032,7.3510214 21.6871,1.4159958 -0.22899998,-4.5190151 37.99054,12.494696 37.99054,12.494696 c 0,0 -49.17759,-17.8050478 -35.27957,-5.1436746 15.7689,5.5393426 29.66691,9.8916956 29.66691,9.8916956 L 5.38366,12.494696 24.62707,18.034053 4.58185,16.451379 c 0,0 41.42678,13.057028 38.75408,25.718401 -2.67269,12.661358 -16.83798,20.970379 -27.26149,24.135726 -10.42351,3.165348 6.1553,3.021096 6.1553,3.021096 0,0 -16.27099,2.977929 -8.56072,4.496589 z"
       id="path29"
       inkscape:connector-curvature="0" />
    <path
       style="fill:#f9f9f9;stroke-width:0.45989111"
       d="m 25.222804,73.337303 c 13.06807,-1.688275 27.235018,-8.406376 36.663691,-17.386271 5.091408,-4.849072 7.74851,-8.913375 7.74851,-11.852117 0,-3.06846 -4.711623,-10.284417 -11.201352,-17.155121 C 48.633341,16.568162 37.169379,8.0950543 27.218329,3.8722963 22.963958,2.0669414 18.026908,0.73186255 16.881055,1.0768876 c -0.841517,0.2533888 5.365666,3.6220685 14.671392,7.9622595 6.07794,2.8347499 8.187365,4.1383879 5.765596,3.5631739 -0.623662,-0.148129 -4.62076,-1.427474 -8.88244,-2.8429833 C 13.637343,4.8441247 2.932212,2.4145398 1.178268,3.5731539 0.34551302,4.1232526 0.35145302,4.1496682 1.628287,5.5735826 2.67437,6.7401598 5.16656,7.7688502 14.639471,10.944148 c 6.444493,2.160184 13.1205,4.369643 14.835566,4.90991 1.715066,0.540267 3.118302,1.219248 3.118302,1.508844 0,0.289592 -0.552789,0.385378 -1.228421,0.21285 -2.827758,-0.722095 -12.003439,-2.141027 -12.442877,-1.924175 -0.262075,0.129328 0.841176,0.568813 2.451668,0.976642 6.744529,1.707926 2.404153,2.072088 -9.947036,0.834569 l -2.83482,-0.284035 5.102677,1.998634 c 13.308446,5.212699 24.891704,12.100911 28.091998,16.70547 2.477854,3.565111 2.508101,6.206399 0.129841,11.33804 -3.634726,7.842755 -13.253936,15.253878 -24.988369,19.252295 -4.517104,1.539166 -4.097096,2.114517 1.585728,2.172201 2.313141,0.02351 3.874254,0.264803 3.874254,0.598887 0,0.307761 -0.127566,0.560572 -0.28348,0.561812 -0.957249,0.0076 -7.689488,1.816352 -8.787948,2.361061 l -1.322916,0.656019 1.511906,0.416542 c 1.498129,0.412747 8.806598,0.473616 11.71726,0.09759 z"
       id="path31"
       inkscape:connector-curvature="0" />
  </g>
</svg>
