<?xml version="1.0" encoding="UTF-8" standalone="no"?>
<!-- Created with Inkscape (http://www.inkscape.org/) -->

<svg
   xmlns:dc="http://purl.org/dc/elements/1.1/"
   xmlns:cc="http://creativecommons.org/ns#"
   xmlns:rdf="http://www.w3.org/1999/02/22-rdf-syntax-ns#"
   xmlns:svg="http://www.w3.org/2000/svg"
   xmlns="http://www.w3.org/2000/svg"
   xmlns:sodipodi="http://sodipodi.sourceforge.net/DTD/sodipodi-0.dtd"
   xmlns:inkscape="http://www.inkscape.org/namespaces/inkscape"
   width="40mm"
   height="80mm"
   viewBox="0 0 40 80"
   version="1.1"
   id="svg8"
   sodipodi:docname="svgKnight1.svg"
   inkscape:version="0.92.4 (5da689c313, 2019-01-14)">
  <defs
     id="defs2" />
  <sodipodi:namedview
     id="base"
     pagecolor="#ffffff"
     bordercolor="#666666"
     borderopacity="1.0"
     inkscape:pageopacity="0.0"
     inkscape:pageshadow="2"
     inkscape:zoom="1.979899"
     inkscape:cx="77.445313"
     inkscape:cy="129.73755"
     inkscape:document-units="mm"
     inkscape:current-layer="layer1"
     showgrid="false"
     inkscape:window-width="1920"
     inkscape:window-height="1001"
     inkscape:window-x="-9"
     inkscape:window-y="-9"
     inkscape:window-maximized="1" />
  <metadata
     id="metadata5">
    <rdf:RDF>
      <cc:Work
         rdf:about="">
        <dc:format>image/svg+xml</dc:format>
        <dc:type
           rdf:resource="http://purl.org/dc/dcmitype/StillImage" />
        <dc:title></dc:title>
      </cc:Work>
    </rdf:RDF>
  </metadata>
  <g
     inkscape:label="Camada 1"
     inkscape:groupmode="layer"
     id="layer1"
     transform="matrix(2,0,0,2.7,-40,-379)"
     style="display:inline">
    <g
       id="g3840"
       transform="matrix(0.13828263,0,0,0.11601257,1.2091408,127.76441)">
      <path
         inkscape:connector-curvature="0"
         id="path35"
         d="m 244.79329,278.49957 c 2.26785,58.20833 -6.71815,51.10238 -6.46629,65.48947 1.96026,9.79379 5.12928,19.55397 -1.6743,21.06587 -16.88281,-3.91655 -1.88777,-11.01529 -24.20311,-19.90434 -7.11105,-9.93298 -11.01043,-8.50507 -20.45336,0.0696 -4.65954,6.20841 -3.4637,18.24124 -3.4637,18.24124 -16.04564,8.00031 -6.4833,-26.7535 -7.9952,-29.02136 -1.51191,-2.26786 -15.875,5.29167 -15.875,5.29167 0,0 12.09524,-63.5 32.50596,-60.47619 z"
         style="fill:none;stroke:#000000;stroke-width:0.26458332px;stroke-linecap:butt;stroke-linejoin:miter;stroke-opacity:1"
         sodipodi:nodetypes="cccccscccc" />
    </g>
    <path
       style="fill:#000000;stroke-width:0.01953128"
       d="m 33.685243,170.03599 c -0.265377,-0.0662 -0.386095,-0.10794 -0.570485,-0.19726 -0.25033,-0.12123 -0.378797,-0.2694 -0.513825,-0.59262 -0.04749,-0.11367 -0.113085,-0.25537 -0.145765,-0.31488 -0.217517,-0.39608 -0.745692,-0.7453 -1.583836,-1.04722 -0.14143,-0.051 -0.260104,-0.0973 -0.263719,-0.10296 -0.0036,-0.005 -0.09032,-0.0969 -0.192675,-0.20275 -0.412379,-0.42635 -0.712555,-0.59343 -1.064059,-0.59227 -0.342438,9.2e-4 -0.630037,0.1247 -1.19874,0.51505 -0.353979,0.24298 -0.418791,0.29556 -0.499137,0.40499 -0.275069,0.37459 -0.409668,0.89947 -0.414153,1.61498 l -0.0026,0.40734 -0.1655,0.051 c -0.221055,0.0681 -0.435327,0.0807 -0.570611,0.0335 -0.349885,-0.12201 -0.491675,-0.47041 -0.490766,-1.20591 5.16e-4,-0.41304 0.0203,-0.6258 0.12843,-1.38065 0.09582,-0.66893 0.105093,-0.77622 0.07285,-0.84301 -0.02895,-0.0599 -0.103202,-0.0935 -0.206705,-0.0935 -0.242614,0 -0.841618,0.18126 -1.59098,0.48145 -0.254985,0.10213 -0.368418,0.1398 -0.373588,0.12404 -0.01501,-0.0457 0.277043,-1.09721 0.470961,-1.69549 0.558094,-1.72181 1.161689,-3.02249 1.81906,-3.91987 0.511402,-0.69811 0.995036,-1.08856 1.556223,-1.25637 0.123742,-0.037 0.157491,-0.0391 0.708706,-0.0438 0.318326,-0.003 1.896703,-0.0224 3.507504,-0.0439 1.6108,-0.0213 2.930691,-0.0375 2.933091,-0.0357 0.0024,0.002 0.01571,0.46089 0.02958,1.02041 0.05161,2.08213 -0.05173,3.49523 -0.328265,4.48913 -0.06099,0.2192 -0.192152,0.56781 -0.361495,0.9608 -0.185457,0.43039 -0.216489,0.56213 -0.216808,0.92043 -2.51e-4,0.28857 0.004,0.31523 0.123882,0.78342 0.135278,0.52813 0.194199,0.85601 0.194379,1.08167 2.78e-4,0.35523 -0.123029,0.57853 -0.376691,0.68215 -0.0708,0.0289 -0.14515,0.0522 -0.165214,0.0518 -0.02007,-4.5e-4 -0.132156,-0.0246 -0.249092,-0.0539 z"
       id="path148"
       inkscape:connector-curvature="0" />
  </g>
  <g
     inkscape:groupmode="layer"
     id="layer2"
     inkscape:label="Camada 2">
    <ellipse
       transform="matrix(2,0,0,2.6999999,-39.999999,-378.99999)"
       id="path21"
       cx="37.845001"
       cy="155.76137"
       rx="0.75689918"
       ry="1.6156309"
       style="display:inline;stroke-width:0.0419806" />
    <ellipse
       transform="matrix(2,0,0,2.6999999,-39.999999,-378.99999)"
       id="path23"
       cx="31.335665"
       cy="155.8089"
       rx="1.816558"
       ry="2.0432978"
       style="display:inline;stroke-width:0.0419806" />
    <path
       transform="matrix(2,0,0,2.6999999,-39.999999,-378.99999)"
       style="display:inline;fill:none;stroke:#000000;stroke-width:0.0419806px;stroke-linecap:butt;stroke-linejoin:miter;stroke-opacity:1"
       d="m 26.945653,160.22813 c -9.53693,0 -4.238635,-9.40868 -3.330358,-9.78882"
       id="path27"
       inkscape:connector-curvature="0" />
    <path
       transform="matrix(2,0,0,2.6999999,-39.999999,-378.99999)"
       style="display:inline;fill:none;stroke:#000000;stroke-width:0.0419806px;stroke-linecap:butt;stroke-linejoin:miter;stroke-opacity:1"
       d="m 26.945653,160.22813 c 8.325887,0.19007 6.357952,0.76029 9.53693,-0.0951 4.995536,-5.03697 0.302758,-10.16898 0.151378,-9.69378"
       id="path29"
       inkscape:connector-curvature="0" />
    <path
       transform="matrix(2,0,0,2.6999999,-39.999999,-378.99999)"
       style="display:inline;fill:none;stroke:#000000;stroke-width:0.0419806px;stroke-linecap:butt;stroke-linejoin:miter;stroke-opacity:1"
       d="m 36.63396,150.43931 c 1.211043,-3.13623 -1.059657,-7.4129 -3.027592,-7.69801 -1.967942,-0.28512 1.665172,2.28088 -0.605524,1.90074 -2.2707,-0.38015 -1.211041,0.57022 -0.151381,1.52059 1.059657,0.95038 0.756905,3.3263 -0.908276,3.23126 -1.665182,-0.0951 -4.692773,-0.0951 -4.692773,-0.0951 0,0 -4.844156,-3.89653 -1.211042,-5.32208 3.633114,-1.42556 -4.087252,1.0454 -0.908276,-0.85533 3.178977,-1.90075 4.238634,-4.0866 -0.756905,-1.14045 -4.995532,2.94615 -0.756896,8.45831 -0.756896,8.45831"
       id="path33"
       inkscape:connector-curvature="0" />
    <path
       transform="matrix(2,0,0,2.6999999,-39.999999,-378.99999)"
       style="display:inline;fill:#333333;stroke:#000000;stroke-width:0.0419806px;stroke-linecap:butt;stroke-linejoin:miter;stroke-opacity:1"
       d="m 27.582423,161.71235 c -1.819706,0.80642 -1.873229,0.80642 -1.980269,1.44482 l -3.05069,-1.34402 0.802811,-0.67202 -2.461957,-1.54563 0.749291,-0.67201 2.46196,1.71363 0.909854,-0.47041 c 0,0 3.05069,0.84002 2.515482,1.44483"
       id="path51"
       inkscape:connector-curvature="0" />
    <path
       transform="matrix(2,0,0,2.6999999,-39.999999,-378.99999)"
       style="display:inline;fill:none;stroke:#000000;stroke-width:0.0419806px;stroke-linecap:butt;stroke-linejoin:miter;stroke-opacity:1"
       d="m 24.125739,170.54523 c -2.140834,-2.88966 1.92675,-10.14741 3.211251,-10.34901 1.284501,-0.20161 7.38588,-0.1344 7.38588,-0.1344 0,0 7.385878,9.7442 1.070415,9.27378"
       id="path53"
       inkscape:connector-curvature="0" />
    <path
       transform="matrix(2,0,0,2.6999999,-39.999999,-378.99999)"
       style="display:inline;fill:none;stroke:#000000;stroke-width:0.0419806px;stroke-linecap:butt;stroke-linejoin:miter;stroke-opacity:1"
       d="m 24.125739,170.54523 c 0,0 9.205588,-4.09929 8.884463,-5.84652"
       id="path55"
       inkscape:connector-curvature="0" />
    <path
       transform="matrix(2,0,0,2.6999999,-39.999999,-378.99999)"
       style="display:inline;fill:none;stroke:#000000;stroke-width:0.0419806px;stroke-linecap:butt;stroke-linejoin:miter;stroke-opacity:1"
       d="m 35.793285,169.3356 c 0,0 -5.352084,-7.86256 -3.960544,-9.20659"
       id="path57"
       inkscape:connector-curvature="0" />
    <path
       transform="matrix(2,0,0,2.6999999,-39.999999,-378.99999)"
       style="display:inline;fill:none;stroke:#000000;stroke-width:0.0419806px;stroke-linecap:butt;stroke-linejoin:miter;stroke-opacity:1"
       d="m 23.510248,168.36118 c 5.860536,-1.81444 8.483055,-3.59527 8.857704,-4.9897"
       id="path63"
       inkscape:connector-curvature="0" />
    <path
       transform="matrix(2,0,0,2.6999999,-39.999999,-378.99999)"
       style="display:inline;fill:none;stroke:#000000;stroke-width:0.0419806px;stroke-linecap:butt;stroke-linejoin:miter;stroke-opacity:1"
       d="m 23.777853,166.37875 c 2.622524,-0.38642 6.87743,-4.5025 8.001369,-4.5025"
       id="path65"
       inkscape:connector-curvature="0" />
    <path
       transform="matrix(2,0,0,2.6999999,-39.999999,-378.99999)"
       style="display:inline;fill:none;stroke:#000000;stroke-width:0.0419806px;stroke-linecap:butt;stroke-linejoin:miter;stroke-opacity:1"
       d="m 24.527145,164.2451 c 1.578866,-1.81444 2.836607,-4.23369 4.790117,-4.16649"
       id="path67"
       inkscape:connector-curvature="0" />
    <path
       transform="matrix(2,0,0,2.6999999,-39.999999,-378.99999)"
       style="display:inline;fill:#6f917c;stroke-width:0.04240682"
       d="m 23.974628,170.1955 c -0.232587,-0.456 -0.331936,-0.82376 -0.365261,-1.3521 l -0.02967,-0.4704 0.421481,-0.12953 c 1.150788,-0.35362 3.026182,-1.05077 4.030956,-1.49845 1.356065,-0.60421 2.591142,-1.31867 3.284653,-1.9001 0.369715,-0.30997 0.919584,-0.95579 0.97984,-1.15083 0.01855,-0.0601 0.04878,-0.10916 0.06719,-0.10912 0.01841,4e-5 0.153862,0.2382 0.301032,0.52922 0.351207,0.6945 0.356964,0.84881 0.04675,1.25296 -0.399119,0.51996 -0.986479,1.00227 -2.079981,1.70797 -1.400763,0.90399 -3.292161,1.91897 -5.631263,3.0219 l -0.867365,0.40897 z"
       id="path3830"
       inkscape:connector-curvature="0" />
    <path
       transform="matrix(2,0,0,2.6999999,-39.999999,-378.99999)"
       style="display:inline;fill:#6f917c;stroke-width:0.04240682"
       d="m 23.593659,167.96138 c 6.04e-4,-0.29022 0.09028,-0.94253 0.191557,-1.39191 0.03505,-0.15554 0.0385,-0.15781 0.350973,-0.23118 1.005284,-0.23602 2.408775,-1.03488 4.837338,-2.7534 0.639842,-0.45277 1.370882,-0.95639 1.624534,-1.11916 0.451271,-0.28958 1.046693,-0.57647 1.129644,-0.54429 0.02294,0.009 0.05856,0.0882 0.07913,0.17621 0.02057,0.088 0.143401,0.42266 0.272936,0.74365 l 0.235515,0.58363 -0.166296,0.31485 c -0.312495,0.59164 -0.870524,1.1046 -1.91702,1.76217 -1.056955,0.66413 -2.352516,1.27502 -4.078838,1.92327 -0.579361,0.21755 -2.479534,0.86377 -2.539874,0.86377 -0.0111,0 -0.01993,-0.14742 -0.01959,-0.32761 z"
       id="path3832"
       inkscape:connector-curvature="0" />
    <path
       transform="matrix(2,0,0,2.6999999,-39.999999,-378.99999)"
       style="display:inline;fill:#6f917c;stroke-width:0.04240682"
       d="m 35.927128,169.30966 c -0.06025,-0.008 -0.135337,-0.0564 -0.166851,-0.1065 -0.0315,-0.05 -0.286352,-0.44629 -0.566311,-0.88057 -1.344671,-2.08595 -2.435884,-4.07689 -3.011047,-5.49371 -0.342788,-0.84441 -0.460208,-1.2814 -0.492054,-1.83124 -0.02471,-0.42637 -0.01505,-0.51149 0.07721,-0.68161 0.06306,-0.11631 0.08163,-0.18965 0.04618,-0.18258 -0.03258,0.006 -0.100331,0.0864 -0.150553,0.17759 -0.136905,0.24854 -0.116661,1.00315 0.03886,1.44806 0.02085,0.0597 -0.02012,0.0864 -0.228672,0.14968 -0.332762,0.10089 -1.14925,0.61503 -2.528354,1.59211 -1.964116,1.39157 -2.905299,1.98298 -3.827354,2.40499 -0.429193,0.19644 -1.220888,0.45279 -1.246925,0.40374 -0.02999,-0.0564 0.247206,-0.95986 0.460079,-1.49945 0.197389,-0.50035 0.20406,-0.50994 1.331883,-1.91409 0.659924,-0.82163 1.295526,-1.56508 1.521309,-1.77946 0.452197,-0.42938 0.982346,-0.77725 1.358883,-0.89169 0.366286,-0.11132 0.891499,-0.12981 3.75931,-0.13239 l 2.367397,-0.002 0.128686,0.1596 c 0.07078,0.0878 0.344955,0.47713 0.609281,0.86521 1.454542,2.1356 2.408964,4.03225 2.772982,5.51052 0.122655,0.4981 0.125763,1.331 0.0061,1.63804 -0.189197,0.4855 -0.63688,0.85128 -1.191652,0.97363 -0.269094,0.0593 -0.871878,0.10015 -1.068382,0.0722 z"
       id="path3834"
       inkscape:connector-curvature="0" />
    <path
       transform="matrix(2,0,0,2.6999999,-39.999999,-378.99999)"
       style="display:inline;fill:#6f917c;stroke-width:0.04240682"
       d="m 24.750234,163.8201 c 0.0652,-0.22158 0.618775,-1.2599 0.967351,-1.81444 0.55522,-0.88329 1.192268,-1.6115 1.5248,-1.743 0.111643,-0.0441 0.686394,-0.10444 0.998937,-0.10479 l 0.232768,-1.9e-4 -0.313047,0.14787 c -0.693697,0.32768 -1.232985,0.85487 -2.494721,2.43878 -0.522882,0.65639 -0.935121,1.14052 -0.916088,1.07584 z"
       id="path3836"
       inkscape:connector-curvature="0" />
    <path
       transform="matrix(2,0,0,2.6999999,-39.999999,-378.99999)"
       style="display:inline;fill:#e6e6e6;stroke-width:0.08481362"
       d="m 34.939767,160.22207 -0.134147,-0.20332 -2.582774,-0.001 c -1.420526,-5.2e-4 -3.355128,0.0352 -4.299119,0.0794 -2.018499,0.0945 -2.588854,0.0468 -3.762552,-0.31484 -1.301332,-0.40097 -2.183462,-1.20945 -2.543525,-2.33117 -0.216261,-0.67372 -0.215527,-2.08882 0.0016,-2.96847 0.326595,-1.32352 1.148696,-3.04251 1.812132,-3.78914 l 0.254695,-0.28663 -0.262767,-0.37302 c -0.370733,-0.52629 -0.947807,-1.76167 -1.17462,-2.51457 -0.250877,-0.83281 -0.256696,-2.32416 -0.01173,-3.00692 0.217854,-0.60721 0.623461,-1.21936 1.118345,-1.68782 0.4784,-0.45286 1.754369,-1.23705 2.854191,-1.75411 1.348173,-0.63383 1.778789,-0.62057 1.297136,0.0399 -0.369205,0.50629 -0.954361,0.99124 -2.097657,1.73842 -0.958873,0.62666 -1.230351,0.86328 -1.119566,0.97581 0.105492,0.10716 0.840655,0.0754 1.567961,-0.0677 0.92773,-0.18257 0.973721,-0.17076 0.354481,0.091 -0.747087,0.31586 -1.30139,0.7228 -1.448652,1.06351 -0.1762,0.40765 -0.06583,1.40719 0.209067,1.89356 0.308834,0.54639 1.0782,1.48837 1.663097,2.03621 l 0.48996,0.45893 2.48838,0.0705 c 1.368611,0.0387 2.605606,0.0523 2.74888,0.03 0.726597,-0.113 1.256828,-0.9977 1.147661,-1.91487 -0.08834,-0.74208 -0.191571,-0.92689 -0.911729,-1.63201 -0.727581,-0.71237 -0.921782,-0.97695 -0.828771,-1.12913 0.05772,-0.0944 0.194571,-0.10275 1.01853,-0.0618 0.8943,0.0445 0.955985,0.0391 1.020247,-0.088 0.08727,-0.17263 -0.0054,-0.40287 -0.391966,-0.9755 -0.170548,-0.25254 -0.295229,-0.53982 -0.277069,-0.63841 0.02808,-0.1525 0.07966,-0.17714 0.345392,-0.16506 1.223278,0.0556 2.72418,2.00927 3.217366,4.18791 0.196458,0.86784 0.202388,2.28194 0.01238,2.95484 -0.124035,0.4393 -0.121864,0.51149 0.0169,0.5622 0.242482,0.0886 1.047474,1.21079 1.356276,1.89065 0.358605,0.78953 0.599166,1.81438 0.583638,2.48645 l -0.01241,0.53762 -0.09056,-0.38852 c -0.10349,-0.44398 -0.377569,-0.84906 -0.612838,-0.90573 -0.257661,-0.062 -0.633296,0.27878 -0.773087,0.70154 -0.197819,0.59822 -0.09021,1.85955 0.192487,2.25594 0.232743,0.32635 0.485951,0.40653 0.753483,0.23857 0.09991,-0.0627 0.128802,-0.059 0.130033,0.0169 0.0038,0.23374 -0.716139,1.44748 -1.219054,2.05522 -0.495537,0.59882 -0.595402,0.67693 -1.030403,0.80601 -0.84962,0.25208 -0.91949,0.25383 -1.069287,0.0268 z m -2.882904,-2.50656 c 0.467962,-0.19798 0.908308,-0.75525 1.072381,-1.35711 0.243218,-0.89219 -0.212815,-2.00913 -0.987377,-2.41829 -0.244176,-0.129 -0.444883,-0.1711 -0.81569,-0.1711 -0.440029,0 -0.537801,0.0304 -0.928403,0.2881 -0.541476,0.35732 -0.810773,0.80267 -0.887791,1.4682 -0.183757,1.58788 1.186118,2.76591 2.54688,2.1902 z"
       id="path58"
       inkscape:connector-curvature="0" />
  </g>
</svg>
