<?xml version="1.0" encoding="UTF-8" standalone="no"?>
<!-- Created with Inkscape (http://www.inkscape.org/) -->

<svg
   xmlns:dc="http://purl.org/dc/elements/1.1/"
   xmlns:cc="http://creativecommons.org/ns#"
   xmlns:rdf="http://www.w3.org/1999/02/22-rdf-syntax-ns#"
   xmlns:svg="http://www.w3.org/2000/svg"
   xmlns="http://www.w3.org/2000/svg"
   xmlns:sodipodi="http://sodipodi.sourceforge.net/DTD/sodipodi-0.dtd"
   xmlns:inkscape="http://www.inkscape.org/namespaces/inkscape"
   width="210mm"
   height="297mm"
   viewBox="0 0 210 297"
   version="1.1"
   id="svg8"
   sodipodi:docname="svgKnight.svg"
   inkscape:version="0.92.4 (5da689c313, 2019-01-14)">
  <defs
     id="defs2" />
  <sodipodi:namedview
     id="base"
     pagecolor="#ffffff"
     bordercolor="#666666"
     borderopacity="1.0"
     inkscape:pageopacity="0.0"
     inkscape:pageshadow="2"
     inkscape:zoom="0.49497475"
     inkscape:cx="659.15467"
     inkscape:cy="616.76288"
     inkscape:document-units="mm"
     inkscape:current-layer="layer1"
     showgrid="false"
     inkscape:window-width="1920"
     inkscape:window-height="1001"
     inkscape:window-x="-9"
     inkscape:window-y="-9"
     inkscape:window-maximized="1" />
  <metadata
     id="metadata5">
    <rdf:RDF>
      <cc:Work
         rdf:about="">
        <dc:format>image/svg+xml</dc:format>
        <dc:type
           rdf:resource="http://purl.org/dc/dcmitype/StillImage" />
      </cc:Work>
    </rdf:RDF>
  </metadata>
  <g
     inkscape:label="Camada 1"
     inkscape:groupmode="layer"
     id="layer1"
     transform="scale(2 2.7) translate(-20 -60)">
    <ellipse
       id="path21"
       cx="119.55413"
       cy="115.40604"
       rx="4.413693"
       ry="7.9982944"
       style="stroke-width:0.22555804" />
    <ellipse
       id="path23"
       cx="81.596359"
       cy="115.6413"
       rx="10.592862"
       ry="10.11549"
       style="stroke-width:0.22555804" />
    <path
       style="fill:none;stroke:#000000;stroke-width:0.22555804px;stroke-linecap:butt;stroke-linejoin:miter;stroke-opacity:1"
       d="m 55.996969,137.51898 c -55.61253093,0 -24.716674,-46.578311 -19.420259,-48.460256"
       id="path27"
       inkscape:connector-curvature="0" />
    <path
       style="fill:none;stroke:#000000;stroke-width:0.22555804px;stroke-linecap:butt;stroke-linejoin:miter;stroke-opacity:1"
       d="m 55.996969,137.51898 c 48.550601,0.94097 37.07502,3.7639 55.612531,-0.47049 29.13038,-24.93585 1.76547,-50.342211 0.88273,-47.989766"
       id="path29"
       inkscape:connector-curvature="0" />
    <path
       style="fill:none;stroke:#000000;stroke-width:0.22555804px;stroke-linecap:butt;stroke-linejoin:miter;stroke-opacity:1"
       d="m 112.49222,89.058724 c 7.06194,-15.526107 -6.17916,-36.698064 -17.654746,-38.109526 -11.475615,-1.411464 9.710096,11.291709 -3.53097,9.409757 -13.2411,-1.881952 -7.061925,2.822928 -0.88275,7.527808 6.179161,4.704879 4.41372,16.467076 -5.29641,15.99659 -9.710144,-0.470487 -27.364891,-0.470487 -27.364891,-0.470487 0,0 -28.24764,-19.290007 -7.061925,-26.347326 C 71.886245,50.008221 26.866604,62.240907 45.404115,52.83115 63.941628,43.421391 70.120789,32.600168 40.990388,47.185293 11.860027,61.770419 36.57671,89.058724 36.57671,89.058724"
       id="path33"
       inkscape:connector-curvature="0" />
    <g
       id="g3840"
       transform="matrix(0.80636502,0,0,0.62237773,-208.31525,17.247258)">
      <path
         inkscape:connector-curvature="0"
         id="path35"
         d="m 384.02381,191.92262 c 2.26785,58.20833 -6.80357,64.25595 -16.63097,65.76785 -9.82736,1.51191 -5.29166,16.63096 -12.09524,18.14286 -6.80355,1.51191 -4.5357,-20.41071 -8.31545,-21.92262 -3.77976,-1.5119 -10.58334,-9.82738 -12.85121,0 -2.26785,9.82738 11.3393,26.45832 -2.26785,15.87499 -13.60715,-10.58332 -10.58334,-19.65475 -12.09524,-21.92261 -1.51191,-2.26786 -15.875,5.29167 -15.875,5.29167 0,0 12.09524,-63.5 32.50596,-60.47619"
         style="fill:none;stroke:#000000;stroke-width:0.26458332px;stroke-linecap:butt;stroke-linejoin:miter;stroke-opacity:1" />
      <path
         transform="scale(0.26458333)"
         inkscape:connector-curvature="0"
         id="path39"
         d="m 1333.0365,1034.9087 c -2.3309,-3.5574 -6.2698,-19.3074 -8.7531,-34.99995 -2.4833,-15.69256 -5.2022,-30.81269 -6.0421,-33.60029 -2.4567,-8.15472 -29.7044,-24.93163 -40.4918,-24.93163 -8.2352,0 -10.0509,1.39101 -13.9281,10.67062 -5.3412,12.78333 -3.9095,29.66385 4.5598,53.76035 3.2475,9.2397 5.9045,18.5239 5.9045,20.6315 0,10.5355 -41.9107,-26.4058 -51.6772,-45.54992 -3.1208,-6.11728 -7.291,-19.11056 -9.2671,-28.87395 -2.52,-12.45089 -5.0196,-18.0264 -8.3708,-18.67178 -2.6279,-0.50609 -15.7499,3.55305 -29.16,9.02029 -13.4101,5.46725 -24.382,9.33511 -24.382,8.59526 0,-0.73986 3.8076,-16.42703 8.4613,-34.86039 25.9416,-102.75501 62.7234,-174.14168 94.6553,-183.70871 11.8036,-3.53646 78.2913,-0.23772 131.6441,6.53142 22.5718,2.86381 26.3411,2.6078 42.6389,-2.89603 9.833,-3.32066 18.6192,-5.3002 19.525,-4.39899 3.3081,3.29156 3.5108,77.98594 0.3195,117.77701 -6.8467,85.36925 -21.0033,113.40891 -62.3744,123.54306 -14.8234,3.63109 -20.8196,12.183 -27.6671,39.45923 -6.9304,27.6067 -16.6508,36.1529 -25.5947,22.5029 z"
         style="stroke-width:2.85714293" />
    </g>
    <path
       style="fill:#333333;stroke:#000000;stroke-width:0.22555804px;stroke-linecap:butt;stroke-linejoin:miter;stroke-opacity:1"
       d="m 59.710161,144.8667 c -10.611226,3.99222 -10.923332,3.99222 -11.547512,7.15273 l -17.789435,-6.65371 4.681423,-3.32684 -14.35637,-7.65177 4.369329,-3.32685 14.356383,8.48348 5.305615,-2.3288 c 0,0 17.789431,4.15856 14.66848,7.15273"
       id="path51"
       inkscape:connector-curvature="0" />
    <path
       style="fill:none;stroke:#000000;stroke-width:0.22555804px;stroke-linecap:butt;stroke-linejoin:miter;stroke-opacity:1"
       d="m 39.553257,188.59453 c -12.483808,-14.30546 11.23542,-50.23547 18.72571,-51.23352 7.490289,-0.99807 43.069153,-0.66538 43.069153,-0.66538 0,0 43.06913,48.23935 6.24189,45.91056"
       id="path53"
       inkscape:connector-curvature="0" />
    <path
       style="fill:none;stroke:#000000;stroke-width:0.22555804px;stroke-linecap:butt;stroke-linejoin:miter;stroke-opacity:1"
       d="m 39.553257,188.59453 c 0,0 53.680381,-20.2938 51.807805,-28.94362"
       id="path55"
       inkscape:connector-curvature="0" />
    <path
       style="fill:none;stroke:#000000;stroke-width:0.22555804px;stroke-linecap:butt;stroke-linejoin:miter;stroke-opacity:1"
       d="m 107.59001,182.60619 c 0,0 -31.209513,-38.92417 -23.095051,-45.57787"
       id="path57"
       inkscape:connector-curvature="0" />
    <path
       style="fill:none;stroke:#000000;stroke-width:0.22555804px;stroke-linecap:butt;stroke-linejoin:miter;stroke-opacity:1"
       d="M 35.964161,177.78226 C 70.138596,168.79975 85.431248,159.9836 87.615924,153.08037"
       id="path63"
       inkscape:connector-curvature="0" />
    <path
       style="fill:none;stroke:#000000;stroke-width:0.22555804px;stroke-linecap:butt;stroke-linejoin:miter;stroke-opacity:1"
       d="M 37.524639,167.96804 C 52.817311,166.0551 77.628871,145.67813 84.182873,145.67813"
       id="path65"
       inkscape:connector-curvature="0" />
    <path
       style="fill:none;stroke:#000000;stroke-width:0.22555804px;stroke-linecap:butt;stroke-linejoin:miter;stroke-opacity:1"
       d="m 41.893968,157.40528 c 9.20681,-8.98249 16.541056,-20.95916 27.932527,-20.62648"
       id="path67"
       inkscape:connector-curvature="0" />
    <path
       style="fill:#6f917c;stroke-width:0.22784805"
       d="m 38.672086,186.86321 c -1.356281,-2.25751 -1.935608,-4.07813 -2.129941,-6.6937 l -0.173021,-2.3288 2.457777,-0.64118 c 6.710566,-1.75062 17.646525,-5.20193 23.505649,-7.41822 7.90759,-2.99115 15.109673,-6.52816 19.153733,-9.40657 2.155921,-1.5345 5.362355,-4.73168 5.713725,-5.69723 0.108183,-0.29734 0.284523,-0.54044 0.391805,-0.54021 0.107309,1.8e-4 0.897208,1.17919 1.755394,2.6199 2.047998,3.43816 2.081561,4.2021 0.272628,6.20285 -2.327369,2.57414 -5.752441,4.96187 -12.128952,8.45547 -8.168248,4.47525 -19.197516,9.49997 -32.837481,14.96008 l -5.05785,2.02467 z"
       id="path3830"
       inkscape:connector-curvature="0" />
    <path
       style="fill:#6f917c;stroke-width:0.22784805"
       d="m 36.45055,175.80301 c 0.0035,-1.43681 0.526443,-4.66609 1.117026,-6.89075 0.204422,-0.77003 0.224517,-0.78126 2.046624,-1.14445 5.86209,-1.16846 14.046241,-5.12329 28.207875,-13.63092 3.731102,-2.24147 7.994005,-4.73469 9.473117,-5.54049 2.63149,-1.43361 6.103563,-2.85386 6.587272,-2.69452 0.13381,0.0441 0.341469,0.43661 0.461461,0.8723 0.119977,0.4357 0.836214,2.09237 1.591562,3.6815 l 1.37336,2.88931 -0.969719,1.55869 c -1.82224,2.92896 -5.076273,5.46838 -11.178686,8.72371 -6.163391,3.28788 -13.718183,6.31213 -23.784852,9.52129 -3.37842,1.07701 -14.458864,4.27617 -14.810721,4.27617 -0.06469,0 -0.116191,-0.72982 -0.114313,-1.62184 z"
       id="path3832"
       inkscape:connector-curvature="0" />
    <path
       style="fill:#6f917c;stroke-width:0.22784805"
       d="m 108.37049,182.47777 c -0.35137,-0.0423 -0.78919,-0.27956 -0.97296,-0.52723 -0.18376,-0.24766 -1.6698,-2.20937 -3.30232,-4.35934 -7.84116,-10.32663 -14.204334,-20.18291 -17.558265,-27.19702 -1.998887,-4.18029 -2.683601,-6.34367 -2.869304,-9.06567 -0.144002,-2.11075 -0.0878,-2.53215 0.450191,-3.37436 0.367794,-0.57576 0.475992,-0.93889 0.269322,-0.9039 -0.189983,0.0322 -0.585063,0.42782 -0.877929,0.87922 -0.798329,1.23042 -0.680274,4.96614 0.226529,7.16874 0.121579,0.29522 -0.117356,0.42799 -1.33345,0.74096 -1.940427,0.49942 -6.701601,3.04472 -14.743552,7.88187 -11.453309,6.88902 -16.94161,9.81683 -22.318372,11.90607 -2.502745,0.97249 -7.119338,2.24151 -7.271175,1.99872 -0.174831,-0.27954 1.441534,-4.75183 2.682852,-7.42311 1.151032,-2.47699 1.189928,-2.52446 7.766581,-9.47585 3.848205,-4.06749 7.554583,-7.74803 8.871187,-8.80936 2.636892,-2.12563 5.728328,-3.8478 7.924028,-4.41432 2.135914,-0.5511 5.19858,-0.64267 21.921595,-0.65541 l 13.804962,-0.0105 0.75041,0.79013 c 0.41274,0.43457 2.01153,2.36206 3.55289,4.28332 8.48184,10.57242 14.04734,19.96188 16.17004,27.28019 0.71523,2.46586 0.73336,6.58921 0.0357,8.10919 -1.10326,2.40351 -3.71382,4.21432 -6.94886,4.82007 -1.56916,0.29383 -5.08417,0.4956 -6.23004,0.35761 z"
       id="path3834"
       inkscape:connector-curvature="0" />
    <path
       style="fill:#6f917c;stroke-width:0.22784805"
       d="m 43.194864,155.30129 c 0.38022,-1.09695 3.608246,-6.23721 5.640892,-8.9825 3.237653,-4.37276 6.952461,-7.97783 8.891549,-8.62887 0.651021,-0.21859 4.00255,-0.51703 5.825082,-0.51872 l 1.35733,-9.2e-4 -1.82546,0.73204 c -4.045153,1.62214 -7.189881,4.23204 -14.547425,12.07328 -3.049074,3.24952 -5.452959,5.64623 -5.341968,5.32603 z"
       id="path3836"
       inkscape:connector-curvature="0" />
    <path
       style="fill:#e6e6e6;stroke-width:0.45569611"
       d="m 102.61291,137.48898 -0.78225,-1.00655 -15.060881,-0.005 c -8.283493,-0.003 -19.564713,0.17417 -25.06938,0.39301 -11.770446,0.46797 -15.096343,0.23169 -21.940499,-1.55866 -7.588434,-1.98505 -12.732382,-5.9875 -14.832023,-11.54065 -1.261076,-3.33529 -1.256795,-10.34088 0.0091,-14.69564 1.904467,-6.55213 6.698365,-15.062116 10.567062,-18.758355 l 1.485187,-1.419019 -1.532268,-1.846656 c -2.161848,-2.605411 -5.526925,-8.721226 -6.849534,-12.448593 -1.462945,-4.122869 -1.49688,-11.505876 -0.06842,-14.885973 1.270367,-3.006007 3.635573,-6.03648 6.52139,-8.355673 2.789679,-2.24193 10.23022,-6.124039 16.643591,-8.683808 7.861579,-3.137789 10.372626,-3.072168 7.563966,0.197667 -2.152935,2.506431 -5.565151,4.907191 -12.232029,8.606165 -5.59146,3.102302 -7.174519,4.273696 -6.528506,4.830811 0.615162,0.530508 4.902094,0.373314 9.143225,-0.335269 5.409852,-0.903845 5.678039,-0.845367 2.067075,0.450731 -4.356471,1.563686 -7.58877,3.578232 -8.447495,5.264941 -1.027471,2.018157 -0.383945,6.966412 1.219125,9.37422 1.800894,2.704936 6.287291,7.368255 9.697993,10.080407 l 2.857087,2.271938 14.510456,0.348873 c 7.980755,0.191879 15.194019,0.258624 16.029492,0.148315 4.236986,-0.559414 7.328918,-4.939138 6.692325,-9.479689 -0.515072,-3.673747 -1.117099,-4.58863 -5.316547,-8.079334 -4.242724,-3.526678 -5.375168,-4.836536 -4.832796,-5.589863 0.336592,-0.467517 1.1346,-0.508622 5.939337,-0.305939 5.214917,0.219989 5.574615,0.193648 5.949355,-0.435654 0.508884,-0.854559 -0.03057,-1.994389 -2.285667,-4.829245 -0.994515,-1.2502 -1.721571,-2.672429 -1.615674,-3.16051 0.163789,-0.754908 0.464533,-0.876922 2.014088,-0.817122 7.133275,0.275285 15.885455,9.947016 18.761365,20.732521 1.1456,4.296322 1.18018,11.296897 0.0722,14.628157 -0.72328,2.174782 -0.71063,2.532126 0.0986,2.783214 1.41398,0.438716 6.10812,5.994062 7.90882,9.359791 2.09114,3.908621 3.49391,8.982211 3.40337,12.309361 l -0.0724,2.66148 -0.52806,-1.92336 c -0.60348,-2.19798 -2.20171,-4.20333 -3.57363,-4.48392 -1.50249,-0.3073 -3.69292,1.3802 -4.50809,3.47303 -1.15353,2.96161 -0.52597,9.20587 1.12245,11.16821 1.35719,1.61564 2.83371,2.01253 4.39377,1.18103 0.58259,-0.3105 0.75108,-0.29202 0.75826,0.0832 0.0221,1.15712 -4.17601,7.16582 -7.10865,10.17448 -2.88962,2.96449 -3.47195,3.35121 -6.00857,3.99018 -4.95438,1.24797 -5.36181,1.25664 -6.23531,0.13266 z M 85.801881,125.08011 c 2.728811,-0.98013 5.296599,-3.73892 6.25336,-6.71848 1.418265,-4.41686 -1.240993,-9.94631 -5.757668,-11.97194 -1.42387,-0.63858 -2.594245,-0.84699 -4.756528,-0.84699 -2.56594,0 -3.136064,0.1502 -5.413782,1.42623 -3.157496,1.76892 -4.727844,3.97366 -5.176957,7.2684 -1.071539,7.86094 6.916583,13.69287 14.851575,10.84278 z"
       id="path58"
       inkscape:connector-curvature="0" />
  </g>
</svg>
